<svg xmlns="http://www.w3.org/2000/svg" width="320" height="40" viewBox="0 0 320 40" fill="none"><circle cx="33.5" cy="10" r="9" fill="#85BF55" stroke="#85BF55" stroke-width="2"></circle><path d="M28.4998 10.5L31.8292 14L38.4998 7" stroke="white" stroke-width="1.5" stroke-linecap="round" stroke-linejoin="round"></path><path d="M4.338 37.18C3.478 37.18 2.752 36.99 2.16 36.61C1.568 36.226 1.12 35.696 0.816 35.02C0.512 34.344 0.36 33.564 0.36 32.68C0.36 31.796 0.512 31.016 0.816 30.34C1.12 29.664 1.568 29.136 2.16 28.756C2.752 28.372 3.478 28.18 4.338 28.18C5.342 28.18 6.162 28.438 6.798 28.954C7.434 29.466 7.87 30.154 8.106 31.018L7.206 31.252C7.022 30.568 6.692 30.026 6.216 29.626C5.74 29.226 5.114 29.026 4.338 29.026C3.662 29.026 3.1 29.18 2.652 29.488C2.204 29.796 1.866 30.226 1.638 30.778C1.414 31.326 1.298 31.96 1.29 32.68C1.286 33.4 1.396 34.034 1.62 34.582C1.848 35.13 2.188 35.56 2.64 35.872C3.096 36.18 3.662 36.334 4.338 36.334C5.114 36.334 5.74 36.134 6.216 35.734C6.692 35.33 7.022 34.788 7.206 34.108L8.106 34.342C7.87 35.206 7.434 35.896 6.798 36.412C6.162 36.924 5.342 37.18 4.338 37.18ZM11.2838 37.18C10.7958 37.18 10.3858 37.092 10.0538 36.916C9.72584 36.74 9.47984 36.506 9.31584 36.214C9.15184 35.922 9.06984 35.604 9.06984 35.26C9.06984 34.908 9.13984 34.608 9.27984 34.36C9.42384 34.108 9.61784 33.902 9.86184 33.742C10.1098 33.582 10.3958 33.46 10.7198 33.376C11.0478 33.296 11.4098 33.226 11.8058 33.166C12.2058 33.102 12.5958 33.048 12.9758 33.004C13.3598 32.956 13.6958 32.91 13.9838 32.866L13.6718 33.058C13.6838 32.418 13.5598 31.944 13.2998 31.636C13.0398 31.328 12.5878 31.174 11.9438 31.174C11.4998 31.174 11.1238 31.274 10.8158 31.474C10.5118 31.674 10.2978 31.99 10.1738 32.422L9.31584 32.17C9.46384 31.59 9.76184 31.14 10.2098 30.82C10.6578 30.5 11.2398 30.34 11.9558 30.34C12.5478 30.34 13.0498 30.452 13.4618 30.676C13.8778 30.896 14.1718 31.216 14.3438 31.636C14.4238 31.824 14.4758 32.034 14.4998 32.266C14.5238 32.498 14.5358 32.734 14.5358 32.974V37H13.7498V35.374L13.9778 35.47C13.7578 36.026 13.4158 36.45 12.9518 36.742C12.4878 37.034 11.9318 37.18 11.2838 37.18ZM11.3858 36.418C11.7978 36.418 12.1578 36.344 12.4658 36.196C12.7738 36.048 13.0218 35.846 13.2098 35.59C13.3978 35.33 13.5198 35.038 13.5758 34.714C13.6238 34.506 13.6498 34.278 13.6538 34.03C13.6578 33.778 13.6598 33.59 13.6598 33.466L13.9958 33.64C13.6958 33.68 13.3698 33.72 13.0178 33.76C12.6698 33.8 12.3258 33.846 11.9858 33.898C11.6498 33.95 11.3458 34.012 11.0738 34.084C10.8898 34.136 10.7118 34.21 10.5398 34.306C10.3678 34.398 10.2258 34.522 10.1138 34.678C10.0058 34.834 9.95184 35.028 9.95184 35.26C9.95184 35.448 9.99784 35.63 10.0898 35.806C10.1858 35.982 10.3378 36.128 10.5458 36.244C10.7578 36.36 11.0378 36.418 11.3858 36.418ZM16.0978 37V30.52H16.8898V32.08L16.7338 31.876C16.8058 31.684 16.8998 31.508 17.0158 31.348C17.1318 31.184 17.2578 31.05 17.3938 30.946C17.5618 30.798 17.7578 30.686 17.9818 30.61C18.2058 30.53 18.4318 30.484 18.6598 30.472C18.8878 30.456 19.0958 30.472 19.2838 30.52V31.348C19.0478 31.288 18.7898 31.274 18.5098 31.306C18.2298 31.338 17.9718 31.45 17.7358 31.642C17.5198 31.81 17.3578 32.012 17.2498 32.248C17.1418 32.48 17.0698 32.728 17.0338 32.992C16.9978 33.252 16.9798 33.51 16.9798 33.766V37H16.0978ZM23.95 37C23.586 37.076 23.226 37.106 22.87 37.09C22.518 37.074 22.202 36.998 21.922 36.862C21.646 36.726 21.436 36.514 21.292 36.226C21.176 35.986 21.112 35.744 21.1 35.5C21.092 35.252 21.088 34.97 21.088 34.654V28.72H21.964V34.618C21.964 34.89 21.966 35.118 21.97 35.302C21.978 35.482 22.02 35.642 22.096 35.782C22.24 36.05 22.468 36.21 22.78 36.262C23.096 36.314 23.486 36.302 23.95 36.226V37ZM19.702 31.276V30.52H23.95V31.276H19.702ZM27.6291 37V28.36H30.9651C31.0491 28.36 31.1431 28.364 31.2471 28.372C31.3551 28.376 31.4631 28.388 31.5711 28.408C32.0231 28.476 32.4051 28.634 32.7171 28.882C33.0331 29.126 33.2711 29.434 33.4311 29.806C33.5951 30.178 33.6771 30.59 33.6771 31.042C33.6771 31.694 33.5051 32.26 33.1611 32.74C32.8171 33.22 32.3251 33.522 31.6851 33.646L31.3791 33.718H28.5111V37H27.6291ZM32.8611 37L31.1571 33.484L32.0031 33.16L33.8751 37H32.8611ZM28.5111 32.878H30.9411C31.0131 32.878 31.0971 32.874 31.1931 32.866C31.2891 32.858 31.3831 32.844 31.4751 32.824C31.7711 32.76 32.0131 32.638 32.2011 32.458C32.3931 32.278 32.5351 32.064 32.6271 31.816C32.7231 31.568 32.7711 31.31 32.7711 31.042C32.7711 30.774 32.7231 30.516 32.6271 30.268C32.5351 30.016 32.3931 29.8 32.2011 29.62C32.0131 29.44 31.7711 29.318 31.4751 29.254C31.3831 29.234 31.2891 29.222 31.1931 29.218C31.0971 29.21 31.0131 29.206 30.9411 29.206H28.5111V32.878ZM37.9414 37.18C37.3094 37.18 36.7614 37.04 36.2974 36.76C35.8374 36.48 35.4794 36.086 35.2234 35.578C34.9674 35.07 34.8394 34.474 34.8394 33.79C34.8394 33.082 34.9654 32.47 35.2174 31.954C35.4694 31.438 35.8234 31.04 36.2794 30.76C36.7394 30.48 37.2814 30.34 37.9054 30.34C38.5454 30.34 39.0914 30.488 39.5434 30.784C39.9954 31.076 40.3374 31.496 40.5694 32.044C40.8014 32.592 40.9074 33.246 40.8874 34.006H39.9874V33.694C39.9714 32.854 39.7894 32.22 39.4414 31.792C39.0974 31.364 38.5934 31.15 37.9294 31.15C37.2334 31.15 36.6994 31.376 36.3274 31.828C35.9594 32.28 35.7754 32.924 35.7754 33.76C35.7754 34.576 35.9594 35.21 36.3274 35.662C36.6994 36.11 37.2254 36.334 37.9054 36.334C38.3694 36.334 38.7734 36.228 39.1174 36.016C39.4654 35.8 39.7394 35.49 39.9394 35.086L40.7614 35.404C40.5054 35.968 40.1274 36.406 39.6274 36.718C39.1314 37.026 38.5694 37.18 37.9414 37.18ZM35.4634 34.006V33.268H40.4134V34.006H35.4634ZM43.7365 37L41.3845 30.52H42.2785L44.1925 35.848L46.0945 30.52H47.0005L44.6485 37H43.7365ZM48.1983 29.29V28.3H49.0803V29.29H48.1983ZM48.1983 37V30.52H49.0803V37H48.1983ZM53.6211 37.18C52.9891 37.18 52.4411 37.04 51.9771 36.76C51.5171 36.48 51.1591 36.086 50.9031 35.578C50.6471 35.07 50.5191 34.474 50.5191 33.79C50.5191 33.082 50.6451 32.47 50.8971 31.954C51.1491 31.438 51.5031 31.04 51.9591 30.76C52.4191 30.48 52.9611 30.34 53.5851 30.34C54.2251 30.34 54.7711 30.488 55.2231 30.784C55.6751 31.076 56.0171 31.496 56.2491 32.044C56.4811 32.592 56.5871 33.246 56.5671 34.006H55.6671V33.694C55.6511 32.854 55.4691 32.22 55.1211 31.792C54.7771 31.364 54.2731 31.15 53.6091 31.15C52.9131 31.15 52.3791 31.376 52.0071 31.828C51.6391 32.28 51.4551 32.924 51.4551 33.76C51.4551 34.576 51.6391 35.21 52.0071 35.662C52.3791 36.11 52.9051 36.334 53.5851 36.334C54.0491 36.334 54.4531 36.228 54.7971 36.016C55.1451 35.8 55.4191 35.49 55.6191 35.086L56.4411 35.404C56.1851 35.968 55.8071 36.406 55.3071 36.718C54.8111 37.026 54.2491 37.18 53.6211 37.18ZM51.1431 34.006V33.268H56.0931V34.006H51.1431ZM59.0442 37L57.0642 30.514L57.9462 30.52L59.4822 35.554L61.0242 30.52H61.8282L63.3702 35.554L64.9182 30.52H65.7942L63.8142 37H63.0462L61.4262 31.84L59.8122 37H59.0442Z" fill="black"></path><circle cx="110.833" cy="10" r="9" fill="#85BF55" stroke="#85BF55" stroke-width="2"></circle><path d="M105.833 10.5L109.162 14L115.833 7" stroke="white" stroke-width="1.5" stroke-linecap="round" stroke-linejoin="round"></path><path d="M87.6713 37.18C86.8113 37.18 86.0853 36.99 85.4933 36.61C84.9013 36.226 84.4533 35.696 84.1493 35.02C83.8453 34.344 83.6933 33.564 83.6933 32.68C83.6933 31.796 83.8453 31.016 84.1493 30.34C84.4533 29.664 84.9013 29.136 85.4933 28.756C86.0853 28.372 86.8113 28.18 87.6713 28.18C88.6753 28.18 89.4953 28.438 90.1313 28.954C90.7673 29.466 91.2033 30.154 91.4393 31.018L90.5393 31.252C90.3553 30.568 90.0253 30.026 89.5493 29.626C89.0733 29.226 88.4473 29.026 87.6713 29.026C86.9953 29.026 86.4333 29.18 85.9853 29.488C85.5373 29.796 85.1993 30.226 84.9713 30.778C84.7473 31.326 84.6313 31.96 84.6233 32.68C84.6193 33.4 84.7293 34.034 84.9533 34.582C85.1813 35.13 85.5213 35.56 85.9733 35.872C86.4293 36.18 86.9953 36.334 87.6713 36.334C88.4473 36.334 89.0733 36.134 89.5493 35.734C90.0253 35.33 90.3553 34.788 90.5393 34.108L91.4393 34.342C91.2033 35.206 90.7673 35.896 90.1313 36.412C89.4953 36.924 88.6753 37.18 87.6713 37.18ZM97.4432 37V33.694C97.4432 33.334 97.4092 33.004 97.3412 32.704C97.2732 32.4 97.1632 32.136 97.0112 31.912C96.8632 31.684 96.6692 31.508 96.4292 31.384C96.1932 31.26 95.9052 31.198 95.5652 31.198C95.2532 31.198 94.9772 31.252 94.7372 31.36C94.5012 31.468 94.3012 31.624 94.1372 31.828C93.9772 32.028 93.8552 32.272 93.7712 32.56C93.6872 32.848 93.6452 33.176 93.6452 33.544L93.0212 33.406C93.0212 32.742 93.1372 32.184 93.3692 31.732C93.6012 31.28 93.9212 30.938 94.3292 30.706C94.7372 30.474 95.2052 30.358 95.7332 30.358C96.1212 30.358 96.4592 30.418 96.7472 30.538C97.0392 30.658 97.2852 30.82 97.4852 31.024C97.6892 31.228 97.8532 31.462 97.9772 31.726C98.1012 31.986 98.1912 32.264 98.2472 32.56C98.3032 32.852 98.3312 33.144 98.3312 33.436V37H97.4432ZM92.7572 37V28.36H93.5552V33.238H93.6452V37H92.7572ZM102.63 37.18C101.998 37.18 101.45 37.04 100.986 36.76C100.526 36.48 100.168 36.086 99.9122 35.578C99.6562 35.07 99.5282 34.474 99.5282 33.79C99.5282 33.082 99.6542 32.47 99.9062 31.954C100.158 31.438 100.512 31.04 100.968 30.76C101.428 30.48 101.97 30.34 102.594 30.34C103.234 30.34 103.78 30.488 104.232 30.784C104.684 31.076 105.026 31.496 105.258 32.044C105.49 32.592 105.596 33.246 105.576 34.006H104.676V33.694C104.66 32.854 104.478 32.22 104.13 31.792C103.786 31.364 103.282 31.15 102.618 31.15C101.922 31.15 101.388 31.376 101.016 31.828C100.648 32.28 100.464 32.924 100.464 33.76C100.464 34.576 100.648 35.21 101.016 35.662C101.388 36.11 101.914 36.334 102.594 36.334C103.058 36.334 103.462 36.228 103.806 36.016C104.154 35.8 104.428 35.49 104.628 35.086L105.45 35.404C105.194 35.968 104.816 36.406 104.316 36.718C103.82 37.026 103.258 37.18 102.63 37.18ZM100.152 34.006V33.268H105.102V34.006H100.152ZM109.596 37.18C108.944 37.18 108.392 37.034 107.94 36.742C107.488 36.45 107.144 36.048 106.908 35.536C106.676 35.02 106.556 34.428 106.548 33.76C106.556 33.08 106.68 32.484 106.92 31.972C107.16 31.456 107.506 31.056 107.958 30.772C108.41 30.484 108.958 30.34 109.602 30.34C110.258 30.34 110.828 30.5 111.312 30.82C111.8 31.14 112.134 31.578 112.314 32.134L111.45 32.41C111.298 32.022 111.056 31.722 110.724 31.51C110.396 31.294 110.02 31.186 109.596 31.186C109.12 31.186 108.726 31.296 108.414 31.516C108.102 31.732 107.87 32.034 107.718 32.422C107.566 32.81 107.488 33.256 107.484 33.76C107.492 34.536 107.672 35.16 108.024 35.632C108.376 36.1 108.9 36.334 109.596 36.334C110.036 36.334 110.41 36.234 110.718 36.034C111.03 35.83 111.266 35.534 111.426 35.146L112.314 35.41C112.074 35.986 111.722 36.426 111.258 36.73C110.794 37.03 110.24 37.18 109.596 37.18ZM113.546 37L113.552 28.36H114.44V33.64L117.332 30.52H118.508L115.472 33.76L118.904 37H117.62L114.44 33.88V37H113.546ZM122.094 37.18C121.45 37.18 120.9 37.034 120.444 36.742C119.988 36.45 119.638 36.046 119.394 35.53C119.15 35.014 119.028 34.422 119.028 33.754C119.028 33.074 119.152 32.478 119.4 31.966C119.648 31.454 120 31.056 120.456 30.772C120.916 30.484 121.462 30.34 122.094 30.34C122.742 30.34 123.294 30.486 123.75 30.778C124.21 31.066 124.56 31.468 124.8 31.984C125.044 32.496 125.166 33.086 125.166 33.754C125.166 34.434 125.044 35.032 124.8 35.548C124.556 36.06 124.204 36.46 123.744 36.748C123.284 37.036 122.734 37.18 122.094 37.18ZM122.094 36.334C122.814 36.334 123.35 36.096 123.702 35.62C124.054 35.14 124.23 34.518 124.23 33.754C124.23 32.97 124.052 32.346 123.696 31.882C123.344 31.418 122.81 31.186 122.094 31.186C121.61 31.186 121.21 31.296 120.894 31.516C120.582 31.732 120.348 32.034 120.192 32.422C120.04 32.806 119.964 33.25 119.964 33.754C119.964 34.534 120.144 35.16 120.504 35.632C120.864 36.1 121.394 36.334 122.094 36.334ZM128.968 37.162C128.58 37.162 128.24 37.102 127.948 36.982C127.66 36.862 127.414 36.7 127.21 36.496C127.01 36.292 126.848 36.06 126.724 35.8C126.6 35.536 126.51 35.258 126.454 34.966C126.398 34.67 126.37 34.376 126.37 34.084V30.52H127.258V33.826C127.258 34.182 127.292 34.512 127.36 34.816C127.428 35.12 127.536 35.386 127.684 35.614C127.836 35.838 128.03 36.012 128.266 36.136C128.506 36.26 128.796 36.322 129.136 36.322C129.448 36.322 129.722 36.268 129.958 36.16C130.198 36.052 130.398 35.898 130.558 35.698C130.722 35.494 130.846 35.248 130.93 34.96C131.014 34.668 131.056 34.34 131.056 33.976L131.68 34.114C131.68 34.778 131.564 35.336 131.332 35.788C131.1 36.24 130.78 36.582 130.372 36.814C129.964 37.046 129.496 37.162 128.968 37.162ZM131.146 37V35.404H131.056V30.52H131.938V37H131.146ZM137.143 37C136.779 37.076 136.419 37.106 136.063 37.09C135.711 37.074 135.395 36.998 135.115 36.862C134.839 36.726 134.629 36.514 134.485 36.226C134.369 35.986 134.305 35.744 134.293 35.5C134.285 35.252 134.281 34.97 134.281 34.654V28.72H135.157V34.618C135.157 34.89 135.159 35.118 135.163 35.302C135.171 35.482 135.213 35.642 135.289 35.782C135.433 36.05 135.661 36.21 135.973 36.262C136.289 36.314 136.679 36.302 137.143 36.226V37ZM132.895 31.276V30.52H137.143V31.276H132.895Z" fill="black"></path><circle cx="192.167" cy="10" r="9" fill="#2C7EF8" stroke="#2C7EF8" stroke-width="2"></circle><path d="M191.856 15.203C191.356 15.203 190.897 15.1143 190.477 14.937C190.057 14.7597 189.695 14.5077 189.392 14.181C189.088 13.8497 188.867 13.4553 188.727 12.998L189.707 12.704C189.875 13.2033 190.15 13.5813 190.533 13.838C190.92 14.0947 191.356 14.2183 191.842 14.209C192.29 14.1997 192.675 14.0993 192.997 13.908C193.323 13.7167 193.573 13.4507 193.746 13.11C193.918 12.7693 194.005 12.375 194.005 11.927C194.005 11.241 193.804 10.6903 193.403 10.275C193.006 9.855 192.481 9.645 191.828 9.645C191.646 9.645 191.454 9.67067 191.254 9.722C191.053 9.76867 190.866 9.83633 190.694 9.925L190.176 9.106L194.096 5.487L194.264 5.907H189.126V4.92H194.95V5.921L191.534 9.183L191.52 8.777C192.22 8.68833 192.836 8.76767 193.368 9.015C193.9 9.26233 194.315 9.64033 194.614 10.149C194.917 10.653 195.069 11.2457 195.069 11.927C195.069 12.571 194.929 13.1403 194.649 13.635C194.373 14.125 193.993 14.51 193.508 14.79C193.022 15.0653 192.472 15.203 191.856 15.203Z" fill="white"></path><path d="M158.705 37.18C158.073 37.18 157.503 37.07 156.995 36.85C156.491 36.63 156.075 36.316 155.747 35.908C155.423 35.496 155.217 35.008 155.129 34.444L156.629 34.216C156.757 34.728 157.019 35.124 157.415 35.404C157.815 35.684 158.275 35.824 158.795 35.824C159.103 35.824 159.393 35.776 159.665 35.68C159.937 35.584 160.157 35.444 160.325 35.26C160.497 35.076 160.583 34.85 160.583 34.582C160.583 34.462 160.563 34.352 160.523 34.252C160.483 34.148 160.423 34.056 160.343 33.976C160.267 33.896 160.167 33.824 160.043 33.76C159.923 33.692 159.783 33.634 159.623 33.586L157.391 32.926C157.199 32.87 156.991 32.796 156.767 32.704C156.547 32.608 156.337 32.478 156.137 32.314C155.941 32.146 155.779 31.934 155.651 31.678C155.527 31.418 155.465 31.098 155.465 30.718C155.465 30.162 155.605 29.696 155.885 29.32C156.169 28.94 156.549 28.656 157.025 28.468C157.505 28.28 158.037 28.188 158.621 28.192C159.213 28.196 159.741 28.298 160.205 28.498C160.669 28.694 161.057 28.98 161.369 29.356C161.681 29.732 161.901 30.186 162.029 30.718L160.475 30.988C160.411 30.684 160.287 30.426 160.103 30.214C159.923 29.998 159.701 29.834 159.437 29.722C159.177 29.61 158.899 29.55 158.603 29.542C158.315 29.538 158.047 29.582 157.799 29.674C157.555 29.762 157.357 29.89 157.205 30.058C157.057 30.226 156.983 30.422 156.983 30.646C156.983 30.858 157.047 31.032 157.175 31.168C157.303 31.3 157.461 31.406 157.649 31.486C157.841 31.562 158.035 31.626 158.231 31.678L159.779 32.11C159.991 32.166 160.229 32.242 160.493 32.338C160.757 32.434 161.011 32.568 161.255 32.74C161.499 32.912 161.699 33.138 161.855 33.418C162.015 33.698 162.095 34.054 162.095 34.486C162.095 34.934 162.001 35.328 161.813 35.668C161.629 36.004 161.379 36.284 161.063 36.508C160.747 36.732 160.385 36.9 159.977 37.012C159.573 37.124 159.149 37.18 158.705 37.18ZM166.507 37.18C165.875 37.18 165.345 37.03 164.917 36.73C164.489 36.43 164.167 36.022 163.951 35.506C163.735 34.986 163.627 34.404 163.627 33.76C163.627 33.108 163.735 32.524 163.951 32.008C164.167 31.492 164.483 31.086 164.899 30.79C165.319 30.49 165.837 30.34 166.453 30.34C167.065 30.34 167.595 30.49 168.043 30.79C168.495 31.086 168.845 31.492 169.093 32.008C169.341 32.52 169.465 33.104 169.465 33.76C169.465 34.408 169.343 34.99 169.099 35.506C168.855 36.022 168.511 36.43 168.067 36.73C167.623 37.03 167.103 37.18 166.507 37.18ZM163.381 39.88V30.52H164.659V35.068H164.839V39.88H163.381ZM166.285 35.884C166.661 35.884 166.971 35.79 167.215 35.602C167.459 35.414 167.639 35.16 167.755 34.84C167.875 34.516 167.935 34.156 167.935 33.76C167.935 33.368 167.875 33.012 167.755 32.692C167.635 32.368 167.449 32.112 167.197 31.924C166.945 31.732 166.625 31.636 166.237 31.636C165.869 31.636 165.569 31.726 165.337 31.906C165.105 32.082 164.933 32.33 164.821 32.65C164.713 32.966 164.659 33.336 164.659 33.76C164.659 34.18 164.713 34.55 164.821 34.87C164.933 35.19 165.107 35.44 165.343 35.62C165.583 35.796 165.897 35.884 166.285 35.884ZM173.734 37.18C173.078 37.18 172.502 37.038 172.006 36.754C171.51 36.47 171.122 36.076 170.842 35.572C170.566 35.068 170.428 34.488 170.428 33.832C170.428 33.124 170.564 32.51 170.836 31.99C171.108 31.466 171.486 31.06 171.97 30.772C172.454 30.484 173.014 30.34 173.65 30.34C174.322 30.34 174.892 30.498 175.36 30.814C175.832 31.126 176.182 31.568 176.41 32.14C176.638 32.712 176.724 33.386 176.668 34.162H175.234V33.634C175.23 32.93 175.106 32.416 174.862 32.092C174.618 31.768 174.234 31.606 173.71 31.606C173.118 31.606 172.678 31.79 172.39 32.158C172.102 32.522 171.958 33.056 171.958 33.76C171.958 34.416 172.102 34.924 172.39 35.284C172.678 35.644 173.098 35.824 173.65 35.824C174.006 35.824 174.312 35.746 174.568 35.59C174.828 35.43 175.028 35.2 175.168 34.9L176.596 35.332C176.348 35.916 175.964 36.37 175.444 36.694C174.928 37.018 174.358 37.18 173.734 37.18ZM171.502 34.162V33.07H175.96V34.162H171.502ZM180.821 37.18C180.153 37.18 179.583 37.032 179.111 36.736C178.639 36.436 178.277 36.028 178.025 35.512C177.777 34.996 177.651 34.412 177.647 33.76C177.651 33.096 177.781 32.508 178.037 31.996C178.297 31.48 178.665 31.076 179.141 30.784C179.617 30.488 180.183 30.34 180.839 30.34C181.575 30.34 182.197 30.526 182.705 30.898C183.217 31.266 183.551 31.77 183.707 32.41L182.267 32.8C182.155 32.452 181.969 32.182 181.709 31.99C181.449 31.794 181.153 31.696 180.821 31.696C180.445 31.696 180.135 31.786 179.891 31.966C179.647 32.142 179.467 32.386 179.351 32.698C179.235 33.01 179.177 33.364 179.177 33.76C179.177 34.376 179.315 34.874 179.591 35.254C179.867 35.634 180.277 35.824 180.821 35.824C181.205 35.824 181.507 35.736 181.727 35.56C181.951 35.384 182.119 35.13 182.231 34.798L183.707 35.128C183.507 35.788 183.157 36.296 182.657 36.652C182.157 37.004 181.545 37.18 180.821 37.18ZM184.853 29.536V28.21H186.299V29.536H184.853ZM184.853 37V30.52H186.299V37H184.853ZM189.908 37.18C189.44 37.18 189.044 37.092 188.72 36.916C188.396 36.736 188.15 36.498 187.982 36.202C187.818 35.906 187.736 35.58 187.736 35.224C187.736 34.912 187.788 34.632 187.892 34.384C187.996 34.132 188.156 33.916 188.372 33.736C188.588 33.552 188.868 33.402 189.212 33.286C189.472 33.202 189.776 33.126 190.124 33.058C190.476 32.99 190.856 32.928 191.264 32.872C191.676 32.812 192.106 32.748 192.554 32.68L192.038 32.974C192.042 32.526 191.942 32.196 191.738 31.984C191.534 31.772 191.19 31.666 190.706 31.666C190.414 31.666 190.132 31.734 189.86 31.87C189.588 32.006 189.398 32.24 189.29 32.572L187.97 32.158C188.13 31.61 188.434 31.17 188.882 30.838C189.334 30.506 189.942 30.34 190.706 30.34C191.282 30.34 191.788 30.434 192.224 30.622C192.664 30.81 192.99 31.118 193.202 31.546C193.318 31.774 193.388 32.008 193.412 32.248C193.436 32.484 193.448 32.742 193.448 33.022V37H192.182V35.596L192.392 35.824C192.1 36.292 191.758 36.636 191.366 36.856C190.978 37.072 190.492 37.18 189.908 37.18ZM190.196 36.028C190.524 36.028 190.804 35.97 191.036 35.854C191.268 35.738 191.452 35.596 191.588 35.428C191.728 35.26 191.822 35.102 191.87 34.954C191.946 34.77 191.988 34.56 191.996 34.324C192.008 34.084 192.014 33.89 192.014 33.742L192.458 33.874C192.022 33.942 191.648 34.002 191.336 34.054C191.024 34.106 190.756 34.156 190.532 34.204C190.308 34.248 190.11 34.298 189.938 34.354C189.77 34.414 189.628 34.484 189.512 34.564C189.396 34.644 189.306 34.736 189.242 34.84C189.182 34.944 189.152 35.066 189.152 35.206C189.152 35.366 189.192 35.508 189.272 35.632C189.352 35.752 189.468 35.848 189.62 35.92C189.776 35.992 189.968 36.028 190.196 36.028ZM195.131 37V28.18H196.577V37H195.131ZM204.43 37.18C203.566 37.18 202.826 36.992 202.21 36.616C201.594 36.236 201.12 35.708 200.788 35.032C200.46 34.356 200.296 33.572 200.296 32.68C200.296 31.788 200.46 31.004 200.788 30.328C201.12 29.652 201.594 29.126 202.21 28.75C202.826 28.37 203.566 28.18 204.43 28.18C205.294 28.18 206.034 28.37 206.65 28.75C207.27 29.126 207.744 29.652 208.072 30.328C208.404 31.004 208.57 31.788 208.57 32.68C208.57 33.572 208.404 34.356 208.072 35.032C207.744 35.708 207.27 36.236 206.65 36.616C206.034 36.992 205.294 37.18 204.43 37.18ZM204.43 35.818C205.01 35.822 205.492 35.694 205.876 35.434C206.264 35.174 206.554 34.808 206.746 34.336C206.942 33.864 207.04 33.312 207.04 32.68C207.04 32.048 206.942 31.5 206.746 31.036C206.554 30.568 206.264 30.204 205.876 29.944C205.492 29.684 205.01 29.55 204.43 29.542C203.85 29.538 203.368 29.666 202.984 29.926C202.6 30.186 202.31 30.552 202.114 31.024C201.922 31.496 201.826 32.048 201.826 32.68C201.826 33.312 201.922 33.862 202.114 34.33C202.306 34.794 202.594 35.156 202.978 35.416C203.366 35.676 203.85 35.81 204.43 35.818ZM210.328 37V30.418C210.328 30.254 210.334 30.074 210.346 29.878C210.358 29.678 210.392 29.48 210.448 29.284C210.504 29.088 210.606 28.91 210.754 28.75C210.938 28.546 211.136 28.406 211.348 28.33C211.564 28.25 211.776 28.206 211.984 28.198C212.192 28.186 212.374 28.18 212.53 28.18H213.34V29.356H212.59C212.314 29.356 212.108 29.426 211.972 29.566C211.84 29.702 211.774 29.882 211.774 30.106V37H210.328ZM209.284 31.654V30.52H213.34V31.654H209.284ZM214.366 37V30.418C214.366 30.254 214.372 30.074 214.384 29.878C214.396 29.678 214.43 29.48 214.486 29.284C214.542 29.088 214.644 28.91 214.792 28.75C214.976 28.546 215.174 28.406 215.386 28.33C215.602 28.25 215.814 28.206 216.022 28.198C216.23 28.186 216.412 28.18 216.568 28.18H217.378V29.356H216.628C216.352 29.356 216.146 29.426 216.01 29.566C215.878 29.702 215.812 29.882 215.812 30.106V37H214.366ZM213.322 31.654V30.52H217.378V31.654H213.322ZM221.054 37.18C220.398 37.18 219.822 37.038 219.326 36.754C218.83 36.47 218.442 36.076 218.162 35.572C217.886 35.068 217.748 34.488 217.748 33.832C217.748 33.124 217.884 32.51 218.156 31.99C218.428 31.466 218.806 31.06 219.29 30.772C219.774 30.484 220.334 30.34 220.97 30.34C221.642 30.34 222.212 30.498 222.68 30.814C223.152 31.126 223.502 31.568 223.73 32.14C223.958 32.712 224.044 33.386 223.988 34.162H222.554V33.634C222.55 32.93 222.426 32.416 222.182 32.092C221.938 31.768 221.554 31.606 221.03 31.606C220.438 31.606 219.998 31.79 219.71 32.158C219.422 32.522 219.278 33.056 219.278 33.76C219.278 34.416 219.422 34.924 219.71 35.284C219.998 35.644 220.418 35.824 220.97 35.824C221.326 35.824 221.632 35.746 221.888 35.59C222.148 35.43 222.348 35.2 222.488 34.9L223.916 35.332C223.668 35.916 223.284 36.37 222.764 36.694C222.248 37.018 221.678 37.18 221.054 37.18ZM218.822 34.162V33.07H223.28V34.162H218.822ZM225.327 37V30.52H226.605V32.098L226.449 31.894C226.529 31.678 226.635 31.482 226.767 31.306C226.903 31.126 227.065 30.978 227.253 30.862C227.413 30.754 227.589 30.67 227.781 30.61C227.977 30.546 228.177 30.508 228.381 30.496C228.585 30.48 228.783 30.488 228.975 30.52V31.87C228.783 31.814 228.561 31.796 228.309 31.816C228.061 31.836 227.837 31.906 227.637 32.026C227.437 32.134 227.273 32.272 227.145 32.44C227.021 32.608 226.929 32.8 226.869 33.016C226.809 33.228 226.779 33.458 226.779 33.706V37H225.327Z" fill="black"></path><circle cx="283" cy="10" r="9.5" stroke="#2C7EF8"></circle><path d="M284.418 15V13.047H279.7V12.067L283.074 4.92003H284.229L280.855 12.067H284.418V9.12703H285.454V12.067H286.553V13.047H285.454V15H284.418Z" fill="#2C7EF8"></path><path d="M250.338 37.18C249.478 37.18 248.752 36.99 248.16 36.61C247.568 36.226 247.12 35.696 246.816 35.02C246.512 34.344 246.36 33.564 246.36 32.68C246.36 31.796 246.512 31.016 246.816 30.34C247.12 29.664 247.568 29.136 248.16 28.756C248.752 28.372 249.478 28.18 250.338 28.18C251.342 28.18 252.162 28.438 252.798 28.954C253.434 29.466 253.87 30.154 254.106 31.018L253.206 31.252C253.022 30.568 252.692 30.026 252.216 29.626C251.74 29.226 251.114 29.026 250.338 29.026C249.662 29.026 249.1 29.18 248.652 29.488C248.204 29.796 247.866 30.226 247.638 30.778C247.414 31.326 247.298 31.96 247.29 32.68C247.286 33.4 247.396 34.034 247.62 34.582C247.848 35.13 248.188 35.56 248.64 35.872C249.096 36.18 249.662 36.334 250.338 36.334C251.114 36.334 251.74 36.134 252.216 35.734C252.692 35.33 253.022 34.788 253.206 34.108L254.106 34.342C253.87 35.206 253.434 35.896 252.798 36.412C252.162 36.924 251.342 37.18 250.338 37.18ZM258.136 37.18C257.492 37.18 256.942 37.034 256.486 36.742C256.03 36.45 255.68 36.046 255.436 35.53C255.192 35.014 255.07 34.422 255.07 33.754C255.07 33.074 255.194 32.478 255.442 31.966C255.69 31.454 256.042 31.056 256.498 30.772C256.958 30.484 257.504 30.34 258.136 30.34C258.784 30.34 259.336 30.486 259.792 30.778C260.252 31.066 260.602 31.468 260.842 31.984C261.086 32.496 261.208 33.086 261.208 33.754C261.208 34.434 261.086 35.032 260.842 35.548C260.598 36.06 260.246 36.46 259.786 36.748C259.326 37.036 258.776 37.18 258.136 37.18ZM258.136 36.334C258.856 36.334 259.392 36.096 259.744 35.62C260.096 35.14 260.272 34.518 260.272 33.754C260.272 32.97 260.094 32.346 259.738 31.882C259.386 31.418 258.852 31.186 258.136 31.186C257.652 31.186 257.252 31.296 256.936 31.516C256.624 31.732 256.39 32.034 256.234 32.422C256.082 32.806 256.006 33.25 256.006 33.754C256.006 34.534 256.186 35.16 256.546 35.632C256.906 36.1 257.436 36.334 258.136 36.334ZM267.211 37V33.694C267.211 33.334 267.177 33.004 267.109 32.704C267.041 32.4 266.931 32.136 266.779 31.912C266.631 31.684 266.437 31.508 266.197 31.384C265.961 31.26 265.673 31.198 265.333 31.198C265.021 31.198 264.745 31.252 264.505 31.36C264.269 31.468 264.069 31.624 263.905 31.828C263.745 32.028 263.623 32.272 263.539 32.56C263.455 32.848 263.413 33.176 263.413 33.544L262.789 33.406C262.789 32.742 262.905 32.184 263.137 31.732C263.369 31.28 263.689 30.938 264.097 30.706C264.505 30.474 264.973 30.358 265.501 30.358C265.889 30.358 266.227 30.418 266.515 30.538C266.807 30.658 267.053 30.82 267.253 31.024C267.457 31.228 267.621 31.462 267.745 31.726C267.869 31.986 267.959 32.264 268.015 32.56C268.071 32.852 268.099 33.144 268.099 33.436V37H267.211ZM262.525 37V30.52H263.323V32.116H263.413V37H262.525ZM270.298 37V30.04C270.298 29.872 270.306 29.706 270.322 29.542C270.342 29.378 270.38 29.222 270.436 29.074C270.492 28.922 270.58 28.782 270.7 28.654C270.832 28.51 270.976 28.406 271.132 28.342C271.288 28.274 271.45 28.23 271.618 28.21C271.79 28.19 271.958 28.18 272.122 28.18H272.95V28.924H272.182C271.846 28.924 271.594 29.006 271.426 29.17C271.262 29.334 271.18 29.592 271.18 29.944V37H270.298ZM269.176 31.276V30.52H272.95V31.276H269.176ZM274.21 29.29V28.3H275.092V29.29H274.21ZM274.21 37V30.52H275.092V37H274.21ZM276.887 37V30.52H277.679V32.08L277.523 31.876C277.595 31.684 277.689 31.508 277.805 31.348C277.921 31.184 278.047 31.05 278.183 30.946C278.351 30.798 278.547 30.686 278.771 30.61C278.995 30.53 279.221 30.484 279.449 30.472C279.677 30.456 279.885 30.472 280.073 30.52V31.348C279.837 31.288 279.579 31.274 279.299 31.306C279.019 31.338 278.761 31.45 278.525 31.642C278.309 31.81 278.147 32.012 278.039 32.248C277.931 32.48 277.859 32.728 277.823 32.992C277.787 33.252 277.769 33.51 277.769 33.766V37H276.887ZM288.939 37L288.945 32.746C288.945 32.246 288.805 31.854 288.525 31.57C288.249 31.282 287.897 31.138 287.469 31.138C287.225 31.138 286.987 31.194 286.755 31.306C286.523 31.418 286.331 31.598 286.179 31.846C286.031 32.094 285.957 32.418 285.957 32.818L285.435 32.668C285.423 32.204 285.513 31.798 285.705 31.45C285.901 31.102 286.169 30.832 286.509 30.64C286.853 30.444 287.241 30.346 287.673 30.346C288.325 30.346 288.847 30.548 289.239 30.952C289.631 31.352 289.827 31.894 289.827 32.578L289.821 37H288.939ZM281.205 37V30.52H281.997V32.116H282.093V37H281.205ZM285.081 37L285.087 32.806C285.087 32.29 284.949 31.884 284.673 31.588C284.401 31.288 284.041 31.138 283.593 31.138C283.145 31.138 282.783 31.292 282.507 31.6C282.231 31.904 282.093 32.31 282.093 32.818L281.565 32.53C281.565 32.114 281.663 31.742 281.859 31.414C282.055 31.082 282.323 30.822 282.663 30.634C283.003 30.442 283.389 30.346 283.821 30.346C284.233 30.346 284.599 30.434 284.919 30.61C285.243 30.786 285.497 31.042 285.681 31.378C285.865 31.714 285.957 32.122 285.957 32.602L285.951 37H285.081ZM293.237 37.18C292.749 37.18 292.339 37.092 292.007 36.916C291.679 36.74 291.433 36.506 291.269 36.214C291.105 35.922 291.023 35.604 291.023 35.26C291.023 34.908 291.093 34.608 291.233 34.36C291.377 34.108 291.571 33.902 291.815 33.742C292.063 33.582 292.349 33.46 292.673 33.376C293.001 33.296 293.363 33.226 293.759 33.166C294.159 33.102 294.549 33.048 294.929 33.004C295.313 32.956 295.649 32.91 295.937 32.866L295.625 33.058C295.637 32.418 295.513 31.944 295.253 31.636C294.993 31.328 294.541 31.174 293.897 31.174C293.453 31.174 293.077 31.274 292.769 31.474C292.465 31.674 292.251 31.99 292.127 32.422L291.269 32.17C291.417 31.59 291.715 31.14 292.163 30.82C292.611 30.5 293.193 30.34 293.909 30.34C294.501 30.34 295.003 30.452 295.415 30.676C295.831 30.896 296.125 31.216 296.297 31.636C296.377 31.824 296.429 32.034 296.453 32.266C296.477 32.498 296.489 32.734 296.489 32.974V37H295.703V35.374L295.931 35.47C295.711 36.026 295.369 36.45 294.905 36.742C294.441 37.034 293.885 37.18 293.237 37.18ZM293.339 36.418C293.751 36.418 294.111 36.344 294.419 36.196C294.727 36.048 294.975 35.846 295.163 35.59C295.351 35.33 295.473 35.038 295.529 34.714C295.577 34.506 295.603 34.278 295.607 34.03C295.611 33.778 295.613 33.59 295.613 33.466L295.949 33.64C295.649 33.68 295.323 33.72 294.971 33.76C294.623 33.8 294.279 33.846 293.939 33.898C293.603 33.95 293.299 34.012 293.027 34.084C292.843 34.136 292.665 34.21 292.493 34.306C292.321 34.398 292.179 34.522 292.067 34.678C291.959 34.834 291.905 35.028 291.905 35.26C291.905 35.448 291.951 35.63 292.043 35.806C292.139 35.982 292.291 36.128 292.499 36.244C292.711 36.36 292.991 36.418 293.339 36.418ZM301.579 37C301.215 37.076 300.855 37.106 300.499 37.09C300.147 37.074 299.831 36.998 299.551 36.862C299.275 36.726 299.065 36.514 298.921 36.226C298.805 35.986 298.741 35.744 298.729 35.5C298.721 35.252 298.717 34.97 298.717 34.654V28.72H299.593V34.618C299.593 34.89 299.595 35.118 299.599 35.302C299.607 35.482 299.649 35.642 299.725 35.782C299.869 36.05 300.097 36.21 300.409 36.262C300.725 36.314 301.115 36.302 301.579 36.226V37ZM297.331 31.276V30.52H301.579V31.276H297.331ZM302.976 29.29V28.3H303.858V29.29H302.976ZM302.976 37V30.52H303.858V37H302.976ZM308.362 37.18C307.718 37.18 307.168 37.034 306.712 36.742C306.256 36.45 305.906 36.046 305.662 35.53C305.418 35.014 305.296 34.422 305.296 33.754C305.296 33.074 305.42 32.478 305.668 31.966C305.916 31.454 306.268 31.056 306.724 30.772C307.184 30.484 307.73 30.34 308.362 30.34C309.01 30.34 309.562 30.486 310.018 30.778C310.478 31.066 310.828 31.468 311.068 31.984C311.312 32.496 311.434 33.086 311.434 33.754C311.434 34.434 311.312 35.032 311.068 35.548C310.824 36.06 310.472 36.46 310.012 36.748C309.552 37.036 309.002 37.18 308.362 37.18ZM308.362 36.334C309.082 36.334 309.618 36.096 309.97 35.62C310.322 35.14 310.498 34.518 310.498 33.754C310.498 32.97 310.32 32.346 309.964 31.882C309.612 31.418 309.078 31.186 308.362 31.186C307.878 31.186 307.478 31.296 307.162 31.516C306.85 31.732 306.616 32.034 306.46 32.422C306.308 32.806 306.232 33.25 306.232 33.754C306.232 34.534 306.412 35.16 306.772 35.632C307.132 36.1 307.662 36.334 308.362 36.334ZM317.438 37V33.694C317.438 33.334 317.404 33.004 317.336 32.704C317.268 32.4 317.158 32.136 317.006 31.912C316.858 31.684 316.664 31.508 316.424 31.384C316.188 31.26 315.9 31.198 315.56 31.198C315.248 31.198 314.972 31.252 314.732 31.36C314.496 31.468 314.296 31.624 314.132 31.828C313.972 32.028 313.85 32.272 313.766 32.56C313.682 32.848 313.64 33.176 313.64 33.544L313.016 33.406C313.016 32.742 313.132 32.184 313.364 31.732C313.596 31.28 313.916 30.938 314.324 30.706C314.732 30.474 315.2 30.358 315.728 30.358C316.116 30.358 316.454 30.418 316.742 30.538C317.034 30.658 317.28 30.82 317.48 31.024C317.684 31.228 317.848 31.462 317.972 31.726C318.096 31.986 318.186 32.264 318.242 32.56C318.298 32.852 318.326 33.144 318.326 33.436V37H317.438ZM312.752 37V30.52H313.55V32.116H313.64V37H312.752Z" fill="black"></path></svg>