<svg xmlns="http://www.w3.org/2000/svg" width="1245" height="40" viewBox="0 0 1245 40" fill="none"><circle cx="20" cy="20" r="19" fill="#85BF55" stroke="#85BF55" stroke-width="2"></circle><path d="M9.99976 20L16.6586 27L29.9998 13" stroke="white" stroke-width="2.5" stroke-linecap="round" stroke-linejoin="round"></path><path d="M66.4 27.3C65.3933 27.3 64.4867 27.1333 63.68 26.8C62.88 26.46 62.2167 25.98 61.69 25.36C61.17 24.74 60.83 24.0033 60.67 23.15L62.17 22.9C62.41 23.8333 62.9167 24.5667 63.69 25.1C64.4633 25.6267 65.3867 25.89 66.46 25.89C67.1667 25.89 67.8 25.78 68.36 25.56C68.92 25.3333 69.36 25.0133 69.68 24.6C70 24.1867 70.16 23.6967 70.16 23.13C70.16 22.7567 70.0933 22.44 69.96 22.18C69.8267 21.9133 69.65 21.6933 69.43 21.52C69.21 21.3467 68.97 21.2033 68.71 21.09C68.45 20.97 68.1967 20.8733 67.95 20.8L64.3 19.71C63.86 19.5833 63.4533 19.4233 63.08 19.23C62.7067 19.03 62.38 18.7933 62.1 18.52C61.8267 18.24 61.6133 17.9133 61.46 17.54C61.3067 17.1667 61.23 16.74 61.23 16.26C61.23 15.4467 61.4433 14.7433 61.87 14.15C62.2967 13.5567 62.88 13.1 63.62 12.78C64.36 12.46 65.2033 12.3033 66.15 12.31C67.11 12.31 67.9667 12.48 68.72 12.82C69.48 13.16 70.1067 13.6467 70.6 14.28C71.0933 14.9067 71.42 15.65 71.58 16.51L70.04 16.79C69.94 16.1633 69.71 15.62 69.35 15.16C68.99 14.7 68.53 14.3467 67.97 14.1C67.4167 13.8467 66.8067 13.7167 66.14 13.71C65.4933 13.71 64.9167 13.82 64.41 14.04C63.91 14.2533 63.5133 14.5467 63.22 14.92C62.9267 15.2933 62.78 15.72 62.78 16.2C62.78 16.6867 62.9133 17.0767 63.18 17.37C63.4533 17.6633 63.7867 17.8933 64.18 18.06C64.58 18.2267 64.9667 18.3633 65.34 18.47L68.16 19.3C68.4533 19.38 68.7967 19.4967 69.19 19.65C69.59 19.7967 69.9767 20.01 70.35 20.29C70.73 20.5633 71.0433 20.9233 71.29 21.37C71.5367 21.8167 71.66 22.3833 71.66 23.07C71.66 23.7367 71.5267 24.3333 71.26 24.86C71 25.3867 70.63 25.83 70.15 26.19C69.6767 26.55 69.12 26.8233 68.48 27.01C67.8467 27.2033 67.1533 27.3 66.4 27.3ZM79.6042 27C78.9976 27.1267 78.3976 27.1767 77.8042 27.15C77.2176 27.1233 76.6909 26.9967 76.2242 26.77C75.7642 26.5433 75.4142 26.19 75.1742 25.71C74.9809 25.31 74.8742 24.9067 74.8542 24.5C74.8409 24.0867 74.8342 23.6167 74.8342 23.09V13.2H76.2942V23.03C76.2942 23.4833 76.2976 23.8633 76.3042 24.17C76.3176 24.47 76.3876 24.7367 76.5142 24.97C76.7542 25.4167 77.1342 25.6833 77.6542 25.77C78.1809 25.8567 78.8309 25.8367 79.6042 25.71V27ZM72.5242 17.46V16.2H79.6042V17.46H72.5242ZM85.9114 27.3C84.8581 27.3 83.9447 27.0667 83.1714 26.6C82.4047 26.1333 81.8081 25.4767 81.3814 24.63C80.9547 23.7833 80.7414 22.79 80.7414 21.65C80.7414 20.47 80.9514 19.45 81.3714 18.59C81.7914 17.73 82.3814 17.0667 83.1414 16.6C83.9081 16.1333 84.8114 15.9 85.8514 15.9C86.9181 15.9 87.8281 16.1467 88.5814 16.64C89.3347 17.1267 89.9047 17.8267 90.2914 18.74C90.6781 19.6533 90.8547 20.7433 90.8214 22.01H89.3214V21.49C89.2947 20.09 88.9914 19.0333 88.4114 18.32C87.8381 17.6067 86.9981 17.25 85.8914 17.25C84.7314 17.25 83.8414 17.6267 83.2214 18.38C82.6081 19.1333 82.3014 20.2067 82.3014 21.6C82.3014 22.96 82.6081 24.0167 83.2214 24.77C83.8414 25.5167 84.7181 25.89 85.8514 25.89C86.6247 25.89 87.2981 25.7133 87.8714 25.36C88.4514 25 88.9081 24.4833 89.2414 23.81L90.6114 24.34C90.1847 25.28 89.5547 26.01 88.7214 26.53C87.8947 27.0433 86.9581 27.3 85.9114 27.3ZM81.7814 22.01V20.78H90.0314V22.01H81.7814ZM97.5977 27.3C96.6043 27.3 95.7643 27.05 95.0777 26.55C94.391 26.0433 93.871 25.36 93.5177 24.5C93.1643 23.6333 92.9877 22.6633 92.9877 21.59C92.9877 20.4967 93.1643 19.5233 93.5177 18.67C93.8777 17.81 94.4043 17.1333 95.0977 16.64C95.791 16.1467 96.6443 15.9 97.6577 15.9C98.6443 15.9 99.491 16.15 100.198 16.65C100.904 17.15 101.444 17.83 101.818 18.69C102.198 19.55 102.388 20.5167 102.388 21.59C102.388 22.67 102.198 23.64 101.818 24.5C101.438 25.36 100.891 26.0433 100.178 26.55C99.4643 27.05 98.6043 27.3 97.5977 27.3ZM92.7377 31.8V16.2H94.0577V24.33H94.2177V31.8H92.7377ZM97.4477 25.93C98.201 25.93 98.8277 25.74 99.3277 25.36C99.8277 24.98 100.201 24.4633 100.448 23.81C100.701 23.15 100.828 22.41 100.828 21.59C100.828 20.7767 100.704 20.0433 100.458 19.39C100.211 18.7367 99.8343 18.22 99.3277 17.84C98.8277 17.46 98.191 17.27 97.4177 17.27C96.6643 17.27 96.0377 17.4533 95.5377 17.82C95.0443 18.1867 94.6743 18.6967 94.4277 19.35C94.181 19.9967 94.0577 20.7433 94.0577 21.59C94.0577 22.4233 94.181 23.17 94.4277 23.83C94.6743 24.4833 95.0477 24.9967 95.5477 25.37C96.0477 25.7433 96.681 25.93 97.4477 25.93ZM111.098 27V14.24L108.388 15.87V14.22L111.098 12.6H112.588V27H111.098ZM121.184 25.4V23.69H122.894V25.4H121.184ZM121.194 19.51V17.8H122.904V19.51H121.194ZM136.195 27.3C134.762 27.3 133.552 26.9833 132.565 26.35C131.578 25.71 130.832 24.8267 130.325 23.7C129.818 22.5733 129.565 21.2733 129.565 19.8C129.565 18.3267 129.818 17.0267 130.325 15.9C130.832 14.7733 131.578 13.8933 132.565 13.26C133.552 12.62 134.762 12.3 136.195 12.3C137.868 12.3 139.235 12.73 140.295 13.59C141.355 14.4433 142.082 15.59 142.475 17.03L140.975 17.42C140.668 16.28 140.118 15.3767 139.325 14.71C138.532 14.0433 137.488 13.71 136.195 13.71C135.068 13.71 134.132 13.9667 133.385 14.48C132.638 14.9933 132.075 15.71 131.695 16.63C131.322 17.5433 131.128 18.6 131.115 19.8C131.108 21 131.292 22.0567 131.665 22.97C132.045 23.8833 132.612 24.6 133.365 25.12C134.125 25.6333 135.068 25.89 136.195 25.89C137.488 25.89 138.532 25.5567 139.325 24.89C140.118 24.2167 140.668 23.3133 140.975 22.18L142.475 22.57C142.082 24.01 141.355 25.16 140.295 26.02C139.235 26.8733 137.868 27.3 136.195 27.3ZM147.771 27.3C146.958 27.3 146.275 27.1533 145.721 26.86C145.175 26.5667 144.765 26.1767 144.491 25.69C144.218 25.2033 144.081 24.6733 144.081 24.1C144.081 23.5133 144.198 23.0133 144.431 22.6C144.671 22.18 144.995 21.8367 145.401 21.57C145.815 21.3033 146.291 21.1 146.831 20.96C147.378 20.8267 147.981 20.71 148.641 20.61C149.308 20.5033 149.958 20.4133 150.591 20.34C151.231 20.26 151.791 20.1833 152.271 20.11L151.751 20.43C151.771 19.3633 151.565 18.5733 151.131 18.06C150.698 17.5467 149.945 17.29 148.871 17.29C148.131 17.29 147.505 17.4567 146.991 17.79C146.485 18.1233 146.128 18.65 145.921 19.37L144.491 18.95C144.738 17.9833 145.235 17.2333 145.981 16.7C146.728 16.1667 147.698 15.9 148.891 15.9C149.878 15.9 150.715 16.0867 151.401 16.46C152.095 16.8267 152.585 17.36 152.871 18.06C153.005 18.3733 153.091 18.7233 153.131 19.11C153.171 19.4967 153.191 19.89 153.191 20.29V27H151.881V24.29L152.261 24.45C151.895 25.3767 151.325 26.0833 150.551 26.57C149.778 27.0567 148.851 27.3 147.771 27.3ZM147.941 26.03C148.628 26.03 149.228 25.9067 149.741 25.66C150.255 25.4133 150.668 25.0767 150.981 24.65C151.295 24.2167 151.498 23.73 151.591 23.19C151.671 22.8433 151.715 22.4633 151.721 22.05C151.728 21.63 151.731 21.3167 151.731 21.11L152.291 21.4C151.791 21.4667 151.248 21.5333 150.661 21.6C150.081 21.6667 149.508 21.7433 148.941 21.83C148.381 21.9167 147.875 22.02 147.421 22.14C147.115 22.2267 146.818 22.35 146.531 22.51C146.245 22.6633 146.008 22.87 145.821 23.13C145.641 23.39 145.551 23.7133 145.551 24.1C145.551 24.4133 145.628 24.7167 145.781 25.01C145.941 25.3033 146.195 25.5467 146.541 25.74C146.895 25.9333 147.361 26.03 147.941 26.03ZM155.795 27V16.2H157.115V18.8L156.855 18.46C156.975 18.14 157.131 17.8467 157.325 17.58C157.518 17.3067 157.728 17.0833 157.955 16.91C158.235 16.6633 158.561 16.4767 158.935 16.35C159.308 16.2167 159.685 16.14 160.065 16.12C160.445 16.0933 160.791 16.12 161.105 16.2V17.58C160.711 17.48 160.281 17.4567 159.815 17.51C159.348 17.5633 158.918 17.75 158.525 18.07C158.165 18.35 157.895 18.6867 157.715 19.08C157.535 19.4667 157.415 19.88 157.355 20.32C157.295 20.7533 157.265 21.1833 157.265 21.61V27H155.795ZM168.882 27C168.275 27.1267 167.675 27.1767 167.082 27.15C166.495 27.1233 165.968 26.9967 165.502 26.77C165.042 26.5433 164.692 26.19 164.452 25.71C164.258 25.31 164.152 24.9067 164.132 24.5C164.118 24.0867 164.112 23.6167 164.112 23.09V13.2H165.572V23.03C165.572 23.4833 165.575 23.8633 165.582 24.17C165.595 24.47 165.665 24.7367 165.792 24.97C166.032 25.4167 166.412 25.6833 166.932 25.77C167.458 25.8567 168.108 25.8367 168.882 25.71V27ZM161.802 17.46V16.2H168.882V17.46H161.802ZM175.013 27V12.6H180.573C180.713 12.6 180.87 12.6067 181.043 12.62C181.223 12.6267 181.403 12.6467 181.583 12.68C182.337 12.7933 182.973 13.0567 183.493 13.47C184.02 13.8767 184.417 14.39 184.683 15.01C184.957 15.63 185.093 16.3167 185.093 17.07C185.093 18.1567 184.807 19.1 184.233 19.9C183.66 20.7 182.84 21.2033 181.773 21.41L181.263 21.53H176.483V27H175.013ZM183.733 27L180.893 21.14L182.303 20.6L185.423 27H183.733ZM176.483 20.13H180.533C180.653 20.13 180.793 20.1233 180.953 20.11C181.113 20.0967 181.27 20.0733 181.423 20.04C181.917 19.9333 182.32 19.73 182.633 19.43C182.953 19.13 183.19 18.7733 183.343 18.36C183.503 17.9467 183.583 17.5167 183.583 17.07C183.583 16.6233 183.503 16.1933 183.343 15.78C183.19 15.36 182.953 15 182.633 14.7C182.32 14.4 181.917 14.1967 181.423 14.09C181.27 14.0567 181.113 14.0367 180.953 14.03C180.793 14.0167 180.653 14.01 180.533 14.01H176.483V20.13ZM192.2 27.3C191.147 27.3 190.234 27.0667 189.46 26.6C188.694 26.1333 188.097 25.4767 187.67 24.63C187.244 23.7833 187.03 22.79 187.03 21.65C187.03 20.47 187.24 19.45 187.66 18.59C188.08 17.73 188.67 17.0667 189.43 16.6C190.197 16.1333 191.1 15.9 192.14 15.9C193.207 15.9 194.117 16.1467 194.87 16.64C195.624 17.1267 196.194 17.8267 196.58 18.74C196.967 19.6533 197.144 20.7433 197.11 22.01H195.61V21.49C195.584 20.09 195.28 19.0333 194.7 18.32C194.127 17.6067 193.287 17.25 192.18 17.25C191.02 17.25 190.13 17.6267 189.51 18.38C188.897 19.1333 188.59 20.2067 188.59 21.6C188.59 22.96 188.897 24.0167 189.51 24.77C190.13 25.5167 191.007 25.89 192.14 25.89C192.914 25.89 193.587 25.7133 194.16 25.36C194.74 25 195.197 24.4833 195.53 23.81L196.9 24.34C196.474 25.28 195.844 26.01 195.01 26.53C194.184 27.0433 193.247 27.3 192.2 27.3ZM188.07 22.01V20.78H196.32V22.01H188.07ZM201.859 27L197.939 16.2H199.429L202.619 25.08L205.789 16.2H207.299L203.379 27H201.859ZM209.295 14.15V12.5H210.765V14.15H209.295ZM209.295 27V16.2H210.765V27H209.295ZM218.333 27.3C217.28 27.3 216.367 27.0667 215.593 26.6C214.827 26.1333 214.23 25.4767 213.803 24.63C213.377 23.7833 213.163 22.79 213.163 21.65C213.163 20.47 213.373 19.45 213.793 18.59C214.213 17.73 214.803 17.0667 215.563 16.6C216.33 16.1333 217.233 15.9 218.273 15.9C219.34 15.9 220.25 16.1467 221.003 16.64C221.757 17.1267 222.327 17.8267 222.713 18.74C223.1 19.6533 223.277 20.7433 223.243 22.01H221.743V21.49C221.717 20.09 221.413 19.0333 220.833 18.32C220.26 17.6067 219.42 17.25 218.313 17.25C217.153 17.25 216.263 17.6267 215.643 18.38C215.03 19.1333 214.723 20.2067 214.723 21.6C214.723 22.96 215.03 24.0167 215.643 24.77C216.263 25.5167 217.14 25.89 218.273 25.89C219.047 25.89 219.72 25.7133 220.293 25.36C220.873 25 221.33 24.4833 221.663 23.81L223.033 24.34C222.607 25.28 221.977 26.01 221.143 26.53C220.317 27.0433 219.38 27.3 218.333 27.3ZM214.203 22.01V20.78H222.453V22.01H214.203ZM227.372 27L224.072 16.19L225.542 16.2L228.102 24.59L230.672 16.2H232.012L234.582 24.59L237.162 16.2H238.622L235.322 27H234.042L231.342 18.4L228.652 27H227.372Z" fill="black"></path><circle cx="348.667" cy="20" r="19" fill="#85BF55" stroke="#85BF55" stroke-width="2"></circle><path d="M338.666 20L345.325 27L358.666 13" stroke="white" stroke-width="2.5" stroke-linecap="round" stroke-linejoin="round"></path><path d="M395.067 27.3C394.06 27.3 393.153 27.1333 392.347 26.8C391.547 26.46 390.883 25.98 390.357 25.36C389.837 24.74 389.497 24.0033 389.337 23.15L390.837 22.9C391.077 23.8333 391.583 24.5667 392.357 25.1C393.13 25.6267 394.053 25.89 395.127 25.89C395.833 25.89 396.467 25.78 397.027 25.56C397.587 25.3333 398.027 25.0133 398.347 24.6C398.667 24.1867 398.827 23.6967 398.827 23.13C398.827 22.7567 398.76 22.44 398.627 22.18C398.493 21.9133 398.317 21.6933 398.097 21.52C397.877 21.3467 397.637 21.2033 397.377 21.09C397.117 20.97 396.863 20.8733 396.617 20.8L392.967 19.71C392.527 19.5833 392.12 19.4233 391.747 19.23C391.373 19.03 391.047 18.7933 390.767 18.52C390.493 18.24 390.28 17.9133 390.127 17.54C389.973 17.1667 389.897 16.74 389.897 16.26C389.897 15.4467 390.11 14.7433 390.537 14.15C390.963 13.5567 391.547 13.1 392.287 12.78C393.027 12.46 393.87 12.3033 394.817 12.31C395.777 12.31 396.633 12.48 397.387 12.82C398.147 13.16 398.773 13.6467 399.267 14.28C399.76 14.9067 400.087 15.65 400.247 16.51L398.707 16.79C398.607 16.1633 398.377 15.62 398.017 15.16C397.657 14.7 397.197 14.3467 396.637 14.1C396.083 13.8467 395.473 13.7167 394.807 13.71C394.16 13.71 393.583 13.82 393.077 14.04C392.577 14.2533 392.18 14.5467 391.887 14.92C391.593 15.2933 391.447 15.72 391.447 16.2C391.447 16.6867 391.58 17.0767 391.847 17.37C392.12 17.6633 392.453 17.8933 392.847 18.06C393.247 18.2267 393.633 18.3633 394.007 18.47L396.827 19.3C397.12 19.38 397.463 19.4967 397.857 19.65C398.257 19.7967 398.643 20.01 399.017 20.29C399.397 20.5633 399.71 20.9233 399.957 21.37C400.203 21.8167 400.327 22.3833 400.327 23.07C400.327 23.7367 400.193 24.3333 399.927 24.86C399.667 25.3867 399.297 25.83 398.817 26.19C398.343 26.55 397.787 26.8233 397.147 27.01C396.513 27.2033 395.82 27.3 395.067 27.3ZM408.271 27C407.664 27.1267 407.064 27.1767 406.471 27.15C405.884 27.1233 405.358 26.9967 404.891 26.77C404.431 26.5433 404.081 26.19 403.841 25.71C403.648 25.31 403.541 24.9067 403.521 24.5C403.508 24.0867 403.501 23.6167 403.501 23.09V13.2H404.961V23.03C404.961 23.4833 404.964 23.8633 404.971 24.17C404.984 24.47 405.054 24.7367 405.181 24.97C405.421 25.4167 405.801 25.6833 406.321 25.77C406.848 25.8567 407.498 25.8367 408.271 25.71V27ZM401.191 17.46V16.2H408.271V17.46H401.191ZM414.578 27.3C413.525 27.3 412.611 27.0667 411.838 26.6C411.071 26.1333 410.475 25.4767 410.048 24.63C409.621 23.7833 409.408 22.79 409.408 21.65C409.408 20.47 409.618 19.45 410.038 18.59C410.458 17.73 411.048 17.0667 411.808 16.6C412.575 16.1333 413.478 15.9 414.518 15.9C415.585 15.9 416.495 16.1467 417.248 16.64C418.001 17.1267 418.571 17.8267 418.958 18.74C419.345 19.6533 419.521 20.7433 419.488 22.01H417.988V21.49C417.961 20.09 417.658 19.0333 417.078 18.32C416.505 17.6067 415.665 17.25 414.558 17.25C413.398 17.25 412.508 17.6267 411.888 18.38C411.275 19.1333 410.968 20.2067 410.968 21.6C410.968 22.96 411.275 24.0167 411.888 24.77C412.508 25.5167 413.385 25.89 414.518 25.89C415.291 25.89 415.965 25.7133 416.538 25.36C417.118 25 417.575 24.4833 417.908 23.81L419.278 24.34C418.851 25.28 418.221 26.01 417.388 26.53C416.561 27.0433 415.625 27.3 414.578 27.3ZM410.448 22.01V20.78H418.698V22.01H410.448ZM426.264 27.3C425.271 27.3 424.431 27.05 423.744 26.55C423.058 26.0433 422.538 25.36 422.184 24.5C421.831 23.6333 421.654 22.6633 421.654 21.59C421.654 20.4967 421.831 19.5233 422.184 18.67C422.544 17.81 423.071 17.1333 423.764 16.64C424.458 16.1467 425.311 15.9 426.324 15.9C427.311 15.9 428.158 16.15 428.864 16.65C429.571 17.15 430.111 17.83 430.484 18.69C430.864 19.55 431.054 20.5167 431.054 21.59C431.054 22.67 430.864 23.64 430.484 24.5C430.104 25.36 429.558 26.0433 428.844 26.55C428.131 27.05 427.271 27.3 426.264 27.3ZM421.404 31.8V16.2H422.724V24.33H422.884V31.8H421.404ZM426.114 25.93C426.868 25.93 427.494 25.74 427.994 25.36C428.494 24.98 428.868 24.4633 429.114 23.81C429.368 23.15 429.494 22.41 429.494 21.59C429.494 20.7767 429.371 20.0433 429.124 19.39C428.878 18.7367 428.501 18.22 427.994 17.84C427.494 17.46 426.858 17.27 426.084 17.27C425.331 17.27 424.704 17.4533 424.204 17.82C423.711 18.1867 423.341 18.6967 423.094 19.35C422.848 19.9967 422.724 20.7433 422.724 21.59C422.724 22.4233 422.848 23.17 423.094 23.83C423.341 24.4833 423.714 24.9967 424.214 25.37C424.714 25.7433 425.348 25.93 426.114 25.93ZM436.854 26.99L436.864 25.65L443.374 19.77C443.934 19.2633 444.304 18.7833 444.484 18.33C444.671 17.87 444.764 17.39 444.764 16.89C444.764 16.2967 444.624 15.76 444.344 15.28C444.064 14.8 443.687 14.42 443.214 14.14C442.741 13.8533 442.211 13.71 441.624 13.71C441.011 13.71 440.464 13.8567 439.984 14.15C439.504 14.4433 439.124 14.83 438.844 15.31C438.571 15.79 438.437 16.3133 438.444 16.88H436.944C436.944 16.0067 437.151 15.2233 437.564 14.53C437.977 13.8367 438.537 13.2933 439.244 12.9C439.951 12.5 440.751 12.3 441.644 12.3C442.517 12.3 443.301 12.5067 443.994 12.92C444.694 13.3267 445.244 13.88 445.644 14.58C446.051 15.2733 446.254 16.0467 446.254 16.9C446.254 17.5 446.181 18.03 446.034 18.49C445.894 18.9433 445.671 19.3667 445.364 19.76C445.064 20.1467 444.681 20.5467 444.214 20.96L438.434 26.18L438.204 25.58H446.254V26.99H436.854ZM453.464 25.4V23.69H455.174V25.4H453.464ZM453.474 19.51V17.8H455.184V19.51H453.474ZM468.475 27.3C467.041 27.3 465.831 26.9833 464.845 26.35C463.858 25.71 463.111 24.8267 462.605 23.7C462.098 22.5733 461.845 21.2733 461.845 19.8C461.845 18.3267 462.098 17.0267 462.605 15.9C463.111 14.7733 463.858 13.8933 464.845 13.26C465.831 12.62 467.041 12.3 468.475 12.3C470.148 12.3 471.515 12.73 472.575 13.59C473.635 14.4433 474.361 15.59 474.755 17.03L473.255 17.42C472.948 16.28 472.398 15.3767 471.605 14.71C470.811 14.0433 469.768 13.71 468.475 13.71C467.348 13.71 466.411 13.9667 465.665 14.48C464.918 14.9933 464.355 15.71 463.975 16.63C463.601 17.5433 463.408 18.6 463.395 19.8C463.388 21 463.571 22.0567 463.945 22.97C464.325 23.8833 464.891 24.6 465.645 25.12C466.405 25.6333 467.348 25.89 468.475 25.89C469.768 25.89 470.811 25.5567 471.605 24.89C472.398 24.2167 472.948 23.3133 473.255 22.18L474.755 22.57C474.361 24.01 473.635 25.16 472.575 26.02C471.515 26.8733 470.148 27.3 468.475 27.3ZM484.761 27V21.49C484.761 20.89 484.704 20.34 484.591 19.84C484.478 19.3333 484.294 18.8933 484.041 18.52C483.794 18.14 483.471 17.8467 483.071 17.64C482.678 17.4333 482.198 17.33 481.631 17.33C481.111 17.33 480.651 17.42 480.251 17.6C479.858 17.78 479.524 18.04 479.251 18.38C478.984 18.7133 478.781 19.12 478.641 19.6C478.501 20.08 478.431 20.6267 478.431 21.24L477.391 21.01C477.391 19.9033 477.584 18.9733 477.971 18.22C478.358 17.4667 478.891 16.8967 479.571 16.51C480.251 16.1233 481.031 15.93 481.911 15.93C482.558 15.93 483.121 16.03 483.601 16.23C484.088 16.43 484.498 16.7 484.831 17.04C485.171 17.38 485.444 17.77 485.651 18.21C485.858 18.6433 486.008 19.1067 486.101 19.6C486.194 20.0867 486.241 20.5733 486.241 21.06V27H484.761ZM476.951 27V12.6H478.281V20.73H478.431V27H476.951ZM493.406 27.3C492.353 27.3 491.439 27.0667 490.666 26.6C489.899 26.1333 489.303 25.4767 488.876 24.63C488.449 23.7833 488.236 22.79 488.236 21.65C488.236 20.47 488.446 19.45 488.866 18.59C489.286 17.73 489.876 17.0667 490.636 16.6C491.403 16.1333 492.306 15.9 493.346 15.9C494.413 15.9 495.323 16.1467 496.076 16.64C496.829 17.1267 497.399 17.8267 497.786 18.74C498.173 19.6533 498.349 20.7433 498.316 22.01H496.816V21.49C496.789 20.09 496.486 19.0333 495.906 18.32C495.333 17.6067 494.493 17.25 493.386 17.25C492.226 17.25 491.336 17.6267 490.716 18.38C490.103 19.1333 489.796 20.2067 489.796 21.6C489.796 22.96 490.103 24.0167 490.716 24.77C491.336 25.5167 492.213 25.89 493.346 25.89C494.119 25.89 494.793 25.7133 495.366 25.36C495.946 25 496.403 24.4833 496.736 23.81L498.106 24.34C497.679 25.28 497.049 26.01 496.216 26.53C495.389 27.0433 494.453 27.3 493.406 27.3ZM489.276 22.01V20.78H497.526V22.01H489.276ZM505.015 27.3C503.929 27.3 503.009 27.0567 502.255 26.57C501.502 26.0833 500.929 25.4133 500.535 24.56C500.149 23.7 499.949 22.7133 499.935 21.6C499.949 20.4667 500.155 19.4733 500.555 18.62C500.955 17.76 501.532 17.0933 502.285 16.62C503.039 16.14 503.952 15.9 505.025 15.9C506.119 15.9 507.069 16.1667 507.875 16.7C508.689 17.2333 509.245 17.9633 509.545 18.89L508.105 19.35C507.852 18.7033 507.449 18.2033 506.895 17.85C506.349 17.49 505.722 17.31 505.015 17.31C504.222 17.31 503.565 17.4933 503.045 17.86C502.525 18.22 502.139 18.7233 501.885 19.37C501.632 20.0167 501.502 20.76 501.495 21.6C501.509 22.8933 501.809 23.9333 502.395 24.72C502.982 25.5 503.855 25.89 505.015 25.89C505.749 25.89 506.372 25.7233 506.885 25.39C507.405 25.05 507.799 24.5567 508.065 23.91L509.545 24.35C509.145 25.31 508.559 26.0433 507.785 26.55C507.012 27.05 506.089 27.3 505.015 27.3ZM511.6 27L511.61 12.6H513.09V21.4L517.91 16.2H519.87L514.81 21.6L520.53 27H518.39L513.09 21.8V27H511.6ZM525.846 27.3C524.773 27.3 523.856 27.0567 523.096 26.57C522.336 26.0833 521.753 25.41 521.346 24.55C520.939 23.69 520.736 22.7033 520.736 21.59C520.736 20.4567 520.943 19.4633 521.356 18.61C521.769 17.7567 522.356 17.0933 523.116 16.62C523.883 16.14 524.793 15.9 525.846 15.9C526.926 15.9 527.846 16.1433 528.606 16.63C529.373 17.11 529.956 17.78 530.356 18.64C530.763 19.4933 530.966 20.4767 530.966 21.59C530.966 22.7233 530.763 23.72 530.356 24.58C529.949 25.4333 529.363 26.1 528.596 26.58C527.829 27.06 526.913 27.3 525.846 27.3ZM525.846 25.89C527.046 25.89 527.939 25.4933 528.526 24.7C529.113 23.9 529.406 22.8633 529.406 21.59C529.406 20.2833 529.109 19.2433 528.516 18.47C527.929 17.6967 527.039 17.31 525.846 17.31C525.039 17.31 524.373 17.4933 523.846 17.86C523.326 18.22 522.936 18.7233 522.676 19.37C522.423 20.01 522.296 20.75 522.296 21.59C522.296 22.89 522.596 23.9333 523.196 24.72C523.796 25.5 524.679 25.89 525.846 25.89ZM537.302 27.27C536.655 27.27 536.089 27.17 535.602 26.97C535.122 26.77 534.712 26.5 534.372 26.16C534.039 25.82 533.769 25.4333 533.562 25C533.355 24.56 533.205 24.0967 533.112 23.61C533.019 23.1167 532.972 22.6267 532.972 22.14V16.2H534.452V21.71C534.452 22.3033 534.509 22.8533 534.622 23.36C534.735 23.8667 534.915 24.31 535.162 24.69C535.415 25.0633 535.739 25.3533 536.132 25.56C536.532 25.7667 537.015 25.87 537.582 25.87C538.102 25.87 538.559 25.78 538.952 25.6C539.352 25.42 539.685 25.1633 539.952 24.83C540.225 24.49 540.432 24.08 540.572 23.6C540.712 23.1133 540.782 22.5667 540.782 21.96L541.822 22.19C541.822 23.2967 541.629 24.2267 541.242 24.98C540.855 25.7333 540.322 26.3033 539.642 26.69C538.962 27.0767 538.182 27.27 537.302 27.27ZM540.932 27V24.34H540.782V16.2H542.252V27H540.932ZM550.927 27C550.32 27.1267 549.72 27.1767 549.127 27.15C548.54 27.1233 548.014 26.9967 547.547 26.77C547.087 26.5433 546.737 26.19 546.497 25.71C546.304 25.31 546.197 24.9067 546.177 24.5C546.164 24.0867 546.157 23.6167 546.157 23.09V13.2H547.617V23.03C547.617 23.4833 547.62 23.8633 547.627 24.17C547.64 24.47 547.71 24.7367 547.837 24.97C548.077 25.4167 548.457 25.6833 548.977 25.77C549.504 25.8567 550.154 25.8367 550.927 25.71V27ZM543.847 17.46V16.2H550.927V17.46H543.847Z" fill="black"></path><circle cx="660.333" cy="20" r="19" fill="#2C7EF8" stroke="#2C7EF8" stroke-width="2"></circle><path d="M659.603 27.29C658.89 27.29 658.233 27.1633 657.633 26.91C657.033 26.6567 656.517 26.2967 656.083 25.83C655.65 25.3567 655.333 24.7933 655.133 24.14L656.533 23.72C656.773 24.4333 657.167 24.9733 657.713 25.34C658.267 25.7067 658.89 25.8833 659.583 25.87C660.223 25.8567 660.773 25.7133 661.233 25.44C661.7 25.1667 662.057 24.7867 662.303 24.3C662.55 23.8133 662.673 23.25 662.673 22.61C662.673 21.63 662.387 20.8433 661.813 20.25C661.247 19.65 660.497 19.35 659.563 19.35C659.303 19.35 659.03 19.3867 658.743 19.46C658.457 19.5267 658.19 19.6233 657.943 19.75L657.203 18.58L662.803 13.41L663.043 14.01H655.703V12.6H664.023V14.03L659.143 18.69L659.123 18.11C660.123 17.9833 661.003 18.0967 661.763 18.45C662.523 18.8033 663.117 19.3433 663.543 20.07C663.977 20.79 664.193 21.6367 664.193 22.61C664.193 23.53 663.993 24.3433 663.593 25.05C663.2 25.75 662.657 26.3 661.963 26.7C661.27 27.0933 660.483 27.29 659.603 27.29Z" fill="white"></path><path d="M707.063 27.3C706.01 27.3 705.06 27.1167 704.213 26.75C703.373 26.3833 702.68 25.86 702.133 25.18C701.593 24.4933 701.25 23.68 701.103 22.74L703.603 22.36C703.817 23.2133 704.253 23.8733 704.913 24.34C705.58 24.8067 706.347 25.04 707.213 25.04C707.727 25.04 708.21 24.96 708.663 24.8C709.117 24.64 709.483 24.4067 709.763 24.1C710.05 23.7933 710.193 23.4167 710.193 22.97C710.193 22.77 710.16 22.5867 710.093 22.42C710.027 22.2467 709.927 22.0933 709.793 21.96C709.667 21.8267 709.5 21.7067 709.293 21.6C709.093 21.4867 708.86 21.39 708.593 21.31L704.873 20.21C704.553 20.1167 704.207 19.9933 703.833 19.84C703.467 19.68 703.117 19.4633 702.783 19.19C702.457 18.91 702.187 18.5567 701.973 18.13C701.767 17.6967 701.663 17.1633 701.663 16.53C701.663 15.6033 701.897 14.8267 702.363 14.2C702.837 13.5667 703.47 13.0933 704.263 12.78C705.063 12.4667 705.95 12.3133 706.923 12.32C707.91 12.3267 708.79 12.4967 709.563 12.83C710.337 13.1567 710.983 13.6333 711.503 14.26C712.023 14.8867 712.39 15.6433 712.603 16.53L710.013 16.98C709.907 16.4733 709.7 16.0433 709.393 15.69C709.093 15.33 708.723 15.0567 708.283 14.87C707.85 14.6833 707.387 14.5833 706.893 14.57C706.413 14.5633 705.967 14.6367 705.553 14.79C705.147 14.9367 704.817 15.15 704.563 15.43C704.317 15.71 704.193 16.0367 704.193 16.41C704.193 16.7633 704.3 17.0533 704.513 17.28C704.727 17.5 704.99 17.6767 705.303 17.81C705.623 17.9367 705.947 18.0433 706.273 18.13L708.853 18.85C709.207 18.9433 709.603 19.07 710.043 19.23C710.483 19.39 710.907 19.6133 711.313 19.9C711.72 20.1867 712.053 20.5633 712.313 21.03C712.58 21.4967 712.713 22.09 712.713 22.81C712.713 23.5567 712.557 24.2133 712.243 24.78C711.937 25.34 711.52 25.8067 710.993 26.18C710.467 26.5533 709.863 26.8333 709.183 27.02C708.51 27.2067 707.803 27.3 707.063 27.3ZM721.208 27C720.495 27.1333 719.795 27.19 719.108 27.17C718.428 27.1567 717.818 27.0333 717.278 26.8C716.738 26.56 716.328 26.1833 716.048 25.67C715.801 25.2033 715.671 24.7267 715.658 24.24C715.645 23.7533 715.638 23.2033 715.638 22.59V13.2H718.038V22.45C718.038 22.8833 718.041 23.2633 718.048 23.59C718.061 23.9167 718.131 24.1833 718.258 24.39C718.498 24.79 718.881 25.0133 719.408 25.06C719.935 25.1067 720.535 25.08 721.208 24.98V27ZM713.678 18.09V16.2H721.208V18.09H713.678ZM727.893 27.3C726.8 27.3 725.84 27.0633 725.013 26.59C724.187 26.1167 723.54 25.46 723.073 24.62C722.613 23.78 722.383 22.8133 722.383 21.72C722.383 20.54 722.61 19.5167 723.063 18.65C723.517 17.7767 724.147 17.1 724.953 16.62C725.76 16.14 726.693 15.9 727.753 15.9C728.873 15.9 729.823 16.1633 730.603 16.69C731.39 17.21 731.973 17.9467 732.353 18.9C732.733 19.8533 732.877 20.9767 732.783 22.27H730.393V21.39C730.387 20.2167 730.18 19.36 729.773 18.82C729.367 18.28 728.727 18.01 727.853 18.01C726.867 18.01 726.133 18.3167 725.653 18.93C725.173 19.5367 724.933 20.4267 724.933 21.6C724.933 22.6933 725.173 23.54 725.653 24.14C726.133 24.74 726.833 25.04 727.753 25.04C728.347 25.04 728.857 24.91 729.283 24.65C729.717 24.3833 730.05 24 730.283 23.5L732.663 24.22C732.25 25.1933 731.61 25.95 730.743 26.49C729.883 27.03 728.933 27.3 727.893 27.3ZM724.173 22.27V20.45H731.603V22.27H724.173ZM739.912 27.3C738.858 27.3 737.975 27.05 737.262 26.55C736.548 26.05 736.012 25.37 735.652 24.51C735.292 23.6433 735.112 22.6733 735.112 21.6C735.112 20.5133 735.292 19.54 735.652 18.68C736.012 17.82 736.538 17.1433 737.232 16.65C737.932 16.15 738.795 15.9 739.822 15.9C740.842 15.9 741.725 16.15 742.472 16.65C743.225 17.1433 743.808 17.82 744.222 18.68C744.635 19.5333 744.842 20.5067 744.842 21.6C744.842 22.68 744.638 23.65 744.232 24.51C743.825 25.37 743.252 26.05 742.512 26.55C741.772 27.05 740.905 27.3 739.912 27.3ZM734.702 31.8V16.2H736.832V23.78H737.132V31.8H734.702ZM739.542 25.14C740.168 25.14 740.685 24.9833 741.092 24.67C741.498 24.3567 741.798 23.9333 741.992 23.4C742.192 22.86 742.292 22.26 742.292 21.6C742.292 20.9467 742.192 20.3533 741.992 19.82C741.792 19.28 741.482 18.8533 741.062 18.54C740.642 18.22 740.108 18.06 739.462 18.06C738.848 18.06 738.348 18.21 737.962 18.51C737.575 18.8033 737.288 19.2167 737.102 19.75C736.922 20.2767 736.832 20.8933 736.832 21.6C736.832 22.3 736.922 22.9167 737.102 23.45C737.288 23.9833 737.578 24.4 737.972 24.7C738.372 24.9933 738.895 25.14 739.542 25.14ZM755.17 27.27C754.45 27.27 753.77 27.13 753.13 26.85C752.49 26.57 751.933 26.1733 751.46 25.66C750.993 25.1467 750.656 24.54 750.45 23.84L752.78 23.21C752.946 23.7833 753.25 24.2267 753.69 24.54C754.136 24.8467 754.626 24.9967 755.16 24.99C755.633 24.99 756.056 24.88 756.43 24.66C756.803 24.44 757.096 24.1433 757.31 23.77C757.523 23.39 757.63 22.9667 757.63 22.5C757.63 21.7867 757.4 21.19 756.94 20.71C756.48 20.23 755.886 19.99 755.16 19.99C754.94 19.99 754.723 20.02 754.51 20.08C754.303 20.14 754.103 20.2233 753.91 20.33L752.81 18.43L757.65 14.29L757.86 14.87H751.01V12.6H759.84V14.88L755.95 18.62L755.93 17.91C756.803 17.97 757.546 18.2133 758.16 18.64C758.78 19.0667 759.253 19.6167 759.58 20.29C759.913 20.9633 760.08 21.7 760.08 22.5C760.08 23.4067 759.856 24.22 759.41 24.94C758.97 25.66 758.376 26.23 757.63 26.65C756.89 27.0633 756.07 27.27 755.17 27.27ZM767.475 25.7V23.23H769.945V25.7H767.475ZM767.495 19.97V17.5H769.965V19.97H767.495ZM782.864 27.3C781.811 27.3 780.861 27.1167 780.014 26.75C779.174 26.3833 778.481 25.86 777.934 25.18C777.394 24.4933 777.051 23.68 776.904 22.74L779.404 22.36C779.617 23.2133 780.054 23.8733 780.714 24.34C781.381 24.8067 782.147 25.04 783.014 25.04C783.527 25.04 784.011 24.96 784.464 24.8C784.917 24.64 785.284 24.4067 785.564 24.1C785.851 23.7933 785.994 23.4167 785.994 22.97C785.994 22.77 785.961 22.5867 785.894 22.42C785.827 22.2467 785.727 22.0933 785.594 21.96C785.467 21.8267 785.301 21.7067 785.094 21.6C784.894 21.4867 784.661 21.39 784.394 21.31L780.674 20.21C780.354 20.1167 780.007 19.9933 779.634 19.84C779.267 19.68 778.917 19.4633 778.584 19.19C778.257 18.91 777.987 18.5567 777.774 18.13C777.567 17.6967 777.464 17.1633 777.464 16.53C777.464 15.6033 777.697 14.8267 778.164 14.2C778.637 13.5667 779.271 13.0933 780.064 12.78C780.864 12.4667 781.751 12.3133 782.724 12.32C783.711 12.3267 784.591 12.4967 785.364 12.83C786.137 13.1567 786.784 13.6333 787.304 14.26C787.824 14.8867 788.191 15.6433 788.404 16.53L785.814 16.98C785.707 16.4733 785.501 16.0433 785.194 15.69C784.894 15.33 784.524 15.0567 784.084 14.87C783.651 14.6833 783.187 14.5833 782.694 14.57C782.214 14.5633 781.767 14.6367 781.354 14.79C780.947 14.9367 780.617 15.15 780.364 15.43C780.117 15.71 779.994 16.0367 779.994 16.41C779.994 16.7633 780.101 17.0533 780.314 17.28C780.527 17.5 780.791 17.6767 781.104 17.81C781.424 17.9367 781.747 18.0433 782.074 18.13L784.654 18.85C785.007 18.9433 785.404 19.07 785.844 19.23C786.284 19.39 786.707 19.6133 787.114 19.9C787.521 20.1867 787.854 20.5633 788.114 21.03C788.381 21.4967 788.514 22.09 788.514 22.81C788.514 23.5567 788.357 24.2133 788.044 24.78C787.737 25.34 787.321 25.8067 786.794 26.18C786.267 26.5533 785.664 26.8333 784.984 27.02C784.311 27.2067 783.604 27.3 782.864 27.3ZM795.869 27.3C794.815 27.3 793.932 27.05 793.219 26.55C792.505 26.05 791.969 25.37 791.609 24.51C791.249 23.6433 791.069 22.6733 791.069 21.6C791.069 20.5133 791.249 19.54 791.609 18.68C791.969 17.82 792.495 17.1433 793.189 16.65C793.889 16.15 794.752 15.9 795.779 15.9C796.799 15.9 797.682 16.15 798.429 16.65C799.182 17.1433 799.765 17.82 800.179 18.68C800.592 19.5333 800.799 20.5067 800.799 21.6C800.799 22.68 800.595 23.65 800.189 24.51C799.782 25.37 799.209 26.05 798.469 26.55C797.729 27.05 796.862 27.3 795.869 27.3ZM790.659 31.8V16.2H792.789V23.78H793.089V31.8H790.659ZM795.499 25.14C796.125 25.14 796.642 24.9833 797.049 24.67C797.455 24.3567 797.755 23.9333 797.949 23.4C798.149 22.86 798.249 22.26 798.249 21.6C798.249 20.9467 798.149 20.3533 797.949 19.82C797.749 19.28 797.439 18.8533 797.019 18.54C796.599 18.22 796.065 18.06 795.419 18.06C794.805 18.06 794.305 18.21 793.919 18.51C793.532 18.8033 793.245 19.2167 793.059 19.75C792.879 20.2767 792.789 20.8933 792.789 21.6C792.789 22.3 792.879 22.9167 793.059 23.45C793.245 23.9833 793.535 24.4 793.929 24.7C794.329 24.9933 794.852 25.14 795.499 25.14ZM807.913 27.3C806.82 27.3 805.86 27.0633 805.033 26.59C804.206 26.1167 803.56 25.46 803.093 24.62C802.633 23.78 802.403 22.8133 802.403 21.72C802.403 20.54 802.63 19.5167 803.083 18.65C803.536 17.7767 804.166 17.1 804.973 16.62C805.78 16.14 806.713 15.9 807.773 15.9C808.893 15.9 809.843 16.1633 810.623 16.69C811.41 17.21 811.993 17.9467 812.373 18.9C812.753 19.8533 812.896 20.9767 812.803 22.27H810.413V21.39C810.406 20.2167 810.2 19.36 809.793 18.82C809.386 18.28 808.746 18.01 807.873 18.01C806.886 18.01 806.153 18.3167 805.673 18.93C805.193 19.5367 804.953 20.4267 804.953 21.6C804.953 22.6933 805.193 23.54 805.673 24.14C806.153 24.74 806.853 25.04 807.773 25.04C808.366 25.04 808.876 24.91 809.303 24.65C809.736 24.3833 810.07 24 810.303 23.5L812.683 24.22C812.27 25.1933 811.63 25.95 810.763 26.49C809.903 27.03 808.953 27.3 807.913 27.3ZM804.193 22.27V20.45H811.623V22.27H804.193ZM819.724 27.3C818.611 27.3 817.661 27.0533 816.874 26.56C816.087 26.06 815.484 25.38 815.064 24.52C814.651 23.66 814.441 22.6867 814.434 21.6C814.441 20.4933 814.657 19.5133 815.084 18.66C815.517 17.8 816.131 17.1267 816.924 16.64C817.717 16.1467 818.661 15.9 819.754 15.9C820.981 15.9 822.017 16.21 822.864 16.83C823.717 17.4433 824.274 18.2833 824.534 19.35L822.134 20C821.947 19.42 821.637 18.97 821.204 18.65C820.771 18.3233 820.277 18.16 819.724 18.16C819.097 18.16 818.581 18.31 818.174 18.61C817.767 18.9033 817.467 19.31 817.274 19.83C817.081 20.35 816.984 20.94 816.984 21.6C816.984 22.6267 817.214 23.4567 817.674 24.09C818.134 24.7233 818.817 25.04 819.724 25.04C820.364 25.04 820.867 24.8933 821.234 24.6C821.607 24.3067 821.887 23.8833 822.074 23.33L824.534 23.88C824.201 24.98 823.617 25.8267 822.784 26.42C821.951 27.0067 820.931 27.3 819.724 27.3ZM826.445 14.56V12.35H828.855V14.56H826.445ZM826.445 27V16.2H828.855V27H826.445ZM834.871 27.3C834.091 27.3 833.431 27.1533 832.891 26.86C832.351 26.56 831.941 26.1633 831.661 25.67C831.387 25.1767 831.251 24.6333 831.251 24.04C831.251 23.52 831.337 23.0533 831.511 22.64C831.684 22.22 831.951 21.86 832.311 21.56C832.671 21.2533 833.137 21.0033 833.711 20.81C834.144 20.67 834.651 20.5433 835.231 20.43C835.817 20.3167 836.451 20.2133 837.131 20.12C837.817 20.02 838.534 19.9133 839.281 19.8L838.421 20.29C838.427 19.5433 838.261 18.9933 837.921 18.64C837.581 18.2867 837.007 18.11 836.201 18.11C835.714 18.11 835.244 18.2233 834.791 18.45C834.337 18.6767 834.021 19.0667 833.841 19.62L831.641 18.93C831.907 18.0167 832.414 17.2833 833.161 16.73C833.914 16.1767 834.927 15.9 836.201 15.9C837.161 15.9 838.004 16.0567 838.731 16.37C839.464 16.6833 840.007 17.1967 840.361 17.91C840.554 18.29 840.671 18.68 840.711 19.08C840.751 19.4733 840.771 19.9033 840.771 20.37V27H838.661V24.66L839.011 25.04C838.524 25.82 837.954 26.3933 837.301 26.76C836.654 27.12 835.844 27.3 834.871 27.3ZM835.351 25.38C835.897 25.38 836.364 25.2833 836.751 25.09C837.137 24.8967 837.444 24.66 837.671 24.38C837.904 24.1 838.061 23.8367 838.141 23.59C838.267 23.2833 838.337 22.9333 838.351 22.54C838.371 22.14 838.381 21.8167 838.381 21.57L839.121 21.79C838.394 21.9033 837.771 22.0033 837.251 22.09C836.731 22.1767 836.284 22.26 835.911 22.34C835.537 22.4133 835.207 22.4967 834.921 22.59C834.641 22.69 834.404 22.8067 834.211 22.94C834.017 23.0733 833.867 23.2267 833.761 23.4C833.661 23.5733 833.611 23.7767 833.611 24.01C833.611 24.2767 833.677 24.5133 833.811 24.72C833.944 24.92 834.137 25.08 834.391 25.2C834.651 25.32 834.971 25.38 835.351 25.38ZM843.574 27V12.3H845.984V27H843.574ZM859.073 27.3C857.633 27.3 856.4 26.9867 855.373 26.36C854.347 25.7267 853.557 24.8467 853.003 23.72C852.457 22.5933 852.183 21.2867 852.183 19.8C852.183 18.3133 852.457 17.0067 853.003 15.88C853.557 14.7533 854.347 13.8767 855.373 13.25C856.4 12.6167 857.633 12.3 859.073 12.3C860.513 12.3 861.747 12.6167 862.773 13.25C863.807 13.8767 864.597 14.7533 865.143 15.88C865.697 17.0067 865.973 18.3133 865.973 19.8C865.973 21.2867 865.697 22.5933 865.143 23.72C864.597 24.8467 863.807 25.7267 862.773 26.36C861.747 26.9867 860.513 27.3 859.073 27.3ZM859.073 25.03C860.04 25.0367 860.843 24.8233 861.483 24.39C862.13 23.9567 862.613 23.3467 862.933 22.56C863.26 21.7733 863.423 20.8533 863.423 19.8C863.423 18.7467 863.26 17.8333 862.933 17.06C862.613 16.28 862.13 15.6733 861.483 15.24C860.843 14.8067 860.04 14.5833 859.073 14.57C858.107 14.5633 857.303 14.7767 856.663 15.21C856.023 15.6433 855.54 16.2533 855.213 17.04C854.893 17.8267 854.733 18.7467 854.733 19.8C854.733 20.8533 854.893 21.77 855.213 22.55C855.533 23.3233 856.013 23.9267 856.653 24.36C857.3 24.7933 858.107 25.0167 859.073 25.03ZM868.904 27V16.03C868.904 15.7567 868.914 15.4567 868.934 15.13C868.954 14.7967 869.01 14.4667 869.104 14.14C869.197 13.8133 869.367 13.5167 869.614 13.25C869.92 12.91 870.25 12.6767 870.604 12.55C870.964 12.4167 871.317 12.3433 871.664 12.33C872.01 12.31 872.314 12.3 872.574 12.3H873.924V14.26H872.674C872.214 14.26 871.87 14.3767 871.644 14.61C871.424 14.8367 871.314 15.1367 871.314 15.51V27H868.904ZM867.164 18.09V16.2H873.924V18.09H867.164ZM875.634 27V16.03C875.634 15.7567 875.644 15.4567 875.664 15.13C875.684 14.7967 875.74 14.4667 875.834 14.14C875.927 13.8133 876.097 13.5167 876.344 13.25C876.65 12.91 876.98 12.6767 877.334 12.55C877.694 12.4167 878.047 12.3433 878.394 12.33C878.74 12.31 879.044 12.3 879.304 12.3H880.654V14.26H879.404C878.944 14.26 878.6 14.3767 878.374 14.61C878.154 14.8367 878.044 15.1367 878.044 15.51V27H875.634ZM873.894 18.09V16.2H880.654V18.09H873.894ZM886.78 27.3C885.687 27.3 884.727 27.0633 883.9 26.59C883.073 26.1167 882.427 25.46 881.96 24.62C881.5 23.78 881.27 22.8133 881.27 21.72C881.27 20.54 881.497 19.5167 881.95 18.65C882.403 17.7767 883.033 17.1 883.84 16.62C884.647 16.14 885.58 15.9 886.64 15.9C887.76 15.9 888.71 16.1633 889.49 16.69C890.277 17.21 890.86 17.9467 891.24 18.9C891.62 19.8533 891.763 20.9767 891.67 22.27H889.28V21.39C889.273 20.2167 889.067 19.36 888.66 18.82C888.253 18.28 887.613 18.01 886.74 18.01C885.753 18.01 885.02 18.3167 884.54 18.93C884.06 19.5367 883.82 20.4267 883.82 21.6C883.82 22.6933 884.06 23.54 884.54 24.14C885.02 24.74 885.72 25.04 886.64 25.04C887.233 25.04 887.743 24.91 888.17 24.65C888.603 24.3833 888.937 24 889.17 23.5L891.55 24.22C891.137 25.1933 890.497 25.95 889.63 26.49C888.77 27.03 887.82 27.3 886.78 27.3ZM883.06 22.27V20.45H890.49V22.27H883.06ZM893.901 27V16.2H896.031V18.83L895.771 18.49C895.905 18.13 896.081 17.8033 896.301 17.51C896.528 17.21 896.798 16.9633 897.111 16.77C897.378 16.59 897.671 16.45 897.991 16.35C898.318 16.2433 898.651 16.18 898.991 16.16C899.331 16.1333 899.661 16.1467 899.981 16.2V18.45C899.661 18.3567 899.291 18.3267 898.871 18.36C898.458 18.3933 898.085 18.51 897.751 18.71C897.418 18.89 897.145 19.12 896.931 19.4C896.725 19.68 896.571 20 896.471 20.36C896.371 20.7133 896.321 21.0967 896.321 21.51V27H893.901Z" fill="black"></path><circle cx="1010" cy="20" r="19" stroke="#2C7EF8" stroke-width="2"></circle><path d="M1011.74 27V24.21H1005V22.81L1009.82 12.6H1011.47L1006.65 22.81H1011.74V18.61H1013.22V22.81H1014.79V24.21H1013.22V27H1011.74Z" fill="#2C7EF8"></path><path d="M1056.4 27.3C1055.39 27.3 1054.49 27.1333 1053.68 26.8C1052.88 26.46 1052.22 25.98 1051.69 25.36C1051.17 24.74 1050.83 24.0033 1050.67 23.15L1052.17 22.9C1052.41 23.8333 1052.92 24.5667 1053.69 25.1C1054.46 25.6267 1055.39 25.89 1056.46 25.89C1057.17 25.89 1057.8 25.78 1058.36 25.56C1058.92 25.3333 1059.36 25.0133 1059.68 24.6C1060 24.1867 1060.16 23.6967 1060.16 23.13C1060.16 22.7567 1060.09 22.44 1059.96 22.18C1059.83 21.9133 1059.65 21.6933 1059.43 21.52C1059.21 21.3467 1058.97 21.2033 1058.71 21.09C1058.45 20.97 1058.2 20.8733 1057.95 20.8L1054.3 19.71C1053.86 19.5833 1053.45 19.4233 1053.08 19.23C1052.71 19.03 1052.38 18.7933 1052.1 18.52C1051.83 18.24 1051.61 17.9133 1051.46 17.54C1051.31 17.1667 1051.23 16.74 1051.23 16.26C1051.23 15.4467 1051.44 14.7433 1051.87 14.15C1052.3 13.5567 1052.88 13.1 1053.62 12.78C1054.36 12.46 1055.2 12.3033 1056.15 12.31C1057.11 12.31 1057.97 12.48 1058.72 12.82C1059.48 13.16 1060.11 13.6467 1060.6 14.28C1061.09 14.9067 1061.42 15.65 1061.58 16.51L1060.04 16.79C1059.94 16.1633 1059.71 15.62 1059.35 15.16C1058.99 14.7 1058.53 14.3467 1057.97 14.1C1057.42 13.8467 1056.81 13.7167 1056.14 13.71C1055.49 13.71 1054.92 13.82 1054.41 14.04C1053.91 14.2533 1053.51 14.5467 1053.22 14.92C1052.93 15.2933 1052.78 15.72 1052.78 16.2C1052.78 16.6867 1052.91 17.0767 1053.18 17.37C1053.45 17.6633 1053.79 17.8933 1054.18 18.06C1054.58 18.2267 1054.97 18.3633 1055.34 18.47L1058.16 19.3C1058.45 19.38 1058.8 19.4967 1059.19 19.65C1059.59 19.7967 1059.98 20.01 1060.35 20.29C1060.73 20.5633 1061.04 20.9233 1061.29 21.37C1061.54 21.8167 1061.66 22.3833 1061.66 23.07C1061.66 23.7367 1061.53 24.3333 1061.26 24.86C1061 25.3867 1060.63 25.83 1060.15 26.19C1059.68 26.55 1059.12 26.8233 1058.48 27.01C1057.85 27.2033 1057.15 27.3 1056.4 27.3ZM1069.6 27C1069 27.1267 1068.4 27.1767 1067.8 27.15C1067.22 27.1233 1066.69 26.9967 1066.22 26.77C1065.76 26.5433 1065.41 26.19 1065.17 25.71C1064.98 25.31 1064.87 24.9067 1064.85 24.5C1064.84 24.0867 1064.83 23.6167 1064.83 23.09V13.2H1066.29V23.03C1066.29 23.4833 1066.3 23.8633 1066.3 24.17C1066.32 24.47 1066.39 24.7367 1066.51 24.97C1066.75 25.4167 1067.13 25.6833 1067.65 25.77C1068.18 25.8567 1068.83 25.8367 1069.6 25.71V27ZM1062.52 17.46V16.2H1069.6V17.46H1062.52ZM1075.91 27.3C1074.86 27.3 1073.94 27.0667 1073.17 26.6C1072.4 26.1333 1071.81 25.4767 1071.38 24.63C1070.95 23.7833 1070.74 22.79 1070.74 21.65C1070.74 20.47 1070.95 19.45 1071.37 18.59C1071.79 17.73 1072.38 17.0667 1073.14 16.6C1073.91 16.1333 1074.81 15.9 1075.85 15.9C1076.92 15.9 1077.83 16.1467 1078.58 16.64C1079.33 17.1267 1079.9 17.8267 1080.29 18.74C1080.68 19.6533 1080.85 20.7433 1080.82 22.01H1079.32V21.49C1079.29 20.09 1078.99 19.0333 1078.41 18.32C1077.84 17.6067 1077 17.25 1075.89 17.25C1074.73 17.25 1073.84 17.6267 1073.22 18.38C1072.61 19.1333 1072.3 20.2067 1072.3 21.6C1072.3 22.96 1072.61 24.0167 1073.22 24.77C1073.84 25.5167 1074.72 25.89 1075.85 25.89C1076.62 25.89 1077.3 25.7133 1077.87 25.36C1078.45 25 1078.91 24.4833 1079.24 23.81L1080.61 24.34C1080.18 25.28 1079.55 26.01 1078.72 26.53C1077.89 27.0433 1076.96 27.3 1075.91 27.3ZM1071.78 22.01V20.78H1080.03V22.01H1071.78ZM1087.6 27.3C1086.6 27.3 1085.76 27.05 1085.08 26.55C1084.39 26.0433 1083.87 25.36 1083.52 24.5C1083.16 23.6333 1082.99 22.6633 1082.99 21.59C1082.99 20.4967 1083.16 19.5233 1083.52 18.67C1083.88 17.81 1084.4 17.1333 1085.1 16.64C1085.79 16.1467 1086.64 15.9 1087.66 15.9C1088.64 15.9 1089.49 16.15 1090.2 16.65C1090.9 17.15 1091.44 17.83 1091.82 18.69C1092.2 19.55 1092.39 20.5167 1092.39 21.59C1092.39 22.67 1092.2 23.64 1091.82 24.5C1091.44 25.36 1090.89 26.0433 1090.18 26.55C1089.46 27.05 1088.6 27.3 1087.6 27.3ZM1082.74 31.8V16.2H1084.06V24.33H1084.22V31.8H1082.74ZM1087.45 25.93C1088.2 25.93 1088.83 25.74 1089.33 25.36C1089.83 24.98 1090.2 24.4633 1090.45 23.81C1090.7 23.15 1090.83 22.41 1090.83 21.59C1090.83 20.7767 1090.7 20.0433 1090.46 19.39C1090.21 18.7367 1089.83 18.22 1089.33 17.84C1088.83 17.46 1088.19 17.27 1087.42 17.27C1086.66 17.27 1086.04 17.4533 1085.54 17.82C1085.04 18.1867 1084.67 18.6967 1084.43 19.35C1084.18 19.9967 1084.06 20.7433 1084.06 21.59C1084.06 22.4233 1084.18 23.17 1084.43 23.83C1084.67 24.4833 1085.05 24.9967 1085.55 25.37C1086.05 25.7433 1086.68 25.93 1087.45 25.93ZM1104.93 27V24.21H1098.19V22.81L1103.01 12.6H1104.66L1099.84 22.81H1104.93V18.61H1106.41V22.81H1107.98V24.21H1106.41V27H1104.93ZM1115.19 25.4V23.69H1116.9V25.4H1115.19ZM1115.2 19.51V17.8H1116.91V19.51H1115.2ZM1130.2 27.3C1128.77 27.3 1127.56 26.9833 1126.57 26.35C1125.58 25.71 1124.84 24.8267 1124.33 23.7C1123.82 22.5733 1123.57 21.2733 1123.57 19.8C1123.57 18.3267 1123.82 17.0267 1124.33 15.9C1124.84 14.7733 1125.58 13.8933 1126.57 13.26C1127.56 12.62 1128.77 12.3 1130.2 12.3C1131.87 12.3 1133.24 12.73 1134.3 13.59C1135.36 14.4433 1136.09 15.59 1136.48 17.03L1134.98 17.42C1134.67 16.28 1134.12 15.3767 1133.33 14.71C1132.54 14.0433 1131.49 13.71 1130.2 13.71C1129.07 13.71 1128.14 13.9667 1127.39 14.48C1126.64 14.9933 1126.08 15.71 1125.7 16.63C1125.33 17.5433 1125.13 18.6 1125.12 19.8C1125.11 21 1125.3 22.0567 1125.67 22.97C1126.05 23.8833 1126.62 24.6 1127.37 25.12C1128.13 25.6333 1129.07 25.89 1130.2 25.89C1131.49 25.89 1132.54 25.5567 1133.33 24.89C1134.12 24.2167 1134.67 23.3133 1134.98 22.18L1136.48 22.57C1136.09 24.01 1135.36 25.16 1134.3 26.02C1133.24 26.8733 1131.87 27.3 1130.2 27.3ZM1143.2 27.3C1142.12 27.3 1141.21 27.0567 1140.45 26.57C1139.69 26.0833 1139.1 25.41 1138.7 24.55C1138.29 23.69 1138.09 22.7033 1138.09 21.59C1138.09 20.4567 1138.29 19.4633 1138.71 18.61C1139.12 17.7567 1139.71 17.0933 1140.47 16.62C1141.23 16.14 1142.14 15.9 1143.2 15.9C1144.28 15.9 1145.2 16.1433 1145.96 16.63C1146.72 17.11 1147.31 17.78 1147.71 18.64C1148.11 19.4933 1148.32 20.4767 1148.32 21.59C1148.32 22.7233 1148.11 23.72 1147.71 24.58C1147.3 25.4333 1146.71 26.1 1145.95 26.58C1145.18 27.06 1144.26 27.3 1143.2 27.3ZM1143.2 25.89C1144.4 25.89 1145.29 25.4933 1145.88 24.7C1146.46 23.9 1146.76 22.8633 1146.76 21.59C1146.76 20.2833 1146.46 19.2433 1145.87 18.47C1145.28 17.6967 1144.39 17.31 1143.2 17.31C1142.39 17.31 1141.72 17.4933 1141.2 17.86C1140.68 18.22 1140.29 18.7233 1140.03 19.37C1139.77 20.01 1139.65 20.75 1139.65 21.59C1139.65 22.89 1139.95 23.9333 1140.55 24.72C1141.15 25.5 1142.03 25.89 1143.2 25.89ZM1158.32 27V21.49C1158.32 20.89 1158.26 20.34 1158.15 19.84C1158.04 19.3333 1157.85 18.8933 1157.6 18.52C1157.35 18.14 1157.03 17.8467 1156.63 17.64C1156.24 17.4333 1155.76 17.33 1155.19 17.33C1154.67 17.33 1154.21 17.42 1153.81 17.6C1153.42 17.78 1153.08 18.04 1152.81 18.38C1152.54 18.7133 1152.34 19.12 1152.2 19.6C1152.06 20.08 1151.99 20.6267 1151.99 21.24L1150.95 21.01C1150.95 19.9033 1151.14 18.9733 1151.53 18.22C1151.92 17.4667 1152.45 16.8967 1153.13 16.51C1153.81 16.1233 1154.59 15.93 1155.47 15.93C1156.12 15.93 1156.68 16.03 1157.16 16.23C1157.65 16.43 1158.06 16.7 1158.39 17.04C1158.73 17.38 1159 17.77 1159.21 18.21C1159.42 18.6433 1159.57 19.1067 1159.66 19.6C1159.75 20.0867 1159.8 20.5733 1159.8 21.06V27H1158.32ZM1150.51 27V16.2H1151.84V18.86H1151.99V27H1150.51ZM1163.47 27V15.4C1163.47 15.12 1163.48 14.8433 1163.51 14.57C1163.54 14.2967 1163.6 14.0367 1163.7 13.79C1163.79 13.5367 1163.94 13.3033 1164.14 13.09C1164.36 12.85 1164.6 12.6767 1164.86 12.57C1165.12 12.4567 1165.39 12.3833 1165.67 12.35C1165.95 12.3167 1166.23 12.3 1166.51 12.3H1167.89V13.54H1166.61C1166.05 13.54 1165.63 13.6767 1165.35 13.95C1165.07 14.2233 1164.94 14.6533 1164.94 15.24V27H1163.47ZM1161.6 17.46V16.2H1167.89V17.46H1161.6ZM1169.99 14.15V12.5H1171.46V14.15H1169.99ZM1169.99 27V16.2H1171.46V27H1169.99ZM1174.45 27V16.2H1175.77V18.8L1175.51 18.46C1175.63 18.14 1175.78 17.8467 1175.98 17.58C1176.17 17.3067 1176.38 17.0833 1176.61 16.91C1176.89 16.6633 1177.21 16.4767 1177.59 16.35C1177.96 16.2167 1178.34 16.14 1178.72 16.12C1179.1 16.0933 1179.44 16.12 1179.76 16.2V17.58C1179.36 17.48 1178.93 17.4567 1178.47 17.51C1178 17.5633 1177.57 17.75 1177.18 18.07C1176.82 18.35 1176.55 18.6867 1176.37 19.08C1176.19 19.4667 1176.07 19.88 1176.01 20.32C1175.95 20.7533 1175.92 21.1833 1175.92 21.61V27H1174.45ZM1194.53 27L1194.54 19.91C1194.54 19.0767 1194.31 18.4233 1193.84 17.95C1193.38 17.47 1192.8 17.23 1192.08 17.23C1191.68 17.23 1191.28 17.3233 1190.89 17.51C1190.51 17.6967 1190.19 17.9967 1189.93 18.41C1189.69 18.8233 1189.56 19.3633 1189.56 20.03L1188.69 19.78C1188.67 19.0067 1188.82 18.33 1189.14 17.75C1189.47 17.17 1189.92 16.72 1190.48 16.4C1191.06 16.0733 1191.7 15.91 1192.42 15.91C1193.51 15.91 1194.38 16.2467 1195.03 16.92C1195.69 17.5867 1196.01 18.49 1196.01 19.63L1196 27H1194.53ZM1181.64 27V16.2H1182.96V18.86H1183.12V27H1181.64ZM1188.1 27L1188.11 20.01C1188.11 19.15 1187.88 18.4733 1187.42 17.98C1186.97 17.48 1186.37 17.23 1185.62 17.23C1184.88 17.23 1184.27 17.4867 1183.81 18C1183.35 18.5067 1183.12 19.1833 1183.12 20.03L1182.24 19.55C1182.24 18.8567 1182.41 18.2367 1182.73 17.69C1183.06 17.1367 1183.51 16.7033 1184.07 16.39C1184.64 16.07 1185.28 15.91 1186 15.91C1186.69 15.91 1187.3 16.0567 1187.83 16.35C1188.37 16.6433 1188.8 17.07 1189.1 17.63C1189.41 18.19 1189.56 18.87 1189.56 19.67L1189.55 27H1188.1ZM1201.7 27.3C1200.88 27.3 1200.2 27.1533 1199.65 26.86C1199.1 26.5667 1198.69 26.1767 1198.42 25.69C1198.14 25.2033 1198.01 24.6733 1198.01 24.1C1198.01 23.5133 1198.12 23.0133 1198.36 22.6C1198.6 22.18 1198.92 21.8367 1199.33 21.57C1199.74 21.3033 1200.22 21.1 1200.76 20.96C1201.3 20.8267 1201.91 20.71 1202.57 20.61C1203.23 20.5033 1203.88 20.4133 1204.52 20.34C1205.16 20.26 1205.72 20.1833 1206.2 20.11L1205.68 20.43C1205.7 19.3633 1205.49 18.5733 1205.06 18.06C1204.62 17.5467 1203.87 17.29 1202.8 17.29C1202.06 17.29 1201.43 17.4567 1200.92 17.79C1200.41 18.1233 1200.05 18.65 1199.85 19.37L1198.42 18.95C1198.66 17.9833 1199.16 17.2333 1199.91 16.7C1200.65 16.1667 1201.62 15.9 1202.82 15.9C1203.8 15.9 1204.64 16.0867 1205.33 16.46C1206.02 16.8267 1206.51 17.36 1206.8 18.06C1206.93 18.3733 1207.02 18.7233 1207.06 19.11C1207.1 19.4967 1207.12 19.89 1207.12 20.29V27H1205.81V24.29L1206.19 24.45C1205.82 25.3767 1205.25 26.0833 1204.48 26.57C1203.7 27.0567 1202.78 27.3 1201.7 27.3ZM1201.87 26.03C1202.55 26.03 1203.15 25.9067 1203.67 25.66C1204.18 25.4133 1204.59 25.0767 1204.91 24.65C1205.22 24.2167 1205.42 23.73 1205.52 23.19C1205.6 22.8433 1205.64 22.4633 1205.65 22.05C1205.65 21.63 1205.66 21.3167 1205.66 21.11L1206.22 21.4C1205.72 21.4667 1205.17 21.5333 1204.59 21.6C1204.01 21.6667 1203.43 21.7433 1202.87 21.83C1202.31 21.9167 1201.8 22.02 1201.35 22.14C1201.04 22.2267 1200.74 22.35 1200.46 22.51C1200.17 22.6633 1199.93 22.87 1199.75 23.13C1199.57 23.39 1199.48 23.7133 1199.48 24.1C1199.48 24.4133 1199.55 24.7167 1199.71 25.01C1199.87 25.3033 1200.12 25.5467 1200.47 25.74C1200.82 25.9333 1201.29 26.03 1201.87 26.03ZM1215.6 27C1214.99 27.1267 1214.39 27.1767 1213.8 27.15C1213.21 27.1233 1212.69 26.9967 1212.22 26.77C1211.76 26.5433 1211.41 26.19 1211.17 25.71C1210.98 25.31 1210.87 24.9067 1210.85 24.5C1210.84 24.0867 1210.83 23.6167 1210.83 23.09V13.2H1212.29V23.03C1212.29 23.4833 1212.29 23.8633 1212.3 24.17C1212.31 24.47 1212.38 24.7367 1212.51 24.97C1212.75 25.4167 1213.13 25.6833 1213.65 25.77C1214.18 25.8567 1214.83 25.8367 1215.6 25.71V27ZM1208.52 17.46V16.2H1215.6V17.46H1208.52ZM1217.93 14.15V12.5H1219.4V14.15H1217.93ZM1217.93 27V16.2H1219.4V27H1217.93ZM1226.91 27.3C1225.83 27.3 1224.92 27.0567 1224.16 26.57C1223.4 26.0833 1222.81 25.41 1222.41 24.55C1222 23.69 1221.8 22.7033 1221.8 21.59C1221.8 20.4567 1222 19.4633 1222.42 18.61C1222.83 17.7567 1223.42 17.0933 1224.18 16.62C1224.94 16.14 1225.85 15.9 1226.91 15.9C1227.99 15.9 1228.91 16.1433 1229.67 16.63C1230.43 17.11 1231.02 17.78 1231.42 18.64C1231.82 19.4933 1232.03 20.4767 1232.03 21.59C1232.03 22.7233 1231.82 23.72 1231.42 24.58C1231.01 25.4333 1230.42 26.1 1229.66 26.58C1228.89 27.06 1227.97 27.3 1226.91 27.3ZM1226.91 25.89C1228.11 25.89 1229 25.4933 1229.59 24.7C1230.17 23.9 1230.47 22.8633 1230.47 21.59C1230.47 20.2833 1230.17 19.2433 1229.58 18.47C1228.99 17.6967 1228.1 17.31 1226.91 17.31C1226.1 17.31 1225.43 17.4933 1224.91 17.86C1224.39 18.22 1224 18.7233 1223.74 19.37C1223.48 20.01 1223.36 20.75 1223.36 21.59C1223.36 22.89 1223.66 23.9333 1224.26 24.72C1224.86 25.5 1225.74 25.89 1226.91 25.89ZM1242.03 27V21.49C1242.03 20.89 1241.98 20.34 1241.86 19.84C1241.75 19.3333 1241.57 18.8933 1241.31 18.52C1241.07 18.14 1240.74 17.8467 1240.34 17.64C1239.95 17.4333 1239.47 17.33 1238.9 17.33C1238.38 17.33 1237.92 17.42 1237.52 17.6C1237.13 17.78 1236.8 18.04 1236.52 18.38C1236.26 18.7133 1236.05 19.12 1235.91 19.6C1235.77 20.08 1235.7 20.6267 1235.7 21.24L1234.66 21.01C1234.66 19.9033 1234.86 18.9733 1235.24 18.22C1235.63 17.4667 1236.16 16.8967 1236.84 16.51C1237.52 16.1233 1238.3 15.93 1239.18 15.93C1239.83 15.93 1240.39 16.03 1240.87 16.23C1241.36 16.43 1241.77 16.7 1242.1 17.04C1242.44 17.38 1242.72 17.77 1242.92 18.21C1243.13 18.6433 1243.28 19.1067 1243.37 19.6C1243.47 20.0867 1243.51 20.5733 1243.51 21.06V27H1242.03ZM1234.22 27V16.2H1235.55V18.86H1235.7V27H1234.22Z" fill="black"></path></svg>