<svg xmlns="http://www.w3.org/2000/svg" width="551" height="98" viewBox="0 0 551 98" fill="none"><path d="M1.99976 11L8.65858 18L21.9998 4" stroke="#2C7EF8" stroke-width="2.5" stroke-linecap="round" stroke-linejoin="round"></path><path d="M36.12 17V5.48H37.304L43.648 14.92V5.48H44.832V17H43.648L37.304 7.552V17H36.12ZM50.7291 17.24C49.8865 17.24 49.1558 17.0533 48.5371 16.68C47.9238 16.3067 47.4465 15.7813 47.1051 15.104C46.7638 14.4267 46.5931 13.632 46.5931 12.72C46.5931 11.776 46.7611 10.96 47.0971 10.272C47.4331 9.584 47.9051 9.05333 48.5131 8.68C49.1265 8.30667 49.8491 8.12 50.6811 8.12C51.5345 8.12 52.2625 8.31733 52.8651 8.712C53.4678 9.10133 53.9238 9.66133 54.2331 10.392C54.5425 11.1227 54.6838 11.9947 54.6571 13.008H53.4571V12.592C53.4358 11.472 53.1931 10.6267 52.7291 10.056C52.2705 9.48533 51.5985 9.2 50.7131 9.2C49.7851 9.2 49.0731 9.50133 48.5771 10.104C48.0865 10.7067 47.8411 11.5653 47.8411 12.68C47.8411 13.768 48.0865 14.6133 48.5771 15.216C49.0731 15.8133 49.7745 16.112 50.6811 16.112C51.2998 16.112 51.8385 15.9707 52.2971 15.688C52.7611 15.4 53.1265 14.9867 53.3931 14.448L54.4891 14.872C54.1478 15.624 53.6438 16.208 52.9771 16.624C52.3158 17.0347 51.5665 17.24 50.7291 17.24ZM47.4251 13.008V12.024H54.0251V13.008H47.4251ZM59.8645 21.08C59.4218 21.08 58.9845 21.0133 58.5525 20.88C58.1258 20.752 57.7312 20.5467 57.3685 20.264C57.0058 19.9867 56.7018 19.624 56.4565 19.176L57.5205 18.584C57.7605 19.064 58.0965 19.408 58.5285 19.616C58.9658 19.8293 59.4112 19.936 59.8645 19.936C60.4885 19.936 60.9925 19.8187 61.3765 19.584C61.7658 19.3547 62.0485 19.0133 62.2245 18.56C62.4005 18.1067 62.4858 17.5413 62.4805 16.864V14.56H62.6165V8.36H63.6645V16.88C63.6645 17.1253 63.6565 17.36 63.6405 17.584C63.6298 17.8133 63.6058 18.0373 63.5685 18.256C63.4672 18.9013 63.2565 19.432 62.9365 19.848C62.6218 20.264 62.2058 20.5733 61.6885 20.776C61.1765 20.9787 60.5685 21.08 59.8645 21.08ZM59.7845 17.24C58.9792 17.24 58.2912 17.04 57.7205 16.64C57.1498 16.2347 56.7125 15.688 56.4085 15C56.1045 14.312 55.9525 13.536 55.9525 12.672C55.9525 11.8133 56.1018 11.04 56.4005 10.352C56.7045 9.664 57.1392 9.12 57.7045 8.72C58.2698 8.32 58.9472 8.12 59.7365 8.12C60.5472 8.12 61.2298 8.31733 61.7845 8.712C62.3392 9.10667 62.7578 9.648 63.0405 10.336C63.3285 11.0187 63.4725 11.7973 63.4725 12.672C63.4725 13.5307 63.3312 14.3067 63.0485 15C62.7658 15.688 62.3498 16.2347 61.8005 16.64C61.2512 17.04 60.5792 17.24 59.7845 17.24ZM59.9045 16.144C60.5178 16.144 61.0245 15.9947 61.4245 15.696C61.8245 15.3973 62.1232 14.9867 62.3205 14.464C62.5178 13.936 62.6165 13.3387 62.6165 12.672C62.6165 11.9947 62.5178 11.3973 62.3205 10.88C62.1232 10.3573 61.8245 9.94933 61.4245 9.656C61.0298 9.36267 60.5312 9.216 59.9285 9.216C59.3098 9.216 58.7978 9.368 58.3925 9.672C57.9872 9.976 57.6858 10.3893 57.4885 10.912C57.2965 11.4347 57.2005 12.0213 57.2005 12.672C57.2005 13.328 57.2992 13.92 57.4965 14.448C57.6992 14.9707 58.0005 15.384 58.4005 15.688C58.8005 15.992 59.3018 16.144 59.9045 16.144ZM68.3733 17.24C67.7226 17.24 67.1759 17.1227 66.7333 16.888C66.2959 16.6533 65.9679 16.3413 65.7493 15.952C65.5306 15.5627 65.4213 15.1387 65.4213 14.68C65.4213 14.2107 65.5146 13.8107 65.7013 13.48C65.8933 13.144 66.1519 12.8693 66.4773 12.656C66.8079 12.4427 67.1893 12.28 67.6213 12.168C68.0586 12.0613 68.5413 11.968 69.0693 11.888C69.6026 11.8027 70.1226 11.7307 70.6293 11.672C71.1413 11.608 71.5893 11.5467 71.9733 11.488L71.5573 11.744C71.5733 10.8907 71.4079 10.2587 71.0613 9.848C70.7146 9.43733 70.1119 9.232 69.2533 9.232C68.6613 9.232 68.1599 9.36533 67.7493 9.632C67.3439 9.89867 67.0586 10.32 66.8932 10.896L65.7493 10.56C65.9466 9.78667 66.3439 9.18667 66.9413 8.76C67.5386 8.33333 68.3146 8.12 69.2693 8.12C70.0586 8.12 70.7279 8.26933 71.2773 8.568C71.8319 8.86133 72.2239 9.288 72.4533 9.848C72.5599 10.0987 72.6293 10.3787 72.6613 10.688C72.6933 10.9973 72.7093 11.312 72.7093 11.632V17H71.6613V14.832L71.9653 14.96C71.6719 15.7013 71.2159 16.2667 70.5973 16.656C69.9786 17.0453 69.2373 17.24 68.3733 17.24ZM68.5093 16.224C69.0586 16.224 69.5386 16.1253 69.9493 15.928C70.3599 15.7307 70.6906 15.4613 70.9413 15.12C71.1919 14.7733 71.3546 14.384 71.4293 13.952C71.4933 13.6747 71.5279 13.3707 71.5333 13.04C71.5386 12.704 71.5413 12.4533 71.5413 12.288L71.9893 12.52C71.5893 12.5733 71.1546 12.6267 70.6853 12.68C70.2213 12.7333 69.7626 12.7947 69.3093 12.864C68.8613 12.9333 68.4559 13.016 68.0933 13.112C67.8479 13.1813 67.6106 13.28 67.3813 13.408C67.1519 13.5307 66.9626 13.696 66.8133 13.904C66.6693 14.112 66.5973 14.3707 66.5973 14.68C66.5973 14.9307 66.6586 15.1733 66.7812 15.408C66.9093 15.6427 67.1119 15.8373 67.3893 15.992C67.6719 16.1467 68.0453 16.224 68.5093 16.224ZM79.4959 17C79.0105 17.1013 78.5305 17.1413 78.0559 17.12C77.5865 17.0987 77.1652 16.9973 76.7919 16.816C76.4239 16.6347 76.1439 16.352 75.9519 15.968C75.7972 15.648 75.7119 15.3253 75.6959 15C75.6852 14.6693 75.6799 14.2933 75.6799 13.872V5.96H76.8479V13.824C76.8479 14.1867 76.8505 14.4907 76.8559 14.736C76.8665 14.976 76.9225 15.1893 77.0239 15.376C77.2159 15.7333 77.5199 15.9467 77.9359 16.016C78.3572 16.0853 78.8772 16.0693 79.4959 15.968V17ZM73.8319 9.368V8.36H79.4959V9.368H73.8319ZM81.3581 6.72V5.4H82.5341V6.72H81.3581ZM81.3581 17V8.36H82.5341V17H81.3581ZM87.2685 17L84.1325 8.36H85.3245L87.8765 15.464L90.4125 8.36H91.6205L88.4845 17H87.2685ZM96.401 17.24C95.5583 17.24 94.8277 17.0533 94.209 16.68C93.5957 16.3067 93.1183 15.7813 92.777 15.104C92.4357 14.4267 92.265 13.632 92.265 12.72C92.265 11.776 92.433 10.96 92.769 10.272C93.105 9.584 93.577 9.05333 94.185 8.68C94.7983 8.30667 95.521 8.12 96.353 8.12C97.2063 8.12 97.9343 8.31733 98.537 8.712C99.1397 9.10133 99.5957 9.66133 99.905 10.392C100.214 11.1227 100.356 11.9947 100.329 13.008H99.129V12.592C99.1077 11.472 98.865 10.6267 98.401 10.056C97.9423 9.48533 97.2703 9.2 96.385 9.2C95.457 9.2 94.745 9.50133 94.249 10.104C93.7583 10.7067 93.513 11.5653 93.513 12.68C93.513 13.768 93.7583 14.6133 94.249 15.216C94.745 15.8133 95.4463 16.112 96.353 16.112C96.9717 16.112 97.5103 15.9707 97.969 15.688C98.433 15.4 98.7983 14.9867 99.065 14.448L100.161 14.872C99.8197 15.624 99.3157 16.208 98.649 16.624C97.9877 17.0347 97.2383 17.24 96.401 17.24ZM93.097 13.008V12.024H99.697V13.008H93.097ZM105.468 17V5.48H106.644V17H105.468ZM112.65 17.24C111.791 17.24 111.058 17.0453 110.45 16.656C109.842 16.2667 109.375 15.728 109.05 15.04C108.725 14.352 108.562 13.5627 108.562 12.672C108.562 11.7653 108.727 10.9707 109.058 10.288C109.389 9.60533 109.858 9.07467 110.466 8.696C111.079 8.312 111.807 8.12 112.65 8.12C113.514 8.12 114.25 8.31467 114.858 8.704C115.471 9.088 115.938 9.624 116.258 10.312C116.583 10.9947 116.746 11.7813 116.746 12.672C116.746 13.5787 116.583 14.376 116.258 15.064C115.933 15.7467 115.463 16.28 114.85 16.664C114.237 17.048 113.503 17.24 112.65 17.24ZM112.65 16.112C113.61 16.112 114.325 15.7947 114.794 15.16C115.263 14.52 115.498 13.6907 115.498 12.672C115.498 11.6267 115.261 10.7947 114.786 10.176C114.317 9.55733 113.605 9.248 112.65 9.248C112.005 9.248 111.471 9.39467 111.05 9.688C110.634 9.976 110.322 10.3787 110.114 10.896C109.911 11.408 109.81 12 109.81 12.672C109.81 13.712 110.05 14.5467 110.53 15.176C111.01 15.8 111.717 16.112 112.65 16.112ZM124.751 17V12.592C124.751 12.112 124.705 11.672 124.615 11.272C124.524 10.8667 124.377 10.5147 124.175 10.216C123.977 9.912 123.719 9.67733 123.399 9.512C123.084 9.34667 122.7 9.264 122.247 9.264C121.831 9.264 121.463 9.336 121.143 9.48C120.828 9.624 120.561 9.832 120.343 10.104C120.129 10.3707 119.967 10.696 119.855 11.08C119.743 11.464 119.687 11.9013 119.687 12.392L118.855 12.208C118.855 11.3227 119.009 10.5787 119.319 9.976C119.628 9.37333 120.055 8.91733 120.599 8.608C121.143 8.29867 121.767 8.144 122.471 8.144C122.988 8.144 123.439 8.224 123.823 8.384C124.212 8.544 124.54 8.76 124.807 9.032C125.079 9.304 125.297 9.616 125.463 9.968C125.628 10.3147 125.748 10.6853 125.823 11.08C125.897 11.4693 125.935 11.8587 125.935 12.248V17H124.751ZM118.503 17V8.36H119.567V10.488H119.687V17H118.503ZM134.278 17V6.608H130.254V5.48H139.478V6.608H135.454V17H134.278ZM143.135 17.24C142.293 17.24 141.562 17.0533 140.943 16.68C140.33 16.3067 139.853 15.7813 139.511 15.104C139.17 14.4267 138.999 13.632 138.999 12.72C138.999 11.776 139.167 10.96 139.503 10.272C139.839 9.584 140.311 9.05333 140.919 8.68C141.533 8.30667 142.255 8.12 143.087 8.12C143.941 8.12 144.669 8.31733 145.271 8.712C145.874 9.10133 146.33 9.66133 146.639 10.392C146.949 11.1227 147.09 11.9947 147.063 13.008H145.863V12.592C145.842 11.472 145.599 10.6267 145.135 10.056C144.677 9.48533 144.005 9.2 143.119 9.2C142.191 9.2 141.479 9.50133 140.983 10.104C140.493 10.7067 140.247 11.5653 140.247 12.68C140.247 13.768 140.493 14.6133 140.983 15.216C141.479 15.8133 142.181 16.112 143.087 16.112C143.706 16.112 144.245 15.9707 144.703 15.688C145.167 15.4 145.533 14.9867 145.799 14.448L146.895 14.872C146.554 15.624 146.05 16.208 145.383 16.624C144.722 17.0347 143.973 17.24 143.135 17.24ZM139.831 13.008V12.024H146.431V13.008H139.831ZM152.423 17.24C151.553 17.24 150.817 17.0453 150.215 16.656C149.612 16.2667 149.153 15.7307 148.839 15.048C148.529 14.36 148.369 13.5707 148.359 12.68C148.369 11.7733 148.535 10.9787 148.855 10.296C149.175 9.608 149.636 9.07467 150.239 8.696C150.841 8.312 151.572 8.12 152.431 8.12C153.305 8.12 154.065 8.33333 154.711 8.76C155.361 9.18667 155.807 9.77067 156.047 10.512L154.895 10.88C154.692 10.3627 154.369 9.96267 153.927 9.68C153.489 9.392 152.988 9.248 152.423 9.248C151.788 9.248 151.263 9.39467 150.847 9.688C150.431 9.976 150.121 10.3787 149.919 10.896C149.716 11.4133 149.612 12.008 149.607 12.68C149.617 13.7147 149.857 14.5467 150.327 15.176C150.796 15.8 151.495 16.112 152.423 16.112C153.009 16.112 153.508 15.9787 153.919 15.712C154.335 15.44 154.649 15.0453 154.863 14.528L156.047 14.88C155.727 15.648 155.257 16.2347 154.639 16.64C154.02 17.04 153.281 17.24 152.423 17.24ZM163.938 17V12.592C163.938 12.112 163.893 11.672 163.802 11.272C163.711 10.8667 163.565 10.5147 163.362 10.216C163.165 9.912 162.906 9.67733 162.586 9.512C162.271 9.34667 161.887 9.264 161.434 9.264C161.018 9.264 160.65 9.336 160.33 9.48C160.015 9.624 159.749 9.832 159.53 10.104C159.317 10.3707 159.154 10.696 159.042 11.08C158.93 11.464 158.874 11.9013 158.874 12.392L158.042 12.208C158.042 11.3227 158.197 10.5787 158.506 9.976C158.815 9.37333 159.242 8.91733 159.786 8.608C160.33 8.29867 160.954 8.144 161.658 8.144C162.175 8.144 162.626 8.224 163.01 8.384C163.399 8.544 163.727 8.76 163.994 9.032C164.266 9.304 164.485 9.616 164.65 9.968C164.815 10.3147 164.935 10.6853 165.01 11.08C165.085 11.4693 165.122 11.8587 165.122 12.248V17H163.938ZM157.69 17V5.48H158.754V11.984H158.874V17H157.69ZM173.438 17V12.592C173.438 12.112 173.393 11.672 173.302 11.272C173.211 10.8667 173.065 10.5147 172.862 10.216C172.665 9.912 172.406 9.67733 172.086 9.512C171.771 9.34667 171.387 9.264 170.934 9.264C170.518 9.264 170.15 9.336 169.83 9.48C169.515 9.624 169.249 9.832 169.03 10.104C168.817 10.3707 168.654 10.696 168.542 11.08C168.43 11.464 168.374 11.9013 168.374 12.392L167.542 12.208C167.542 11.3227 167.697 10.5787 168.006 9.976C168.315 9.37333 168.742 8.91733 169.286 8.608C169.83 8.29867 170.454 8.144 171.158 8.144C171.675 8.144 172.126 8.224 172.51 8.384C172.899 8.544 173.227 8.76 173.494 9.032C173.766 9.304 173.985 9.616 174.15 9.968C174.315 10.3147 174.435 10.6853 174.51 11.08C174.585 11.4693 174.622 11.8587 174.622 12.248V17H173.438ZM167.19 17V8.36H168.254V10.488H168.374V17H167.19ZM180.259 17.24C179.401 17.24 178.667 17.0453 178.059 16.656C177.451 16.2667 176.985 15.728 176.659 15.04C176.334 14.352 176.171 13.5627 176.171 12.672C176.171 11.7653 176.337 10.9707 176.667 10.288C176.998 9.60533 177.467 9.07467 178.075 8.696C178.689 8.312 179.417 8.12 180.259 8.12C181.123 8.12 181.859 8.31467 182.467 8.704C183.081 9.088 183.547 9.624 183.867 10.312C184.193 10.9947 184.355 11.7813 184.355 12.672C184.355 13.5787 184.193 14.376 183.867 15.064C183.542 15.7467 183.073 16.28 182.459 16.664C181.846 17.048 181.113 17.24 180.259 17.24ZM180.259 16.112C181.219 16.112 181.934 15.7947 182.403 15.16C182.873 14.52 183.107 13.6907 183.107 12.672C183.107 11.6267 182.87 10.7947 182.395 10.176C181.926 9.55733 181.214 9.248 180.259 9.248C179.614 9.248 179.081 9.39467 178.659 9.688C178.243 9.976 177.931 10.3787 177.723 10.896C177.521 11.408 177.419 12 177.419 12.672C177.419 13.712 177.659 14.5467 178.139 15.176C178.619 15.8 179.326 16.112 180.259 16.112ZM186.28 17V5.24H187.456V17H186.28ZM193.462 17.24C192.604 17.24 191.87 17.0453 191.262 16.656C190.654 16.2667 190.188 15.728 189.862 15.04C189.537 14.352 189.374 13.5627 189.374 12.672C189.374 11.7653 189.54 10.9707 189.87 10.288C190.201 9.60533 190.67 9.07467 191.278 8.696C191.892 8.312 192.62 8.12 193.462 8.12C194.326 8.12 195.062 8.31467 195.67 8.704C196.284 9.088 196.75 9.624 197.07 10.312C197.396 10.9947 197.558 11.7813 197.558 12.672C197.558 13.5787 197.396 14.376 197.07 15.064C196.745 15.7467 196.276 16.28 195.662 16.664C195.049 17.048 194.316 17.24 193.462 17.24ZM193.462 16.112C194.422 16.112 195.137 15.7947 195.606 15.16C196.076 14.52 196.31 13.6907 196.31 12.672C196.31 11.6267 196.073 10.7947 195.598 10.176C195.129 9.55733 194.417 9.248 193.462 9.248C192.817 9.248 192.284 9.39467 191.862 9.688C191.446 9.976 191.134 10.3787 190.926 10.896C190.724 11.408 190.622 12 190.622 12.672C190.622 13.712 190.862 14.5467 191.342 15.176C191.822 15.8 192.529 16.112 193.462 16.112ZM202.755 21.08C202.312 21.08 201.875 21.0133 201.443 20.88C201.016 20.752 200.622 20.5467 200.259 20.264C199.896 19.9867 199.592 19.624 199.347 19.176L200.411 18.584C200.651 19.064 200.987 19.408 201.419 19.616C201.856 19.8293 202.302 19.936 202.755 19.936C203.379 19.936 203.883 19.8187 204.267 19.584C204.656 19.3547 204.939 19.0133 205.115 18.56C205.291 18.1067 205.376 17.5413 205.371 16.864V14.56H205.507V8.36H206.555V16.88C206.555 17.1253 206.547 17.36 206.531 17.584C206.52 17.8133 206.496 18.0373 206.459 18.256C206.358 18.9013 206.147 19.432 205.827 19.848C205.512 20.264 205.096 20.5733 204.579 20.776C204.067 20.9787 203.459 21.08 202.755 21.08ZM202.675 17.24C201.87 17.24 201.182 17.04 200.611 16.64C200.04 16.2347 199.603 15.688 199.299 15C198.995 14.312 198.843 13.536 198.843 12.672C198.843 11.8133 198.992 11.04 199.291 10.352C199.595 9.664 200.03 9.12 200.595 8.72C201.16 8.32 201.838 8.12 202.627 8.12C203.438 8.12 204.12 8.31733 204.675 8.712C205.23 9.10667 205.648 9.648 205.931 10.336C206.219 11.0187 206.363 11.7973 206.363 12.672C206.363 13.5307 206.222 14.3067 205.939 15C205.656 15.688 205.24 16.2347 204.691 16.64C204.142 17.04 203.47 17.24 202.675 17.24ZM202.795 16.144C203.408 16.144 203.915 15.9947 204.315 15.696C204.715 15.3973 205.014 14.9867 205.211 14.464C205.408 13.936 205.507 13.3387 205.507 12.672C205.507 11.9947 205.408 11.3973 205.211 10.88C205.014 10.3573 204.715 9.94933 204.315 9.656C203.92 9.36267 203.422 9.216 202.819 9.216C202.2 9.216 201.688 9.368 201.283 9.672C200.878 9.976 200.576 10.3893 200.379 10.912C200.187 11.4347 200.091 12.0213 200.091 12.672C200.091 13.328 200.19 13.92 200.387 14.448C200.59 14.9707 200.891 15.384 201.291 15.688C201.691 15.992 202.192 16.144 202.795 16.144ZM210.024 20.84L211.696 16.304L211.72 17.648L207.936 8.36H209.184L212.288 16.128H211.776L214.64 8.36H215.84L211.2 20.84H210.024ZM230.737 17L230.745 11.328C230.745 10.6613 230.558 10.1387 230.185 9.76C229.817 9.376 229.347 9.184 228.777 9.184C228.451 9.184 228.134 9.25867 227.825 9.408C227.515 9.55733 227.259 9.79733 227.057 10.128C226.859 10.4587 226.761 10.8907 226.761 11.424L226.065 11.224C226.049 10.6053 226.169 10.064 226.425 9.6C226.686 9.136 227.043 8.776 227.497 8.52C227.955 8.25867 228.473 8.128 229.049 8.128C229.918 8.128 230.614 8.39733 231.137 8.936C231.659 9.46933 231.921 10.192 231.921 11.104L231.913 17H230.737ZM220.425 17V8.36H221.481V10.488H221.609V17H220.425ZM225.593 17L225.601 11.408C225.601 10.72 225.417 10.1787 225.049 9.784C224.686 9.384 224.206 9.184 223.609 9.184C223.011 9.184 222.529 9.38933 222.161 9.8C221.793 10.2053 221.609 10.7467 221.609 11.424L220.905 11.04C220.905 10.4853 221.035 9.98933 221.297 9.552C221.558 9.10933 221.915 8.76267 222.369 8.512C222.822 8.256 223.337 8.128 223.913 8.128C224.462 8.128 224.95 8.24533 225.377 8.48C225.809 8.71467 226.147 9.056 226.393 9.504C226.638 9.952 226.761 10.496 226.761 11.136L226.753 17H225.593ZM236.467 17.24C235.816 17.24 235.27 17.1227 234.827 16.888C234.39 16.6533 234.062 16.3413 233.843 15.952C233.624 15.5627 233.515 15.1387 233.515 14.68C233.515 14.2107 233.608 13.8107 233.795 13.48C233.987 13.144 234.246 12.8693 234.571 12.656C234.902 12.4427 235.283 12.28 235.715 12.168C236.152 12.0613 236.635 11.968 237.163 11.888C237.696 11.8027 238.216 11.7307 238.723 11.672C239.235 11.608 239.683 11.5467 240.067 11.488L239.651 11.744C239.667 10.8907 239.502 10.2587 239.155 9.848C238.808 9.43733 238.206 9.232 237.347 9.232C236.755 9.232 236.254 9.36533 235.843 9.632C235.438 9.89867 235.152 10.32 234.987 10.896L233.843 10.56C234.04 9.78667 234.438 9.18667 235.035 8.76C235.632 8.33333 236.408 8.12 237.363 8.12C238.152 8.12 238.822 8.26933 239.371 8.568C239.926 8.86133 240.318 9.288 240.547 9.848C240.654 10.0987 240.723 10.3787 240.755 10.688C240.787 10.9973 240.803 11.312 240.803 11.632V17H239.755V14.832L240.059 14.96C239.766 15.7013 239.31 16.2667 238.691 16.656C238.072 17.0453 237.331 17.24 236.467 17.24ZM236.603 16.224C237.152 16.224 237.632 16.1253 238.043 15.928C238.454 15.7307 238.784 15.4613 239.035 15.12C239.286 14.7733 239.448 14.384 239.523 13.952C239.587 13.6747 239.622 13.3707 239.627 13.04C239.632 12.704 239.635 12.4533 239.635 12.288L240.083 12.52C239.683 12.5733 239.248 12.6267 238.779 12.68C238.315 12.7333 237.856 12.7947 237.403 12.864C236.955 12.9333 236.55 13.016 236.187 13.112C235.942 13.1813 235.704 13.28 235.475 13.408C235.246 13.5307 235.056 13.696 234.907 13.904C234.763 14.112 234.691 14.3707 234.691 14.68C234.691 14.9307 234.752 15.1733 234.875 15.408C235.003 15.6427 235.206 15.8373 235.483 15.992C235.766 16.1467 236.139 16.224 236.603 16.224ZM243.633 20.84L245.305 16.304L245.329 17.648L241.545 8.36H242.793L245.897 16.128H245.385L248.249 8.36H249.449L244.809 20.84H243.633ZM260.018 17V12.84C260.018 12.568 259.999 12.2667 259.962 11.936C259.925 11.6053 259.837 11.288 259.698 10.984C259.565 10.6747 259.362 10.4213 259.09 10.224C258.823 10.0267 258.461 9.928 258.002 9.928C257.757 9.928 257.514 9.968 257.274 10.048C257.034 10.128 256.815 10.2667 256.618 10.464C256.426 10.656 256.271 10.9227 256.154 11.264C256.037 11.6 255.978 12.032 255.978 12.56L254.834 12.072C254.834 11.336 254.975 10.6693 255.258 10.072C255.546 9.47467 255.967 9 256.522 8.648C257.077 8.29067 257.759 8.112 258.57 8.112C259.21 8.112 259.738 8.21867 260.154 8.432C260.57 8.64533 260.901 8.91733 261.146 9.248C261.391 9.57867 261.573 9.93067 261.69 10.304C261.807 10.6773 261.882 11.032 261.914 11.368C261.951 11.6987 261.97 11.968 261.97 12.176V17H260.018ZM254.026 17V5.48H255.746V11.544H255.978V17H254.026ZM267.986 17.24C267.111 17.24 266.343 17.0507 265.682 16.672C265.02 16.2933 264.503 15.768 264.13 15.096C263.762 14.424 263.578 13.6507 263.578 12.776C263.578 11.832 263.759 11.0133 264.122 10.32C264.484 9.62133 264.988 9.08 265.634 8.696C266.279 8.312 267.026 8.12 267.874 8.12C268.77 8.12 269.53 8.33067 270.154 8.752C270.783 9.168 271.25 9.75733 271.554 10.52C271.858 11.2827 271.972 12.1813 271.898 13.216H269.986V12.512C269.98 11.5733 269.815 10.888 269.49 10.456C269.164 10.024 268.652 9.808 267.954 9.808C267.164 9.808 266.578 10.0533 266.194 10.544C265.81 11.0293 265.618 11.7413 265.618 12.68C265.618 13.5547 265.81 14.232 266.194 14.712C266.578 15.192 267.138 15.432 267.874 15.432C268.348 15.432 268.756 15.328 269.098 15.12C269.444 14.9067 269.711 14.6 269.898 14.2L271.802 14.776C271.471 15.5547 270.959 16.16 270.266 16.592C269.578 17.024 268.818 17.24 267.986 17.24ZM265.01 13.216V11.76H270.954V13.216H265.01ZM273.843 17V5.24H275.771V17H273.843ZM282.319 17.24C281.476 17.24 280.77 17.04 280.199 16.64C279.628 16.24 279.199 15.696 278.911 15.008C278.623 14.3147 278.479 13.5387 278.479 12.68C278.479 11.8107 278.623 11.032 278.911 10.344C279.199 9.656 279.62 9.11467 280.175 8.72C280.735 8.32 281.426 8.12 282.247 8.12C283.063 8.12 283.77 8.32 284.367 8.72C284.97 9.11467 285.436 9.656 285.767 10.344C286.098 11.0267 286.263 11.8053 286.263 12.68C286.263 13.544 286.1 14.32 285.775 15.008C285.45 15.696 284.991 16.24 284.399 16.64C283.807 17.04 283.114 17.24 282.319 17.24ZM278.151 20.84V8.36H279.855V14.424H280.095V20.84H278.151ZM282.023 15.512C282.524 15.512 282.938 15.3867 283.263 15.136C283.588 14.8853 283.828 14.5467 283.983 14.12C284.143 13.688 284.223 13.208 284.223 12.68C284.223 12.1573 284.143 11.6827 283.983 11.256C283.823 10.824 283.575 10.4827 283.239 10.232C282.903 9.976 282.476 9.848 281.959 9.848C281.468 9.848 281.068 9.968 280.759 10.208C280.45 10.4427 280.22 10.7733 280.071 11.2C279.927 11.6213 279.855 12.1147 279.855 12.68C279.855 13.24 279.927 13.7333 280.071 14.16C280.22 14.5867 280.452 14.92 280.767 15.16C281.087 15.3947 281.506 15.512 282.023 15.512ZM293.069 17L290.429 8.344L292.317 8.36L294.005 13.904L295.717 8.36H297.341L299.045 13.904L300.741 8.36H302.629L299.989 17H298.485L296.525 11.056L294.573 17H293.069ZM304.233 7.048V5.28H306.161V7.048H304.233ZM304.233 17V8.36H306.161V17H304.233ZM313.622 17C313.051 17.1067 312.491 17.152 311.942 17.136C311.398 17.1253 310.91 17.0267 310.478 16.84C310.046 16.648 309.718 16.3467 309.493 15.936C309.296 15.5627 309.192 15.1813 309.182 14.792C309.171 14.4027 309.166 13.9627 309.166 13.472V5.96H311.086V13.36C311.086 13.7067 311.088 14.0107 311.094 14.272C311.104 14.5333 311.16 14.7467 311.262 14.912C311.454 15.232 311.76 15.4107 312.182 15.448C312.603 15.4853 313.083 15.464 313.622 15.384V17ZM307.598 9.872V8.36H313.622V9.872H307.598ZM321.455 17V12.84C321.455 12.568 321.437 12.2667 321.399 11.936C321.362 11.6053 321.274 11.288 321.135 10.984C321.002 10.6747 320.799 10.4213 320.527 10.224C320.261 10.0267 319.898 9.928 319.439 9.928C319.194 9.928 318.951 9.968 318.711 10.048C318.471 10.128 318.253 10.2667 318.055 10.464C317.863 10.656 317.709 10.9227 317.591 11.264C317.474 11.6 317.415 12.032 317.415 12.56L316.271 12.072C316.271 11.336 316.413 10.6693 316.695 10.072C316.983 9.47467 317.405 9 317.959 8.648C318.514 8.29067 319.197 8.112 320.007 8.112C320.647 8.112 321.175 8.21867 321.591 8.432C322.007 8.64533 322.338 8.91733 322.583 9.248C322.829 9.57867 323.01 9.93067 323.127 10.304C323.245 10.6773 323.319 11.032 323.351 11.368C323.389 11.6987 323.407 11.968 323.407 12.176V17H321.455ZM315.463 17V5.48H317.183V11.544H317.415V17H315.463ZM331.114 17.24C330.49 17.24 329.962 17.1227 329.53 16.888C329.098 16.648 328.77 16.3307 328.546 15.936C328.327 15.5413 328.218 15.1067 328.218 14.632C328.218 14.216 328.287 13.8427 328.426 13.512C328.565 13.176 328.778 12.888 329.066 12.648C329.354 12.4027 329.727 12.2027 330.186 12.048C330.533 11.936 330.938 11.8347 331.402 11.744C331.871 11.6533 332.378 11.5707 332.922 11.496C333.471 11.416 334.045 11.3307 334.642 11.24L333.954 11.632C333.959 11.0347 333.826 10.5947 333.554 10.312C333.282 10.0293 332.823 9.888 332.178 9.888C331.789 9.888 331.413 9.97867 331.05 10.16C330.687 10.3413 330.434 10.6533 330.29 11.096L328.53 10.544C328.743 9.81333 329.149 9.22667 329.746 8.784C330.349 8.34133 331.159 8.12 332.178 8.12C332.946 8.12 333.621 8.24533 334.202 8.496C334.789 8.74667 335.223 9.15733 335.506 9.728C335.661 10.032 335.754 10.344 335.786 10.664C335.818 10.9787 335.834 11.3227 335.834 11.696V17H334.146V15.128L334.426 15.432C334.037 16.056 333.581 16.5147 333.058 16.808C332.541 17.096 331.893 17.24 331.114 17.24ZM331.498 15.704C331.935 15.704 332.309 15.6267 332.618 15.472C332.927 15.3173 333.173 15.128 333.354 14.904C333.541 14.68 333.666 14.4693 333.73 14.272C333.831 14.0267 333.887 13.7467 333.898 13.432C333.914 13.112 333.922 12.8533 333.922 12.656L334.514 12.832C333.933 12.9227 333.434 13.0027 333.018 13.072C332.602 13.1413 332.245 13.208 331.946 13.272C331.647 13.3307 331.383 13.3973 331.154 13.472C330.93 13.552 330.741 13.6453 330.586 13.752C330.431 13.8587 330.311 13.9813 330.226 14.12C330.146 14.2587 330.106 14.4213 330.106 14.608C330.106 14.8213 330.159 15.0107 330.266 15.176C330.373 15.336 330.527 15.464 330.73 15.56C330.938 15.656 331.194 15.704 331.498 15.704ZM338.077 17V5.24H340.005V17H338.077ZM342.561 17V5.24H344.489V17H342.561ZM350.814 17.24C349.939 17.24 349.171 17.0507 348.51 16.672C347.848 16.2933 347.331 15.768 346.958 15.096C346.59 14.424 346.406 13.6507 346.406 12.776C346.406 11.832 346.587 11.0133 346.95 10.32C347.312 9.62133 347.816 9.08 348.462 8.696C349.107 8.312 349.854 8.12 350.702 8.12C351.598 8.12 352.358 8.33067 352.982 8.752C353.611 9.168 354.078 9.75733 354.382 10.52C354.686 11.2827 354.8 12.1813 354.726 13.216H352.814V12.512C352.808 11.5733 352.643 10.888 352.318 10.456C351.992 10.024 351.48 9.808 350.782 9.808C349.992 9.808 349.406 10.0533 349.022 10.544C348.638 11.0293 348.446 11.7413 348.446 12.68C348.446 13.5547 348.638 14.232 349.022 14.712C349.406 15.192 349.966 15.432 350.702 15.432C351.176 15.432 351.584 15.328 351.926 15.12C352.272 14.9067 352.539 14.6 352.726 14.2L354.63 14.776C354.299 15.5547 353.787 16.16 353.094 16.592C352.406 17.024 351.646 17.24 350.814 17.24ZM347.838 13.216V11.76H353.782V13.216H347.838ZM356.511 17V8.36H358.215V10.464L358.007 10.192C358.113 9.904 358.255 9.64267 358.431 9.408C358.612 9.168 358.828 8.97067 359.079 8.816C359.292 8.672 359.527 8.56 359.783 8.48C360.044 8.39467 360.311 8.344 360.583 8.328C360.855 8.30667 361.119 8.31733 361.375 8.36V10.16C361.119 10.0853 360.823 10.0613 360.487 10.088C360.156 10.1147 359.857 10.208 359.591 10.368C359.324 10.512 359.105 10.696 358.935 10.92C358.769 11.144 358.647 11.4 358.567 11.688C358.487 11.9707 358.447 12.2773 358.447 12.608V17H356.511ZM366.221 21.08C365.741 21.08 365.279 21.0053 364.837 20.856C364.399 20.7067 364.005 20.4907 363.653 20.208C363.301 19.9307 363.013 19.5947 362.789 19.2L364.565 18.32C364.73 18.6347 364.962 18.8667 365.261 19.016C365.565 19.1707 365.887 19.248 366.229 19.248C366.629 19.248 366.986 19.176 367.301 19.032C367.615 18.8933 367.858 18.6853 368.029 18.408C368.205 18.136 368.287 17.7947 368.277 17.384V14.928H368.517V8.36H370.205V17.416C370.205 17.6347 370.194 17.8427 370.173 18.04C370.157 18.2427 370.127 18.44 370.085 18.632C369.957 19.192 369.711 19.6507 369.349 20.008C368.986 20.3707 368.535 20.64 367.997 20.816C367.463 20.992 366.871 21.08 366.221 21.08ZM366.053 17.24C365.258 17.24 364.565 17.04 363.973 16.64C363.381 16.24 362.922 15.696 362.597 15.008C362.271 14.32 362.109 13.544 362.109 12.68C362.109 11.8053 362.271 11.0267 362.597 10.344C362.927 9.656 363.394 9.11467 363.997 8.72C364.599 8.32 365.309 8.12 366.125 8.12C366.946 8.12 367.634 8.32 368.189 8.72C368.749 9.11467 369.173 9.656 369.461 10.344C369.749 11.032 369.893 11.8107 369.893 12.68C369.893 13.5387 369.749 14.3147 369.461 15.008C369.173 15.696 368.743 16.24 368.173 16.64C367.602 17.04 366.895 17.24 366.053 17.24ZM366.349 15.512C366.866 15.512 367.282 15.3947 367.597 15.16C367.917 14.92 368.149 14.5867 368.293 14.16C368.442 13.7333 368.517 13.24 368.517 12.68C368.517 12.1147 368.442 11.6213 368.293 11.2C368.149 10.7733 367.922 10.4427 367.613 10.208C367.303 9.968 366.903 9.848 366.413 9.848C365.895 9.848 365.469 9.976 365.133 10.232C364.797 10.4827 364.549 10.824 364.389 11.256C364.229 11.6827 364.149 12.1573 364.149 12.68C364.149 13.208 364.226 13.688 364.381 14.12C364.541 14.5467 364.783 14.8853 365.109 15.136C365.434 15.3867 365.847 15.512 366.349 15.512ZM376.376 17.24C375.501 17.24 374.733 17.0507 374.072 16.672C373.411 16.2933 372.893 15.768 372.52 15.096C372.152 14.424 371.968 13.6507 371.968 12.776C371.968 11.832 372.149 11.0133 372.512 10.32C372.875 9.62133 373.379 9.08 374.024 8.696C374.669 8.312 375.416 8.12 376.264 8.12C377.16 8.12 377.92 8.33067 378.544 8.752C379.173 9.168 379.64 9.75733 379.944 10.52C380.248 11.2827 380.363 12.1813 380.288 13.216H378.376V12.512C378.371 11.5733 378.205 10.888 377.88 10.456C377.555 10.024 377.043 9.808 376.344 9.808C375.555 9.808 374.968 10.0533 374.584 10.544C374.2 11.0293 374.008 11.7413 374.008 12.68C374.008 13.5547 374.2 14.232 374.584 14.712C374.968 15.192 375.528 15.432 376.264 15.432C376.739 15.432 377.147 15.328 377.488 15.12C377.835 14.9067 378.101 14.6 378.288 14.2L380.192 14.776C379.861 15.5547 379.349 16.16 378.656 16.592C377.968 17.024 377.208 17.24 376.376 17.24ZM373.4 13.216V11.76H379.344V13.216H373.4ZM387.815 17V12.84C387.815 12.568 387.796 12.2667 387.759 11.936C387.721 11.6053 387.633 11.288 387.495 10.984C387.361 10.6747 387.159 10.4213 386.887 10.224C386.62 10.0267 386.257 9.928 385.799 9.928C385.553 9.928 385.311 9.968 385.071 10.048C384.831 10.128 384.612 10.2667 384.415 10.464C384.223 10.656 384.068 10.9227 383.951 11.264C383.833 11.6 383.775 12.032 383.775 12.56L382.631 12.072C382.631 11.336 382.772 10.6693 383.055 10.072C383.343 9.47467 383.764 9 384.319 8.648C384.873 8.29067 385.556 8.112 386.367 8.112C387.007 8.112 387.535 8.21867 387.951 8.432C388.367 8.64533 388.697 8.91733 388.943 9.248C389.188 9.57867 389.369 9.93067 389.487 10.304C389.604 10.6773 389.679 11.032 389.711 11.368C389.748 11.6987 389.767 11.968 389.767 12.176V17H387.815ZM381.823 17V8.36H383.543V11.04H383.775V17H381.823ZM395.19 17.24C394.124 17.24 393.257 17 392.59 16.52C391.924 16.04 391.518 15.3653 391.374 14.496L393.342 14.192C393.444 14.6187 393.668 14.9547 394.014 15.2C394.361 15.4453 394.798 15.568 395.326 15.568C395.79 15.568 396.148 15.4773 396.398 15.296C396.654 15.1093 396.782 14.856 396.782 14.536C396.782 14.3387 396.734 14.1813 396.638 14.064C396.548 13.9413 396.345 13.824 396.03 13.712C395.716 13.6 395.233 13.4587 394.582 13.288C393.857 13.096 393.281 12.8907 392.854 12.672C392.428 12.448 392.121 12.184 391.934 11.88C391.748 11.576 391.654 11.208 391.654 10.776C391.654 10.2373 391.796 9.768 392.078 9.368C392.361 8.968 392.756 8.66133 393.262 8.448C393.769 8.22933 394.366 8.12 395.054 8.12C395.726 8.12 396.321 8.224 396.838 8.432C397.361 8.64 397.782 8.936 398.102 9.32C398.422 9.704 398.62 10.1547 398.694 10.672L396.726 11.024C396.678 10.656 396.51 10.3653 396.222 10.152C395.94 9.93867 395.561 9.81867 395.086 9.792C394.633 9.76533 394.268 9.83467 393.99 10C393.713 10.16 393.574 10.3867 393.574 10.68C393.574 10.8453 393.63 10.9867 393.742 11.104C393.854 11.2213 394.078 11.3387 394.414 11.456C394.756 11.5733 395.262 11.7173 395.934 11.888C396.622 12.064 397.172 12.2667 397.582 12.496C397.998 12.72 398.297 12.9893 398.478 13.304C398.665 13.6187 398.758 14 398.758 14.448C398.758 15.3173 398.441 16 397.806 16.496C397.177 16.992 396.305 17.24 395.19 17.24Z" fill="#4D5254"></path><path d="M1.99976 49L8.65858 56L21.9998 42" stroke="#2C7EF8" stroke-width="2.5" stroke-linecap="round" stroke-linejoin="round"></path><path d="M36.12 55V43.48H39.616C39.7387 43.48 39.9467 43.4827 40.24 43.488C40.5387 43.4933 40.824 43.5147 41.096 43.552C41.9707 43.6747 42.7013 44 43.288 44.528C43.8747 45.056 44.3147 45.728 44.608 46.544C44.9013 47.36 45.048 48.2587 45.048 49.24C45.048 50.2213 44.9013 51.12 44.608 51.936C44.3147 52.752 43.8747 53.424 43.288 53.952C42.7013 54.48 41.9707 54.8053 41.096 54.928C40.8293 54.96 40.544 54.9813 40.24 54.992C39.936 54.9973 39.728 55 39.616 55H36.12ZM37.336 53.872H39.616C39.8347 53.872 40.0693 53.8667 40.32 53.856C40.576 53.84 40.7947 53.8133 40.976 53.776C41.648 53.6587 42.1893 53.3867 42.6 52.96C43.016 52.5333 43.32 52 43.512 51.36C43.704 50.7147 43.8 50.008 43.8 49.24C43.8 48.4667 43.704 47.7573 43.512 47.112C43.32 46.4667 43.016 45.9333 42.6 45.512C42.184 45.0907 41.6427 44.8213 40.976 44.704C40.7947 44.6667 40.5733 44.6427 40.312 44.632C40.056 44.616 39.824 44.608 39.616 44.608H37.336V53.872ZM50.526 55.24C49.6833 55.24 48.9527 55.0533 48.334 54.68C47.7207 54.3067 47.2433 53.7813 46.902 53.104C46.5607 52.4267 46.39 51.632 46.39 50.72C46.39 49.776 46.558 48.96 46.894 48.272C47.23 47.584 47.702 47.0533 48.31 46.68C48.9233 46.3067 49.646 46.12 50.478 46.12C51.3313 46.12 52.0593 46.3173 52.662 46.712C53.2647 47.1013 53.7207 47.6613 54.03 48.392C54.3393 49.1227 54.4807 49.9947 54.454 51.008H53.254V50.592C53.2327 49.472 52.99 48.6267 52.526 48.056C52.0673 47.4853 51.3953 47.2 50.51 47.2C49.582 47.2 48.87 47.5013 48.374 48.104C47.8833 48.7067 47.638 49.5653 47.638 50.68C47.638 51.768 47.8833 52.6133 48.374 53.216C48.87 53.8133 49.5713 54.112 50.478 54.112C51.0967 54.112 51.6353 53.9707 52.094 53.688C52.558 53.4 52.9233 52.9867 53.19 52.448L54.286 52.872C53.9447 53.624 53.4407 54.208 52.774 54.624C52.1127 55.0347 51.3633 55.24 50.526 55.24ZM47.222 51.008V50.024H53.822V51.008H47.222ZM59.4534 55.232C58.44 55.232 57.6054 55.0133 56.9494 54.576C56.2987 54.1387 55.8987 53.5307 55.7494 52.752L56.9494 52.552C57.0774 53.0427 57.368 53.4347 57.8214 53.728C58.28 54.016 58.8454 54.16 59.5174 54.16C60.1734 54.16 60.6907 54.024 61.0694 53.752C61.448 53.4747 61.6374 53.0987 61.6374 52.624C61.6374 52.3573 61.576 52.1413 61.4534 51.976C61.336 51.8053 61.0934 51.648 60.7254 51.504C60.3574 51.36 59.808 51.1893 59.0774 50.992C58.2934 50.7787 57.68 50.5653 57.2374 50.352C56.7947 50.1387 56.48 49.8933 56.2934 49.616C56.1067 49.3333 56.0134 48.9893 56.0134 48.584C56.0134 48.0933 56.152 47.664 56.4294 47.296C56.7067 46.9227 57.0907 46.6347 57.5814 46.432C58.072 46.224 58.6427 46.12 59.2934 46.12C59.944 46.12 60.5254 46.2267 61.0374 46.44C61.5547 46.648 61.9707 46.9413 62.2854 47.32C62.6 47.6987 62.7867 48.1387 62.8454 48.64L61.6454 48.856C61.5654 48.3493 61.312 47.9493 60.8854 47.656C60.464 47.3573 59.928 47.2027 59.2774 47.192C58.664 47.176 58.1654 47.2933 57.7814 47.544C57.3974 47.7893 57.2054 48.1173 57.2054 48.528C57.2054 48.7573 57.2747 48.9547 57.4134 49.12C57.552 49.28 57.8027 49.432 58.1654 49.576C58.5334 49.72 59.056 49.8773 59.7334 50.048C60.528 50.2507 61.152 50.464 61.6054 50.688C62.0587 50.912 62.3814 51.176 62.5734 51.48C62.7654 51.784 62.8614 52.16 62.8614 52.608C62.8614 53.424 62.5574 54.0667 61.9494 54.536C61.3467 55 60.5147 55.232 59.4534 55.232ZM64.7956 44.72V43.4H65.9716V44.72H64.7956ZM64.7956 55V46.36H65.9716V55H64.7956ZM71.802 59.08C71.3593 59.08 70.922 59.0133 70.49 58.88C70.0633 58.752 69.6687 58.5467 69.306 58.264C68.9433 57.9867 68.6393 57.624 68.394 57.176L69.458 56.584C69.698 57.064 70.034 57.408 70.466 57.616C70.9033 57.8293 71.3487 57.936 71.802 57.936C72.426 57.936 72.93 57.8187 73.314 57.584C73.7033 57.3547 73.986 57.0133 74.162 56.56C74.338 56.1067 74.4233 55.5413 74.418 54.864V52.56H74.554V46.36H75.602V54.88C75.602 55.1253 75.594 55.36 75.578 55.584C75.5673 55.8133 75.5433 56.0373 75.506 56.256C75.4047 56.9013 75.194 57.432 74.874 57.848C74.5593 58.264 74.1433 58.5733 73.626 58.776C73.114 58.9787 72.506 59.08 71.802 59.08ZM71.722 55.24C70.9167 55.24 70.2287 55.04 69.658 54.64C69.0873 54.2347 68.65 53.688 68.346 53C68.042 52.312 67.89 51.536 67.89 50.672C67.89 49.8133 68.0393 49.04 68.338 48.352C68.642 47.664 69.0767 47.12 69.642 46.72C70.2073 46.32 70.8847 46.12 71.674 46.12C72.4847 46.12 73.1673 46.3173 73.722 46.712C74.2767 47.1067 74.6953 47.648 74.978 48.336C75.266 49.0187 75.41 49.7973 75.41 50.672C75.41 51.5307 75.2687 52.3067 74.986 53C74.7033 53.688 74.2873 54.2347 73.738 54.64C73.1887 55.04 72.5167 55.24 71.722 55.24ZM71.842 54.144C72.4553 54.144 72.962 53.9947 73.362 53.696C73.762 53.3973 74.0607 52.9867 74.258 52.464C74.4553 51.936 74.554 51.3387 74.554 50.672C74.554 49.9947 74.4553 49.3973 74.258 48.88C74.0607 48.3573 73.762 47.9493 73.362 47.656C72.9673 47.3627 72.4687 47.216 71.866 47.216C71.2473 47.216 70.7353 47.368 70.33 47.672C69.9247 47.976 69.6233 48.3893 69.426 48.912C69.234 49.4347 69.138 50.0213 69.138 50.672C69.138 51.328 69.2367 51.92 69.434 52.448C69.6367 52.9707 69.938 53.384 70.338 53.688C70.738 53.992 71.2393 54.144 71.842 54.144ZM84.0788 55V50.592C84.0788 50.112 84.0334 49.672 83.9428 49.272C83.8521 48.8667 83.7054 48.5147 83.5028 48.216C83.3054 47.912 83.0468 47.6773 82.7268 47.512C82.4121 47.3467 82.0281 47.264 81.5748 47.264C81.1588 47.264 80.7908 47.336 80.4708 47.48C80.1561 47.624 79.8894 47.832 79.6708 48.104C79.4574 48.3707 79.2948 48.696 79.1828 49.08C79.0708 49.464 79.0148 49.9013 79.0148 50.392L78.1828 50.208C78.1828 49.3227 78.3374 48.5787 78.6468 47.976C78.9561 47.3733 79.3828 46.9173 79.9268 46.608C80.4708 46.2987 81.0948 46.144 81.7988 46.144C82.3161 46.144 82.7668 46.224 83.1508 46.384C83.5401 46.544 83.8681 46.76 84.1348 47.032C84.4068 47.304 84.6254 47.616 84.7908 47.968C84.9561 48.3147 85.0761 48.6853 85.1508 49.08C85.2254 49.4693 85.2628 49.8587 85.2628 50.248V55H84.0788ZM77.8308 55V46.36H78.8948V48.488H79.0148V55H77.8308ZM90.9479 55.24C90.1052 55.24 89.3745 55.0533 88.7559 54.68C88.1425 54.3067 87.6652 53.7813 87.3239 53.104C86.9825 52.4267 86.8119 51.632 86.8119 50.72C86.8119 49.776 86.9799 48.96 87.3159 48.272C87.6519 47.584 88.1239 47.0533 88.7319 46.68C89.3452 46.3067 90.0679 46.12 90.8999 46.12C91.7532 46.12 92.4812 46.3173 93.0839 46.712C93.6865 47.1013 94.1425 47.6613 94.4519 48.392C94.7612 49.1227 94.9025 49.9947 94.8759 51.008H93.6759V50.592C93.6545 49.472 93.4119 48.6267 92.9479 48.056C92.4892 47.4853 91.8172 47.2 90.9319 47.2C90.0039 47.2 89.2919 47.5013 88.7959 48.104C88.3052 48.7067 88.0599 49.5653 88.0599 50.68C88.0599 51.768 88.3052 52.6133 88.7959 53.216C89.2919 53.8133 89.9932 54.112 90.8999 54.112C91.5185 54.112 92.0572 53.9707 92.5159 53.688C92.9799 53.4 93.3452 52.9867 93.6119 52.448L94.7079 52.872C94.3665 53.624 93.8625 54.208 93.1959 54.624C92.5345 55.0347 91.7852 55.24 90.9479 55.24ZM87.6439 51.008V50.024H94.2439V51.008H87.6439ZM100.003 55.24C99.1979 55.24 98.5099 55.04 97.9393 54.64C97.3686 54.2347 96.9313 53.688 96.6273 53C96.3233 52.312 96.1713 51.536 96.1713 50.672C96.1713 49.8133 96.3206 49.04 96.6193 48.352C96.9233 47.664 97.3579 47.12 97.9233 46.72C98.4886 46.32 99.1659 46.12 99.9553 46.12C100.766 46.12 101.449 46.3173 102.003 46.712C102.558 47.1067 102.977 47.648 103.259 48.336C103.547 49.0187 103.691 49.7973 103.691 50.672C103.691 51.5307 103.55 52.3067 103.267 53C102.985 53.688 102.569 54.2347 102.019 54.64C101.47 55.04 100.798 55.24 100.003 55.24ZM100.123 54.144C100.737 54.144 101.243 53.9947 101.643 53.696C102.043 53.3973 102.342 52.9867 102.539 52.464C102.737 51.936 102.835 51.3387 102.835 50.672C102.835 49.9947 102.737 49.3973 102.539 48.88C102.342 48.3573 102.043 47.9493 101.643 47.656C101.249 47.3627 100.75 47.216 100.147 47.216C99.5286 47.216 99.0166 47.368 98.6113 47.672C98.2059 47.976 97.9046 48.3893 97.7073 48.912C97.5153 49.4347 97.4193 50.0213 97.4193 50.672C97.4193 51.328 97.5179 51.92 97.7153 52.448C97.9179 52.9707 98.2193 53.384 98.6193 53.688C99.0193 53.992 99.5206 54.144 100.123 54.144ZM102.835 55V48.496H102.707V43.48H103.891V55H102.835ZM110.195 55V45.72C110.195 45.496 110.205 45.2747 110.227 45.056C110.253 44.8373 110.304 44.6293 110.379 44.432C110.453 44.2293 110.571 44.0427 110.731 43.872C110.907 43.68 111.099 43.5413 111.307 43.456C111.515 43.3653 111.731 43.3067 111.955 43.28C112.184 43.2533 112.408 43.24 112.627 43.24H113.731V44.232H112.707C112.259 44.232 111.923 44.3413 111.699 44.56C111.48 44.7787 111.371 45.1227 111.371 45.592V55H110.195ZM108.699 47.368V46.36H113.731V47.368H108.699ZM118.306 55.24C117.447 55.24 116.714 55.0453 116.106 54.656C115.498 54.2667 115.031 53.728 114.706 53.04C114.381 52.352 114.218 51.5627 114.218 50.672C114.218 49.7653 114.383 48.9707 114.714 48.288C115.045 47.6053 115.514 47.0747 116.122 46.696C116.735 46.312 117.463 46.12 118.306 46.12C119.17 46.12 119.906 46.3147 120.514 46.704C121.127 47.088 121.594 47.624 121.914 48.312C122.239 48.9947 122.402 49.7813 122.402 50.672C122.402 51.5787 122.239 52.376 121.914 53.064C121.589 53.7467 121.119 54.28 120.506 54.664C119.893 55.048 119.159 55.24 118.306 55.24ZM118.306 54.112C119.266 54.112 119.981 53.7947 120.45 53.16C120.919 52.52 121.154 51.6907 121.154 50.672C121.154 49.6267 120.917 48.7947 120.442 48.176C119.973 47.5573 119.261 47.248 118.306 47.248C117.661 47.248 117.127 47.3947 116.706 47.688C116.29 47.976 115.978 48.3787 115.77 48.896C115.567 49.408 115.466 50 115.466 50.672C115.466 51.712 115.706 52.5467 116.186 53.176C116.666 53.8 117.373 54.112 118.306 54.112ZM124.167 55V46.36H125.223V48.44L125.015 48.168C125.111 47.912 125.236 47.6773 125.391 47.464C125.546 47.2453 125.714 47.0667 125.895 46.928C126.119 46.7307 126.38 46.5813 126.679 46.48C126.978 46.3733 127.279 46.312 127.583 46.296C127.887 46.2747 128.164 46.296 128.415 46.36V47.464C128.1 47.384 127.756 47.3653 127.383 47.408C127.01 47.4507 126.666 47.6 126.351 47.856C126.063 48.08 125.847 48.3493 125.703 48.664C125.559 48.9733 125.463 49.304 125.415 49.656C125.367 50.0027 125.343 50.3467 125.343 50.688V55H124.167ZM135.552 55.24C134.928 55.24 134.4 55.1227 133.968 54.888C133.536 54.648 133.208 54.3307 132.984 53.936C132.765 53.5413 132.656 53.1067 132.656 52.632C132.656 52.216 132.725 51.8427 132.864 51.512C133.002 51.176 133.216 50.888 133.504 50.648C133.792 50.4027 134.165 50.2027 134.624 50.048C134.97 49.936 135.376 49.8347 135.84 49.744C136.309 49.6533 136.816 49.5707 137.36 49.496C137.909 49.416 138.482 49.3307 139.08 49.24L138.392 49.632C138.397 49.0347 138.264 48.5947 137.992 48.312C137.72 48.0293 137.261 47.888 136.616 47.888C136.226 47.888 135.85 47.9787 135.488 48.16C135.125 48.3413 134.872 48.6533 134.728 49.096L132.968 48.544C133.181 47.8133 133.586 47.2267 134.184 46.784C134.786 46.3413 135.597 46.12 136.616 46.12C137.384 46.12 138.058 46.2453 138.64 46.496C139.226 46.7467 139.661 47.1573 139.944 47.728C140.098 48.032 140.192 48.344 140.224 48.664C140.256 48.9787 140.272 49.3227 140.272 49.696V55H138.584V53.128L138.864 53.432C138.474 54.056 138.018 54.5147 137.496 54.808C136.978 55.096 136.33 55.24 135.552 55.24ZM135.936 53.704C136.373 53.704 136.746 53.6267 137.056 53.472C137.365 53.3173 137.61 53.128 137.792 52.904C137.978 52.68 138.104 52.4693 138.168 52.272C138.269 52.0267 138.325 51.7467 138.336 51.432C138.352 51.112 138.36 50.8533 138.36 50.656L138.952 50.832C138.37 50.9227 137.872 51.0027 137.456 51.072C137.04 51.1413 136.682 51.208 136.384 51.272C136.085 51.3307 135.821 51.3973 135.592 51.472C135.368 51.552 135.178 51.6453 135.024 51.752C134.869 51.8587 134.749 51.9813 134.664 52.12C134.584 52.2587 134.544 52.4213 134.544 52.608C134.544 52.8213 134.597 53.0107 134.704 53.176C134.81 53.336 134.965 53.464 135.168 53.56C135.376 53.656 135.632 53.704 135.936 53.704ZM142.514 45.048V43.28H144.442V45.048H142.514ZM142.514 55V46.36H144.442V55H142.514ZM146.839 55V46.36H148.543V48.464L148.335 48.192C148.441 47.904 148.583 47.6427 148.759 47.408C148.94 47.168 149.156 46.9707 149.407 46.816C149.62 46.672 149.855 46.56 150.111 46.48C150.372 46.3947 150.639 46.344 150.911 46.328C151.183 46.3067 151.447 46.3173 151.703 46.36V48.16C151.447 48.0853 151.151 48.0613 150.815 48.088C150.484 48.1147 150.185 48.208 149.919 48.368C149.652 48.512 149.433 48.696 149.263 48.92C149.097 49.144 148.975 49.4 148.895 49.688C148.815 49.9707 148.775 50.2773 148.775 50.608V55H146.839ZM156.433 55V46.36H158.137V48.464L157.929 48.192C158.035 47.904 158.177 47.6427 158.353 47.408C158.534 47.168 158.75 46.9707 159.001 46.816C159.214 46.672 159.449 46.56 159.705 46.48C159.966 46.3947 160.233 46.344 160.505 46.328C160.777 46.3067 161.041 46.3173 161.297 46.36V48.16C161.041 48.0853 160.745 48.0613 160.409 48.088C160.078 48.1147 159.779 48.208 159.513 48.368C159.246 48.512 159.027 48.696 158.857 48.92C158.691 49.144 158.569 49.4 158.489 49.688C158.409 49.9707 158.369 50.2773 158.369 50.608V55H156.433ZM166.595 55.24C165.72 55.24 164.952 55.0507 164.291 54.672C163.63 54.2933 163.112 53.768 162.739 53.096C162.371 52.424 162.187 51.6507 162.187 50.776C162.187 49.832 162.368 49.0133 162.731 48.32C163.094 47.6213 163.598 47.08 164.243 46.696C164.888 46.312 165.635 46.12 166.483 46.12C167.379 46.12 168.139 46.3307 168.763 46.752C169.392 47.168 169.859 47.7573 170.163 48.52C170.467 49.2827 170.582 50.1813 170.507 51.216H168.595V50.512C168.59 49.5733 168.424 48.888 168.099 48.456C167.774 48.024 167.262 47.808 166.563 47.808C165.774 47.808 165.187 48.0533 164.803 48.544C164.419 49.0293 164.227 49.7413 164.227 50.68C164.227 51.5547 164.419 52.232 164.803 52.712C165.187 53.192 165.747 53.432 166.483 53.432C166.958 53.432 167.366 53.328 167.707 53.12C168.054 52.9067 168.32 52.6 168.507 52.2L170.411 52.776C170.08 53.5547 169.568 54.16 168.875 54.592C168.187 55.024 167.427 55.24 166.595 55.24ZM163.619 51.216V49.76H169.563V51.216H163.619ZM171.012 58.84V57.032H171.42C171.889 57.032 172.223 56.9227 172.42 56.704C172.617 56.4853 172.716 56.1627 172.716 55.736V46.36H174.636V56.6C174.636 57.2987 174.431 57.8453 174.02 58.24C173.615 58.64 173.049 58.84 172.324 58.84H171.012ZM172.716 45.048V43.28H174.636V45.048H172.716ZM180.141 55.248C179.501 55.248 178.973 55.1413 178.557 54.928C178.141 54.7147 177.811 54.4427 177.565 54.112C177.32 53.7813 177.139 53.4293 177.021 53.056C176.904 52.6827 176.827 52.3307 176.789 52C176.757 51.664 176.741 51.392 176.741 51.184V46.36H178.693V50.52C178.693 50.7867 178.712 51.088 178.749 51.424C178.787 51.7547 178.872 52.0747 179.005 52.384C179.144 52.688 179.347 52.9387 179.613 53.136C179.885 53.3333 180.251 53.432 180.709 53.432C180.955 53.432 181.197 53.392 181.437 53.312C181.677 53.232 181.893 53.096 182.085 52.904C182.283 52.7067 182.44 52.4373 182.557 52.096C182.675 51.7547 182.733 51.3227 182.733 50.8L183.877 51.288C183.877 52.024 183.733 52.6907 183.445 53.288C183.163 53.8853 182.744 54.3627 182.189 54.72C181.635 55.072 180.952 55.248 180.141 55.248ZM182.965 55V52.32H182.733V46.36H184.669V55H182.965ZM189.253 55L186.117 46.36H188.045L190.221 52.624L192.389 46.36H194.325L191.189 55H189.253ZM199.376 55.24C198.501 55.24 197.733 55.0507 197.072 54.672C196.411 54.2933 195.893 53.768 195.52 53.096C195.152 52.424 194.968 51.6507 194.968 50.776C194.968 49.832 195.149 49.0133 195.512 48.32C195.875 47.6213 196.379 47.08 197.024 46.696C197.669 46.312 198.416 46.12 199.264 46.12C200.16 46.12 200.92 46.3307 201.544 46.752C202.173 47.168 202.64 47.7573 202.944 48.52C203.248 49.2827 203.363 50.1813 203.288 51.216H201.376V50.512C201.371 49.5733 201.205 48.888 200.88 48.456C200.555 48.024 200.043 47.808 199.344 47.808C198.555 47.808 197.968 48.0533 197.584 48.544C197.2 49.0293 197.008 49.7413 197.008 50.68C197.008 51.5547 197.2 52.232 197.584 52.712C197.968 53.192 198.528 53.432 199.264 53.432C199.739 53.432 200.147 53.328 200.488 53.12C200.835 52.9067 201.101 52.6 201.288 52.2L203.192 52.776C202.861 53.5547 202.349 54.16 201.656 54.592C200.968 55.024 200.208 55.24 199.376 55.24ZM196.4 51.216V49.76H202.344V51.216H196.4ZM210.815 55V50.84C210.815 50.568 210.796 50.2667 210.759 49.936C210.721 49.6053 210.633 49.288 210.495 48.984C210.361 48.6747 210.159 48.4213 209.887 48.224C209.62 48.0267 209.257 47.928 208.799 47.928C208.553 47.928 208.311 47.968 208.071 48.048C207.831 48.128 207.612 48.2667 207.415 48.464C207.223 48.656 207.068 48.9227 206.951 49.264C206.833 49.6 206.775 50.032 206.775 50.56L205.631 50.072C205.631 49.336 205.772 48.6693 206.055 48.072C206.343 47.4747 206.764 47 207.319 46.648C207.873 46.2907 208.556 46.112 209.367 46.112C210.007 46.112 210.535 46.2187 210.951 46.432C211.367 46.6453 211.697 46.9173 211.943 47.248C212.188 47.5787 212.369 47.9307 212.487 48.304C212.604 48.6773 212.679 49.032 212.711 49.368C212.748 49.6987 212.767 49.968 212.767 50.176V55H210.815ZM204.823 55V46.36H206.543V49.04H206.775V55H204.823ZM217.27 55.24C216.646 55.24 216.118 55.1227 215.686 54.888C215.254 54.648 214.926 54.3307 214.702 53.936C214.484 53.5413 214.374 53.1067 214.374 52.632C214.374 52.216 214.444 51.8427 214.582 51.512C214.721 51.176 214.934 50.888 215.222 50.648C215.51 50.4027 215.884 50.2027 216.342 50.048C216.689 49.936 217.094 49.8347 217.558 49.744C218.028 49.6533 218.534 49.5707 219.078 49.496C219.628 49.416 220.201 49.3307 220.798 49.24L220.11 49.632C220.116 49.0347 219.982 48.5947 219.71 48.312C219.438 48.0293 218.98 47.888 218.334 47.888C217.945 47.888 217.569 47.9787 217.206 48.16C216.844 48.3413 216.59 48.6533 216.446 49.096L214.686 48.544C214.9 47.8133 215.305 47.2267 215.902 46.784C216.505 46.3413 217.316 46.12 218.334 46.12C219.102 46.12 219.777 46.2453 220.358 46.496C220.945 46.7467 221.38 47.1573 221.662 47.728C221.817 48.032 221.91 48.344 221.942 48.664C221.974 48.9787 221.99 49.3227 221.99 49.696V55H220.302V53.128L220.582 53.432C220.193 54.056 219.737 54.5147 219.214 54.808C218.697 55.096 218.049 55.24 217.27 55.24ZM217.654 53.704C218.092 53.704 218.465 53.6267 218.774 53.472C219.084 53.3173 219.329 53.128 219.51 52.904C219.697 52.68 219.822 52.4693 219.886 52.272C219.988 52.0267 220.044 51.7467 220.054 51.432C220.07 51.112 220.078 50.8533 220.078 50.656L220.67 50.832C220.089 50.9227 219.59 51.0027 219.174 51.072C218.758 51.1413 218.401 51.208 218.102 51.272C217.804 51.3307 217.54 51.3973 217.31 51.472C217.086 51.552 216.897 51.6453 216.742 51.752C216.588 51.8587 216.468 51.9813 216.382 52.12C216.302 52.2587 216.262 52.4213 216.262 52.608C216.262 52.8213 216.316 53.0107 216.422 53.176C216.529 53.336 216.684 53.464 216.886 53.56C217.094 53.656 217.35 53.704 217.654 53.704ZM229.137 55C228.566 55.1067 228.006 55.152 227.457 55.136C226.913 55.1253 226.425 55.0267 225.993 54.84C225.561 54.648 225.233 54.3467 225.009 53.936C224.812 53.5627 224.708 53.1813 224.697 52.792C224.686 52.4027 224.681 51.9627 224.681 51.472V43.96H226.601V51.36C226.601 51.7067 226.604 52.0107 226.609 52.272C226.62 52.5333 226.676 52.7467 226.777 52.912C226.969 53.232 227.276 53.4107 227.697 53.448C228.118 53.4853 228.598 53.464 229.137 53.384V55ZM223.113 47.872V46.36H229.137V47.872H223.113ZM231.155 45.048V43.28H233.083V45.048H231.155ZM231.155 55V46.36H233.083V55H231.155ZM239.295 55.24C238.431 55.24 237.677 55.0453 237.031 54.656C236.386 54.2667 235.885 53.7307 235.527 53.048C235.175 52.36 234.999 51.5707 234.999 50.68C234.999 49.7733 235.181 48.9787 235.543 48.296C235.906 47.6133 236.41 47.08 237.055 46.696C237.701 46.312 238.447 46.12 239.295 46.12C240.165 46.12 240.922 46.3147 241.567 46.704C242.213 47.0933 242.714 47.632 243.071 48.32C243.429 49.0027 243.607 49.7893 243.607 50.68C243.607 51.576 243.426 52.368 243.063 53.056C242.706 53.7387 242.205 54.2747 241.559 54.664C240.914 55.048 240.159 55.24 239.295 55.24ZM239.295 53.432C240.063 53.432 240.634 53.176 241.007 52.664C241.381 52.152 241.567 51.4907 241.567 50.68C241.567 49.8427 241.378 49.176 240.999 48.68C240.621 48.1787 240.053 47.928 239.295 47.928C238.778 47.928 238.351 48.0453 238.015 48.28C237.685 48.5093 237.439 48.832 237.279 49.248C237.119 49.6587 237.039 50.136 237.039 50.68C237.039 51.5173 237.229 52.1867 237.607 52.688C237.991 53.184 238.554 53.432 239.295 53.432ZM251.346 55V50.84C251.346 50.568 251.327 50.2667 251.29 49.936C251.253 49.6053 251.165 49.288 251.026 48.984C250.893 48.6747 250.69 48.4213 250.418 48.224C250.151 48.0267 249.789 47.928 249.33 47.928C249.085 47.928 248.842 47.968 248.602 48.048C248.362 48.128 248.143 48.2667 247.946 48.464C247.754 48.656 247.599 48.9227 247.482 49.264C247.365 49.6 247.306 50.032 247.306 50.56L246.162 50.072C246.162 49.336 246.303 48.6693 246.586 48.072C246.874 47.4747 247.295 47 247.85 46.648C248.405 46.2907 249.087 46.112 249.898 46.112C250.538 46.112 251.066 46.2187 251.482 46.432C251.898 46.6453 252.229 46.9173 252.474 47.248C252.719 47.5787 252.901 47.9307 253.018 48.304C253.135 48.6773 253.21 49.032 253.242 49.368C253.279 49.6987 253.298 49.968 253.298 50.176V55H251.346ZM245.354 55V46.36H247.074V49.04H247.306V55H245.354Z" fill="#4D5254"></path><path d="M1.99976 87L8.65858 94L21.9998 80" stroke="#2C7EF8" stroke-width="2.5" stroke-linecap="round" stroke-linejoin="round"></path><path d="M36.12 93V81.48H40.88C40.992 81.48 41.136 81.4853 41.312 81.496C41.488 81.5013 41.6507 81.5173 41.8 81.544C42.4667 81.6453 43.016 81.8667 43.448 82.208C43.8853 82.5493 44.208 82.9813 44.416 83.504C44.6293 84.0213 44.736 84.5973 44.736 85.232C44.736 85.8613 44.6293 86.4373 44.416 86.96C44.2027 87.4773 43.8773 87.9067 43.44 88.248C43.008 88.5893 42.4613 88.8107 41.8 88.912C41.6507 88.9333 41.4853 88.9493 41.304 88.96C41.128 88.9707 40.9867 88.976 40.88 88.976H38.048V93H36.12ZM38.048 87.176H40.8C40.9067 87.176 41.0267 87.1707 41.16 87.16C41.2933 87.1493 41.416 87.128 41.528 87.096C41.848 87.016 42.0987 86.8747 42.28 86.672C42.4667 86.4693 42.5973 86.24 42.672 85.984C42.752 85.728 42.792 85.4773 42.792 85.232C42.792 84.9867 42.752 84.736 42.672 84.48C42.5973 84.2187 42.4667 83.9867 42.28 83.784C42.0987 83.5813 41.848 83.44 41.528 83.36C41.416 83.328 41.2933 83.3093 41.16 83.304C41.0267 83.2933 40.9067 83.288 40.8 83.288H38.048V87.176ZM50.1261 93.24C49.2515 93.24 48.4835 93.0507 47.8221 92.672C47.1608 92.2933 46.6435 91.768 46.2701 91.096C45.9021 90.424 45.7181 89.6507 45.7181 88.776C45.7181 87.832 45.8995 87.0133 46.2621 86.32C46.6248 85.6213 47.1288 85.08 47.7741 84.696C48.4195 84.312 49.1661 84.12 50.0141 84.12C50.9101 84.12 51.6701 84.3307 52.2941 84.752C52.9235 85.168 53.3901 85.7573 53.6941 86.52C53.9981 87.2827 54.1128 88.1813 54.0381 89.216H52.1261V88.512C52.1208 87.5733 51.9555 86.888 51.6301 86.456C51.3048 86.024 50.7928 85.808 50.0941 85.808C49.3048 85.808 48.7181 86.0533 48.3341 86.544C47.9501 87.0293 47.7581 87.7413 47.7581 88.68C47.7581 89.5547 47.9501 90.232 48.3341 90.712C48.7181 91.192 49.2781 91.432 50.0141 91.432C50.4888 91.432 50.8968 91.328 51.2381 91.12C51.5848 90.9067 51.8515 90.6 52.0381 90.2L53.9421 90.776C53.6115 91.5547 53.0995 92.16 52.4061 92.592C51.7181 93.024 50.9581 93.24 50.1261 93.24ZM47.1501 89.216V87.76H53.0941V89.216H47.1501ZM55.8231 93V84.36H57.5271V86.464L57.3191 86.192C57.4258 85.904 57.5671 85.6427 57.7431 85.408C57.9245 85.168 58.1405 84.9707 58.3911 84.816C58.6045 84.672 58.8391 84.56 59.0951 84.48C59.3565 84.3947 59.6231 84.344 59.8951 84.328C60.1671 84.3067 60.4311 84.3173 60.6871 84.36V86.16C60.4311 86.0853 60.1351 86.0613 59.7991 86.088C59.4685 86.1147 59.1698 86.208 58.9031 86.368C58.6365 86.512 58.4178 86.696 58.2471 86.92C58.0818 87.144 57.9591 87.4 57.8791 87.688C57.7991 87.9707 57.7591 88.2773 57.7591 88.608V93H55.8231ZM62.9658 93V84.224C62.9658 84.0053 62.9738 83.7653 62.9898 83.504C63.0058 83.2373 63.0511 82.9733 63.1258 82.712C63.2004 82.4507 63.3364 82.2133 63.5338 82C63.7791 81.728 64.0431 81.5413 64.3258 81.44C64.6138 81.3333 64.8964 81.2747 65.1738 81.264C65.4511 81.248 65.6938 81.24 65.9018 81.24H66.9818V82.808H65.9818C65.6138 82.808 65.3391 82.9013 65.1578 83.088C64.9818 83.2693 64.8938 83.5093 64.8938 83.808V93H62.9658ZM61.5738 85.872V84.36H66.9818V85.872H61.5738ZM71.8761 93.24C71.0015 93.24 70.2335 93.0507 69.5721 92.672C68.9108 92.2933 68.3935 91.768 68.0201 91.096C67.6521 90.424 67.4681 89.6507 67.4681 88.776C67.4681 87.832 67.6495 87.0133 68.0121 86.32C68.3748 85.6213 68.8788 85.08 69.5241 84.696C70.1695 84.312 70.9161 84.12 71.7641 84.12C72.6601 84.12 73.4201 84.3307 74.0441 84.752C74.6735 85.168 75.1401 85.7573 75.4441 86.52C75.7481 87.2827 75.8628 88.1813 75.7881 89.216H73.8761V88.512C73.8708 87.5733 73.7055 86.888 73.3801 86.456C73.0548 86.024 72.5428 85.808 71.8441 85.808C71.0548 85.808 70.4681 86.0533 70.0841 86.544C69.7001 87.0293 69.5081 87.7413 69.5081 88.68C69.5081 89.5547 69.7001 90.232 70.0841 90.712C70.4681 91.192 71.0281 91.432 71.7641 91.432C72.2388 91.432 72.6468 91.328 72.9881 91.12C73.3348 90.9067 73.6015 90.6 73.7881 90.2L75.6921 90.776C75.3615 91.5547 74.8495 92.16 74.1561 92.592C73.4681 93.024 72.7081 93.24 71.8761 93.24ZM68.9001 89.216V87.76H74.8441V89.216H68.9001ZM81.3251 93.24C80.4345 93.24 79.6745 93.0427 79.0451 92.648C78.4158 92.248 77.9331 91.704 77.5971 91.016C77.2665 90.328 77.0985 89.5493 77.0931 88.68C77.0985 87.7947 77.2718 87.0107 77.6131 86.328C77.9598 85.64 78.4505 85.1013 79.0851 84.712C79.7198 84.3173 80.4745 84.12 81.3491 84.12C82.3305 84.12 83.1598 84.368 83.8371 84.864C84.5198 85.3547 84.9651 86.0267 85.1731 86.88L83.2531 87.4C83.1038 86.936 82.8558 86.576 82.5091 86.32C82.1625 86.0587 81.7678 85.928 81.3251 85.928C80.8238 85.928 80.4105 86.048 80.0851 86.288C79.7598 86.5227 79.5198 86.848 79.3651 87.264C79.2105 87.68 79.1331 88.152 79.1331 88.68C79.1331 89.5013 79.3171 90.1653 79.6851 90.672C80.0531 91.1787 80.5998 91.432 81.3251 91.432C81.8371 91.432 82.2398 91.3147 82.5331 91.08C82.8318 90.8453 83.0558 90.5067 83.2051 90.064L85.1731 90.504C84.9065 91.384 84.4398 92.0613 83.7731 92.536C83.1065 93.0053 82.2905 93.24 81.3251 93.24ZM91.8403 93C91.2696 93.1067 90.7096 93.152 90.1603 93.136C89.6163 93.1253 89.1283 93.0267 88.6963 92.84C88.2643 92.648 87.9363 92.3467 87.7122 91.936C87.5149 91.5627 87.4109 91.1813 87.4003 90.792C87.3896 90.4027 87.3843 89.9627 87.3843 89.472V81.96H89.3043V89.36C89.3043 89.7067 89.3069 90.0107 89.3123 90.272C89.3229 90.5333 89.3789 90.7467 89.4803 90.912C89.6723 91.232 89.9789 91.4107 90.4003 91.448C90.8216 91.4853 91.3016 91.464 91.8403 91.384V93ZM85.8163 85.872V84.36H91.8403V85.872H85.8163ZM97.6533 93V84.224C97.6533 84.0053 97.6613 83.7653 97.6773 83.504C97.6933 83.2373 97.7386 82.9733 97.8133 82.712C97.8879 82.4507 98.0239 82.2133 98.2213 82C98.4666 81.728 98.7306 81.5413 99.0133 81.44C99.3013 81.3333 99.5839 81.2747 99.8613 81.264C100.139 81.248 100.381 81.24 100.589 81.24H101.669V82.808H100.669C100.301 82.808 100.027 82.9013 99.8453 83.088C99.6693 83.2693 99.5813 83.5093 99.5813 83.808V93H97.6533ZM96.2613 85.872V84.36H101.669V85.872H96.2613ZM106.452 93.24C105.588 93.24 104.833 93.0453 104.188 92.656C103.542 92.2667 103.041 91.7307 102.684 91.048C102.332 90.36 102.156 89.5707 102.156 88.68C102.156 87.7733 102.337 86.9787 102.7 86.296C103.062 85.6133 103.566 85.08 104.212 84.696C104.857 84.312 105.604 84.12 106.452 84.12C107.321 84.12 108.078 84.3147 108.724 84.704C109.369 85.0933 109.87 85.632 110.228 86.32C110.585 87.0027 110.764 87.7893 110.764 88.68C110.764 89.576 110.582 90.368 110.22 91.056C109.862 91.7387 109.361 92.2747 108.716 92.664C108.07 93.048 107.316 93.24 106.452 93.24ZM106.452 91.432C107.22 91.432 107.79 91.176 108.164 90.664C108.537 90.152 108.724 89.4907 108.724 88.68C108.724 87.8427 108.534 87.176 108.156 86.68C107.777 86.1787 107.209 85.928 106.452 85.928C105.934 85.928 105.508 86.0453 105.172 86.28C104.841 86.5093 104.596 86.832 104.436 87.248C104.276 87.6587 104.196 88.136 104.196 88.68C104.196 89.5173 104.385 90.1867 104.764 90.688C105.148 91.184 105.71 91.432 106.452 91.432ZM112.526 93V84.36H114.23V86.464L114.022 86.192C114.129 85.904 114.27 85.6427 114.446 85.408C114.628 85.168 114.844 84.9707 115.094 84.816C115.308 84.672 115.542 84.56 115.798 84.48C116.06 84.3947 116.326 84.344 116.598 84.328C116.87 84.3067 117.134 84.3173 117.39 84.36V86.16C117.134 86.0853 116.838 86.0613 116.502 86.088C116.172 86.1147 115.873 86.208 115.606 86.368C115.34 86.512 115.121 86.696 114.95 86.92C114.785 87.144 114.662 87.4 114.582 87.688C114.502 87.9707 114.462 88.2773 114.462 88.608V93H112.526ZM126.048 93.24C125.173 93.24 124.405 93.0507 123.744 92.672C123.083 92.2933 122.565 91.768 122.192 91.096C121.824 90.424 121.64 89.6507 121.64 88.776C121.64 87.832 121.821 87.0133 122.184 86.32C122.547 85.6213 123.051 85.08 123.696 84.696C124.341 84.312 125.088 84.12 125.936 84.12C126.832 84.12 127.592 84.3307 128.216 84.752C128.845 85.168 129.312 85.7573 129.616 86.52C129.92 87.2827 130.035 88.1813 129.96 89.216H128.048V88.512C128.043 87.5733 127.877 86.888 127.552 86.456C127.227 86.024 126.715 85.808 126.016 85.808C125.227 85.808 124.64 86.0533 124.256 86.544C123.872 87.0293 123.68 87.7413 123.68 88.68C123.68 89.5547 123.872 90.232 124.256 90.712C124.64 91.192 125.2 91.432 125.936 91.432C126.411 91.432 126.819 91.328 127.16 91.12C127.507 90.9067 127.773 90.6 127.96 90.2L129.864 90.776C129.533 91.5547 129.021 92.16 128.328 92.592C127.64 93.024 126.88 93.24 126.048 93.24ZM123.072 89.216V87.76H129.016V89.216H123.072ZM133.769 93L130.633 84.36H132.561L134.737 90.624L136.905 84.36H138.841L135.705 93H133.769ZM143.892 93.24C143.017 93.24 142.249 93.0507 141.588 92.672C140.926 92.2933 140.409 91.768 140.036 91.096C139.668 90.424 139.484 89.6507 139.484 88.776C139.484 87.832 139.665 87.0133 140.028 86.32C140.39 85.6213 140.894 85.08 141.54 84.696C142.185 84.312 142.932 84.12 143.78 84.12C144.676 84.12 145.436 84.3307 146.06 84.752C146.689 85.168 147.156 85.7573 147.46 86.52C147.764 87.2827 147.878 88.1813 147.804 89.216H145.892V88.512C145.886 87.5733 145.721 86.888 145.396 86.456C145.07 86.024 144.558 85.808 143.86 85.808C143.07 85.808 142.484 86.0533 142.1 86.544C141.716 87.0293 141.524 87.7413 141.524 88.68C141.524 89.5547 141.716 90.232 142.1 90.712C142.484 91.192 143.044 91.432 143.78 91.432C144.254 91.432 144.662 91.328 145.004 91.12C145.35 90.9067 145.617 90.6 145.804 90.2L147.708 90.776C147.377 91.5547 146.865 92.16 146.172 92.592C145.484 93.024 144.724 93.24 143.892 93.24ZM140.916 89.216V87.76H146.86V89.216H140.916ZM149.589 93V84.36H151.293V86.464L151.085 86.192C151.191 85.904 151.333 85.6427 151.509 85.408C151.69 85.168 151.906 84.9707 152.157 84.816C152.37 84.672 152.605 84.56 152.861 84.48C153.122 84.3947 153.389 84.344 153.661 84.328C153.933 84.3067 154.197 84.3173 154.453 84.36V86.16C154.197 86.0853 153.901 86.0613 153.565 86.088C153.234 86.1147 152.935 86.208 152.669 86.368C152.402 86.512 152.183 86.696 152.013 86.92C151.847 87.144 151.725 87.4 151.645 87.688C151.565 87.9707 151.525 88.2773 151.525 88.608V93H149.589ZM156.85 96.84L158.514 92.272L158.546 93.616L154.778 84.36H156.786L159.458 91.208H158.946L161.546 84.36H163.474L158.658 96.84H156.85ZM167.87 93V84.36H169.574V86.464L169.366 86.192C169.473 85.904 169.614 85.6427 169.79 85.408C169.971 85.168 170.187 84.9707 170.438 84.816C170.651 84.672 170.886 84.56 171.142 84.48C171.403 84.3947 171.67 84.344 171.942 84.328C172.214 84.3067 172.478 84.3173 172.734 84.36V86.16C172.478 86.0853 172.182 86.0613 171.846 86.088C171.515 86.1147 171.217 86.208 170.95 86.368C170.683 86.512 170.465 86.696 170.294 86.92C170.129 87.144 170.006 87.4 169.926 87.688C169.846 87.9707 169.806 88.2773 169.806 88.608V93H167.87ZM177.92 93.24C177.056 93.24 176.302 93.0453 175.656 92.656C175.011 92.2667 174.51 91.7307 174.152 91.048C173.8 90.36 173.624 89.5707 173.624 88.68C173.624 87.7733 173.806 86.9787 174.168 86.296C174.531 85.6133 175.035 85.08 175.68 84.696C176.326 84.312 177.072 84.12 177.92 84.12C178.79 84.12 179.547 84.3147 180.192 84.704C180.838 85.0933 181.339 85.632 181.696 86.32C182.054 87.0027 182.232 87.7893 182.232 88.68C182.232 89.576 182.051 90.368 181.688 91.056C181.331 91.7387 180.83 92.2747 180.184 92.664C179.539 93.048 178.784 93.24 177.92 93.24ZM177.92 91.432C178.688 91.432 179.259 91.176 179.632 90.664C180.006 90.152 180.192 89.4907 180.192 88.68C180.192 87.8427 180.003 87.176 179.624 86.68C179.246 86.1787 178.678 85.928 177.92 85.928C177.403 85.928 176.976 86.0453 176.64 86.28C176.31 86.5093 176.064 86.832 175.904 87.248C175.744 87.6587 175.664 88.136 175.664 88.68C175.664 89.5173 175.854 90.1867 176.232 90.688C176.616 91.184 177.179 91.432 177.92 91.432ZM187.811 93.24C186.947 93.24 186.192 93.0453 185.547 92.656C184.902 92.2667 184.4 91.7307 184.043 91.048C183.691 90.36 183.515 89.5707 183.515 88.68C183.515 87.7733 183.696 86.9787 184.059 86.296C184.422 85.6133 184.926 85.08 185.571 84.696C186.216 84.312 186.963 84.12 187.811 84.12C188.68 84.12 189.438 84.3147 190.083 84.704C190.728 85.0933 191.23 85.632 191.587 86.32C191.944 87.0027 192.123 87.7893 192.123 88.68C192.123 89.576 191.942 90.368 191.579 91.056C191.222 91.7387 190.72 92.2747 190.075 92.664C189.43 93.048 188.675 93.24 187.811 93.24ZM187.811 91.432C188.579 91.432 189.15 91.176 189.523 90.664C189.896 90.152 190.083 89.4907 190.083 88.68C190.083 87.8427 189.894 87.176 189.515 86.68C189.136 86.1787 188.568 85.928 187.811 85.928C187.294 85.928 186.867 86.0453 186.531 86.28C186.2 86.5093 185.955 86.832 185.795 87.248C185.635 87.6587 185.555 88.136 185.555 88.68C185.555 89.5173 185.744 90.1867 186.123 90.688C186.507 91.184 187.07 91.432 187.811 91.432ZM204.262 93V87.752C204.262 87.16 204.115 86.6987 203.822 86.368C203.528 86.032 203.131 85.864 202.63 85.864C202.32 85.864 202.043 85.936 201.798 86.08C201.552 86.2187 201.358 86.4267 201.214 86.704C201.07 86.976 200.998 87.3013 200.998 87.68L200.142 87.176C200.136 86.5787 200.27 86.0533 200.542 85.6C200.819 85.1413 201.192 84.784 201.662 84.528C202.131 84.272 202.654 84.144 203.23 84.144C204.184 84.144 204.915 84.432 205.422 85.008C205.934 85.5787 206.19 86.3307 206.19 87.264V93H204.262ZM193.87 93V84.36H195.574V87.04H195.814V93H193.87ZM199.078 93V87.776C199.078 87.1733 198.931 86.704 198.638 86.368C198.344 86.032 197.944 85.864 197.438 85.864C196.947 85.864 196.552 86.032 196.254 86.368C195.96 86.704 195.814 87.1413 195.814 87.68L194.95 87.104C194.95 86.544 195.088 86.04 195.366 85.592C195.643 85.144 196.016 84.792 196.486 84.536C196.96 84.2747 197.491 84.144 198.078 84.144C198.723 84.144 199.262 84.2827 199.694 84.56C200.131 84.832 200.456 85.2053 200.67 85.68C200.888 86.1493 200.998 86.68 200.998 87.272V93H199.078ZM211.639 82.72V81.4H212.815V82.72H211.639ZM211.639 93V84.36H212.815V93H211.639ZM221.454 93V88.592C221.454 88.112 221.408 87.672 221.318 87.272C221.227 86.8667 221.08 86.5147 220.878 86.216C220.68 85.912 220.422 85.6773 220.102 85.512C219.787 85.3467 219.403 85.264 218.95 85.264C218.534 85.264 218.166 85.336 217.846 85.48C217.531 85.624 217.264 85.832 217.046 86.104C216.832 86.3707 216.67 86.696 216.558 87.08C216.446 87.464 216.39 87.9013 216.39 88.392L215.558 88.208C215.558 87.3227 215.712 86.5787 216.022 85.976C216.331 85.3733 216.758 84.9173 217.302 84.608C217.846 84.2987 218.47 84.144 219.174 84.144C219.691 84.144 220.142 84.224 220.526 84.384C220.915 84.544 221.243 84.76 221.51 85.032C221.782 85.304 222 85.616 222.166 85.968C222.331 86.3147 222.451 86.6853 222.526 87.08C222.6 87.4693 222.638 87.8587 222.638 88.248V93H221.454ZM215.206 93V84.36H216.27V86.488H216.39V93H215.206ZM230.389 93.24C229.738 93.24 229.192 93.1227 228.749 92.888C228.312 92.6533 227.984 92.3413 227.765 91.952C227.546 91.5627 227.437 91.1387 227.437 90.68C227.437 90.2107 227.53 89.8107 227.717 89.48C227.909 89.144 228.168 88.8693 228.493 88.656C228.824 88.4427 229.205 88.28 229.637 88.168C230.074 88.0613 230.557 87.968 231.085 87.888C231.618 87.8027 232.138 87.7307 232.645 87.672C233.157 87.608 233.605 87.5467 233.989 87.488L233.573 87.744C233.589 86.8907 233.424 86.2587 233.077 85.848C232.73 85.4373 232.128 85.232 231.269 85.232C230.677 85.232 230.176 85.3653 229.765 85.632C229.36 85.8987 229.074 86.32 228.909 86.896L227.765 86.56C227.962 85.7867 228.36 85.1867 228.957 84.76C229.554 84.3333 230.33 84.12 231.285 84.12C232.074 84.12 232.744 84.2693 233.293 84.568C233.848 84.8613 234.24 85.288 234.469 85.848C234.576 86.0987 234.645 86.3787 234.677 86.688C234.709 86.9973 234.725 87.312 234.725 87.632V93H233.677V90.832L233.981 90.96C233.688 91.7013 233.232 92.2667 232.613 92.656C231.994 93.0453 231.253 93.24 230.389 93.24ZM230.525 92.224C231.074 92.224 231.554 92.1253 231.965 91.928C232.376 91.7307 232.706 91.4613 232.957 91.12C233.208 90.7733 233.37 90.384 233.445 89.952C233.509 89.6747 233.544 89.3707 233.549 89.04C233.554 88.704 233.557 88.4533 233.557 88.288L234.005 88.52C233.605 88.5733 233.17 88.6267 232.701 88.68C232.237 88.7333 231.778 88.7947 231.325 88.864C230.877 88.9333 230.472 89.016 230.109 89.112C229.864 89.1813 229.626 89.28 229.397 89.408C229.168 89.5307 228.978 89.696 228.829 89.904C228.685 90.112 228.613 90.3707 228.613 90.68C228.613 90.9307 228.674 91.1733 228.797 91.408C228.925 91.6427 229.128 91.8373 229.405 91.992C229.688 92.1467 230.061 92.224 230.525 92.224ZM236.968 93V81.24H238.144V93H236.968ZM240.702 93V81.24H241.878V93H240.702ZM252.183 93C251.698 93.1013 251.218 93.1413 250.743 93.12C250.274 93.0987 249.853 92.9973 249.479 92.816C249.111 92.6347 248.831 92.352 248.639 91.968C248.485 91.648 248.399 91.3253 248.383 91C248.373 90.6693 248.367 90.2933 248.367 89.872V81.96H249.535V89.824C249.535 90.1867 249.538 90.4907 249.543 90.736C249.554 90.976 249.61 91.1893 249.711 91.376C249.903 91.7333 250.207 91.9467 250.623 92.016C251.045 92.0853 251.565 92.0693 252.183 91.968V93ZM246.519 85.368V84.36H252.183V85.368H246.519ZM254.883 96.84L256.555 92.304L256.579 93.648L252.795 84.36H254.043L257.147 92.128H256.635L259.499 84.36H260.699L256.059 96.84H254.883ZM265.969 93.24C265.174 93.24 264.502 93.04 263.953 92.64C263.403 92.2347 262.987 91.688 262.705 91C262.422 90.3067 262.281 89.5307 262.281 88.672C262.281 87.7973 262.422 87.0187 262.705 86.336C262.993 85.648 263.414 85.1067 263.969 84.712C264.523 84.3173 265.206 84.12 266.017 84.12C266.806 84.12 267.483 84.32 268.049 84.72C268.614 85.12 269.046 85.664 269.345 86.352C269.649 87.04 269.801 87.8133 269.801 88.672C269.801 89.536 269.649 90.312 269.345 91C269.041 91.688 268.603 92.2347 268.033 92.64C267.462 93.04 266.774 93.24 265.969 93.24ZM262.081 96.84V84.36H263.137V90.864H263.265V96.84H262.081ZM265.849 92.144C266.451 92.144 266.953 91.992 267.353 91.688C267.753 91.384 268.051 90.9707 268.249 90.448C268.451 89.92 268.553 89.328 268.553 88.672C268.553 88.0213 268.454 87.4347 268.257 86.912C268.059 86.3893 267.758 85.976 267.353 85.672C266.953 85.368 266.443 85.216 265.825 85.216C265.222 85.216 264.721 85.3627 264.321 85.656C263.926 85.9493 263.63 86.3573 263.433 86.88C263.235 87.3973 263.137 87.9947 263.137 88.672C263.137 89.3387 263.235 89.936 263.433 90.464C263.63 90.9867 263.929 91.3973 264.329 91.696C264.729 91.9947 265.235 92.144 265.849 92.144ZM275.214 93.24C274.371 93.24 273.64 93.0533 273.022 92.68C272.408 92.3067 271.931 91.7813 271.59 91.104C271.248 90.4267 271.078 89.632 271.078 88.72C271.078 87.776 271.246 86.96 271.582 86.272C271.918 85.584 272.39 85.0533 272.998 84.68C273.611 84.3067 274.334 84.12 275.166 84.12C276.019 84.12 276.747 84.3173 277.35 84.712C277.952 85.1013 278.408 85.6613 278.718 86.392C279.027 87.1227 279.168 87.9947 279.142 89.008H277.942V88.592C277.92 87.472 277.678 86.6267 277.214 86.056C276.755 85.4853 276.083 85.2 275.198 85.2C274.27 85.2 273.558 85.5013 273.062 86.104C272.571 86.7067 272.326 87.5653 272.326 88.68C272.326 89.768 272.571 90.6133 273.062 91.216C273.558 91.8133 274.259 92.112 275.166 92.112C275.784 92.112 276.323 91.9707 276.782 91.688C277.246 91.4 277.611 90.9867 277.878 90.448L278.974 90.872C278.632 91.624 278.128 92.208 277.462 92.624C276.8 93.0347 276.051 93.24 275.214 93.24ZM271.91 89.008V88.024H278.51V89.008H271.91ZM284.141 93.232C283.128 93.232 282.293 93.0133 281.637 92.576C280.986 92.1387 280.586 91.5307 280.437 90.752L281.637 90.552C281.765 91.0427 282.056 91.4347 282.509 91.728C282.968 92.016 283.533 92.16 284.205 92.16C284.861 92.16 285.378 92.024 285.757 91.752C286.136 91.4747 286.325 91.0987 286.325 90.624C286.325 90.3573 286.264 90.1413 286.141 89.976C286.024 89.8053 285.781 89.648 285.413 89.504C285.045 89.36 284.496 89.1893 283.765 88.992C282.981 88.7787 282.368 88.5653 281.925 88.352C281.482 88.1387 281.168 87.8933 280.981 87.616C280.794 87.3333 280.701 86.9893 280.701 86.584C280.701 86.0933 280.84 85.664 281.117 85.296C281.394 84.9227 281.778 84.6347 282.269 84.432C282.76 84.224 283.33 84.12 283.981 84.12C284.632 84.12 285.213 84.2267 285.725 84.44C286.242 84.648 286.658 84.9413 286.973 85.32C287.288 85.6987 287.474 86.1387 287.533 86.64L286.333 86.856C286.253 86.3493 286 85.9493 285.573 85.656C285.152 85.3573 284.616 85.2027 283.965 85.192C283.352 85.176 282.853 85.2933 282.469 85.544C282.085 85.7893 281.893 86.1173 281.893 86.528C281.893 86.7573 281.962 86.9547 282.101 87.12C282.24 87.28 282.49 87.432 282.853 87.576C283.221 87.72 283.744 87.8773 284.421 88.048C285.216 88.2507 285.84 88.464 286.293 88.688C286.746 88.912 287.069 89.176 287.261 89.48C287.453 89.784 287.549 90.16 287.549 90.608C287.549 91.424 287.245 92.0667 286.637 92.536C286.034 93 285.202 93.232 284.141 93.232ZM296.134 93.24C295.276 93.24 294.542 93.0453 293.934 92.656C293.326 92.2667 292.86 91.728 292.534 91.04C292.209 90.352 292.046 89.5627 292.046 88.672C292.046 87.7653 292.212 86.9707 292.542 86.288C292.873 85.6053 293.342 85.0747 293.95 84.696C294.564 84.312 295.292 84.12 296.134 84.12C296.998 84.12 297.734 84.3147 298.342 84.704C298.956 85.088 299.422 85.624 299.742 86.312C300.068 86.9947 300.23 87.7813 300.23 88.672C300.23 89.5787 300.068 90.376 299.742 91.064C299.417 91.7467 298.948 92.28 298.334 92.664C297.721 93.048 296.988 93.24 296.134 93.24ZM296.134 92.112C297.094 92.112 297.809 91.7947 298.278 91.16C298.748 90.52 298.982 89.6907 298.982 88.672C298.982 87.6267 298.745 86.7947 298.27 86.176C297.801 85.5573 297.089 85.248 296.134 85.248C295.489 85.248 294.956 85.3947 294.534 85.688C294.118 85.976 293.806 86.3787 293.598 86.896C293.396 87.408 293.294 88 293.294 88.672C293.294 89.712 293.534 90.5467 294.014 91.176C294.494 91.8 295.201 92.112 296.134 92.112ZM302.851 93V83.72C302.851 83.496 302.862 83.2747 302.883 83.056C302.91 82.8373 302.96 82.6293 303.035 82.432C303.11 82.2293 303.227 82.0427 303.387 81.872C303.563 81.68 303.755 81.5413 303.963 81.456C304.171 81.3653 304.387 81.3067 304.611 81.28C304.84 81.2533 305.064 81.24 305.283 81.24H306.387V82.232H305.363C304.915 82.232 304.579 82.3413 304.355 82.56C304.136 82.7787 304.027 83.1227 304.027 83.592V93H302.851ZM301.355 85.368V84.36H306.387V85.368H301.355ZM314.75 93.24C313.955 93.24 313.283 93.04 312.734 92.64C312.185 92.2347 311.769 91.688 311.486 91C311.203 90.3067 311.062 89.5307 311.062 88.672C311.062 87.7973 311.203 87.0187 311.486 86.336C311.774 85.648 312.195 85.1067 312.75 84.712C313.305 84.3173 313.987 84.12 314.798 84.12C315.587 84.12 316.265 84.32 316.83 84.72C317.395 85.12 317.827 85.664 318.126 86.352C318.43 87.04 318.582 87.8133 318.582 88.672C318.582 89.536 318.43 90.312 318.126 91C317.822 91.688 317.385 92.2347 316.814 92.64C316.243 93.04 315.555 93.24 314.75 93.24ZM310.862 96.84V84.36H311.918V90.864H312.046V96.84H310.862ZM314.63 92.144C315.233 92.144 315.734 91.992 316.134 91.688C316.534 91.384 316.833 90.9707 317.03 90.448C317.233 89.92 317.334 89.328 317.334 88.672C317.334 88.0213 317.235 87.4347 317.038 86.912C316.841 86.3893 316.539 85.976 316.134 85.672C315.734 85.368 315.225 85.216 314.606 85.216C314.003 85.216 313.502 85.3627 313.102 85.656C312.707 85.9493 312.411 86.3573 312.214 86.88C312.017 87.3973 311.918 87.9947 311.918 88.672C311.918 89.3387 312.017 89.936 312.214 90.464C312.411 90.9867 312.71 91.3973 313.11 91.696C313.51 91.9947 314.017 92.144 314.63 92.144ZM320.499 93V81.24H321.675V93H320.499ZM326.545 93.24C325.894 93.24 325.348 93.1227 324.905 92.888C324.468 92.6533 324.14 92.3413 323.921 91.952C323.702 91.5627 323.593 91.1387 323.593 90.68C323.593 90.2107 323.686 89.8107 323.873 89.48C324.065 89.144 324.324 88.8693 324.649 88.656C324.98 88.4427 325.361 88.28 325.793 88.168C326.23 88.0613 326.713 87.968 327.241 87.888C327.774 87.8027 328.294 87.7307 328.801 87.672C329.313 87.608 329.761 87.5467 330.145 87.488L329.729 87.744C329.745 86.8907 329.58 86.2587 329.233 85.848C328.886 85.4373 328.284 85.232 327.425 85.232C326.833 85.232 326.332 85.3653 325.921 85.632C325.516 85.8987 325.23 86.32 325.065 86.896L323.921 86.56C324.118 85.7867 324.516 85.1867 325.113 84.76C325.71 84.3333 326.486 84.12 327.441 84.12C328.23 84.12 328.9 84.2693 329.449 84.568C330.004 84.8613 330.396 85.288 330.625 85.848C330.732 86.0987 330.801 86.3787 330.833 86.688C330.865 86.9973 330.881 87.312 330.881 87.632V93H329.833V90.832L330.137 90.96C329.844 91.7013 329.388 92.2667 328.769 92.656C328.15 93.0453 327.409 93.24 326.545 93.24ZM326.681 92.224C327.23 92.224 327.71 92.1253 328.121 91.928C328.532 91.7307 328.862 91.4613 329.113 91.12C329.364 90.7733 329.526 90.384 329.601 89.952C329.665 89.6747 329.7 89.3707 329.705 89.04C329.71 88.704 329.713 88.4533 329.713 88.288L330.161 88.52C329.761 88.5733 329.326 88.6267 328.857 88.68C328.393 88.7333 327.934 88.7947 327.481 88.864C327.033 88.9333 326.628 89.016 326.265 89.112C326.02 89.1813 325.782 89.28 325.553 89.408C325.324 89.5307 325.134 89.696 324.985 89.904C324.841 90.112 324.769 90.3707 324.769 90.68C324.769 90.9307 324.83 91.1733 324.953 91.408C325.081 91.6427 325.284 91.8373 325.561 91.992C325.844 92.1467 326.217 92.224 326.681 92.224ZM336.548 93.24C335.678 93.24 334.942 93.0453 334.34 92.656C333.737 92.2667 333.278 91.7307 332.964 91.048C332.654 90.36 332.494 89.5707 332.484 88.68C332.494 87.7733 332.66 86.9787 332.98 86.296C333.3 85.608 333.761 85.0747 334.364 84.696C334.966 84.312 335.697 84.12 336.556 84.12C337.43 84.12 338.19 84.3333 338.836 84.76C339.486 85.1867 339.932 85.7707 340.172 86.512L339.02 86.88C338.817 86.3627 338.494 85.9627 338.052 85.68C337.614 85.392 337.113 85.248 336.548 85.248C335.913 85.248 335.388 85.3947 334.972 85.688C334.556 85.976 334.246 86.3787 334.044 86.896C333.841 87.4133 333.737 88.008 333.732 88.68C333.742 89.7147 333.982 90.5467 334.452 91.176C334.921 91.8 335.62 92.112 336.548 92.112C337.134 92.112 337.633 91.9787 338.044 91.712C338.46 91.44 338.774 91.0453 338.988 90.528L340.172 90.88C339.852 91.648 339.382 92.2347 338.764 92.64C338.145 93.04 337.406 93.24 336.548 93.24ZM345.245 93.24C344.402 93.24 343.671 93.0533 343.053 92.68C342.439 92.3067 341.962 91.7813 341.621 91.104C341.279 90.4267 341.109 89.632 341.109 88.72C341.109 87.776 341.277 86.96 341.613 86.272C341.949 85.584 342.421 85.0533 343.029 84.68C343.642 84.3067 344.365 84.12 345.197 84.12C346.05 84.12 346.778 84.3173 347.381 84.712C347.983 85.1013 348.439 85.6613 348.749 86.392C349.058 87.1227 349.199 87.9947 349.173 89.008H347.973V88.592C347.951 87.472 347.709 86.6267 347.245 86.056C346.786 85.4853 346.114 85.2 345.229 85.2C344.301 85.2 343.589 85.5013 343.093 86.104C342.602 86.7067 342.357 87.5653 342.357 88.68C342.357 89.768 342.602 90.6133 343.093 91.216C343.589 91.8133 344.29 92.112 345.197 92.112C345.815 92.112 346.354 91.9707 346.813 91.688C347.277 91.4 347.642 90.9867 347.909 90.448L349.005 90.872C348.663 91.624 348.159 92.208 347.493 92.624C346.831 93.0347 346.082 93.24 345.245 93.24ZM341.941 89.008V88.024H348.541V89.008H341.941ZM354.172 93.232C353.159 93.232 352.324 93.0133 351.668 92.576C351.017 92.1387 350.617 91.5307 350.468 90.752L351.668 90.552C351.796 91.0427 352.087 91.4347 352.54 91.728C352.999 92.016 353.564 92.16 354.236 92.16C354.892 92.16 355.409 92.024 355.788 91.752C356.167 91.4747 356.356 91.0987 356.356 90.624C356.356 90.3573 356.295 90.1413 356.172 89.976C356.055 89.8053 355.812 89.648 355.444 89.504C355.076 89.36 354.527 89.1893 353.796 88.992C353.012 88.7787 352.399 88.5653 351.956 88.352C351.513 88.1387 351.199 87.8933 351.012 87.616C350.825 87.3333 350.732 86.9893 350.732 86.584C350.732 86.0933 350.871 85.664 351.148 85.296C351.425 84.9227 351.809 84.6347 352.3 84.432C352.791 84.224 353.361 84.12 354.012 84.12C354.663 84.12 355.244 84.2267 355.756 84.44C356.273 84.648 356.689 84.9413 357.004 85.32C357.319 85.6987 357.505 86.1387 357.564 86.64L356.364 86.856C356.284 86.3493 356.031 85.9493 355.604 85.656C355.183 85.3573 354.647 85.2027 353.996 85.192C353.383 85.176 352.884 85.2933 352.5 85.544C352.116 85.7893 351.924 86.1173 351.924 86.528C351.924 86.7573 351.993 86.9547 352.132 87.12C352.271 87.28 352.521 87.432 352.884 87.576C353.252 87.72 353.775 87.8773 354.452 88.048C355.247 88.2507 355.871 88.464 356.324 88.688C356.777 88.912 357.1 89.176 357.292 89.48C357.484 89.784 357.58 90.16 357.58 90.608C357.58 91.424 357.276 92.0667 356.668 92.536C356.065 93 355.233 93.232 354.172 93.232ZM359.578 93V91.632H360.946V93H359.578Z" fill="#4D5254"></path></svg>