<svg xmlns="http://www.w3.org/2000/svg" width="202" height="32" viewBox="0 0 202 32" fill="none"><path d="M15.2579 32C15.2579 32 -1.85272 26.1496 0.165459 2.21607C5.07928 0.886427 10.1686 0.0886427 15.2579 0C20.435 0.0886427 25.5243 0.797784 30.4381 2.21607C32.4563 26.0609 15.2579 32 15.2579 32Z" fill="url(#paint0_linear_1_23)"></path><path d="M15.2579 32C15.2579 32 -1.85272 26.1496 0.165459 2.21607C5.07928 0.886427 10.1686 0.0886427 15.2579 0C20.435 0.0886427 25.5243 0.797784 30.4381 2.21607L28.8587 3.63435L15.2579 30.4931V32Z" fill="url(#paint1_linear_1_23)"></path><path d="M15.2579 30.4931C15.2579 30.4931 -0.185529 25.1745 1.56941 3.45706C6.04449 2.21606 10.6073 1.50692 15.2579 1.41827C19.9085 1.50692 24.5591 2.21606 29.0342 3.45706C30.7891 25.0859 15.2579 30.4931 15.2579 30.4931Z" fill="white" stroke="black" stroke-width="0.515" stroke-linecap="round"></path><path d="M15.2579 30.4931C15.2579 30.4931 -0.185529 25.1745 1.56941 3.45706C6.04449 2.21606 10.6073 1.50692 15.2579 1.41827C19.9085 1.50692 24.5591 2.21606 29.0342 3.45706C30.7891 25.0859 15.2579 30.4931 15.2579 30.4931Z" fill="white"></path><path d="M1.48166 3.19115H1.30617V3.36843C0.428698 14.7147 4.20181 21.5402 7.62393 25.2632C9.72986 27.6565 12.3623 29.518 15.2579 30.6704L15.3457 30.759H15.4334C18.329 29.6067 20.9615 27.7452 23.0674 25.3518C26.4018 21.6288 30.2626 14.8033 29.2974 3.54572V3.27979H29.1219C24.6468 2.03879 19.9962 1.41829 15.3457 1.32965C10.6951 1.41829 6.04449 2.03879 1.48166 3.19115ZM15.5211 1.50694C19.9962 1.59558 24.5591 2.30472 28.9464 3.45708C29.0342 4.52079 29.0342 5.85043 29.0342 6.8255C29.0342 15.9557 25.6998 21.7175 22.7164 24.9972C20.6982 27.3019 18.1536 29.1634 15.2579 30.3158C12.45 29.1634 9.90535 27.3019 7.79943 24.9972C4.90378 21.7175 1.56941 16.0443 1.56941 6.8255C1.56941 5.85043 1.65715 4.52079 1.7449 3.45708C2.79786 3.36843 9.20338 1.50694 15.5211 1.50694Z" fill="url(#paint2_linear_1_23)"></path><path d="M15.2579 27.7451C15.2579 27.7451 2.27138 22.9584 3.76308 4.78668C3.76308 4.78668 9.46662 5.2299 15.2579 5.2299C21.0492 5.2299 26.665 4.78668 26.8405 4.78668C28.3322 22.9584 15.2579 27.7451 15.2579 27.7451Z" fill="url(#paint3_linear_1_23)"></path><path d="M15.2579 26.2382C15.2579 26.2382 4.02632 22.072 5.34252 6.38226C5.34252 6.38226 10.2563 6.73683 15.2579 6.73683C20.2595 6.73683 25.0855 6.38226 25.261 6.38226C26.5772 21.9834 15.2579 26.1496 15.2579 26.2382Z" fill="url(#paint4_radial_1_23)"></path><path d="M26.8405 4.78668C26.665 4.78668 21.0492 5.2299 15.2579 5.2299C9.46662 5.2299 3.76308 4.78668 3.76308 4.78668L5.34252 6.38225C5.34252 6.38225 10.2563 6.73682 15.2579 6.73682C20.2595 6.73682 25.0855 6.2936 25.261 6.2936L26.8405 4.78668Z" fill="#8B1325"></path><path d="M15.2579 27.7451C15.2579 27.7451 2.27138 22.9584 3.76308 4.78668L5.34252 6.38225C4.11407 22.072 15.2579 26.2382 15.2579 26.2382V27.7451Z" fill="url(#paint5_linear_1_23)"></path><path d="M8.32591 19.9446L10.1686 7.71191H13.2397L17.1006 19.9446H13.854L12.1868 13.651L11.2216 19.9446H8.32591Z" fill="white"></path><path d="M17.5393 7.71191H20.6105L22.3654 19.9446H19.4698L18.4168 13.5623L17.3638 18.5263L15.7844 13.5623L17.5393 7.71191Z" fill="white"></path><path d="M43.3369 13.651H41.0555L38.8618 7.97782L38.0721 13.651H35.5274L37.1946 3.10248H39.6515L43.3369 13.651ZM41.6697 8.24375L43.5124 3.10248H46.057L47.5487 13.651H45.0041L44.3021 7.97782L42.8104 11.3462L41.6697 8.24375Z" fill="black"></path><path d="M57.0254 11.7895L56.4112 13.5623H53.8665L57.3764 3.01385H60.0088L63.4309 13.5623H60.8862L60.272 11.7895H57.0254ZM58.6926 6.29363L57.6396 9.66206H59.6578L58.6926 6.29363Z" fill="black"></path><path d="M76.1542 10.4598H71.2404C71.2404 11.5236 71.7668 12.0554 72.6443 12.0554C73.083 12.0554 73.5218 11.8781 73.785 11.4349H75.9787C75.8032 12.2327 75.3645 12.8532 74.7502 13.2964C74.136 13.7396 73.434 13.9169 72.6443 13.9169C70.7139 14.0942 69.0467 12.5873 68.8712 10.6371V10.1053C68.6957 8.15514 70.0997 6.47093 72.0301 6.29364H72.4688C74.7502 6.29364 76.0664 7.88921 76.0664 10.2826L76.1542 10.4598ZM74.0483 8.95292C73.9605 8.33242 73.3463 7.80057 72.7321 7.80057C72.0301 7.80057 71.5036 8.24378 71.3281 8.95292H74.0483Z" fill="black"></path><path d="M84.1391 10.4598H79.2253C79.2253 11.5236 79.7518 12.0554 80.717 12.0554C81.1557 12.0554 81.5945 11.8781 81.8577 11.4349H84.0514C83.8759 12.2327 83.4372 12.8532 82.8229 13.2964C82.2087 13.7396 81.5067 13.9169 80.717 13.9169C78.7866 14.0942 77.0317 12.5873 76.9439 10.6371V10.1053C76.7684 8.15514 78.1724 6.47093 80.1028 6.29364H80.6293C82.9107 6.29364 84.2269 7.88921 84.2269 10.2826L84.1391 10.4598ZM82.0332 8.95292C81.9455 8.33242 81.3312 7.80057 80.717 7.80057C80.015 7.80057 79.4886 8.24378 79.3131 8.95292H82.0332Z" fill="black"></path><path d="M84.4901 5.05264C84.4901 4.07757 85.2799 3.27979 86.2451 3.27979C87.2103 3.27979 88 4.07757 88 5.05264C88 6.02771 87.2103 6.82549 86.2451 6.82549C85.2799 6.82549 84.4901 6.11635 84.4901 5.05264ZM84.7534 5.05264C84.7534 5.85042 85.4553 6.55956 86.2451 6.55956C87.0348 6.55956 87.7368 5.85042 87.7368 5.05264C87.7368 4.25485 87.0348 3.54571 86.2451 3.54571C85.4553 3.54571 84.7534 4.16621 84.7534 5.05264ZM87.1225 6.02771H86.7715L86.2451 5.14128H85.8941V6.02771H85.6308V4.07757H86.4206C86.7715 4.07757 87.1225 4.16621 87.1225 4.60943C87.1225 4.87535 86.947 5.14128 86.6838 5.14128H86.5083L87.1225 6.02771ZM85.8941 4.3435V4.87535H86.2451C86.5083 4.87535 86.8593 4.87535 86.8593 4.60943C86.8593 4.3435 86.6838 4.3435 86.4206 4.3435H85.8941Z" fill="black"></path><path d="M64.3084 8.24375H62.9922V6.4709H64.3961V5.67311C64.3961 3.54569 65.3613 2.83655 67.204 2.83655C67.6427 2.83655 67.9937 2.92519 68.3447 2.92519L68.257 4.6094C67.9937 4.52076 67.8182 4.52076 67.555 4.52076C66.9408 4.52076 66.7653 4.96397 66.7653 5.67311V6.4709H68.4325V8.24375H66.6775V13.651H64.3084V8.24375Z" fill="black"></path><path d="M40.7045 18.7036C40.0903 18.4377 39.476 18.2604 38.8618 18.2604C38.0721 18.2604 37.1069 18.5263 37.1069 19.59C37.1069 21.4515 41.4942 21.0083 41.4942 24.2881C41.4942 26.4155 39.827 27.302 37.8088 27.302C37.1069 27.302 36.4049 27.1247 35.7907 26.8587L35.9661 25.5291C36.6681 25.795 37.3701 25.9723 38.0721 26.061C38.8618 26.061 40.0025 25.6177 40.0025 24.3767C40.0025 22.1607 35.7029 22.6925 35.7029 19.6787C35.7029 17.9058 37.1946 17.0194 38.9495 17.0194C39.6515 17.0194 40.4412 17.1967 41.1432 17.374L40.7045 18.7036Z" fill="black"></path><path d="M43.4246 17.1967H49.1282V18.4377H44.9163V21.3629H48.7772V22.6039H44.9163V25.8836H49.1282V27.1246H43.4246V17.1967Z" fill="black"></path><path d="M57.8151 18.7922C57.2009 18.4377 56.4989 18.2604 55.7092 18.2604C53.6033 18.2604 51.8483 19.9446 51.8483 22.072C51.8483 24.1994 53.5155 25.9723 55.6214 25.9723C56.4112 25.9723 57.1131 25.795 57.8151 25.4404L57.9028 26.7701C57.2009 27.036 56.4112 27.2133 55.6214 27.2133C52.4625 27.2133 50.2689 25.1745 50.2689 21.9834C50.2689 18.9695 52.5503 16.8421 55.6214 16.8421C56.4112 16.8421 57.2009 16.9307 57.9028 17.2853L57.8151 18.7922Z" fill="black"></path><path d="M67.0285 22.9584C67.0285 25.795 65.5368 27.2133 63.0799 27.2133C60.623 27.2133 59.1313 25.7064 59.1313 22.9584V17.1967H60.5353V22.8698C60.5353 24.7313 61.1495 26.0609 62.9922 26.0609C64.8348 26.0609 65.4491 24.7313 65.4491 22.8698V17.1967H66.9408L67.0285 22.9584Z" fill="black"></path><path d="M69.3099 17.1967H71.7668C73.785 17.1967 75.7154 17.5512 75.7154 19.8559C75.7154 21.0083 74.7502 21.9834 73.6095 22.072C74.0483 22.2493 74.2237 22.4266 74.5747 23.0471L76.5052 27.036H74.838L73.2585 23.5789C72.8198 22.6039 72.2933 22.6039 71.5913 22.6039H70.7139V27.036H69.3099V17.1967ZM70.7139 21.4515H71.9423C73.3463 21.4515 74.136 20.831 74.136 19.8559C74.136 18.9695 73.434 18.349 72.1178 18.349H70.7139V21.4515Z" fill="black"></path><path d="M78.1724 17.1967H83.8759V18.4377H79.6641V21.3629H83.5249V22.6039H79.6641V25.8836H83.8759V27.1246H78.1724V17.1967Z" fill="black"></path><path d="M53.34 8.68697C52.9013 8.42104 52.4626 8.24376 51.9361 8.24376C50.9709 8.24376 50.1811 9.04154 50.1811 10.0166V10.1939C50.1811 11.169 50.9709 12.0554 52.0238 12.0554H52.1116C52.638 12.0554 53.0768 11.9668 53.6033 11.7008V13.4737C52.989 13.7396 52.3748 13.8282 51.7606 13.8282C49.7424 14.0055 48.0752 12.4986 47.8997 10.4598V10.1053C47.812 8.06647 49.3914 6.38226 51.4096 6.38226H51.7606C52.3748 6.38226 52.989 6.47091 53.5155 6.82548L53.34 8.68697Z" fill="black"></path><g clip-path="url(#clip0_1_23)"><path d="M133.722 4.2514C126.145 4.2514 120 10.4645 120 18.1246C120 25.7847 126.145 31.9973 133.722 31.9973C141.299 31.9973 147.444 25.7851 147.444 18.125C147.444 10.4649 141.299 4.25182 133.722 4.25182V4.2514ZM133.671 8.60374C138.875 8.60374 143.088 12.8636 143.088 18.1246C143.088 23.3855 138.875 27.645 133.671 27.645C128.467 27.645 124.241 23.3855 124.241 18.1246C124.241 12.8636 128.467 8.60374 133.671 8.60374Z" fill="#FEB511"></path><path d="M151.519 7.24376V19.3291H153.902V10.9482L158.13 19.3291H160.705V7.24376H158.323V14.7824L154.415 7.24418H152.031L151.519 7.24376ZM166.151 10.2361C165.552 10.2352 164.958 10.3539 164.404 10.5853C163.85 10.8168 163.347 11.1564 162.923 11.5848C162.5 12.0131 162.164 12.5218 161.935 13.0817C161.706 13.6416 161.588 14.2416 161.589 14.8475C161.589 17.3988 163.627 19.4717 166.151 19.4717C168.675 19.4717 170.725 17.3988 170.725 14.8471C170.725 12.2958 168.674 10.2361 166.151 10.2361ZM166.163 12.4769C167.455 12.4769 168.495 13.5422 168.495 14.8471C168.495 16.1528 167.454 17.2048 166.164 17.2048C164.873 17.2048 163.819 16.1524 163.819 14.8471C163.82 14.2188 164.068 13.6167 164.507 13.1725C164.947 12.7284 165.542 12.4782 166.163 12.4769ZM171.343 10.4317V19.3291H173.932V15.7175C173.932 14.4371 174.208 13.6798 174.668 13.131C175.145 12.5619 175.564 12.2278 176.844 12.2108L177.815 12.2241L177.828 16.2933C177.83 16.9159 177.86 17.4411 177.999 17.8883C178.316 18.9163 179.089 19.4796 180.584 19.4796C181.267 19.4796 181.933 19.3872 182.564 19.1522L182.254 17.3466C181.958 17.4614 181.604 17.5339 181.335 17.5364C180.575 17.5434 180.4 17.2077 180.403 16.4048V12.2241H182.267L182.273 10.4313H180.403L180.397 7.91236L178.307 7.90614L177.86 10.4313H176.643C176.254 10.4313 175.956 10.4346 175.661 10.5101C174.415 10.8276 173.903 11.7544 173.589 12.3352L172.858 10.4313L171.343 10.4317ZM187.131 10.2361C186.531 10.2353 185.938 10.354 185.384 10.5854C184.83 10.8169 184.327 11.1565 183.903 11.5849C183.48 12.0133 183.144 12.522 182.915 13.0818C182.686 13.6417 182.568 14.2417 182.569 14.8475C182.569 17.3988 184.607 19.4717 187.131 19.4717C189.654 19.4717 191.704 17.3988 191.704 14.8471C191.704 12.2958 189.654 10.2361 187.131 10.2361ZM187.143 12.4769C188.434 12.4769 189.475 13.5422 189.475 14.8471C189.475 16.1528 188.434 17.2048 187.143 17.2048C185.852 17.2048 184.798 16.1524 184.798 14.8471C184.8 14.2188 185.047 13.6166 185.487 13.1724C185.926 12.7282 186.522 12.4781 187.143 12.4769ZM197.388 10.2361C196.203 10.2423 195.231 10.8185 194.325 11.8029L193.825 10.4301H192.314V19.3291H194.838V13.2152C195.096 12.9196 195.679 12.3725 196.426 12.3733C197.375 12.3741 197.72 12.9909 197.72 13.6815L197.734 19.3291H200.309V13.6036C200.311 11.3768 199.03 10.2266 197.388 10.2361ZM200.543 11.463V10.6125H200.297V10.4359H200.984V10.6125H200.732V11.463H200.543ZM201.114 11.463V10.4359H201.388L201.57 11.1161L201.741 10.4363H202V11.463H201.856V10.6634L201.632 11.463H201.495L201.29 10.6489V11.463H201.114ZM147.573 1.09081V2.15319H148.623V1.09039L147.573 1.09081ZM147.573 2.15319H145.625V3.21516H147.573V2.15319ZM145.625 3.21516H144.651V5.2877H145.625V3.21516ZM145.625 5.2877V6.29827H146.625V5.2877H145.625ZM146.625 5.2877H147.726V4.29039H146.624L146.625 5.2877ZM145.625 6.29827H144.651V7.33454H143.639V6.29827H141.986V7.03609H141.089V7.94304H142.076V8.95361H141.076L141.089 7.94304H140.013V9.5364H139.014V10.5337H138.335V11.5443H137.617C136.074 14.1026 134.836 16.4661 134.119 18.215C132.152 15.5675 131.23 14.6141 129.571 13.6815C128.979 13.3482 128.451 13.1932 128.072 13.4096C127.679 13.6342 127.564 14.3439 128.06 14.8989C131.139 18.3468 131.693 20.1864 132.813 22.8135C133.147 23.5969 133.776 23.9331 134.491 23.9534C134.874 23.9642 135.343 23.8473 135.657 23.4742C135.803 23.3014 135.846 23.0647 135.965 22.7745C136.901 20.4931 137.939 18.2054 139.437 16.0264L139.45 14.8865H140.244L140.231 13.8759H141.09L141.077 12.6709H142.076V11.57H141.064L141.077 10.5337H142.076V11.57H143.076V10.5209H143.857V9.29019H144.767V8.44832H145.625V6.29827ZM143.639 6.29827H144.651V5.2877H143.639V6.29827ZM143.639 5.2877V4.31609H142.627V5.2877H143.639Z" fill="black"></path><path d="M145.625 3.2201H146.623V4.28414H145.625V3.2201ZM148.618 2.15605H149.698V3.2201H148.618V2.15605ZM148.618 0.00268555H149.698V1.09201H148.618V0.00268555Z" fill="#FEB511"></path><path d="M152.086 28.8989H151.61V22.2676H152.411V24.719C152.728 24.3177 153.172 24.0412 153.663 24.0566C154.995 24.098 155.487 25.2976 155.501 26.4566C155.52 27.846 154.764 28.978 153.544 28.9909C153.021 28.9963 152.566 28.7612 152.269 28.3202L152.086 28.8989ZM152.416 27.8501C152.743 28.1548 152.807 28.3198 153.44 28.3256C154.392 28.3343 154.636 27.2661 154.634 26.5241C154.632 25.5886 154.377 24.7873 153.551 24.7633C153.031 24.748 152.676 25.0079 152.426 25.2922L152.416 27.8501ZM156.194 30.5544L156.299 29.943C156.971 30.0781 157.456 29.9314 157.721 29.182L156.055 24.1523H156.889L158.066 28.1614L159.177 24.1523H159.992L158.374 29.3627C158 30.5656 157.127 30.7782 156.194 30.5544ZM162.444 28.2L162.852 27.6309C163.473 28.0802 163.94 28.2626 164.704 28.2659C165.529 28.27 166.057 27.8356 166.052 27.1637C166.039 25.2765 162.837 26.3347 162.782 23.8191C162.758 22.7165 163.729 22.1735 164.666 22.1685C165.373 22.1648 166.036 22.2729 166.488 22.5954L166.135 23.2363C165.923 23.0236 165.16 22.8814 164.746 22.8781C164.024 22.8727 163.568 23.1616 163.547 23.7747C163.487 25.5786 166.862 24.5859 166.856 27.1447C166.854 28.3376 165.973 28.9581 164.701 28.9693C163.526 28.9797 162.653 28.4429 162.444 28.2ZM172.164 28.8926V24.1598H172.658L172.851 24.9316C173.239 24.4085 173.913 24.0595 174.479 24.0611C175.149 24.0632 175.433 24.5403 175.519 24.8901C175.942 24.3927 176.508 24.0611 177.082 24.0566C178.07 24.0483 178.297 24.777 178.297 25.5944V28.8926L177.495 28.8955V25.8559C177.495 25.1903 177.416 24.7583 176.852 24.7699C176.227 24.7836 175.894 25.1994 175.666 25.405V28.8955H174.834V25.766C174.834 25.131 174.732 24.7633 174.198 24.7749C173.661 24.7865 173.504 25.005 172.983 25.4224V28.896L172.164 28.8926ZM182.27 28.3285C181.855 28.7675 181.322 28.978 180.823 28.9735C180.027 28.9656 179.382 28.4761 179.386 27.6802C179.389 26.709 180.051 26.44 180.619 26.2493C181.179 26.0611 181.626 25.9961 182.134 25.9065C182.156 25.0622 181.979 24.75 181.296 24.7455C180.68 24.7413 180.152 25.0244 179.925 25.1434L179.635 24.6021C179.859 24.4251 180.425 24.0661 181.35 24.0578C182.366 24.0495 182.971 24.6257 182.971 25.7034L182.972 28.8955H182.479L182.27 28.3285ZM182.141 26.4578C181.637 26.5573 181.36 26.6414 180.964 26.7687C180.456 26.9316 180.211 27.1907 180.217 27.662C180.223 28.1561 180.545 28.3463 180.946 28.3368C181.425 28.3256 181.735 28.1668 182.138 27.8597L182.141 26.4578ZM191.447 28.2543L191.569 28.8172C191.288 28.9739 190.867 28.9631 190.698 28.9639C189.709 28.9668 189.561 28.3185 189.561 27.5795V24.7418H188.862V24.1523H189.561L189.8 22.8031L190.373 22.801V24.1523H191.427V24.7418H190.373V27.6226C190.373 28.3256 190.663 28.3285 190.936 28.3397C191.198 28.3509 191.447 28.2543 191.447 28.2543ZM195.516 27.8559L195.857 28.3471C195.5 28.6298 195.101 28.9751 194.241 28.978C192.809 28.9822 192.171 27.8746 192.176 26.5577C192.183 25.2454 192.782 24.0653 194.102 24.0582C195.743 24.0487 195.974 25.6508 195.973 26.7675H193.044C193.046 27.6644 193.406 28.3148 194.145 28.3219C194.907 28.3289 195.516 27.8559 195.516 27.8559ZM193.044 26.2H195.126C195.085 25.4568 194.895 24.6746 194.109 24.6846C193.267 24.6949 193.101 25.4804 193.044 26.2ZM200.239 28.3467C199.904 28.675 199.371 28.9598 198.684 28.9648C197.366 28.9747 196.718 27.9476 196.718 26.5283C196.717 25.1148 197.422 24.0591 198.791 24.0566C199.399 24.0553 199.835 24.3003 200.149 24.5581L199.795 25.1024C199.597 24.9432 199.162 24.7219 198.782 24.7272C197.85 24.7405 197.56 25.4348 197.562 26.5063C197.564 27.3987 197.759 28.3007 198.778 28.3103C199.081 28.3132 199.447 28.2046 199.841 27.8593L200.239 28.3467ZM167.48 30.5544L167.584 29.943C168.257 30.0781 168.742 29.9314 169.007 29.182L167.341 24.1523H168.175L169.352 28.1614L170.463 24.1523H171.278L169.66 29.3627C169.286 30.5656 168.412 30.7782 167.48 30.5544ZM184.336 28.8926V24.1598H184.83L185.022 24.9316C185.411 24.4085 186.14 24.0557 186.798 24.0611C187.65 24.0682 187.984 24.828 187.984 25.6271V28.8955H187.152V25.766C187.152 25.131 187.05 24.7633 186.517 24.7749C185.98 24.7865 185.676 25.005 185.155 25.4224V28.896L184.336 28.8926Z" fill="#999999"></path></g><defs><linearGradient id="paint0_linear_1_23" x1="12.3259" y1="2.91024" x2="29.7881" y2="32.9988" gradientUnits="userSpaceOnUse"><stop stop-color="#646567"></stop><stop offset="0.097" stop-color="#717274"></stop><stop offset="0.317" stop-color="#898B8D"></stop><stop offset="0.54" stop-color="#9A9B9D"></stop><stop offset="0.766" stop-color="#A4A5A7"></stop><stop offset="1" stop-color="#A7A8AA"></stop></linearGradient><linearGradient id="paint1_linear_1_23" x1="18.4746" y1="9.876" x2="-3.2089" y2="23.0287" gradientUnits="userSpaceOnUse"><stop stop-color="#C6C7C8"></stop><stop offset="0.092" stop-color="#DCDDDD"></stop><stop offset="0.203" stop-color="#F0F0F0"></stop><stop offset="0.316" stop-color="#FBFBFB"></stop><stop offset="0.433" stop-color="white"></stop><stop offset="0.537" stop-color="#F6F7F7"></stop><stop offset="0.704" stop-color="#DFDFE0"></stop><stop offset="0.913" stop-color="#B9BABB"></stop><stop offset="1" stop-color="#A7A8AA"></stop></linearGradient><linearGradient id="paint2_linear_1_23" x1="24.0608" y1="6.50983" x2="1.25516" y2="20.8326" gradientUnits="userSpaceOnUse"><stop stop-color="#4B4B4D"></stop><stop offset="0.013" stop-color="#4D4D4F"></stop><stop offset="0.253" stop-color="#67686A"></stop><stop offset="0.497" stop-color="#797A7C"></stop><stop offset="0.744" stop-color="#838486"></stop><stop offset="1" stop-color="#87888A"></stop></linearGradient><linearGradient id="paint3_linear_1_23" x1="8.85823" y1="7.66135" x2="27.7369" y2="21.6343" gradientUnits="userSpaceOnUse"><stop stop-color="#8B1325"></stop><stop offset="0.607" stop-color="#CB0233"></stop><stop offset="0.708" stop-color="#CB0233"></stop><stop offset="1" stop-color="#8A193F"></stop></linearGradient><radialGradient id="paint4_radial_1_23" cx="0" cy="0" r="1" gradientUnits="userSpaceOnUse" gradientTransform="translate(-8440.89 -6145.15) scale(20.2313 20.4378)"><stop stop-color="#CB0233"></stop><stop offset="0.461" stop-color="#CB0233"></stop><stop offset="1" stop-color="#8A193F"></stop></radialGradient><linearGradient id="paint5_linear_1_23" x1="0.378507" y1="26.888" x2="21.1862" y2="20.6913" gradientUnits="userSpaceOnUse"><stop stop-color="#8B1325"></stop><stop offset="0.607" stop-color="#CB0233"></stop><stop offset="0.708" stop-color="#CB0233"></stop><stop offset="1" stop-color="#8A193F"></stop></linearGradient><clipPath id="clip0_1_23"><rect width="82" height="32" fill="white" transform="translate(120)"></rect></clipPath></defs></svg>