<svg xmlns="http://www.w3.org/2000/svg" width="542" height="149" viewBox="0 0 542 149" fill="none"><rect width="542" height="59" rx="29.5" fill="#59AE43"></rect><path d="M130.518 37V31.1L125.618 22.6H128.428L131.738 28.34L135.038 22.6H137.848L132.958 31.1V37H130.518ZM139.245 37V22.6L148.545 22.6V24.86L141.655 24.86V28.41L147.345 28.41V30.67L141.655 30.67V34.74H148.545V37H139.245ZM156.137 37.3C155.084 37.3 154.134 37.1167 153.287 36.75C152.447 36.3833 151.754 35.86 151.207 35.18C150.667 34.4933 150.324 33.68 150.177 32.74L152.677 32.36C152.891 33.2133 153.327 33.8733 153.987 34.34C154.654 34.8067 155.421 35.04 156.287 35.04C156.801 35.04 157.284 34.96 157.737 34.8C158.191 34.64 158.557 34.4067 158.837 34.1C159.124 33.7933 159.267 33.4167 159.267 32.97C159.267 32.77 159.234 32.5867 159.167 32.42C159.101 32.2467 159.001 32.0933 158.867 31.96C158.741 31.8267 158.574 31.7067 158.367 31.6C158.167 31.4867 157.934 31.39 157.667 31.31L153.947 30.21C153.627 30.1167 153.281 29.9933 152.907 29.84C152.541 29.68 152.191 29.4633 151.857 29.19C151.531 28.91 151.261 28.5567 151.047 28.13C150.841 27.6967 150.737 27.1633 150.737 26.53C150.737 25.6033 150.971 24.8267 151.437 24.2C151.911 23.5667 152.544 23.0933 153.337 22.78C154.137 22.4667 155.024 22.3133 155.997 22.32C156.984 22.3267 157.864 22.4967 158.637 22.83C159.411 23.1567 160.057 23.6333 160.577 24.26C161.097 24.8867 161.464 25.6433 161.677 26.53L159.087 26.98C158.981 26.4733 158.774 26.0433 158.467 25.69C158.167 25.33 157.797 25.0567 157.357 24.87C156.924 24.6833 156.461 24.5833 155.967 24.57C155.487 24.5633 155.041 24.6367 154.627 24.79C154.221 24.9367 153.891 25.15 153.637 25.43C153.391 25.71 153.267 26.0367 153.267 26.41C153.267 26.7633 153.374 27.0533 153.587 27.28C153.801 27.5 154.064 27.6767 154.377 27.81C154.697 27.9367 155.021 28.0433 155.347 28.13L157.927 28.85C158.281 28.9433 158.677 29.07 159.117 29.23C159.557 29.39 159.981 29.6133 160.387 29.9C160.794 30.1867 161.127 30.5633 161.387 31.03C161.654 31.4967 161.787 32.09 161.787 32.81C161.787 33.5567 161.631 34.2133 161.317 34.78C161.011 35.34 160.594 35.8067 160.067 36.18C159.541 36.5533 158.937 36.8333 158.257 37.02C157.584 37.2067 156.877 37.3 156.137 37.3ZM167.756 31.64V29.75H173.756V31.64H167.756ZM186.448 37.3C185.008 37.3 183.775 36.9867 182.748 36.36C181.721 35.7267 180.931 34.8467 180.378 33.72C179.831 32.5933 179.558 31.2867 179.558 29.8C179.558 28.3133 179.831 27.0067 180.378 25.88C180.931 24.7533 181.721 23.8767 182.748 23.25C183.775 22.6167 185.008 22.3 186.448 22.3C188.108 22.3 189.491 22.7167 190.598 23.55C191.705 24.3767 192.481 25.4933 192.928 26.9L190.498 27.57C190.218 26.63 189.741 25.8967 189.068 25.37C188.395 24.8367 187.521 24.57 186.448 24.57C185.481 24.57 184.675 24.7867 184.028 25.22C183.388 25.6533 182.905 26.2633 182.578 27.05C182.258 27.83 182.095 28.7467 182.088 29.8C182.088 30.8533 182.248 31.7733 182.568 32.56C182.895 33.34 183.381 33.9467 184.028 34.38C184.675 34.8133 185.481 35.03 186.448 35.03C187.521 35.03 188.395 34.7633 189.068 34.23C189.741 33.6967 190.218 32.9633 190.498 32.03L192.928 32.7C192.481 34.1067 191.705 35.2267 190.598 36.06C189.491 36.8867 188.108 37.3 186.448 37.3ZM195.324 37V22.6H197.734V34.74H204.094V37H195.324ZM204.788 37L209.328 22.6H212.858L217.398 37H214.918L210.798 24.08H211.338L207.268 37H204.788ZM207.318 33.88V31.63H214.878V33.88H207.318ZM219.406 37V22.6H221.816V37H219.406ZM224.811 37V22.6H226.981L231.961 32.8L236.941 22.6H239.111V37H236.861V27.77L232.441 37H231.481L227.071 27.77V37H224.811ZM245.924 37V22.6H248.094L253.074 32.8L258.054 22.6H260.224V37H257.974V27.77L253.554 37H252.594L248.184 27.77V37L245.924 37ZM266.534 37V31.1L261.634 22.6H264.444L267.754 28.34L271.054 22.6L273.864 22.6L268.974 31.1V37H266.534ZM278.463 37V22.6H283.053C283.173 22.6 283.41 22.6033 283.763 22.61C284.123 22.6167 284.47 22.64 284.803 22.68C285.943 22.8267 286.907 23.2333 287.693 23.9C288.487 24.56 289.087 25.4033 289.493 26.43C289.9 27.4567 290.103 28.58 290.103 29.8C290.103 31.02 289.9 32.1433 289.493 33.17C289.087 34.1967 288.487 35.0433 287.693 35.71C286.907 36.37 285.943 36.7733 284.803 36.92C284.477 36.96 284.133 36.9833 283.773 36.99C283.413 36.9967 283.173 37 283.053 37H278.463ZM280.913 34.73H283.053C283.253 34.73 283.507 34.7233 283.813 34.71C284.127 34.6967 284.403 34.6667 284.643 34.62C285.323 34.4933 285.877 34.19 286.303 33.71C286.73 33.23 287.043 32.6467 287.243 31.96C287.45 31.2733 287.553 30.5533 287.553 29.8C287.553 29.02 287.45 28.2867 287.243 27.6C287.037 26.9133 286.717 26.3367 286.283 25.87C285.857 25.4033 285.31 25.1067 284.643 24.98C284.403 24.9267 284.127 24.8967 283.813 24.89C283.507 24.8767 283.253 24.87 283.053 24.87H280.913V34.73ZM292.667 37V22.6H295.077V37H292.667ZM303.403 37.3C302.35 37.3 301.4 37.1167 300.553 36.75C299.713 36.3833 299.02 35.86 298.473 35.18C297.933 34.4933 297.59 33.68 297.443 32.74L299.943 32.36C300.156 33.2133 300.593 33.8733 301.253 34.34C301.92 34.8067 302.686 35.04 303.553 35.04C304.066 35.04 304.55 34.96 305.003 34.8C305.456 34.64 305.823 34.4067 306.103 34.1C306.39 33.7933 306.533 33.4167 306.533 32.97C306.533 32.77 306.5 32.5867 306.433 32.42C306.366 32.2467 306.266 32.0933 306.133 31.96C306.006 31.8267 305.84 31.7067 305.633 31.6C305.433 31.4867 305.2 31.39 304.933 31.31L301.213 30.21C300.893 30.1167 300.546 29.9933 300.173 29.84C299.806 29.68 299.456 29.4633 299.123 29.19C298.796 28.91 298.526 28.5567 298.313 28.13C298.106 27.6967 298.003 27.1633 298.003 26.53C298.003 25.6033 298.236 24.8267 298.703 24.2C299.176 23.5667 299.81 23.0933 300.603 22.78C301.403 22.4667 302.29 22.3133 303.263 22.32C304.25 22.3267 305.13 22.4967 305.903 22.83C306.676 23.1567 307.323 23.6333 307.843 24.26C308.363 24.8867 308.73 25.6433 308.943 26.53L306.353 26.98C306.246 26.4733 306.04 26.0433 305.733 25.69C305.433 25.33 305.063 25.0567 304.623 24.87C304.19 24.6833 303.726 24.5833 303.233 24.57C302.753 24.5633 302.306 24.6367 301.893 24.79C301.486 24.9367 301.156 25.15 300.903 25.43C300.656 25.71 300.533 26.0367 300.533 26.41C300.533 26.7633 300.64 27.0533 300.853 27.28C301.066 27.5 301.33 27.6767 301.643 27.81C301.963 27.9367 302.286 28.0433 302.613 28.13L305.193 28.85C305.546 28.9433 305.943 29.07 306.383 29.23C306.823 29.39 307.246 29.6133 307.653 29.9C308.06 30.1867 308.393 30.5633 308.653 31.03C308.92 31.4967 309.053 32.09 309.053 32.81C309.053 33.5567 308.896 34.2133 308.583 34.78C308.276 35.34 307.86 35.8067 307.333 36.18C306.806 36.5533 306.203 36.8333 305.523 37.02C304.85 37.2067 304.143 37.3 303.403 37.3ZM317.307 37.3C315.867 37.3 314.634 36.9867 313.607 36.36C312.581 35.7267 311.791 34.8467 311.237 33.72C310.691 32.5933 310.417 31.2867 310.417 29.8C310.417 28.3133 310.691 27.0067 311.237 25.88C311.791 24.7533 312.581 23.8767 313.607 23.25C314.634 22.6167 315.867 22.3 317.307 22.3C318.967 22.3 320.351 22.7167 321.457 23.55C322.564 24.3767 323.341 25.4933 323.787 26.9L321.357 27.57C321.077 26.63 320.601 25.8967 319.927 25.37C319.254 24.8367 318.381 24.57 317.307 24.57C316.341 24.57 315.534 24.7867 314.887 25.22C314.247 25.6533 313.764 26.2633 313.437 27.05C313.117 27.83 312.954 28.7467 312.947 29.8C312.947 30.8533 313.107 31.7733 313.427 32.56C313.754 33.34 314.241 33.9467 314.887 34.38C315.534 34.8133 316.341 35.03 317.307 35.03C318.381 35.03 319.254 34.7633 319.927 34.23C320.601 33.6967 321.077 32.9633 321.357 32.03L323.787 32.7C323.341 34.1067 322.564 35.2267 321.457 36.06C320.351 36.8867 318.967 37.3 317.307 37.3ZM332.073 37.3C330.633 37.3 329.4 36.9867 328.373 36.36C327.346 35.7267 326.556 34.8467 326.003 33.72C325.456 32.5933 325.183 31.2867 325.183 29.8C325.183 28.3133 325.456 27.0067 326.003 25.88C326.556 24.7533 327.346 23.8767 328.373 23.25C329.4 22.6167 330.633 22.3 332.073 22.3C333.513 22.3 334.746 22.6167 335.773 23.25C336.806 23.8767 337.596 24.7533 338.143 25.88C338.696 27.0067 338.973 28.3133 338.973 29.8C338.973 31.2867 338.696 32.5933 338.143 33.72C337.596 34.8467 336.806 35.7267 335.773 36.36C334.746 36.9867 333.513 37.3 332.073 37.3ZM332.073 35.03C333.04 35.0367 333.843 34.8233 334.483 34.39C335.13 33.9567 335.613 33.3467 335.933 32.56C336.26 31.7733 336.423 30.8533 336.423 29.8C336.423 28.7467 336.26 27.8333 335.933 27.06C335.613 26.28 335.13 25.6733 334.483 25.24C333.843 24.8067 333.04 24.5833 332.073 24.57C331.106 24.5633 330.303 24.7767 329.663 25.21C329.023 25.6433 328.54 26.2533 328.213 27.04C327.893 27.8267 327.733 28.7467 327.733 29.8C327.733 30.8533 327.893 31.77 328.213 32.55C328.533 33.3233 329.013 33.9267 329.653 34.36C330.3 34.7933 331.106 35.0167 332.073 35.03ZM346.763 37.3C345.617 37.3 344.607 37.0667 343.733 36.6C342.867 36.1333 342.187 35.4767 341.693 34.63C341.207 33.7833 340.963 32.79 340.963 31.65V22.62L343.403 22.6V31.59C343.403 32.13 343.493 32.6133 343.673 33.04C343.86 33.4667 344.11 33.83 344.423 34.13C344.737 34.4233 345.097 34.6467 345.503 34.8C345.91 34.9533 346.33 35.03 346.763 35.03C347.21 35.03 347.633 34.9533 348.033 34.8C348.44 34.64 348.8 34.4133 349.113 34.12C349.427 33.82 349.673 33.4567 349.853 33.03C350.033 32.6033 350.123 32.1233 350.123 31.59V22.6H352.563V31.65C352.563 32.79 352.317 33.7833 351.823 34.63C351.337 35.4767 350.657 36.1333 349.783 36.6C348.917 37.0667 347.91 37.3 346.763 37.3ZM355.358 37V22.6H357.798L364.478 32.75V22.6H366.918V37H364.478L357.798 26.85V37L355.358 37ZM373.173 37V24.86H368.513V22.6L380.243 22.6V24.86H375.583V37H373.173Z" fill="white"></path><path d="M417.081 30.1988C417.467 29.8128 417.467 29.1872 417.081 28.8012L410.792 22.5125C410.406 22.1266 409.78 22.1266 409.394 22.5125C409.008 22.8984 409.008 23.5241 409.394 23.91L414.984 29.5L409.394 35.09C409.008 35.4759 409.008 36.1016 409.394 36.4875C409.78 36.8734 410.406 36.8734 410.792 36.4875L417.081 30.1988ZM400.382 30.4882H416.382V28.5118H400.382V30.4882Z" fill="white"></path><rect x="0.5" y="71.5" width="541" height="32" rx="3.5" stroke="#CFCFCF"></rect><path d="M14.84 92V83.36H19.802V84.242H15.722V87.242H19.082V88.118H15.722V92H14.84ZM20.8869 92V85.52H21.6789V87.08L21.5229 86.876C21.5949 86.684 21.6889 86.508 21.8049 86.348C21.9209 86.184 22.0469 86.05 22.1829 85.946C22.3509 85.798 22.5469 85.686 22.7709 85.61C22.9949 85.53 23.2209 85.484 23.4489 85.472C23.6769 85.456 23.8849 85.472 24.0729 85.52V86.348C23.8369 86.288 23.5789 86.274 23.2989 86.306C23.0189 86.338 22.7609 86.45 22.5249 86.642C22.3089 86.81 22.1469 87.012 22.0389 87.248C21.9309 87.48 21.8589 87.728 21.8229 87.992C21.7869 88.252 21.7689 88.51 21.7689 88.766V92H20.8869ZM27.8359 92.18C27.2039 92.18 26.6559 92.04 26.1919 91.76C25.7319 91.48 25.3739 91.086 25.1179 90.578C24.8619 90.07 24.7339 89.474 24.7339 88.79C24.7339 88.082 24.8599 87.47 25.1119 86.954C25.3639 86.438 25.7179 86.04 26.1739 85.76C26.6339 85.48 27.1759 85.34 27.7999 85.34C28.4399 85.34 28.9859 85.488 29.4379 85.784C29.8899 86.076 30.2319 86.496 30.4639 87.044C30.6959 87.592 30.8019 88.246 30.7819 89.006H29.8819V88.694C29.8659 87.854 29.6839 87.22 29.3359 86.792C28.9919 86.364 28.4879 86.15 27.8239 86.15C27.1279 86.15 26.5939 86.376 26.2219 86.828C25.8539 87.28 25.6699 87.924 25.6699 88.76C25.6699 89.576 25.8539 90.21 26.2219 90.662C26.5939 91.11 27.1199 91.334 27.7999 91.334C28.2639 91.334 28.6679 91.228 29.0119 91.016C29.3599 90.8 29.6339 90.49 29.8339 90.086L30.6559 90.404C30.3999 90.968 30.0219 91.406 29.5219 91.718C29.0259 92.026 28.4639 92.18 27.8359 92.18ZM25.3579 89.006V88.268H30.3079V89.006H25.3579ZM34.8554 92.18C34.2234 92.18 33.6754 92.04 33.2114 91.76C32.7514 91.48 32.3934 91.086 32.1374 90.578C31.8814 90.07 31.7534 89.474 31.7534 88.79C31.7534 88.082 31.8794 87.47 32.1314 86.954C32.3834 86.438 32.7374 86.04 33.1934 85.76C33.6534 85.48 34.1954 85.34 34.8194 85.34C35.4594 85.34 36.0054 85.488 36.4574 85.784C36.9094 86.076 37.2514 86.496 37.4834 87.044C37.7154 87.592 37.8214 88.246 37.8014 89.006H36.9014V88.694C36.8854 87.854 36.7034 87.22 36.3554 86.792C36.0114 86.364 35.5074 86.15 34.8434 86.15C34.1474 86.15 33.6134 86.376 33.2414 86.828C32.8734 87.28 32.6894 87.924 32.6894 88.76C32.6894 89.576 32.8734 90.21 33.2414 90.662C33.6134 91.11 34.1394 91.334 34.8194 91.334C35.2834 91.334 35.6874 91.228 36.0314 91.016C36.3794 90.8 36.6534 90.49 36.8534 90.086L37.6754 90.404C37.4194 90.968 37.0414 91.406 36.5414 91.718C36.0454 92.026 35.4834 92.18 34.8554 92.18ZM32.3774 89.006V88.268H37.3274V89.006H32.3774ZM44.5353 92.18C43.9313 92.18 43.3873 92.08 42.9033 91.88C42.4233 91.676 42.0253 91.388 41.7093 91.016C41.3973 90.644 41.1933 90.202 41.0973 89.69L41.9973 89.54C42.1413 90.1 42.4453 90.54 42.9093 90.86C43.3733 91.176 43.9273 91.334 44.5713 91.334C44.9953 91.334 45.3753 91.268 45.7113 91.136C46.0473 91 46.3113 90.808 46.5033 90.56C46.6953 90.312 46.7913 90.018 46.7913 89.678C46.7913 89.454 46.7513 89.264 46.6713 89.108C46.5913 88.948 46.4853 88.816 46.3533 88.712C46.2213 88.608 46.0773 88.522 45.9213 88.454C45.7653 88.382 45.6133 88.324 45.4653 88.28L43.2753 87.626C43.0113 87.55 42.7673 87.454 42.5433 87.338C42.3193 87.218 42.1233 87.076 41.9553 86.912C41.7913 86.744 41.6633 86.548 41.5713 86.324C41.4793 86.1 41.4333 85.844 41.4333 85.556C41.4333 85.068 41.5613 84.646 41.8173 84.29C42.0733 83.934 42.4233 83.66 42.8673 83.468C43.3113 83.276 43.8173 83.182 44.3853 83.186C44.9613 83.186 45.4753 83.288 45.9273 83.492C46.3833 83.696 46.7593 83.988 47.0553 84.368C47.3513 84.744 47.5473 85.19 47.6433 85.706L46.7193 85.874C46.6593 85.498 46.5213 85.172 46.3053 84.896C46.0893 84.62 45.8133 84.408 45.4773 84.26C45.1453 84.108 44.7793 84.03 44.3793 84.026C43.9913 84.026 43.6453 84.092 43.3413 84.224C43.0413 84.352 42.8033 84.528 42.6273 84.752C42.4513 84.976 42.3633 85.232 42.3633 85.52C42.3633 85.812 42.4433 86.046 42.6033 86.222C42.7673 86.398 42.9673 86.536 43.2033 86.636C43.4433 86.736 43.6753 86.818 43.8993 86.882L45.5913 87.38C45.7673 87.428 45.9733 87.498 46.2093 87.59C46.4493 87.678 46.6813 87.806 46.9053 87.974C47.1333 88.138 47.3213 88.354 47.4693 88.622C47.6173 88.89 47.6913 89.23 47.6913 89.642C47.6913 90.042 47.6113 90.4 47.4513 90.716C47.2953 91.032 47.0733 91.298 46.7853 91.514C46.5013 91.73 46.1673 91.894 45.7833 92.006C45.4033 92.122 44.9873 92.18 44.5353 92.18ZM53.6098 92V88.694C53.6098 88.334 53.5758 88.004 53.5078 87.704C53.4398 87.4 53.3298 87.136 53.1778 86.912C53.0298 86.684 52.8358 86.508 52.5958 86.384C52.3598 86.26 52.0718 86.198 51.7318 86.198C51.4198 86.198 51.1438 86.252 50.9038 86.36C50.6678 86.468 50.4678 86.624 50.3038 86.828C50.1438 87.028 50.0218 87.272 49.9378 87.56C49.8538 87.848 49.8118 88.176 49.8118 88.544L49.1878 88.406C49.1878 87.742 49.3038 87.184 49.5358 86.732C49.7678 86.28 50.0878 85.938 50.4958 85.706C50.9038 85.474 51.3718 85.358 51.8998 85.358C52.2878 85.358 52.6258 85.418 52.9138 85.538C53.2058 85.658 53.4518 85.82 53.6518 86.024C53.8558 86.228 54.0198 86.462 54.1438 86.726C54.2678 86.986 54.3578 87.264 54.4138 87.56C54.4698 87.852 54.4978 88.144 54.4978 88.436V92H53.6098ZM48.9238 92V83.36H49.7218V88.238H49.8118V92H48.9238ZM56.1748 84.29V83.3H57.0568V84.29H56.1748ZM56.1748 92V85.52H57.0568V92H56.1748ZM61.7656 92.18C61.1696 92.18 60.6656 92.03 60.2536 91.73C59.8416 91.426 59.5296 91.016 59.3176 90.5C59.1056 89.98 58.9996 89.398 58.9996 88.754C58.9996 88.098 59.1056 87.514 59.3176 87.002C59.5336 86.486 59.8496 86.08 60.2656 85.784C60.6816 85.488 61.1936 85.34 61.8016 85.34C62.3936 85.34 62.9016 85.49 63.3256 85.79C63.7496 86.09 64.0736 86.498 64.2976 87.014C64.5256 87.53 64.6396 88.11 64.6396 88.754C64.6396 89.402 64.5256 89.984 64.2976 90.5C64.0696 91.016 63.7416 91.426 63.3136 91.73C62.8856 92.03 62.3696 92.18 61.7656 92.18ZM58.8496 94.88V85.52H59.6416V90.398H59.7376V94.88H58.8496ZM61.6756 91.358C62.1276 91.358 62.5036 91.244 62.8036 91.016C63.1036 90.788 63.3276 90.478 63.4756 90.086C63.6276 89.69 63.7036 89.246 63.7036 88.754C63.7036 88.266 63.6296 87.826 63.4816 87.434C63.3336 87.042 63.1076 86.732 62.8036 86.504C62.5036 86.276 62.1216 86.162 61.6576 86.162C61.2056 86.162 60.8296 86.272 60.5296 86.492C60.2336 86.712 60.0116 87.018 59.8636 87.41C59.7156 87.798 59.6416 88.246 59.6416 88.754C59.6416 89.254 59.7156 89.702 59.8636 90.098C60.0116 90.49 60.2356 90.798 60.5356 91.022C60.8356 91.246 61.2156 91.358 61.6756 91.358ZM68.8672 92.18C68.2712 92.18 67.7672 92.03 67.3552 91.73C66.9432 91.426 66.6312 91.016 66.4192 90.5C66.2072 89.98 66.1012 89.398 66.1012 88.754C66.1012 88.098 66.2072 87.514 66.4192 87.002C66.6352 86.486 66.9512 86.08 67.3672 85.784C67.7832 85.488 68.2952 85.34 68.9032 85.34C69.4952 85.34 70.0032 85.49 70.4272 85.79C70.8512 86.09 71.1752 86.498 71.3992 87.014C71.6272 87.53 71.7412 88.11 71.7412 88.754C71.7412 89.402 71.6272 89.984 71.3992 90.5C71.1712 91.016 70.8432 91.426 70.4152 91.73C69.9872 92.03 69.4712 92.18 68.8672 92.18ZM65.9512 94.88V85.52H66.7432V90.398H66.8392V94.88H65.9512ZM68.7772 91.358C69.2292 91.358 69.6052 91.244 69.9052 91.016C70.2052 90.788 70.4292 90.478 70.5772 90.086C70.7292 89.69 70.8052 89.246 70.8052 88.754C70.8052 88.266 70.7312 87.826 70.5832 87.434C70.4352 87.042 70.2092 86.732 69.9052 86.504C69.6052 86.276 69.2232 86.162 68.7592 86.162C68.3072 86.162 67.9312 86.272 67.6312 86.492C67.3352 86.712 67.1132 87.018 66.9652 87.41C66.8172 87.798 66.7432 88.246 66.7432 88.754C66.7432 89.254 66.8172 89.702 66.9652 90.098C67.1132 90.49 67.3372 90.798 67.6372 91.022C67.9372 91.246 68.3172 91.358 68.7772 91.358ZM73.1788 84.29V83.3H74.0608V84.29H73.1788ZM73.1788 92V85.52H74.0608V92H73.1788ZM80.5395 92V88.694C80.5395 88.334 80.5055 88.004 80.4375 87.704C80.3695 87.4 80.2595 87.136 80.1075 86.912C79.9595 86.684 79.7655 86.508 79.5255 86.384C79.2895 86.26 79.0015 86.198 78.6615 86.198C78.3495 86.198 78.0735 86.252 77.8335 86.36C77.5975 86.468 77.3975 86.624 77.2335 86.828C77.0735 87.028 76.9515 87.272 76.8675 87.56C76.7835 87.848 76.7415 88.176 76.7415 88.544L76.1175 88.406C76.1175 87.742 76.2335 87.184 76.4655 86.732C76.6975 86.28 77.0175 85.938 77.4255 85.706C77.8335 85.474 78.3015 85.358 78.8295 85.358C79.2175 85.358 79.5555 85.418 79.8435 85.538C80.1355 85.658 80.3815 85.82 80.5815 86.024C80.7855 86.228 80.9495 86.462 81.0735 86.726C81.1975 86.986 81.2875 87.264 81.3435 87.56C81.3995 87.852 81.4275 88.144 81.4275 88.436V92H80.5395ZM75.8535 92V85.52H76.6515V87.116H76.7415V92H75.8535ZM85.5585 95.06C85.2265 95.06 84.8985 95.01 84.5745 94.91C84.2545 94.814 83.9585 94.66 83.6865 94.448C83.4145 94.24 83.1865 93.968 83.0025 93.632L83.8005 93.188C83.9805 93.548 84.2325 93.806 84.5565 93.962C84.8845 94.122 85.2185 94.202 85.5585 94.202C86.0265 94.202 86.4045 94.114 86.6925 93.938C86.9845 93.766 87.1965 93.51 87.3285 93.17C87.4605 92.83 87.5245 92.406 87.5205 91.898V90.17H87.6225V85.52H88.4085V91.91C88.4085 92.094 88.4025 92.27 88.3905 92.438C88.3825 92.61 88.3645 92.778 88.3365 92.942C88.2605 93.426 88.1025 93.824 87.8625 94.136C87.6265 94.448 87.3145 94.68 86.9265 94.832C86.5425 94.984 86.0865 95.06 85.5585 95.06ZM85.4985 92.18C84.8945 92.18 84.3785 92.03 83.9505 91.73C83.5225 91.426 83.1945 91.016 82.9665 90.5C82.7385 89.984 82.6245 89.402 82.6245 88.754C82.6245 88.11 82.7365 87.53 82.9605 87.014C83.1885 86.498 83.5145 86.09 83.9385 85.79C84.3625 85.49 84.8705 85.34 85.4625 85.34C86.0705 85.34 86.5825 85.488 86.9985 85.784C87.4145 86.08 87.7285 86.486 87.9405 87.002C88.1565 87.514 88.2645 88.098 88.2645 88.754C88.2645 89.398 88.1585 89.98 87.9465 90.5C87.7345 91.016 87.4225 91.426 87.0105 91.73C86.5985 92.03 86.0945 92.18 85.4985 92.18ZM85.5885 91.358C86.0485 91.358 86.4285 91.246 86.7285 91.022C87.0285 90.798 87.2525 90.49 87.4005 90.098C87.5485 89.702 87.6225 89.254 87.6225 88.754C87.6225 88.246 87.5485 87.798 87.4005 87.41C87.2525 87.018 87.0285 86.712 86.7285 86.492C86.4325 86.272 86.0585 86.162 85.6065 86.162C85.1425 86.162 84.7585 86.276 84.4545 86.504C84.1505 86.732 83.9245 87.042 83.7765 87.434C83.6325 87.826 83.5605 88.266 83.5605 88.754C83.5605 89.246 83.6345 89.69 83.7825 90.086C83.9345 90.478 84.1605 90.788 84.4605 91.016C84.7605 91.244 85.1365 91.358 85.5885 91.358Z" fill="#4D5254"></path><line x1="106.5" y1="79.5" x2="106.5" y2="95.5" stroke="#CFCFCF"></line><g clip-path="url(#clip0_1_127)"><path d="M131.125 86.999H124.125C123.573 86.999 123.125 87.4467 123.125 87.999V91.499C123.125 92.0513 123.573 92.499 124.125 92.499H131.125C131.677 92.499 132.125 92.0513 132.125 91.499V87.999C132.125 87.4467 131.677 86.999 131.125 86.999Z" stroke="#696969" stroke-width="1.33333" stroke-linecap="round" stroke-linejoin="round"></path><path d="M125.126 86.999V84.999C125.126 84.336 125.389 83.7001 125.858 83.2313C126.327 82.7624 126.963 82.499 127.626 82.499C128.289 82.499 128.925 82.7624 129.394 83.2313C129.863 83.7001 130.126 84.336 130.126 84.999V86.999" stroke="#696969" stroke-width="1.33333" stroke-linecap="round" stroke-linejoin="round"></path></g><path d="M148.111 92.18C147.507 92.18 146.963 92.08 146.479 91.88C145.999 91.676 145.601 91.388 145.285 91.016C144.973 90.644 144.769 90.202 144.673 89.69L145.573 89.54C145.717 90.1 146.021 90.54 146.485 90.86C146.949 91.176 147.503 91.334 148.147 91.334C148.571 91.334 148.951 91.268 149.287 91.136C149.623 91 149.887 90.808 150.079 90.56C150.271 90.312 150.367 90.018 150.367 89.678C150.367 89.454 150.327 89.264 150.247 89.108C150.167 88.948 150.061 88.816 149.929 88.712C149.797 88.608 149.653 88.522 149.497 88.454C149.341 88.382 149.189 88.324 149.041 88.28L146.851 87.626C146.587 87.55 146.343 87.454 146.119 87.338C145.895 87.218 145.699 87.076 145.531 86.912C145.367 86.744 145.239 86.548 145.147 86.324C145.055 86.1 145.009 85.844 145.009 85.556C145.009 85.068 145.137 84.646 145.393 84.29C145.649 83.934 145.999 83.66 146.443 83.468C146.887 83.276 147.393 83.182 147.961 83.186C148.537 83.186 149.051 83.288 149.503 83.492C149.959 83.696 150.335 83.988 150.631 84.368C150.927 84.744 151.123 85.19 151.219 85.706L150.295 85.874C150.235 85.498 150.097 85.172 149.881 84.896C149.665 84.62 149.389 84.408 149.053 84.26C148.721 84.108 148.355 84.03 147.955 84.026C147.567 84.026 147.221 84.092 146.917 84.224C146.617 84.352 146.379 84.528 146.203 84.752C146.027 84.976 145.939 85.232 145.939 85.52C145.939 85.812 146.019 86.046 146.179 86.222C146.343 86.398 146.543 86.536 146.779 86.636C147.019 86.736 147.251 86.818 147.475 86.882L149.167 87.38C149.343 87.428 149.549 87.498 149.785 87.59C150.025 87.678 150.257 87.806 150.481 87.974C150.709 88.138 150.897 88.354 151.045 88.622C151.193 88.89 151.267 89.23 151.267 89.642C151.267 90.042 151.187 90.4 151.027 90.716C150.871 91.032 150.649 91.298 150.361 91.514C150.077 91.73 149.743 91.894 149.359 92.006C148.979 92.122 148.563 92.18 148.111 92.18ZM155.248 92.18C154.616 92.18 154.068 92.04 153.604 91.76C153.144 91.48 152.786 91.086 152.53 90.578C152.274 90.07 152.146 89.474 152.146 88.79C152.146 88.082 152.272 87.47 152.524 86.954C152.776 86.438 153.13 86.04 153.586 85.76C154.046 85.48 154.588 85.34 155.212 85.34C155.852 85.34 156.398 85.488 156.85 85.784C157.302 86.076 157.644 86.496 157.876 87.044C158.108 87.592 158.214 88.246 158.194 89.006H157.294V88.694C157.278 87.854 157.096 87.22 156.748 86.792C156.404 86.364 155.9 86.15 155.236 86.15C154.54 86.15 154.006 86.376 153.634 86.828C153.266 87.28 153.082 87.924 153.082 88.76C153.082 89.576 153.266 90.21 153.634 90.662C154.006 91.11 154.532 91.334 155.212 91.334C155.676 91.334 156.08 91.228 156.424 91.016C156.772 90.8 157.046 90.49 157.246 90.086L158.068 90.404C157.812 90.968 157.434 91.406 156.934 91.718C156.438 92.026 155.876 92.18 155.248 92.18ZM152.77 89.006V88.268H157.72V89.006H152.77ZM162.214 92.18C161.562 92.18 161.01 92.034 160.558 91.742C160.106 91.45 159.762 91.048 159.526 90.536C159.294 90.02 159.174 89.428 159.166 88.76C159.174 88.08 159.298 87.484 159.538 86.972C159.778 86.456 160.124 86.056 160.576 85.772C161.028 85.484 161.576 85.34 162.22 85.34C162.876 85.34 163.446 85.5 163.93 85.82C164.418 86.14 164.752 86.578 164.932 87.134L164.068 87.41C163.916 87.022 163.674 86.722 163.342 86.51C163.014 86.294 162.638 86.186 162.214 86.186C161.738 86.186 161.344 86.296 161.032 86.516C160.72 86.732 160.488 87.034 160.336 87.422C160.184 87.81 160.106 88.256 160.102 88.76C160.11 89.536 160.29 90.16 160.642 90.632C160.994 91.1 161.518 91.334 162.214 91.334C162.654 91.334 163.028 91.234 163.336 91.034C163.648 90.83 163.884 90.534 164.044 90.146L164.932 90.41C164.692 90.986 164.34 91.426 163.876 91.73C163.412 92.03 162.858 92.18 162.214 92.18ZM168.648 92.162C168.26 92.162 167.92 92.102 167.628 91.982C167.34 91.862 167.094 91.7 166.89 91.496C166.69 91.292 166.528 91.06 166.404 90.8C166.28 90.536 166.19 90.258 166.134 89.966C166.078 89.67 166.05 89.376 166.05 89.084V85.52H166.938V88.826C166.938 89.182 166.972 89.512 167.04 89.816C167.108 90.12 167.216 90.386 167.364 90.614C167.516 90.838 167.71 91.012 167.946 91.136C168.186 91.26 168.476 91.322 168.816 91.322C169.128 91.322 169.402 91.268 169.638 91.16C169.878 91.052 170.078 90.898 170.238 90.698C170.402 90.494 170.526 90.248 170.61 89.96C170.694 89.668 170.736 89.34 170.736 88.976L171.36 89.114C171.36 89.778 171.244 90.336 171.012 90.788C170.78 91.24 170.46 91.582 170.052 91.814C169.644 92.046 169.176 92.162 168.648 92.162ZM170.826 92V90.404H170.736V85.52H171.618V92H170.826ZM173.295 92V85.52H174.087V87.08L173.931 86.876C174.003 86.684 174.097 86.508 174.213 86.348C174.329 86.184 174.455 86.05 174.591 85.946C174.759 85.798 174.955 85.686 175.179 85.61C175.403 85.53 175.629 85.484 175.857 85.472C176.085 85.456 176.293 85.472 176.481 85.52V86.348C176.245 86.288 175.987 86.274 175.707 86.306C175.427 86.338 175.169 86.45 174.933 86.642C174.717 86.81 174.555 87.012 174.447 87.248C174.339 87.48 174.267 87.728 174.231 87.992C174.195 88.252 174.177 88.51 174.177 88.766V92H173.295ZM180.244 92.18C179.612 92.18 179.064 92.04 178.6 91.76C178.14 91.48 177.782 91.086 177.526 90.578C177.27 90.07 177.142 89.474 177.142 88.79C177.142 88.082 177.268 87.47 177.52 86.954C177.772 86.438 178.126 86.04 178.582 85.76C179.042 85.48 179.584 85.34 180.208 85.34C180.848 85.34 181.394 85.488 181.846 85.784C182.298 86.076 182.64 86.496 182.872 87.044C183.104 87.592 183.21 88.246 183.19 89.006H182.29V88.694C182.274 87.854 182.092 87.22 181.744 86.792C181.4 86.364 180.896 86.15 180.232 86.15C179.536 86.15 179.002 86.376 178.63 86.828C178.262 87.28 178.078 87.924 178.078 88.76C178.078 89.576 178.262 90.21 178.63 90.662C179.002 91.11 179.528 91.334 180.208 91.334C180.672 91.334 181.076 91.228 181.42 91.016C181.768 90.8 182.042 90.49 182.242 90.086L183.064 90.404C182.808 90.968 182.43 91.406 181.93 91.718C181.434 92.026 180.872 92.18 180.244 92.18ZM177.766 89.006V88.268H182.716V89.006H177.766ZM186.684 91.994L186.69 91.19L190.596 87.662C190.932 87.358 191.154 87.07 191.262 86.798C191.374 86.522 191.43 86.234 191.43 85.934C191.43 85.578 191.346 85.256 191.178 84.968C191.01 84.68 190.784 84.452 190.5 84.284C190.216 84.112 189.898 84.026 189.546 84.026C189.178 84.026 188.85 84.114 188.562 84.29C188.274 84.466 188.046 84.698 187.878 84.986C187.714 85.274 187.634 85.588 187.638 85.928H186.738C186.738 85.404 186.862 84.934 187.11 84.518C187.358 84.102 187.694 83.776 188.118 83.54C188.542 83.3 189.022 83.18 189.558 83.18C190.082 83.18 190.552 83.304 190.968 83.552C191.388 83.796 191.718 84.128 191.958 84.548C192.202 84.964 192.324 85.428 192.324 85.94C192.324 86.3 192.28 86.618 192.192 86.894C192.108 87.166 191.974 87.42 191.79 87.656C191.61 87.888 191.38 88.128 191.1 88.376L187.632 91.508L187.494 91.148H192.324V91.994H186.684ZM196.318 92.18C195.87 92.18 195.456 92.088 195.076 91.904C194.696 91.72 194.372 91.466 194.104 91.142C193.836 90.818 193.644 90.446 193.528 90.026L194.374 89.798C194.45 90.11 194.588 90.38 194.788 90.608C194.988 90.832 195.222 91.006 195.49 91.13C195.762 91.254 196.046 91.316 196.342 91.316C196.726 91.316 197.07 91.224 197.374 91.04C197.682 90.852 197.926 90.604 198.106 90.296C198.286 89.988 198.376 89.65 198.376 89.282C198.376 88.902 198.282 88.56 198.094 88.256C197.906 87.948 197.658 87.704 197.35 87.524C197.042 87.344 196.706 87.254 196.342 87.254C195.934 87.254 195.582 87.344 195.286 87.524C194.99 87.7 194.754 87.922 194.578 88.19L193.774 87.854L194.038 83.36H198.652V84.206H194.428L194.866 83.792L194.632 87.626L194.41 87.332C194.658 87.048 194.958 86.826 195.31 86.666C195.662 86.506 196.032 86.426 196.42 86.426C196.952 86.426 197.432 86.554 197.86 86.81C198.288 87.062 198.628 87.404 198.88 87.836C199.132 88.268 199.258 88.75 199.258 89.282C199.258 89.81 199.124 90.294 198.856 90.734C198.588 91.17 198.232 91.52 197.788 91.784C197.344 92.048 196.854 92.18 196.318 92.18ZM203.616 92.18C203.076 92.18 202.584 92.05 202.14 91.79C201.7 91.526 201.348 91.17 201.084 90.722C200.824 90.27 200.694 89.762 200.694 89.198V86.204C200.694 85.624 200.824 85.108 201.084 84.656C201.344 84.2 201.698 83.842 202.146 83.582C202.598 83.318 203.11 83.186 203.682 83.186C204.174 83.186 204.63 83.294 205.05 83.51C205.474 83.726 205.82 84.028 206.088 84.416L205.41 84.974C205.226 84.686 204.982 84.456 204.678 84.284C204.374 84.112 204.042 84.026 203.682 84.026C203.278 84.026 202.918 84.124 202.602 84.32C202.286 84.516 202.038 84.774 201.858 85.094C201.678 85.41 201.588 85.754 201.588 86.126V88.01L201.366 87.758C201.618 87.362 201.948 87.042 202.356 86.798C202.768 86.554 203.216 86.432 203.7 86.432C204.236 86.432 204.718 86.56 205.146 86.816C205.574 87.068 205.914 87.41 206.166 87.842C206.418 88.274 206.544 88.758 206.544 89.294C206.544 89.826 206.41 90.31 206.142 90.746C205.878 91.182 205.524 91.53 205.08 91.79C204.64 92.05 204.152 92.18 203.616 92.18ZM203.616 91.322C203.992 91.322 204.334 91.232 204.642 91.052C204.954 90.872 205.2 90.628 205.38 90.32C205.564 90.012 205.656 89.67 205.656 89.294C205.656 88.918 205.564 88.576 205.38 88.268C205.2 87.956 204.956 87.71 204.648 87.53C204.34 87.346 203.998 87.254 203.622 87.254C203.246 87.254 202.904 87.346 202.596 87.53C202.288 87.71 202.042 87.956 201.858 88.268C201.678 88.576 201.588 88.918 201.588 89.294C201.588 89.666 201.678 90.006 201.858 90.314C202.038 90.622 202.282 90.868 202.59 91.052C202.898 91.232 203.24 91.322 203.616 91.322ZM208.015 88.598V87.842H211.615V88.598H208.015ZM213.174 92V83.36H216.51C216.994 83.36 217.416 83.46 217.776 83.66C218.136 83.86 218.416 84.13 218.616 84.47C218.816 84.806 218.916 85.178 218.916 85.586C218.916 86.05 218.792 86.464 218.544 86.828C218.296 87.188 217.964 87.438 217.548 87.578L217.536 87.284C218.096 87.444 218.536 87.724 218.856 88.124C219.176 88.524 219.336 89.008 219.336 89.576C219.336 90.076 219.23 90.508 219.018 90.872C218.806 91.232 218.508 91.51 218.124 91.706C217.74 91.902 217.294 92 216.786 92H213.174ZM214.062 91.154H216.57C216.922 91.154 217.238 91.092 217.518 90.968C217.798 90.84 218.018 90.66 218.178 90.428C218.342 90.196 218.424 89.916 218.424 89.588C218.424 89.268 218.35 88.98 218.202 88.724C218.054 88.468 217.852 88.264 217.596 88.112C217.344 87.956 217.056 87.878 216.732 87.878H214.062V91.154ZM214.062 87.044H216.504C216.78 87.044 217.032 86.982 217.26 86.858C217.488 86.73 217.668 86.556 217.8 86.336C217.936 86.116 218.004 85.862 218.004 85.574C218.004 85.166 217.862 84.834 217.578 84.578C217.298 84.322 216.94 84.194 216.504 84.194H214.062V87.044ZM220.653 84.29V83.3H221.535V84.29H220.653ZM220.653 92V85.52H221.535V92H220.653ZM226.862 92C226.498 92.076 226.138 92.106 225.782 92.09C225.43 92.074 225.114 91.998 224.834 91.862C224.558 91.726 224.348 91.514 224.204 91.226C224.088 90.986 224.024 90.744 224.012 90.5C224.004 90.252 224 89.97 224 89.654V83.72H224.876V89.618C224.876 89.89 224.878 90.118 224.882 90.302C224.89 90.482 224.932 90.642 225.008 90.782C225.152 91.05 225.38 91.21 225.692 91.262C226.008 91.314 226.398 91.302 226.862 91.226V92ZM222.614 86.276V85.52H226.862V86.276H222.614ZM233.541 92.18C232.937 92.18 232.393 92.08 231.909 91.88C231.429 91.676 231.031 91.388 230.715 91.016C230.403 90.644 230.199 90.202 230.103 89.69L231.003 89.54C231.147 90.1 231.451 90.54 231.915 90.86C232.379 91.176 232.933 91.334 233.577 91.334C234.001 91.334 234.381 91.268 234.717 91.136C235.053 91 235.317 90.808 235.509 90.56C235.701 90.312 235.797 90.018 235.797 89.678C235.797 89.454 235.757 89.264 235.677 89.108C235.597 88.948 235.491 88.816 235.359 88.712C235.227 88.608 235.083 88.522 234.927 88.454C234.771 88.382 234.619 88.324 234.471 88.28L232.281 87.626C232.017 87.55 231.773 87.454 231.549 87.338C231.325 87.218 231.129 87.076 230.961 86.912C230.797 86.744 230.669 86.548 230.577 86.324C230.485 86.1 230.439 85.844 230.439 85.556C230.439 85.068 230.567 84.646 230.823 84.29C231.079 83.934 231.429 83.66 231.873 83.468C232.317 83.276 232.823 83.182 233.391 83.186C233.967 83.186 234.481 83.288 234.933 83.492C235.389 83.696 235.765 83.988 236.061 84.368C236.357 84.744 236.553 85.19 236.649 85.706L235.725 85.874C235.665 85.498 235.527 85.172 235.311 84.896C235.095 84.62 234.819 84.408 234.483 84.26C234.151 84.108 233.785 84.03 233.385 84.026C232.997 84.026 232.651 84.092 232.347 84.224C232.047 84.352 231.809 84.528 231.633 84.752C231.457 84.976 231.369 85.232 231.369 85.52C231.369 85.812 231.449 86.046 231.609 86.222C231.773 86.398 231.973 86.536 232.209 86.636C232.449 86.736 232.681 86.818 232.905 86.882L234.597 87.38C234.773 87.428 234.979 87.498 235.215 87.59C235.455 87.678 235.687 87.806 235.911 87.974C236.139 88.138 236.327 88.354 236.475 88.622C236.623 88.89 236.697 89.23 236.697 89.642C236.697 90.042 236.617 90.4 236.457 90.716C236.301 91.032 236.079 91.298 235.791 91.514C235.507 91.73 235.173 91.894 234.789 92.006C234.409 92.122 233.993 92.18 233.541 92.18ZM241.111 92.18C240.507 92.18 239.963 92.08 239.479 91.88C238.999 91.676 238.601 91.388 238.285 91.016C237.973 90.644 237.769 90.202 237.673 89.69L238.573 89.54C238.717 90.1 239.021 90.54 239.485 90.86C239.949 91.176 240.503 91.334 241.147 91.334C241.571 91.334 241.951 91.268 242.287 91.136C242.623 91 242.887 90.808 243.079 90.56C243.271 90.312 243.367 90.018 243.367 89.678C243.367 89.454 243.327 89.264 243.247 89.108C243.167 88.948 243.061 88.816 242.929 88.712C242.797 88.608 242.653 88.522 242.497 88.454C242.341 88.382 242.189 88.324 242.041 88.28L239.851 87.626C239.587 87.55 239.343 87.454 239.119 87.338C238.895 87.218 238.699 87.076 238.531 86.912C238.367 86.744 238.239 86.548 238.147 86.324C238.055 86.1 238.009 85.844 238.009 85.556C238.009 85.068 238.137 84.646 238.393 84.29C238.649 83.934 238.999 83.66 239.443 83.468C239.887 83.276 240.393 83.182 240.961 83.186C241.537 83.186 242.051 83.288 242.503 83.492C242.959 83.696 243.335 83.988 243.631 84.368C243.927 84.744 244.123 85.19 244.219 85.706L243.295 85.874C243.235 85.498 243.097 85.172 242.881 84.896C242.665 84.62 242.389 84.408 242.053 84.26C241.721 84.108 241.355 84.03 240.955 84.026C240.567 84.026 240.221 84.092 239.917 84.224C239.617 84.352 239.379 84.528 239.203 84.752C239.027 84.976 238.939 85.232 238.939 85.52C238.939 85.812 239.019 86.046 239.179 86.222C239.343 86.398 239.543 86.536 239.779 86.636C240.019 86.736 240.251 86.818 240.475 86.882L242.167 87.38C242.343 87.428 242.549 87.498 242.785 87.59C243.025 87.678 243.257 87.806 243.481 87.974C243.709 88.138 243.897 88.354 244.045 88.622C244.193 88.89 244.267 89.23 244.267 89.642C244.267 90.042 244.187 90.4 244.027 90.716C243.871 91.032 243.649 91.298 243.361 91.514C243.077 91.73 242.743 91.894 242.359 92.006C241.979 92.122 241.563 92.18 241.111 92.18ZM245.626 92V83.36H246.508V91.154H250.612V92H245.626ZM253.44 92V83.36H258.84V84.206H254.322V87.194H258.12V88.04H254.322V91.154H258.84V92H253.44ZM264.963 92V88.694C264.963 88.334 264.929 88.004 264.861 87.704C264.793 87.4 264.683 87.136 264.531 86.912C264.383 86.684 264.189 86.508 263.949 86.384C263.713 86.26 263.425 86.198 263.085 86.198C262.773 86.198 262.497 86.252 262.257 86.36C262.021 86.468 261.821 86.624 261.657 86.828C261.497 87.028 261.375 87.272 261.291 87.56C261.207 87.848 261.165 88.176 261.165 88.544L260.541 88.406C260.541 87.742 260.657 87.184 260.889 86.732C261.121 86.28 261.441 85.938 261.849 85.706C262.257 85.474 262.725 85.358 263.253 85.358C263.641 85.358 263.979 85.418 264.267 85.538C264.559 85.658 264.805 85.82 265.005 86.024C265.209 86.228 265.373 86.462 265.497 86.726C265.621 86.986 265.711 87.264 265.767 87.56C265.823 87.852 265.851 88.144 265.851 88.436V92H264.963ZM260.277 92V85.52H261.075V87.116H261.165V92H260.277ZM270.061 92.18C269.409 92.18 268.857 92.034 268.405 91.742C267.953 91.45 267.609 91.048 267.373 90.536C267.141 90.02 267.021 89.428 267.013 88.76C267.021 88.08 267.145 87.484 267.385 86.972C267.625 86.456 267.971 86.056 268.423 85.772C268.875 85.484 269.423 85.34 270.067 85.34C270.723 85.34 271.293 85.5 271.777 85.82C272.265 86.14 272.599 86.578 272.779 87.134L271.915 87.41C271.763 87.022 271.521 86.722 271.189 86.51C270.861 86.294 270.485 86.186 270.061 86.186C269.585 86.186 269.191 86.296 268.879 86.516C268.567 86.732 268.335 87.034 268.183 87.422C268.031 87.81 267.953 88.256 267.949 88.76C267.957 89.536 268.137 90.16 268.489 90.632C268.841 91.1 269.365 91.334 270.061 91.334C270.501 91.334 270.875 91.234 271.183 91.034C271.495 90.83 271.731 90.534 271.891 90.146L272.779 90.41C272.539 90.986 272.187 91.426 271.723 91.73C271.259 92.03 270.705 92.18 270.061 92.18ZM274.018 92V85.52H274.81V87.08L274.654 86.876C274.726 86.684 274.82 86.508 274.936 86.348C275.052 86.184 275.178 86.05 275.314 85.946C275.482 85.798 275.678 85.686 275.902 85.61C276.126 85.53 276.352 85.484 276.58 85.472C276.808 85.456 277.016 85.472 277.204 85.52V86.348C276.968 86.288 276.71 86.274 276.43 86.306C276.15 86.338 275.892 86.45 275.656 86.642C275.44 86.81 275.278 87.012 275.17 87.248C275.062 87.48 274.99 87.728 274.954 87.992C274.918 88.252 274.9 88.51 274.9 88.766V92H274.018ZM279.184 94.88L280.438 91.478L280.456 92.486L277.618 85.52H278.554L280.882 91.346H280.498L282.646 85.52H283.546L280.066 94.88H279.184ZM287.498 92.18C286.902 92.18 286.398 92.03 285.986 91.73C285.574 91.426 285.262 91.016 285.05 90.5C284.838 89.98 284.732 89.398 284.732 88.754C284.732 88.098 284.838 87.514 285.05 87.002C285.266 86.486 285.582 86.08 285.998 85.784C286.414 85.488 286.926 85.34 287.534 85.34C288.126 85.34 288.634 85.49 289.058 85.79C289.482 86.09 289.806 86.498 290.03 87.014C290.258 87.53 290.372 88.11 290.372 88.754C290.372 89.402 290.258 89.984 290.03 90.5C289.802 91.016 289.474 91.426 289.046 91.73C288.618 92.03 288.102 92.18 287.498 92.18ZM284.582 94.88V85.52H285.374V90.398H285.47V94.88H284.582ZM287.408 91.358C287.86 91.358 288.236 91.244 288.536 91.016C288.836 90.788 289.06 90.478 289.208 90.086C289.36 89.69 289.436 89.246 289.436 88.754C289.436 88.266 289.362 87.826 289.214 87.434C289.066 87.042 288.84 86.732 288.536 86.504C288.236 86.276 287.854 86.162 287.39 86.162C286.938 86.162 286.562 86.272 286.262 86.492C285.966 86.712 285.744 87.018 285.596 87.41C285.448 87.798 285.374 88.246 285.374 88.754C285.374 89.254 285.448 89.702 285.596 90.098C285.744 90.49 285.968 90.798 286.268 91.022C286.568 91.246 286.948 91.358 287.408 91.358ZM295.218 92C294.854 92.076 294.494 92.106 294.138 92.09C293.786 92.074 293.47 91.998 293.19 91.862C292.914 91.726 292.704 91.514 292.56 91.226C292.444 90.986 292.38 90.744 292.368 90.5C292.36 90.252 292.356 89.97 292.356 89.654V83.72H293.232V89.618C293.232 89.89 293.234 90.118 293.238 90.302C293.246 90.482 293.288 90.642 293.364 90.782C293.508 91.05 293.736 91.21 294.048 91.262C294.364 91.314 294.754 91.302 295.218 91.226V92ZM290.97 86.276V85.52H295.218V86.276H290.97ZM296.614 84.29V83.3H297.496V84.29H296.614ZM296.614 92V85.52H297.496V92H296.614ZM302.001 92.18C301.357 92.18 300.807 92.034 300.351 91.742C299.895 91.45 299.545 91.046 299.301 90.53C299.057 90.014 298.935 89.422 298.935 88.754C298.935 88.074 299.059 87.478 299.307 86.966C299.555 86.454 299.907 86.056 300.363 85.772C300.823 85.484 301.369 85.34 302.001 85.34C302.649 85.34 303.201 85.486 303.657 85.778C304.117 86.066 304.467 86.468 304.707 86.984C304.951 87.496 305.073 88.086 305.073 88.754C305.073 89.434 304.951 90.032 304.707 90.548C304.463 91.06 304.111 91.46 303.651 91.748C303.191 92.036 302.641 92.18 302.001 92.18ZM302.001 91.334C302.721 91.334 303.257 91.096 303.609 90.62C303.961 90.14 304.137 89.518 304.137 88.754C304.137 87.97 303.959 87.346 303.603 86.882C303.251 86.418 302.717 86.186 302.001 86.186C301.517 86.186 301.117 86.296 300.801 86.516C300.489 86.732 300.255 87.034 300.099 87.422C299.947 87.806 299.871 88.25 299.871 88.754C299.871 89.534 300.051 90.16 300.411 90.632C300.771 91.1 301.301 91.334 302.001 91.334ZM311.077 92V88.694C311.077 88.334 311.043 88.004 310.975 87.704C310.907 87.4 310.797 87.136 310.645 86.912C310.497 86.684 310.303 86.508 310.063 86.384C309.827 86.26 309.539 86.198 309.199 86.198C308.887 86.198 308.611 86.252 308.371 86.36C308.135 86.468 307.935 86.624 307.771 86.828C307.611 87.028 307.489 87.272 307.405 87.56C307.321 87.848 307.279 88.176 307.279 88.544L306.655 88.406C306.655 87.742 306.771 87.184 307.003 86.732C307.235 86.28 307.555 85.938 307.963 85.706C308.371 85.474 308.839 85.358 309.367 85.358C309.755 85.358 310.093 85.418 310.381 85.538C310.673 85.658 310.919 85.82 311.119 86.024C311.323 86.228 311.487 86.462 311.611 86.726C311.735 86.986 311.825 87.264 311.881 87.56C311.937 87.852 311.965 88.144 311.965 88.436V92H311.077ZM306.391 92V85.52H307.189V87.116H307.279V92H306.391ZM313.69 92V90.974H314.716V92H313.69Z" fill="#4D5254"></path><line x1="332.5" y1="79.5" x2="332.5" y2="95.5" stroke="#CFCFCF"></line><g clip-path="url(#clip1_1_127)"><path opacity="0.07" d="M370.105 80.5H349.895C348.821 80.5 348 81.2583 348 82.25V92.75C348 93.7417 348.884 94.5 349.895 94.5H370.105C371.179 94.5 372 93.7417 372 92.75V82.25C372 81.2583 371.116 80.5 370.105 80.5Z" fill="black"></path><path d="M370.106 81.0833C370.8 81.0833 371.369 81.6083 371.369 82.25V92.75C371.369 93.3917 370.8 93.9167 370.106 93.9167H349.895C349.2 93.9167 348.632 93.3917 348.632 92.75V82.25C348.632 81.6083 349.2 81.0833 349.895 81.0833H370.106Z" fill="white"></path><path d="M365.874 86.3917H365.685C365.432 86.975 365.242 87.2667 365.053 88.1417H366.253C366.063 87.2667 366.063 86.8583 365.874 86.3917V86.3917ZM367.706 89.8333H366.632C366.569 89.8333 366.569 89.8333 366.506 89.775L366.379 89.25L366.316 89.1333H364.8C364.737 89.1333 364.674 89.1333 364.674 89.25L364.485 89.775C364.485 89.8333 364.421 89.8333 364.421 89.8333H363.095L363.221 89.5417L365.053 85.575C365.053 85.2833 365.242 85.1667 365.558 85.1667H366.506C366.569 85.1667 366.632 85.1667 366.632 85.2833L367.516 89.075C367.579 89.3083 367.642 89.4833 367.642 89.7167C367.706 89.775 367.706 89.775 367.706 89.8333V89.8333ZM359.242 89.6583L359.495 88.6083C359.558 88.6083 359.621 88.6667 359.621 88.6667C360.063 88.8417 360.506 88.9583 360.948 88.9C361.074 88.9 361.263 88.8417 361.39 88.7833C361.706 88.6667 361.706 88.375 361.453 88.1417C361.327 88.025 361.137 87.9667 360.948 87.85C360.695 87.7333 360.442 87.6167 360.253 87.4417C359.495 86.8583 359.748 86.0417 360.19 85.6333C360.569 85.4 360.758 85.1667 361.263 85.1667C362.021 85.1667 362.842 85.1667 363.221 85.2833H363.285C363.221 85.6333 363.158 85.925 363.032 86.275C362.716 86.1583 362.4 86.0417 362.085 86.0417C361.895 86.0417 361.706 86.0417 361.516 86.1C361.39 86.1 361.327 86.1583 361.263 86.2167C361.137 86.3333 361.137 86.5083 361.263 86.625L361.579 86.8583C361.832 86.975 362.085 87.0917 362.274 87.2083C362.59 87.3833 362.906 87.675 362.969 88.025C363.095 88.55 362.906 89.0167 362.4 89.3667C362.085 89.6 361.958 89.7167 361.516 89.7167C360.632 89.7167 359.937 89.775 359.369 89.6C359.306 89.7167 359.306 89.7167 359.242 89.6583V89.6583ZM357.032 89.8333C357.095 89.425 357.095 89.425 357.158 89.25C357.474 87.9667 357.79 86.625 358.042 85.3417C358.106 85.225 358.106 85.1667 358.232 85.1667H359.369C359.242 85.8667 359.116 86.3917 358.927 87.0333C358.737 87.9083 358.548 88.7833 358.295 89.6583C358.295 89.775 358.232 89.775 358.106 89.775M351.158 85.2833C351.158 85.225 351.285 85.1667 351.348 85.1667H353.495C353.811 85.1667 354.063 85.3417 354.127 85.6333L354.695 88.2C354.695 88.2583 354.695 88.2583 354.758 88.3167C354.758 88.2583 354.821 88.2583 354.821 88.2583L356.148 85.2833C356.085 85.225 356.148 85.1667 356.211 85.1667H357.537C357.537 85.225 357.537 85.225 357.474 85.2833L355.516 89.5417C355.453 89.6583 355.453 89.7167 355.39 89.775C355.327 89.8333 355.2 89.775 355.074 89.775H354.127C354.063 89.775 354 89.775 354 89.6583L352.99 86.0417C352.863 85.925 352.674 85.75 352.421 85.6917C352.042 85.5167 351.348 85.4 351.221 85.4L351.158 85.2833Z" fill="#142688"></path></g><g clip-path="url(#clip2_1_127)"><path opacity="0.07" d="M396.105 80.5H375.895C374.821 80.5 374 81.2583 374 82.25V92.75C374 93.7417 374.884 94.5 375.895 94.5H396.105C397.179 94.5 398 93.7417 398 92.75V82.25C398 81.2583 397.116 80.5 396.105 80.5Z" fill="black"></path><path d="M396.106 81.0833C396.8 81.0833 397.369 81.6083 397.369 82.25V92.75C397.369 93.3917 396.8 93.9167 396.106 93.9167H375.895C375.2 93.9167 374.632 93.3917 374.632 92.75V82.25C374.632 81.6083 375.2 81.0833 375.895 81.0833H396.106Z" fill="#5A31F4"></path><path d="M387.504 86.166C387.504 87.139 386.76 87.8332 385.722 87.8332H384.744C384.728 87.8334 384.712 87.8379 384.698 87.8462C384.685 87.8545 384.674 87.8662 384.668 87.8798C384.664 87.8889 384.662 87.8986 384.662 87.9084V89.1871C384.662 89.197 384.659 89.2069 384.655 89.216C384.651 89.2252 384.645 89.2335 384.638 89.2405C384.63 89.2475 384.621 89.253 384.611 89.2568C384.601 89.2605 384.59 89.2624 384.58 89.2623H383.895C383.873 89.2623 383.852 89.2544 383.837 89.2401C383.821 89.2259 383.813 89.2066 383.813 89.1865V84.5753C383.813 84.5602 383.817 84.5455 383.826 84.533C383.835 84.5205 383.848 84.5108 383.863 84.5053C383.873 84.5014 383.884 84.4994 383.895 84.4994H385.726C386.76 84.4994 387.504 85.1936 387.504 86.1666V86.166V86.166ZM386.65 86.166C386.65 85.6072 386.234 85.1988 385.671 85.1988H384.744C384.733 85.1988 384.722 85.2008 384.712 85.2046C384.702 85.2084 384.693 85.214 384.686 85.2211C384.678 85.2281 384.672 85.2365 384.668 85.2457C384.664 85.2549 384.662 85.2647 384.662 85.2747V87.0538C384.661 87.0638 384.664 87.0737 384.668 87.0829C384.672 87.0922 384.678 87.1005 384.686 87.1075C384.693 87.1146 384.702 87.1202 384.712 87.124C384.722 87.1278 384.733 87.1297 384.744 87.1297H385.671C386.234 87.1326 386.65 86.7243 386.65 86.166V86.166ZM387.707 88.3774C387.7 88.228 387.734 88.0793 387.805 87.945C387.876 87.8107 387.983 87.6952 388.116 87.6092C388.383 87.4248 388.8 87.3292 389.414 87.3093L390.066 87.2883V87.1116C390.066 86.7575 389.807 86.6082 389.392 86.6082C388.976 86.6082 388.713 86.7429 388.653 86.964C388.647 86.9795 388.637 86.9931 388.623 87.0026C388.608 87.0121 388.591 87.017 388.574 87.0165H387.928C387.91 87.0167 387.893 87.0116 387.879 87.0019C387.864 86.9922 387.854 86.9785 387.849 86.9628C387.845 86.9525 387.844 86.9415 387.846 86.9308C387.942 86.4069 388.417 86.0091 389.421 86.0091C390.49 86.0091 390.876 86.4658 390.876 87.3368V89.1871C390.876 89.1971 390.873 89.207 390.869 89.2162C390.865 89.2254 390.859 89.2338 390.851 89.2408C390.843 89.2477 390.834 89.2533 390.824 89.257C390.814 89.2607 390.803 89.2625 390.792 89.2623H390.142C390.12 89.2623 390.099 89.2544 390.084 89.2401C390.068 89.2259 390.06 89.2066 390.06 89.1865V89.0488C390.06 89.0374 390.056 89.0262 390.049 89.0167C390.043 89.0072 390.033 88.9999 390.021 88.9958C390.01 88.9916 389.997 88.9906 389.985 88.9929C389.973 88.9952 389.962 89.0006 389.954 89.0086C389.758 89.2034 389.443 89.344 388.939 89.344C388.197 89.344 387.707 88.9899 387.707 88.3774V88.3774ZM390.066 87.9767V87.8332L389.22 87.874C388.775 87.895 388.516 88.0642 388.516 88.35C388.516 88.609 388.754 88.7525 389.169 88.7525C389.733 88.7525 390.066 88.4725 390.066 87.9767ZM391.529 90.66V90.1239C391.529 90.1127 391.532 90.1016 391.537 90.0915C391.542 90.0815 391.55 90.0726 391.56 90.0656C391.569 90.0585 391.58 90.0535 391.592 90.0508C391.604 90.048 391.616 90.0477 391.628 90.0498C391.728 90.0668 391.829 90.0755 391.93 90.0755C392.105 90.0843 392.277 90.0387 392.42 89.946C392.562 89.8533 392.667 89.7189 392.717 89.5645L392.759 89.4414C392.765 89.4248 392.765 89.4067 392.759 89.3901L391.404 86.1987C391.396 86.1812 391.396 86.1616 391.403 86.1437C391.41 86.1259 391.424 86.1112 391.442 86.1024C391.454 86.0965 391.468 86.0935 391.481 86.0937H392.138C392.155 86.0937 392.172 86.0985 392.185 86.1073C392.199 86.1162 392.21 86.1287 392.216 86.1433L393.136 88.3943C393.141 88.4095 393.152 88.4225 393.166 88.4317C393.18 88.441 393.197 88.4458 393.214 88.4457C393.232 88.4457 393.249 88.4407 393.263 88.4315C393.277 88.4223 393.288 88.4094 393.293 88.3943L394.092 86.1497C394.098 86.1342 394.108 86.1207 394.123 86.1113C394.137 86.1018 394.154 86.0969 394.172 86.0972H394.852C394.872 86.0973 394.892 86.1042 394.907 86.1166C394.922 86.1291 394.932 86.1462 394.935 86.1648C394.936 86.1773 394.935 86.1899 394.93 86.2016L393.48 89.7459C393.147 90.5702 392.575 90.7802 391.946 90.7802C391.826 90.7832 391.707 90.7703 391.591 90.7417C391.572 90.7373 391.555 90.7266 391.543 90.7117C391.532 90.6967 391.526 90.6783 391.528 90.66H391.529V90.66ZM379.412 84.2334C378.55 84.2275 377.718 84.5252 377.086 85.0658C377.059 85.0884 377.042 85.1195 377.039 85.153C377.035 85.1864 377.046 85.2199 377.068 85.2467L377.458 85.7361C377.47 85.7526 377.487 85.7663 377.506 85.7763C377.525 85.7863 377.546 85.7923 377.568 85.7938C377.59 85.7954 377.612 85.7925 377.632 85.7853C377.653 85.7782 377.671 85.7669 377.686 85.7524C377.914 85.5439 378.184 85.3793 378.481 85.2682C378.778 85.157 379.095 85.1015 379.416 85.1049C380.755 85.1049 381.454 86.0289 381.454 86.9424C381.454 87.9341 380.719 88.6329 379.663 88.6463C378.847 88.6463 378.232 88.1505 378.232 87.4948C378.233 87.329 378.274 87.1655 378.352 87.0161C378.429 86.8668 378.543 86.7353 378.682 86.6315C378.712 86.6089 378.731 86.5764 378.735 86.541C378.739 86.5056 378.728 86.4702 378.703 86.4425L378.293 85.9671C378.28 85.9525 378.265 85.9403 378.247 85.9314C378.23 85.9224 378.21 85.9168 378.19 85.915C378.17 85.9131 378.15 85.915 378.131 85.9206C378.112 85.9261 378.094 85.9352 378.079 85.9473C377.827 86.1335 377.624 86.3693 377.484 86.6373C377.344 86.9048 377.271 87.1979 377.271 87.4948C377.271 88.6236 378.316 89.5085 379.655 89.5155H379.674C381.264 89.4968 382.413 88.4165 382.413 86.9401C382.413 85.6293 381.36 84.2334 379.412 84.2334V84.2334Z" fill="white"></path></g><g clip-path="url(#clip3_1_127)"><path opacity="0.07" d="M422.105 80.5H401.895C400.821 80.5 400 81.2583 400 82.25V92.75C400 93.7417 400.884 94.5 401.895 94.5H422.105C423.179 94.5 424 93.7417 424 92.75V82.25C424 81.2583 423.116 80.5 422.105 80.5Z" fill="black"></path><path d="M422.106 81.0833C422.8 81.0833 423.369 81.6083 423.369 82.25V92.75C423.369 93.3917 422.8 93.9167 422.106 93.9167H401.895C401.2 93.9167 400.632 93.3917 400.632 92.75V82.25C400.632 81.6083 401.2 81.0833 401.895 81.0833H422.106Z" fill="white"></path><path d="M415.094 85.3417C415.221 84.7583 415.094 84.35 414.715 84C414.337 83.5917 413.642 83.4167 412.758 83.4167H410.168C409.979 83.4167 409.852 83.5333 409.789 83.7083L408.842 89.6C408.842 89.7167 408.905 89.8333 409.031 89.8333H410.737L410.989 87.85L412.126 86.5667L415.094 85.3417V85.3417Z" fill="#003087"></path><path d="M415.095 85.3417L414.969 85.4583C414.653 87.0917 413.579 87.675 412.063 87.675H411.369C411.179 87.675 411.053 87.7917 410.99 87.9667L410.611 90.2417L410.484 90.825C410.484 90.9417 410.548 91.0583 410.674 91.0583H412C412.19 91.0583 412.316 90.9417 412.316 90.825V90.7667L412.569 89.3667V89.3083C412.569 89.1917 412.758 89.075 412.884 89.075H413.074C414.4 89.075 415.411 88.6083 415.663 87.2083C415.79 86.625 415.726 86.1583 415.411 85.8083C415.348 85.5167 415.221 85.4 415.095 85.3417V85.3417Z" fill="#3086C8"></path><path d="M414.716 85.225C414.652 85.1667 414.589 85.1667 414.526 85.1667C414.463 85.1667 414.4 85.1667 414.337 85.1083C414.147 85.05 413.895 85.05 413.642 85.05H411.747C411.684 85.05 411.621 85.05 411.621 85.1083C411.495 85.1667 411.431 85.225 411.431 85.3417L410.989 87.9083V87.9667C410.989 87.7917 411.179 87.675 411.368 87.675H412.189C413.768 87.675 414.779 87.0917 415.095 85.4583V85.3417C415.031 85.2833 414.905 85.225 414.779 85.225H414.716V85.225Z" fill="#012169"></path></g><g clip-path="url(#clip4_1_127)"><path opacity="0.07" d="M448.105 80.5H427.895C426.821 80.5 426 81.2583 426 82.25V92.75C426 93.7417 426.884 94.5 427.895 94.5H448.105C449.179 94.5 450 93.7417 450 92.75V82.25C450 81.2583 449.116 80.5 448.105 80.5Z" fill="black"></path><path d="M448.106 81.0833C448.8 81.0833 449.369 81.6083 449.369 82.25V92.75C449.369 93.3917 448.8 93.9167 448.106 93.9167H427.895C427.2 93.9167 426.632 93.3917 426.632 92.75V82.25C426.632 81.6083 427.2 81.0833 427.895 81.0833H448.106Z" fill="white"></path><path d="M435.474 91.5833C437.915 91.5833 439.895 89.7552 439.895 87.5C439.895 85.2448 437.915 83.4167 435.474 83.4167C433.032 83.4167 431.053 85.2448 431.053 87.5C431.053 89.7552 433.032 91.5833 435.474 91.5833Z" fill="#EB001B"></path><path d="M440.527 91.5833C442.968 91.5833 444.948 89.7552 444.948 87.5C444.948 85.2448 442.968 83.4167 440.527 83.4167C438.085 83.4167 436.105 85.2448 436.105 87.5C436.105 89.7552 438.085 91.5833 440.527 91.5833Z" fill="#FFC000"></path><path d="M439.895 87.5C439.895 86.1 439.137 84.875 438 84.175C436.863 84.9333 436.105 86.1583 436.105 87.5C436.105 88.8417 436.863 90.125 438 90.825C439.137 90.125 439.895 88.9 439.895 87.5Z" fill="#FF5F00"></path></g><g clip-path="url(#clip5_1_127)"><path opacity="0.07" d="M474.105 80.5H453.895C452.821 80.5 452 81.2583 452 82.25V92.75C452 93.7417 452.884 94.5 453.895 94.5H474.105C475.179 94.5 476 93.7417 476 92.75V82.25C476 81.2583 475.116 80.5 474.105 80.5Z" fill="black"></path><path d="M474.106 81.0833C474.8 81.0833 475.369 81.6083 475.369 82.25V92.75C475.369 93.3917 474.8 93.9167 474.106 93.9167H453.895C453.2 93.9167 452.632 93.3917 452.632 92.75V82.25C452.632 81.6083 453.2 81.0833 453.895 81.0833H474.106Z" fill="white"></path><path d="M463.427 87.4861V89.3527H462.784V84.7444H464.484C464.687 84.7412 464.89 84.7752 465.079 84.8445C465.268 84.9138 465.441 85.017 465.587 85.1481C465.725 85.2673 465.837 85.4105 465.915 85.5696C465.994 85.7287 466.037 85.9004 466.044 86.0751C466.05 86.2498 466.019 86.4239 465.953 86.5875C465.887 86.7511 465.786 86.9011 465.657 87.0287L465.587 87.0964C465.29 87.3572 464.894 87.4989 464.484 87.4896L463.427 87.4861V87.4861ZM463.427 85.3091V86.9354H464.5C464.738 86.9424 464.968 86.8567 465.134 86.6997C465.254 86.5849 465.334 86.4403 465.365 86.2837C465.396 86.1272 465.376 85.9657 465.308 85.8194C465.241 85.6731 465.128 85.5483 464.984 85.4607C464.84 85.3731 464.672 85.3264 464.5 85.3266L463.427 85.3091V85.3091ZM467.522 86.0954C467.933 86.0779 468.334 86.2051 468.645 86.453C468.926 86.7038 469.076 87.0538 469.056 87.4149V89.3597H468.444V88.9129H468.413C468.303 89.0805 468.148 89.2187 467.963 89.314C467.777 89.4092 467.568 89.4582 467.356 89.456C467.01 89.4663 466.672 89.3553 466.411 89.1451C466.288 89.0519 466.188 88.9339 466.121 88.8001C466.054 88.6663 466.021 88.5202 466.024 88.3727C466.017 88.2238 466.048 88.0753 466.116 87.9398C466.183 87.8042 466.284 87.6855 466.411 87.5934C466.723 87.3864 467.1 87.2808 467.484 87.293C467.81 87.2813 468.134 87.3472 468.425 87.4861V87.3647C468.427 87.2644 468.404 87.165 468.359 87.0739C468.313 86.9829 468.246 86.9026 468.161 86.8392C467.992 86.6972 467.771 86.6204 467.542 86.6245C467.377 86.623 467.213 86.6607 467.067 86.7339C466.922 86.8071 466.798 86.9134 466.709 87.0427L466.144 86.7137C466.298 86.5106 466.505 86.3472 466.746 86.2389C466.987 86.1307 467.255 86.0813 467.522 86.0954V86.0954ZM466.709 88.3867C466.708 88.4623 466.727 88.537 466.764 88.6044C466.801 88.6717 466.855 88.7296 466.922 88.7729C467.063 88.8756 467.238 88.9298 467.418 88.9263C467.689 88.9257 467.949 88.8272 468.142 88.651C468.334 88.4842 468.444 88.2514 468.444 88.0076C468.201 87.8479 467.905 87.7708 467.608 87.7894C467.376 87.781 467.148 87.8411 466.957 87.9609C466.881 88.0078 466.819 88.0711 466.776 88.1453C466.733 88.2196 466.71 88.3025 466.709 88.3867V88.3867ZM472.574 86.1992L470.433 90.7434H469.771L470.58 89.1521L469.176 86.1992H469.872L470.89 88.4655L471.881 86.1992H472.574V86.1992Z" fill="#5F6368"></path><path d="M460.834 87.0824C460.834 86.9027 460.819 86.723 460.788 86.5457H458.078V87.5648H459.626C459.595 87.7267 459.528 87.8812 459.43 88.0188C459.333 88.1564 459.206 88.2744 459.058 88.3657V89.0272H459.982C460.263 88.776 460.484 88.4731 460.631 88.1381C460.778 87.8031 460.847 87.4435 460.834 87.0824Z" fill="#4285F4"></path><path d="M458.081 89.6704C458.779 89.6882 459.459 89.4593 459.982 89.0305L459.056 88.3655C458.833 88.4973 458.581 88.5804 458.319 88.6087C458.056 88.6369 457.79 88.6095 457.541 88.5285C457.292 88.4475 457.066 88.3151 456.88 88.1413C456.695 87.9675 456.554 87.7569 456.47 87.5255H455.521V88.208C455.759 88.6473 456.124 89.0168 456.576 89.2751C457.028 89.5334 457.549 89.6703 458.081 89.6704V89.6704Z" fill="#34A853"></path><path d="M456.471 87.5293C456.351 87.2011 456.351 86.8455 456.471 86.5173V85.8348H455.522C455.32 86.2031 455.215 86.6103 455.215 87.0233C455.215 87.4363 455.32 87.8435 455.522 88.2118L456.471 87.5293V87.5293Z" fill="#FFC000"></path><path d="M458.081 85.4236C458.489 85.4167 458.884 85.5592 459.18 85.8202L460.001 85.066C459.477 84.6121 458.783 84.3646 458.065 84.3759C457.536 84.3783 457.019 84.5159 456.57 84.7733C456.121 85.0307 455.758 85.3979 455.521 85.8342L456.47 86.5173C456.581 86.2024 456.796 85.9274 457.085 85.7312C457.374 85.535 457.722 85.4274 458.081 85.4236V85.4236Z" fill="#EA4335"></path></g><g clip-path="url(#clip6_1_127)"><path d="M499.718 80.5H480.282C480.201 80.5 480.119 80.5 480.039 80.5004C479.97 80.5009 479.902 80.5016 479.834 80.5033C479.685 80.507 479.536 80.5152 479.389 80.5395C479.242 80.5628 479.099 80.6062 478.966 80.6683C478.698 80.7942 478.48 80.9955 478.343 81.243C478.276 81.3662 478.229 81.4981 478.204 81.6341C478.177 81.7698 478.169 81.9081 478.165 82.0453C478.163 82.1082 478.162 82.1712 478.161 82.2342C478.161 82.3087 478.161 82.3835 478.161 82.4584V92.5415C478.161 92.6164 478.161 92.691 478.161 92.7659C478.162 92.8288 478.163 92.8918 478.165 92.9549C478.169 93.0917 478.177 93.2302 478.204 93.3658C478.229 93.5018 478.276 93.6336 478.343 93.7568C478.411 93.8799 478.499 93.9922 478.605 94.0898C478.711 94.1875 478.832 94.2691 478.965 94.3315C479.101 94.3954 479.24 94.4359 479.389 94.4606C479.536 94.4848 479.685 94.493 479.834 94.4967C479.902 94.4981 479.97 94.4989 480.039 94.4993C480.119 94.4999 480.201 94.4999 480.282 94.4999H499.718C499.799 94.4999 499.88 94.4999 499.961 94.4993C500.029 94.4991 500.097 94.4981 500.165 94.4967C500.314 94.493 500.464 94.4848 500.611 94.4606C500.758 94.4373 500.901 94.3938 501.034 94.3315C501.302 94.2055 501.52 94.0043 501.656 93.7568C501.725 93.6317 501.769 93.5036 501.795 93.3658C501.822 93.2302 501.831 93.0917 501.835 92.9549C501.836 92.8918 501.837 92.8288 501.838 92.7659C501.838 92.691 501.838 92.6164 501.838 92.5415V82.4585C501.838 82.3836 501.838 82.3088 501.838 82.2341C501.837 82.1711 501.836 82.1082 501.835 82.0453C501.831 81.9081 501.822 81.7698 501.795 81.6341C501.77 81.498 501.723 81.3662 501.656 81.243C501.52 80.9955 501.302 80.7943 501.034 80.6683C500.9 80.6063 500.758 80.5629 500.611 80.5396C500.464 80.5152 500.314 80.5071 500.165 80.5034C500.097 80.5018 500.029 80.5009 499.961 80.5005C499.88 80.5 499.799 80.5 499.718 80.5Z" fill="#E4E4E4"></path><path d="M499.718 80.9667L499.957 80.9671C500.021 80.9675 500.086 80.9681 500.151 80.9697C500.265 80.9726 500.397 80.9783 500.521 80.9988C500.628 81.0166 500.718 81.0437 500.805 81.0844C500.977 81.1656 501.118 81.2955 501.206 81.4552C501.249 81.5345 501.279 81.6172 501.298 81.7172C501.32 81.8301 501.326 81.9528 501.329 82.0581C501.331 82.1175 501.332 82.177 501.332 82.2378C501.333 82.3114 501.333 82.3848 501.333 82.4585V92.5416C501.333 92.6153 501.333 92.6888 501.332 92.7638C501.332 92.8233 501.331 92.8827 501.329 92.9422C501.326 93.0474 501.32 93.1701 501.298 93.2843C501.281 93.3751 501.25 93.463 501.205 93.5452C501.117 93.705 500.977 93.8349 500.804 93.916C500.718 93.9565 500.628 93.9836 500.522 94.0013C500.396 94.022 500.258 94.0277 500.154 94.0303C500.088 94.0317 500.023 94.0326 499.956 94.0328C499.877 94.0334 499.797 94.0334 499.718 94.0334H480.278C480.199 94.0334 480.121 94.0334 480.041 94.0328C479.976 94.0326 479.912 94.0318 479.847 94.0305C479.741 94.0278 479.603 94.022 479.478 94.0014C479.379 93.9862 479.283 93.9572 479.194 93.9155C479.108 93.8753 479.03 93.8226 478.962 93.7596C478.894 93.6968 478.837 93.6245 478.793 93.5452C478.748 93.4626 478.717 93.3742 478.701 93.2829C478.678 93.1689 478.672 93.0467 478.669 92.9423C478.668 92.8827 478.667 92.823 478.666 92.7633L478.666 92.588V82.4123L478.666 82.2372C478.667 82.1775 478.668 82.1177 478.669 82.058C478.672 81.9533 478.678 81.8311 478.701 81.7162C478.717 81.6251 478.748 81.5369 478.793 81.4544C478.837 81.3752 478.894 81.3028 478.962 81.24C479.03 81.1771 479.109 81.1244 479.194 81.0841C479.284 81.0427 479.379 81.0139 479.478 80.9988C479.601 80.9783 479.734 80.9726 479.848 80.9697C479.912 80.9682 479.977 80.9673 480.041 80.9671L480.281 80.9667H499.718" fill="white"></path><path d="M484.385 85.2259C484.586 84.994 484.722 84.6826 484.686 84.3645C484.392 84.378 484.034 84.5435 483.826 84.7756C483.64 84.9743 483.475 85.2987 483.518 85.6035C483.848 85.6299 484.177 85.4513 484.385 85.2259ZM484.682 85.6631C484.203 85.6367 483.796 85.9141 483.567 85.9141C483.339 85.9141 482.988 85.6763 482.609 85.6828C482.116 85.6894 481.659 85.947 481.408 86.3566C480.894 87.1757 481.273 88.3912 481.773 89.0584C482.016 89.3887 482.309 89.752 482.695 89.739C483.06 89.7257 483.203 89.521 483.646 89.521C484.089 89.521 484.218 89.739 484.604 89.7324C485.004 89.7257 485.254 89.4021 485.497 89.0718C485.776 88.6952 485.89 88.3319 485.898 88.3121C485.89 88.3055 485.126 88.0345 485.118 87.222C485.111 86.5415 485.719 86.2179 485.748 86.1979C485.404 85.7291 484.868 85.6763 484.682 85.6631" fill="black"></path><path d="M489.458 84.7424C490.499 84.7424 491.224 85.4052 491.224 86.3702C491.224 87.3387 490.484 88.0049 489.432 88.0049H488.279V89.6982H487.446V84.7424H489.458ZM488.279 87.3593H489.235C489.96 87.3593 490.372 86.9987 490.372 86.3737C490.372 85.7487 489.96 85.3915 489.238 85.3915H488.279V87.3593ZM491.431 88.6712C491.431 88.0359 491.955 87.6719 492.922 87.6169L493.959 87.5585V87.2837C493.959 86.8821 493.673 86.6622 493.163 86.6622C492.743 86.6622 492.438 86.8613 492.375 87.1669H491.624C491.646 86.5248 492.301 86.0578 493.186 86.0578C494.137 86.0578 494.758 86.5179 494.758 87.2323V89.698H493.989V89.1039H493.97C493.751 89.4919 493.267 89.7357 492.743 89.7357C491.97 89.7357 491.431 89.31 491.431 88.6712V88.6712ZM493.959 88.3519V88.0736L493.033 88.1286C492.512 88.1595 492.241 88.338 492.241 88.6505C492.241 88.9528 492.524 89.1486 492.966 89.1486C493.531 89.1486 493.959 88.8154 493.959 88.3519V88.3519ZM495.466 91.0236V90.4296C495.518 90.4363 495.644 90.4432 495.711 90.4432C496.079 90.4432 496.288 90.2992 496.414 89.9281L496.489 89.7083L495.079 86.1024H495.949L496.931 89.0283H496.95L497.931 86.1024H498.779L497.318 89.8903C496.983 90.7592 496.6 91.0443 495.789 91.0443C495.726 91.0443 495.522 91.0375 495.466 91.0236V91.0236Z" fill="black"></path></g><g clip-path="url(#clip7_1_127)"><path opacity="0.07" d="M526.105 80.5H505.895C504.821 80.5 504 81.2583 504 82.25V92.75C504 93.7417 504.884 94.5 505.895 94.5H526.105C527.179 94.5 528 93.7417 528 92.75V82.25C528 81.2583 527.116 80.5 526.105 80.5Z" fill="black"></path><path d="M526.106 81.0833C526.8 81.0833 527.369 81.6083 527.369 82.25V92.75C527.369 93.3917 526.8 93.9167 526.106 93.9167H505.895C505.2 93.9167 504.632 93.3917 504.632 92.75V82.25C504.632 81.6083 505.2 81.0833 505.895 81.0833H526.106Z" fill="#006FCF"></path><path d="M509.666 86.4897L510.155 87.584H509.181L509.666 86.4897ZM519.819 86.5352H517.938V87.0176H519.788V87.7403H517.942V88.2782H519.822V88.7093L521.134 87.3997L519.822 86.0347L519.819 86.5352V86.5352ZM510.937 85.1702H513.46L514.02 86.2989L514.539 85.1667H521.089L521.769 85.8608L522.474 85.1667H525.482L523.259 87.4137L525.459 89.6467H522.406L521.725 88.9525L521.015 89.6467H510.335L510.023 88.9525H509.309L508.996 89.6467H506.526L508.602 85.1667H510.768L510.937 85.1702ZM516.408 85.799H514.994L514.047 87.8617L513.02 85.799H511.617V88.6048L510.316 85.799H509.057L507.553 89.0143H508.535L508.847 88.3202H510.486L510.798 89.0143H512.516V86.7189L513.622 89.0178H514.374L515.473 86.7259V89.0184H516.393L516.409 85.7984L516.408 85.799V85.799ZM522.307 87.4137L523.905 85.799H522.755L521.744 86.8058L520.766 85.799H517.043V89.0178H520.713L521.732 88.004L522.71 89.0178H523.894L522.308 87.4137H522.307Z" fill="white"></path></g><path d="M137.76 143V130.04H139.38L146.139 140.165V130.04H147.759V143H146.139L139.38 132.866V143H137.76ZM155.604 143.27C154.314 143.27 153.219 142.985 152.319 142.415C151.419 141.845 150.732 141.053 150.258 140.039C149.79 139.025 149.556 137.852 149.556 136.52C149.556 135.188 149.79 134.015 150.258 133.001C150.732 131.987 151.419 131.195 152.319 130.625C153.219 130.055 154.314 129.77 155.604 129.77C156.9 129.77 157.998 130.055 158.898 130.625C159.798 131.195 160.482 131.987 160.95 133.001C161.418 134.015 161.652 135.188 161.652 136.52C161.652 137.852 161.418 139.025 160.95 140.039C160.482 141.053 159.798 141.845 158.898 142.415C157.998 142.985 156.9 143.27 155.604 143.27ZM155.604 141.74C156.57 141.746 157.374 141.53 158.016 141.092C158.664 140.648 159.147 140.033 159.465 139.247C159.789 138.461 159.951 137.552 159.951 136.52C159.951 135.482 159.789 134.573 159.465 133.793C159.147 133.013 158.664 132.404 158.016 131.966C157.374 131.528 156.57 131.306 155.604 131.3C154.638 131.294 153.834 131.51 153.192 131.948C152.556 132.386 152.076 132.998 151.752 133.784C151.428 134.57 151.263 135.482 151.257 136.52C151.251 137.552 151.41 138.458 151.734 139.238C152.058 140.018 152.541 140.63 153.183 141.074C153.831 141.512 154.638 141.734 155.604 141.74ZM170.402 143V131.561H165.983V130.04H176.423V131.561H172.004V143H170.402ZM177.856 143V130.04H179.458V135.755H186.28V130.04H187.882V143H186.28V137.276H179.458V143H177.856ZM189.506 143L193.844 130.04H196.076L200.414 143H198.749L194.69 130.976H195.194L191.171 143H189.506ZM191.594 139.967V138.464H198.326V139.967H191.594ZM202.026 143V130.04H203.646L210.405 140.165V130.04H212.025V143H210.405L203.646 132.866V143H202.026ZM214.541 143V130.04H216.143V136.124L221.813 130.04H223.829L217.943 136.331L224.288 143H222.218L216.143 136.664V143H214.541ZM229.599 143.27C228.681 143.27 227.853 143.114 227.115 142.802C226.383 142.49 225.777 142.046 225.297 141.47C224.823 140.888 224.514 140.201 224.37 139.409L226.026 139.148C226.236 139.964 226.671 140.603 227.331 141.065C227.997 141.521 228.78 141.749 229.68 141.749C230.262 141.749 230.787 141.659 231.255 141.479C231.729 141.293 232.104 141.029 232.38 140.687C232.656 140.345 232.794 139.94 232.794 139.472C232.794 139.184 232.743 138.938 232.641 138.734C232.545 138.524 232.41 138.347 232.236 138.203C232.068 138.053 231.876 137.927 231.66 137.825C231.444 137.723 231.219 137.639 230.985 137.573L227.682 136.592C227.322 136.484 226.974 136.349 226.638 136.187C226.302 136.019 226.002 135.812 225.738 135.566C225.474 135.314 225.264 135.014 225.108 134.666C224.952 134.312 224.874 133.895 224.874 133.415C224.874 132.647 225.072 131.993 225.468 131.453C225.87 130.907 226.413 130.49 227.097 130.202C227.781 129.914 228.552 129.773 229.41 129.779C230.28 129.785 231.057 129.941 231.741 130.247C232.431 130.547 233.001 130.979 233.451 131.543C233.907 132.107 234.213 132.782 234.369 133.568L232.668 133.865C232.578 133.337 232.377 132.884 232.065 132.506C231.759 132.122 231.375 131.828 230.913 131.624C230.451 131.414 229.944 131.306 229.392 131.3C228.864 131.294 228.387 131.378 227.961 131.552C227.535 131.726 227.196 131.969 226.944 132.281C226.692 132.587 226.566 132.941 226.566 133.343C226.566 133.739 226.68 134.06 226.908 134.306C227.136 134.546 227.415 134.738 227.745 134.882C228.081 135.02 228.408 135.134 228.726 135.224L231.192 135.935C231.474 136.013 231.798 136.121 232.164 136.259C232.536 136.397 232.896 136.592 233.244 136.844C233.592 137.09 233.88 137.42 234.108 137.834C234.336 138.242 234.45 138.758 234.45 139.382C234.45 140.006 234.324 140.561 234.072 141.047C233.826 141.533 233.481 141.941 233.037 142.271C232.593 142.595 232.077 142.841 231.489 143.009C230.901 143.183 230.271 143.27 229.599 143.27ZM235.701 145.016L235.8 144.269C236.052 144.287 236.241 144.239 236.367 144.125C236.493 144.011 236.574 143.855 236.61 143.657C236.646 143.459 236.652 143.24 236.628 143H235.701V140.966H237.465V143.27C237.465 143.9 237.309 144.374 236.997 144.692C236.691 145.01 236.259 145.118 235.701 145.016ZM244.674 143V130.04H246.276V143H244.674ZM252.58 143V130.04H256.576C256.708 130.04 256.939 130.043 257.269 130.049C257.599 130.055 257.914 130.079 258.214 130.121C259.216 130.253 260.053 130.619 260.725 131.219C261.403 131.813 261.913 132.569 262.255 133.487C262.597 134.405 262.768 135.416 262.768 136.52C262.768 137.624 262.597 138.635 262.255 139.553C261.913 140.471 261.403 141.23 260.725 141.83C260.053 142.424 259.216 142.787 258.214 142.919C257.914 142.955 257.596 142.979 257.26 142.991C256.93 142.997 256.702 143 256.576 143H252.58ZM254.227 141.47H256.576C256.804 141.47 257.059 141.464 257.341 141.452C257.623 141.434 257.869 141.407 258.079 141.371C258.787 141.239 259.36 140.942 259.798 140.48C260.236 140.018 260.557 139.442 260.761 138.752C260.965 138.062 261.067 137.318 261.067 136.52C261.067 135.704 260.962 134.951 260.752 134.261C260.548 133.571 260.227 132.998 259.789 132.542C259.351 132.086 258.781 131.795 258.079 131.669C257.869 131.627 257.62 131.6 257.332 131.588C257.044 131.576 256.792 131.57 256.576 131.57H254.227V141.47ZM270.16 143.27C268.87 143.27 267.775 142.985 266.875 142.415C265.975 141.845 265.288 141.053 264.814 140.039C264.346 139.025 264.112 137.852 264.112 136.52C264.112 135.188 264.346 134.015 264.814 133.001C265.288 131.987 265.975 131.195 266.875 130.625C267.775 130.055 268.87 129.77 270.16 129.77C271.456 129.77 272.554 130.055 273.454 130.625C274.354 131.195 275.038 131.987 275.506 133.001C275.974 134.015 276.208 135.188 276.208 136.52C276.208 137.852 275.974 139.025 275.506 140.039C275.038 141.053 274.354 141.845 273.454 142.415C272.554 142.985 271.456 143.27 270.16 143.27ZM270.16 141.74C271.126 141.746 271.93 141.53 272.572 141.092C273.22 140.648 273.703 140.033 274.021 139.247C274.345 138.461 274.507 137.552 274.507 136.52C274.507 135.482 274.345 134.573 274.021 133.793C273.703 133.013 273.22 132.404 272.572 131.966C271.93 131.528 271.126 131.306 270.16 131.3C269.194 131.294 268.39 131.51 267.748 131.948C267.112 132.386 266.632 132.998 266.308 133.784C265.984 134.57 265.819 135.482 265.813 136.52C265.807 137.552 265.966 138.458 266.29 139.238C266.614 140.018 267.097 140.63 267.739 141.074C268.387 141.512 269.194 141.734 270.16 141.74ZM278.016 143V130.04H279.636L286.395 140.165V130.04H288.015V143H286.395L279.636 132.866V143H278.016ZM290.621 134.09L290.72 133.343C290.972 133.361 291.161 133.313 291.287 133.199C291.413 133.085 291.494 132.929 291.53 132.731C291.566 132.533 291.572 132.314 291.548 132.074H290.621V130.04H292.385V132.344C292.385 132.974 292.229 133.448 291.917 133.766C291.611 134.084 291.179 134.192 290.621 134.09ZM298.23 143V131.561H293.811V130.04H304.251V131.561H299.832V143H298.23ZM311.505 143L307.752 130.04H309.426L312.306 140.291L315.177 130.049L316.86 130.04L319.74 140.291L322.611 130.04H324.294L320.541 143H318.939L316.023 132.839L313.107 143H311.505ZM323.663 143L328.001 130.04H330.233L334.571 143H332.906L328.847 130.976H329.351L325.328 143H323.663ZM325.751 139.967V138.464H332.483V139.967H325.751ZM336.182 143V130.04H337.802L344.561 140.165V130.04H346.181V143H344.561L337.802 132.866V143H336.182ZM352.037 143V131.561H347.618V130.04H358.058V131.561H353.639V143H352.037ZM365.888 143V131.561H361.469V130.04H371.909V131.561H367.49V143H365.888ZM373.342 143V130.04H374.944V135.755H381.766V130.04H383.368V143H381.766V137.276H374.944V143H373.342ZM386.073 143V130.04H387.675V143H386.073ZM394.974 143.27C394.056 143.27 393.228 143.114 392.49 142.802C391.758 142.49 391.152 142.046 390.672 141.47C390.198 140.888 389.889 140.201 389.745 139.409L391.401 139.148C391.611 139.964 392.046 140.603 392.706 141.065C393.372 141.521 394.155 141.749 395.055 141.749C395.637 141.749 396.162 141.659 396.63 141.479C397.104 141.293 397.479 141.029 397.755 140.687C398.031 140.345 398.169 139.94 398.169 139.472C398.169 139.184 398.118 138.938 398.016 138.734C397.92 138.524 397.785 138.347 397.611 138.203C397.443 138.053 397.251 137.927 397.035 137.825C396.819 137.723 396.594 137.639 396.36 137.573L393.057 136.592C392.697 136.484 392.349 136.349 392.013 136.187C391.677 136.019 391.377 135.812 391.113 135.566C390.849 135.314 390.639 135.014 390.483 134.666C390.327 134.312 390.249 133.895 390.249 133.415C390.249 132.647 390.447 131.993 390.843 131.453C391.245 130.907 391.788 130.49 392.472 130.202C393.156 129.914 393.927 129.773 394.785 129.779C395.655 129.785 396.432 129.941 397.116 130.247C397.806 130.547 398.376 130.979 398.826 131.543C399.282 132.107 399.588 132.782 399.744 133.568L398.043 133.865C397.953 133.337 397.752 132.884 397.44 132.506C397.134 132.122 396.75 131.828 396.288 131.624C395.826 131.414 395.319 131.306 394.767 131.3C394.239 131.294 393.762 131.378 393.336 131.552C392.91 131.726 392.571 131.969 392.319 132.281C392.067 132.587 391.941 132.941 391.941 133.343C391.941 133.739 392.055 134.06 392.283 134.306C392.511 134.546 392.79 134.738 393.12 134.882C393.456 135.02 393.783 135.134 394.101 135.224L396.567 135.935C396.849 136.013 397.173 136.121 397.539 136.259C397.911 136.397 398.271 136.592 398.619 136.844C398.967 137.09 399.255 137.42 399.483 137.834C399.711 138.242 399.825 138.758 399.825 139.382C399.825 140.006 399.699 140.561 399.447 141.047C399.201 141.533 398.856 141.941 398.412 142.271C397.968 142.595 397.452 142.841 396.864 143.009C396.276 143.183 395.646 143.27 394.974 143.27ZM401.544 143V141.236H403.308V143H401.544Z" fill="#F82C2C"></path><path d="M136.5 144.125H404.856V144.575H136.5V144.125Z" fill="#F82C2C"></path><defs><clipPath id="clip0_1_127"><rect width="12" height="12" fill="white" transform="translate(122 81.5)"></rect></clipPath><clipPath id="clip1_1_127"><rect width="24" height="14" fill="white" transform="translate(348 80.5)"></rect></clipPath><clipPath id="clip2_1_127"><rect width="24" height="14" fill="white" transform="translate(374 80.5)"></rect></clipPath><clipPath id="clip3_1_127"><rect width="24" height="14" fill="white" transform="translate(400 80.5)"></rect></clipPath><clipPath id="clip4_1_127"><rect width="24" height="14" fill="white" transform="translate(426 80.5)"></rect></clipPath><clipPath id="clip5_1_127"><rect width="24" height="14" fill="white" transform="translate(452 80.5)"></rect></clipPath><clipPath id="clip6_1_127"><rect width="24" height="14" fill="white" transform="translate(478 80.5)"></rect></clipPath><clipPath id="clip7_1_127"><rect width="24" height="14" fill="white" transform="translate(504 80.5)"></rect></clipPath></defs></svg>