<svg xmlns="http://www.w3.org/2000/svg" width="542" height="56" viewBox="0 0 542 56" fill="none"><rect width="542" height="56" rx="10" fill="#EDF3FD"></rect><circle cx="32" cy="28" r="16" fill="#2C7EF8"></circle><mask id="mask0_1_119" style="mask-type:alpha" maskUnits="userSpaceOnUse" x="22" y="18" width="20" height="20"><rect x="22.4" y="18.4" width="19.2" height="19.2" fill="#D9D9D9"></rect></mask><g mask="url(#mask0_1_119)"><path d="M28.4001 27.2001C27.6268 27.2001 26.9668 26.9268 26.4201 26.3801C25.8734 25.8334 25.6001 25.1734 25.6001 24.4001C25.6001 23.6268 25.8734 22.9668 26.4201 22.4201C26.9668 21.8734 27.6268 21.6001 28.4001 21.6001C29.1734 21.6001 29.8334 21.8734 30.3801 22.4201C30.9268 22.9668 31.2001 23.6268 31.2001 24.4001C31.2001 25.1734 30.9268 25.8334 30.3801 26.3801C29.8334 26.9268 29.1734 27.2001 28.4001 27.2001ZM28.4001 25.6001C28.7334 25.6001 29.0168 25.4834 29.2501 25.2501C29.4834 25.0168 29.6001 24.7334 29.6001 24.4001C29.6001 24.0668 29.4834 23.7834 29.2501 23.5501C29.0168 23.3168 28.7334 23.2001 28.4001 23.2001C28.0668 23.2001 27.7834 23.3168 27.5501 23.5501C27.3168 23.7834 27.2001 24.0668 27.2001 24.4001C27.2001 24.7334 27.3168 25.0168 27.5501 25.2501C27.7834 25.4834 28.0668 25.6001 28.4001 25.6001ZM35.6001 34.4001C34.8268 34.4001 34.1668 34.1268 33.6201 33.5801C33.0734 33.0334 32.8001 32.3734 32.8001 31.6001C32.8001 30.8268 33.0734 30.1668 33.6201 29.6201C34.1668 29.0734 34.8268 28.8001 35.6001 28.8001C36.3734 28.8001 37.0334 29.0734 37.5801 29.6201C38.1268 30.1668 38.4001 30.8268 38.4001 31.6001C38.4001 32.3734 38.1268 33.0334 37.5801 33.5801C37.0334 34.1268 36.3734 34.4001 35.6001 34.4001ZM35.6001 32.8001C35.9334 32.8001 36.2168 32.6834 36.4501 32.4501C36.6834 32.2168 36.8001 31.9334 36.8001 31.6001C36.8001 31.2668 36.6834 30.9834 36.4501 30.7501C36.2168 30.5168 35.9334 30.4001 35.6001 30.4001C35.2668 30.4001 34.9834 30.5168 34.7501 30.7501C34.5168 30.9834 34.4001 31.2668 34.4001 31.6001C34.4001 31.9334 34.5168 32.2168 34.7501 32.4501C34.9834 32.6834 35.2668 32.8001 35.6001 32.8001ZM26.1601 33.8401C26.0134 33.6934 25.9401 33.5068 25.9401 33.2801C25.9401 33.0534 26.0134 32.8668 26.1601 32.7201L36.7201 22.1601C36.8668 22.0134 37.0534 21.9401 37.2801 21.9401C37.5068 21.9401 37.6934 22.0134 37.8401 22.1601C37.9868 22.3068 38.0601 22.4934 38.0601 22.7201C38.0601 22.9468 37.9868 23.1334 37.8401 23.2801L27.2801 33.8401C27.1334 33.9868 26.9468 34.0601 26.7201 34.0601C26.4934 34.0601 26.3068 33.9868 26.1601 33.8401Z" fill="white"></path></g><path d="M69.12 34.24C68.3147 34.24 67.5893 34.1067 66.944 33.84C66.304 33.568 65.7733 33.184 65.352 32.688C64.936 32.192 64.664 31.6027 64.536 30.92L65.736 30.72C65.928 31.4667 66.3333 32.0533 66.952 32.48C67.5707 32.9013 68.3093 33.112 69.168 33.112C69.7333 33.112 70.24 33.024 70.688 32.848C71.136 32.6667 71.488 32.4107 71.744 32.08C72 31.7493 72.128 31.3573 72.128 30.904C72.128 30.6053 72.0747 30.352 71.968 30.144C71.8613 29.9307 71.72 29.7547 71.544 29.616C71.368 29.4773 71.176 29.3627 70.968 29.272C70.76 29.176 70.5573 29.0987 70.36 29.04L67.44 28.168C67.088 28.0667 66.7627 27.9387 66.464 27.784C66.1653 27.624 65.904 27.4347 65.68 27.216C65.4613 26.992 65.2907 26.7307 65.168 26.432C65.0453 26.1333 64.984 25.792 64.984 25.408C64.984 24.7573 65.1547 24.1947 65.496 23.72C65.8373 23.2453 66.304 22.88 66.896 22.624C67.488 22.368 68.1627 22.2427 68.92 22.248C69.688 22.248 70.3733 22.384 70.976 22.656C71.584 22.928 72.0853 23.3173 72.48 23.824C72.8747 24.3253 73.136 24.92 73.264 25.608L72.032 25.832C71.952 25.3307 71.768 24.896 71.48 24.528C71.192 24.16 70.824 23.8773 70.376 23.68C69.9333 23.4773 69.4453 23.3733 68.912 23.368C68.3947 23.368 67.9333 23.456 67.528 23.632C67.128 23.8027 66.8107 24.0373 66.576 24.336C66.3413 24.6347 66.224 24.976 66.224 25.36C66.224 25.7493 66.3307 26.0613 66.544 26.296C66.7627 26.5307 67.0293 26.7147 67.344 26.848C67.664 26.9813 67.9733 27.0907 68.272 27.176L70.528 27.84C70.7627 27.904 71.0373 27.9973 71.352 28.12C71.672 28.2373 71.9813 28.408 72.28 28.632C72.584 28.8507 72.8347 29.1387 73.032 29.496C73.2293 29.8533 73.328 30.3067 73.328 30.856C73.328 31.3893 73.2213 31.8667 73.008 32.288C72.8 32.7093 72.504 33.064 72.12 33.352C71.7413 33.64 71.296 33.8587 70.784 34.008C70.2773 34.1627 69.7227 34.24 69.12 34.24ZM77.4514 34.24C76.8007 34.24 76.254 34.1227 75.8114 33.888C75.374 33.6533 75.046 33.3413 74.8274 32.952C74.6087 32.5627 74.4994 32.1387 74.4994 31.68C74.4994 31.2107 74.5927 30.8107 74.7794 30.48C74.9714 30.144 75.23 29.8693 75.5554 29.656C75.886 29.4427 76.2674 29.28 76.6994 29.168C77.1367 29.0613 77.6194 28.968 78.1474 28.888C78.6807 28.8027 79.2007 28.7307 79.7074 28.672C80.2194 28.608 80.6674 28.5467 81.0514 28.488L80.6354 28.744C80.6514 27.8907 80.486 27.2587 80.1394 26.848C79.7927 26.4373 79.19 26.232 78.3314 26.232C77.7394 26.232 77.238 26.3653 76.8274 26.632C76.422 26.8987 76.1367 27.32 75.9714 27.896L74.8274 27.56C75.0247 26.7867 75.422 26.1867 76.0194 25.76C76.6167 25.3333 77.3927 25.12 78.3474 25.12C79.1367 25.12 79.806 25.2693 80.3554 25.568C80.91 25.8613 81.302 26.288 81.5314 26.848C81.638 27.0987 81.7074 27.3787 81.7394 27.688C81.7714 27.9973 81.7874 28.312 81.7874 28.632V34H80.7394V31.832L81.0434 31.96C80.75 32.7013 80.294 33.2667 79.6754 33.656C79.0567 34.0453 78.3154 34.24 77.4514 34.24ZM77.5874 33.224C78.1367 33.224 78.6167 33.1253 79.0274 32.928C79.438 32.7307 79.7687 32.4613 80.0194 32.12C80.27 31.7733 80.4327 31.384 80.5074 30.952C80.5714 30.6747 80.606 30.3707 80.6114 30.04C80.6167 29.704 80.6194 29.4533 80.6194 29.288L81.0674 29.52C80.6674 29.5733 80.2327 29.6267 79.7634 29.68C79.2994 29.7333 78.8407 29.7947 78.3874 29.864C77.9394 29.9333 77.534 30.016 77.1714 30.112C76.926 30.1813 76.6887 30.28 76.4594 30.408C76.23 30.5307 76.0407 30.696 75.8914 30.904C75.7474 31.112 75.6754 31.3707 75.6754 31.68C75.6754 31.9307 75.7367 32.1733 75.8594 32.408C75.9874 32.6427 76.19 32.8373 76.4674 32.992C76.75 33.1467 77.1234 33.224 77.5874 33.224ZM85.8935 34L82.7575 25.36H83.9495L86.5015 32.464L89.0375 25.36H90.2455L87.1095 34H85.8935ZM95.026 34.24C94.1833 34.24 93.4527 34.0533 92.834 33.68C92.2207 33.3067 91.7433 32.7813 91.402 32.104C91.0607 31.4267 90.89 30.632 90.89 29.72C90.89 28.776 91.058 27.96 91.394 27.272C91.73 26.584 92.202 26.0533 92.81 25.68C93.4233 25.3067 94.146 25.12 94.978 25.12C95.8313 25.12 96.5593 25.3173 97.162 25.712C97.7647 26.1013 98.2207 26.6613 98.53 27.392C98.8393 28.1227 98.9807 28.9947 98.954 30.008H97.754V29.592C97.7327 28.472 97.49 27.6267 97.026 27.056C96.5673 26.4853 95.8953 26.2 95.01 26.2C94.082 26.2 93.37 26.5013 92.874 27.104C92.3833 27.7067 92.138 28.5653 92.138 29.68C92.138 30.768 92.3833 31.6133 92.874 32.216C93.37 32.8133 94.0713 33.112 94.978 33.112C95.5967 33.112 96.1353 32.9707 96.594 32.688C97.058 32.4 97.4233 31.9867 97.69 31.448L98.786 31.872C98.4447 32.624 97.9407 33.208 97.274 33.624C96.6127 34.0347 95.8633 34.24 95.026 34.24ZM91.722 30.008V29.024H98.322V30.008H91.722ZM142.108 34.24C141.457 34.24 140.91 34.1227 140.468 33.888C140.03 33.6533 139.702 33.3413 139.484 32.952C139.265 32.5627 139.156 32.1387 139.156 31.68C139.156 31.2107 139.249 30.8107 139.436 30.48C139.628 30.144 139.886 29.8693 140.212 29.656C140.542 29.4427 140.924 29.28 141.356 29.168C141.793 29.0613 142.276 28.968 142.804 28.888C143.337 28.8027 143.857 28.7307 144.364 28.672C144.876 28.608 145.324 28.5467 145.708 28.488L145.292 28.744C145.308 27.8907 145.142 27.2587 144.796 26.848C144.449 26.4373 143.846 26.232 142.988 26.232C142.396 26.232 141.894 26.3653 141.484 26.632C141.078 26.8987 140.793 27.32 140.628 27.896L139.484 27.56C139.681 26.7867 140.078 26.1867 140.676 25.76C141.273 25.3333 142.049 25.12 143.004 25.12C143.793 25.12 144.462 25.2693 145.012 25.568C145.566 25.8613 145.958 26.288 146.188 26.848C146.294 27.0987 146.364 27.3787 146.396 27.688C146.428 27.9973 146.444 28.312 146.444 28.632V34H145.396V31.832L145.7 31.96C145.406 32.7013 144.95 33.2667 144.332 33.656C143.713 34.0453 142.972 34.24 142.108 34.24ZM142.244 33.224C142.793 33.224 143.273 33.1253 143.684 32.928C144.094 32.7307 144.425 32.4613 144.676 32.12C144.926 31.7733 145.089 31.384 145.164 30.952C145.228 30.6747 145.262 30.3707 145.268 30.04C145.273 29.704 145.276 29.4533 145.276 29.288L145.724 29.52C145.324 29.5733 144.889 29.6267 144.42 29.68C143.956 29.7333 143.497 29.7947 143.044 29.864C142.596 29.9333 142.19 30.016 141.828 30.112C141.582 30.1813 141.345 30.28 141.116 30.408C140.886 30.5307 140.697 30.696 140.548 30.904C140.404 31.112 140.332 31.3707 140.332 31.68C140.332 31.9307 140.393 32.1733 140.516 32.408C140.644 32.6427 140.846 32.8373 141.124 32.992C141.406 33.1467 141.78 33.224 142.244 33.224ZM154.766 34V29.592C154.766 29.112 154.721 28.672 154.63 28.272C154.54 27.8667 154.393 27.5147 154.19 27.216C153.993 26.912 153.734 26.6773 153.414 26.512C153.1 26.3467 152.716 26.264 152.262 26.264C151.846 26.264 151.478 26.336 151.158 26.48C150.844 26.624 150.577 26.832 150.358 27.104C150.145 27.3707 149.982 27.696 149.87 28.08C149.758 28.464 149.702 28.9013 149.702 29.392L148.87 29.208C148.87 28.3227 149.025 27.5787 149.334 26.976C149.644 26.3733 150.07 25.9173 150.614 25.608C151.158 25.2987 151.782 25.144 152.486 25.144C153.004 25.144 153.454 25.224 153.838 25.384C154.228 25.544 154.556 25.76 154.822 26.032C155.094 26.304 155.313 26.616 155.478 26.968C155.644 27.3147 155.764 27.6853 155.838 28.08C155.913 28.4693 155.95 28.8587 155.95 29.248V34H154.766ZM148.518 34V25.36H149.582V27.488H149.702V34H148.518ZM161.331 34.24C160.526 34.24 159.838 34.04 159.267 33.64C158.697 33.2347 158.259 32.688 157.955 32C157.651 31.312 157.499 30.536 157.499 29.672C157.499 28.8133 157.649 28.04 157.947 27.352C158.251 26.664 158.686 26.12 159.251 25.72C159.817 25.32 160.494 25.12 161.283 25.12C162.094 25.12 162.777 25.3173 163.331 25.712C163.886 26.1067 164.305 26.648 164.587 27.336C164.875 28.0187 165.019 28.7973 165.019 29.672C165.019 30.5307 164.878 31.3067 164.595 32C164.313 32.688 163.897 33.2347 163.347 33.64C162.798 34.04 162.126 34.24 161.331 34.24ZM161.451 33.144C162.065 33.144 162.571 32.9947 162.971 32.696C163.371 32.3973 163.67 31.9867 163.867 31.464C164.065 30.936 164.163 30.3387 164.163 29.672C164.163 28.9947 164.065 28.3973 163.867 27.88C163.67 27.3573 163.371 26.9493 162.971 26.656C162.577 26.3627 162.078 26.216 161.475 26.216C160.857 26.216 160.345 26.368 159.939 26.672C159.534 26.976 159.233 27.3893 159.035 27.912C158.843 28.4347 158.747 29.0213 158.747 29.672C158.747 30.328 158.846 30.92 159.043 31.448C159.246 31.9707 159.547 32.384 159.947 32.688C160.347 32.992 160.849 33.144 161.451 33.144ZM164.163 34V27.496H164.035V22.48H165.219V34H164.163ZM174.099 38.08C173.656 38.08 173.219 38.0133 172.787 37.88C172.36 37.752 171.966 37.5467 171.603 37.264C171.24 36.9867 170.936 36.624 170.691 36.176L171.755 35.584C171.995 36.064 172.331 36.408 172.763 36.616C173.2 36.8293 173.646 36.936 174.099 36.936C174.723 36.936 175.227 36.8187 175.611 36.584C176 36.3547 176.283 36.0133 176.459 35.56C176.635 35.1067 176.72 34.5413 176.715 33.864V31.56H176.851V25.36H177.899V33.88C177.899 34.1253 177.891 34.36 177.875 34.584C177.864 34.8133 177.84 35.0373 177.803 35.256C177.702 35.9013 177.491 36.432 177.171 36.848C176.856 37.264 176.44 37.5733 175.923 37.776C175.411 37.9787 174.803 38.08 174.099 38.08ZM174.019 34.24C173.214 34.24 172.526 34.04 171.955 33.64C171.384 33.2347 170.947 32.688 170.643 32C170.339 31.312 170.187 30.536 170.187 29.672C170.187 28.8133 170.336 28.04 170.635 27.352C170.939 26.664 171.374 26.12 171.939 25.72C172.504 25.32 173.182 25.12 173.971 25.12C174.782 25.12 175.464 25.3173 176.019 25.712C176.574 26.1067 176.992 26.648 177.275 27.336C177.563 28.0187 177.707 28.7973 177.707 29.672C177.707 30.5307 177.566 31.3067 177.283 32C177 32.688 176.584 33.2347 176.035 33.64C175.486 34.04 174.814 34.24 174.019 34.24ZM174.139 33.144C174.752 33.144 175.259 32.9947 175.659 32.696C176.059 32.3973 176.358 31.9867 176.555 31.464C176.752 30.936 176.851 30.3387 176.851 29.672C176.851 28.9947 176.752 28.3973 176.555 27.88C176.358 27.3573 176.059 26.9493 175.659 26.656C175.264 26.3627 174.766 26.216 174.163 26.216C173.544 26.216 173.032 26.368 172.627 26.672C172.222 26.976 171.92 27.3893 171.723 27.912C171.531 28.4347 171.435 29.0213 171.435 29.672C171.435 30.328 171.534 30.92 171.731 31.448C171.934 31.9707 172.235 32.384 172.635 32.688C173.035 32.992 173.536 33.144 174.139 33.144ZM183.792 34.24C182.949 34.24 182.218 34.0533 181.6 33.68C180.986 33.3067 180.509 32.7813 180.168 32.104C179.826 31.4267 179.656 30.632 179.656 29.72C179.656 28.776 179.824 27.96 180.16 27.272C180.496 26.584 180.968 26.0533 181.576 25.68C182.189 25.3067 182.912 25.12 183.744 25.12C184.597 25.12 185.325 25.3173 185.928 25.712C186.53 26.1013 186.986 26.6613 187.296 27.392C187.605 28.1227 187.746 28.9947 187.72 30.008H186.52V29.592C186.498 28.472 186.256 27.6267 185.792 27.056C185.333 26.4853 184.661 26.2 183.776 26.2C182.848 26.2 182.136 26.5013 181.64 27.104C181.149 27.7067 180.904 28.5653 180.904 29.68C180.904 30.768 181.149 31.6133 181.64 32.216C182.136 32.8133 182.837 33.112 183.744 33.112C184.362 33.112 184.901 32.9707 185.36 32.688C185.824 32.4 186.189 31.9867 186.456 31.448L187.552 31.872C187.21 32.624 186.706 33.208 186.04 33.624C185.378 34.0347 184.629 34.24 183.792 34.24ZM180.488 30.008V29.024H187.088V30.008H180.488ZM194.199 34C193.714 34.1013 193.234 34.1413 192.759 34.12C192.29 34.0987 191.868 33.9973 191.495 33.816C191.127 33.6347 190.847 33.352 190.655 32.968C190.5 32.648 190.415 32.3253 190.399 32C190.388 31.6693 190.383 31.2933 190.383 30.872V22.96H191.551V30.824C191.551 31.1867 191.554 31.4907 191.559 31.736C191.57 31.976 191.626 32.1893 191.727 32.376C191.919 32.7333 192.223 32.9467 192.639 33.016C193.06 33.0853 193.58 33.0693 194.199 32.968V34ZM188.535 26.368V25.36H194.199V26.368H188.535ZM332.039 34V24.72C332.039 24.496 332.049 24.2747 332.071 24.056C332.097 23.8373 332.148 23.6293 332.223 23.432C332.297 23.2293 332.415 23.0427 332.575 22.872C332.751 22.68 332.943 22.5413 333.151 22.456C333.359 22.3653 333.575 22.3067 333.799 22.28C334.028 22.2533 334.252 22.24 334.47 22.24H335.575V23.232H334.551C334.103 23.232 333.767 23.3413 333.543 23.56C333.324 23.7787 333.215 24.1227 333.215 24.592V34H332.039ZM330.543 26.368V25.36H335.575V26.368H330.543ZM340.15 34.24C339.291 34.24 338.558 34.0453 337.95 33.656C337.342 33.2667 336.875 32.728 336.55 32.04C336.225 31.352 336.062 30.5627 336.062 29.672C336.062 28.7653 336.227 27.9707 336.558 27.288C336.889 26.6053 337.358 26.0747 337.966 25.696C338.579 25.312 339.307 25.12 340.15 25.12C341.014 25.12 341.75 25.3147 342.358 25.704C342.971 26.088 343.438 26.624 343.758 27.312C344.083 27.9947 344.246 28.7813 344.246 29.672C344.246 30.5787 344.083 31.376 343.758 32.064C343.433 32.7467 342.963 33.28 342.35 33.664C341.737 34.048 341.003 34.24 340.15 34.24ZM340.15 33.112C341.11 33.112 341.825 32.7947 342.294 32.16C342.763 31.52 342.998 30.6907 342.998 29.672C342.998 28.6267 342.761 27.7947 342.286 27.176C341.817 26.5573 341.105 26.248 340.15 26.248C339.505 26.248 338.971 26.3947 338.55 26.688C338.134 26.976 337.822 27.3787 337.614 27.896C337.411 28.408 337.31 29 337.31 29.672C337.31 30.712 337.55 31.5467 338.03 32.176C338.51 32.8 339.217 33.112 340.15 33.112ZM346.011 34V25.36H347.067V27.44L346.859 27.168C346.955 26.912 347.08 26.6773 347.235 26.464C347.389 26.2453 347.557 26.0667 347.739 25.928C347.963 25.7307 348.224 25.5813 348.523 25.48C348.821 25.3733 349.123 25.312 349.427 25.296C349.731 25.2747 350.008 25.296 350.259 25.36V26.464C349.944 26.384 349.6 26.3653 349.227 26.408C348.853 26.4507 348.509 26.6 348.195 26.856C347.907 27.08 347.691 27.3493 347.547 27.664C347.403 27.9733 347.307 28.304 347.259 28.656C347.211 29.0027 347.187 29.3467 347.187 29.688V34H346.011ZM358.587 34.24C357.729 34.24 356.995 34.0453 356.387 33.656C355.779 33.2667 355.313 32.728 354.987 32.04C354.662 31.352 354.499 30.5627 354.499 29.672C354.499 28.7653 354.665 27.9707 354.995 27.288C355.326 26.6053 355.795 26.0747 356.403 25.696C357.017 25.312 357.745 25.12 358.587 25.12C359.451 25.12 360.187 25.3147 360.795 25.704C361.409 26.088 361.875 26.624 362.195 27.312C362.521 27.9947 362.683 28.7813 362.683 29.672C362.683 30.5787 362.521 31.376 362.195 32.064C361.87 32.7467 361.401 33.28 360.787 33.664C360.174 34.048 359.441 34.24 358.587 34.24ZM358.587 33.112C359.547 33.112 360.262 32.7947 360.731 32.16C361.201 31.52 361.435 30.6907 361.435 29.672C361.435 28.6267 361.198 27.7947 360.723 27.176C360.254 26.5573 359.542 26.248 358.587 26.248C357.942 26.248 357.409 26.3947 356.987 26.688C356.571 26.976 356.259 27.3787 356.051 27.896C355.849 28.408 355.747 29 355.747 29.672C355.747 30.712 355.987 31.5467 356.467 32.176C356.947 32.8 357.654 33.112 358.587 33.112ZM370.688 34V29.592C370.688 29.112 370.643 28.672 370.552 28.272C370.461 27.8667 370.315 27.5147 370.112 27.216C369.915 26.912 369.656 26.6773 369.336 26.512C369.021 26.3467 368.637 26.264 368.184 26.264C367.768 26.264 367.4 26.336 367.08 26.48C366.765 26.624 366.499 26.832 366.28 27.104C366.067 27.3707 365.904 27.696 365.792 28.08C365.68 28.464 365.624 28.9013 365.624 29.392L364.792 29.208C364.792 28.3227 364.947 27.5787 365.256 26.976C365.565 26.3733 365.992 25.9173 366.536 25.608C367.08 25.2987 367.704 25.144 368.408 25.144C368.925 25.144 369.376 25.224 369.76 25.384C370.149 25.544 370.477 25.76 370.744 26.032C371.016 26.304 371.235 26.616 371.4 26.968C371.565 27.3147 371.685 27.6853 371.76 28.08C371.835 28.4693 371.872 28.8587 371.872 29.248V34H370.688ZM364.44 34V25.36H365.504V27.488H365.624V34H364.44ZM374.108 34V22.24H375.284V34H374.108ZM378.914 37.84L380.587 33.304L380.611 34.648L376.826 25.36H378.075L381.179 33.128H380.667L383.531 25.36H384.731L380.091 37.84H378.914ZM454.219 34V32.632H455.587V34H454.219Z" fill="black"></path><path d="M107.332 34.24C106.735 34.24 106.183 34.1173 105.677 33.872C105.17 33.6267 104.738 33.288 104.381 32.856C104.023 32.424 103.767 31.928 103.613 31.368L104.741 31.064C104.842 31.48 105.026 31.84 105.293 32.144C105.559 32.4427 105.871 32.6747 106.229 32.84C106.591 33.0053 106.97 33.088 107.365 33.088C107.877 33.088 108.335 32.9653 108.741 32.72C109.151 32.4693 109.477 32.1387 109.717 31.728C109.957 31.3173 110.077 30.8667 110.077 30.376C110.077 29.8693 109.951 29.4133 109.701 29.008C109.45 28.5973 109.119 28.272 108.709 28.032C108.298 27.792 107.85 27.672 107.365 27.672C106.821 27.672 106.351 27.792 105.957 28.032C105.562 28.2667 105.247 28.5627 105.013 28.92L103.941 28.472L104.293 22.48H110.445V23.608H104.812L105.397 23.056L105.085 28.168L104.789 27.776C105.119 27.3973 105.519 27.1013 105.989 26.888C106.458 26.6747 106.951 26.568 107.469 26.568C108.178 26.568 108.818 26.7387 109.389 27.08C109.959 27.416 110.413 27.872 110.749 28.448C111.085 29.024 111.253 29.6667 111.253 30.376C111.253 31.08 111.074 31.7253 110.717 32.312C110.359 32.8933 109.885 33.36 109.293 33.712C108.701 34.064 108.047 34.24 107.332 34.24ZM116.263 34.232C115.692 34.232 115.167 34.1307 114.687 33.928C114.207 33.7253 113.794 33.4373 113.447 33.064C113.1 32.6853 112.847 32.2347 112.687 31.712L113.807 31.376C113.999 31.9467 114.314 32.3787 114.751 32.672C115.194 32.9653 115.692 33.1067 116.247 33.096C116.759 33.0853 117.199 32.9707 117.567 32.752C117.94 32.5333 118.226 32.2293 118.423 31.84C118.62 31.4507 118.719 31 118.719 30.488C118.719 29.704 118.49 29.0747 118.031 28.6C117.578 28.12 116.978 27.88 116.231 27.88C116.023 27.88 115.804 27.9093 115.575 27.968C115.346 28.0213 115.132 28.0987 114.935 28.2L114.343 27.264L118.823 23.128L119.015 23.608H113.143V22.48H119.799V23.624L115.895 27.352L115.879 26.888C116.679 26.7867 117.383 26.8773 117.991 27.16C118.599 27.4427 119.074 27.8747 119.415 28.456C119.762 29.032 119.935 29.7093 119.935 30.488C119.935 31.224 119.775 31.8747 119.455 32.44C119.14 33 118.706 33.44 118.151 33.76C117.596 34.0747 116.967 34.232 116.263 34.232ZM123.131 34L122.331 33.2L133.075 22.48L133.875 23.272L123.131 34ZM131.475 34.24C130.947 34.24 130.464 34.112 130.027 33.856C129.595 33.5947 129.248 33.248 128.987 32.816C128.725 32.3787 128.595 31.8933 128.595 31.36C128.595 30.8373 128.728 30.3573 128.995 29.92C129.261 29.4827 129.613 29.1333 130.051 28.872C130.488 28.6107 130.963 28.48 131.475 28.48C132.003 28.48 132.485 28.6107 132.923 28.872C133.36 29.128 133.707 29.4747 133.963 29.912C134.224 30.344 134.355 30.8267 134.355 31.36C134.355 31.8933 134.224 32.3787 133.963 32.816C133.707 33.248 133.36 33.5947 132.923 33.856C132.485 34.112 132.003 34.24 131.475 34.24ZM131.475 33.176C131.8 33.176 132.101 33.0933 132.379 32.928C132.656 32.7627 132.877 32.544 133.043 32.272C133.208 31.9947 133.291 31.6907 133.291 31.36C133.291 31.0293 133.208 30.728 133.043 30.456C132.877 30.1787 132.656 29.9573 132.379 29.792C132.101 29.6267 131.8 29.544 131.475 29.544C131.144 29.544 130.84 29.6267 130.563 29.792C130.291 29.9573 130.069 30.1787 129.899 30.456C129.733 30.728 129.651 31.0293 129.651 31.36C129.651 31.6907 129.733 31.9947 129.899 32.272C130.069 32.544 130.291 32.7627 130.563 32.928C130.84 33.0933 131.144 33.176 131.475 33.176ZM124.731 28C124.203 28 123.72 27.872 123.283 27.616C122.845 27.3547 122.496 27.008 122.235 26.576C121.979 26.1387 121.851 25.6533 121.851 25.12C121.851 24.5973 121.984 24.1173 122.251 23.68C122.517 23.2427 122.869 22.8933 123.307 22.632C123.744 22.3707 124.219 22.24 124.731 22.24C125.259 22.24 125.739 22.3707 126.171 22.632C126.608 22.888 126.957 23.2347 127.219 23.672C127.48 24.104 127.611 24.5867 127.611 25.12C127.611 25.6533 127.48 26.1387 127.219 26.576C126.957 27.008 126.608 27.3547 126.171 27.616C125.739 27.872 125.259 28 124.731 28ZM124.731 26.936C125.061 26.936 125.363 26.8533 125.635 26.688C125.912 26.5227 126.133 26.304 126.299 26.032C126.464 25.7547 126.547 25.4507 126.547 25.12C126.547 24.7893 126.464 24.488 126.299 24.216C126.133 23.9387 125.912 23.7173 125.635 23.552C125.363 23.3867 125.061 23.304 124.731 23.304C124.4 23.304 124.096 23.3867 123.819 23.552C123.547 23.7173 123.328 23.9387 123.163 24.216C122.997 24.488 122.915 24.7893 122.915 25.12C122.915 25.4507 122.997 25.7547 123.163 26.032C123.328 26.304 123.547 26.5227 123.819 26.688C124.096 26.8533 124.4 26.936 124.731 26.936ZM203 34.24C202.28 34.24 201.624 34.0667 201.032 33.72C200.446 33.368 199.976 32.8933 199.624 32.296C199.278 31.6933 199.104 31.016 199.104 30.264V26.272C199.104 25.4987 199.278 24.8107 199.624 24.208C199.971 23.6 200.443 23.1227 201.04 22.776C201.643 22.424 202.326 22.248 203.088 22.248C203.744 22.248 204.352 22.392 204.912 22.68C205.478 22.968 205.939 23.3707 206.296 23.888L205.392 24.632C205.147 24.248 204.822 23.9413 204.416 23.712C204.011 23.4827 203.568 23.368 203.088 23.368C202.55 23.368 202.07 23.4987 201.648 23.76C201.227 24.0213 200.896 24.3653 200.656 24.792C200.416 25.2133 200.296 25.672 200.296 26.168V28.68L200 28.344C200.336 27.816 200.776 27.3893 201.32 27.064C201.87 26.7387 202.467 26.576 203.112 26.576C203.827 26.576 204.47 26.7467 205.04 27.088C205.611 27.424 206.064 27.88 206.4 28.456C206.736 29.032 206.904 29.6773 206.904 30.392C206.904 31.1013 206.726 31.7467 206.368 32.328C206.016 32.9093 205.544 33.3733 204.952 33.72C204.366 34.0667 203.715 34.24 203 34.24ZM203 33.096C203.502 33.096 203.958 32.976 204.368 32.736C204.784 32.496 205.112 32.1707 205.352 31.76C205.598 31.3493 205.72 30.8933 205.72 30.392C205.72 29.8907 205.598 29.4347 205.352 29.024C205.112 28.608 204.787 28.28 204.376 28.04C203.966 27.7947 203.51 27.672 203.008 27.672C202.507 27.672 202.051 27.7947 201.64 28.04C201.23 28.28 200.902 28.608 200.656 29.024C200.416 29.4347 200.296 29.8907 200.296 30.392C200.296 30.888 200.416 31.3413 200.656 31.752C200.896 32.1627 201.222 32.4907 201.632 32.736C202.043 32.976 202.499 33.096 203 33.096ZM215.885 34.24C215.043 34.24 214.312 34.0533 213.693 33.68C213.08 33.3067 212.603 32.7813 212.261 32.104C211.92 31.4267 211.749 30.632 211.749 29.72C211.749 28.776 211.917 27.96 212.253 27.272C212.589 26.584 213.061 26.0533 213.669 25.68C214.283 25.3067 215.005 25.12 215.837 25.12C216.691 25.12 217.419 25.3173 218.021 25.712C218.624 26.1013 219.08 26.6613 219.389 27.392C219.699 28.1227 219.84 28.9947 219.813 30.008H218.613V29.592C218.592 28.472 218.349 27.6267 217.885 27.056C217.427 26.4853 216.755 26.2 215.869 26.2C214.941 26.2 214.229 26.5013 213.733 27.104C213.243 27.7067 212.997 28.5653 212.997 29.68C212.997 30.768 213.243 31.6133 213.733 32.216C214.229 32.8133 214.931 33.112 215.837 33.112C216.456 33.112 216.995 32.9707 217.453 32.688C217.917 32.4 218.283 31.9867 218.549 31.448L219.645 31.872C219.304 32.624 218.8 33.208 218.133 33.624C217.472 34.0347 216.723 34.24 215.885 34.24ZM212.581 30.008V29.024H219.181V30.008H212.581ZM220.316 34L223.692 29.632L220.388 25.36H221.796L224.38 28.728L226.94 25.36H228.348L225.044 29.632L228.428 34H227.012L224.38 30.536L221.732 34H220.316ZM234.418 34C233.932 34.1013 233.452 34.1413 232.978 34.12C232.508 34.0987 232.087 33.9973 231.714 33.816C231.346 33.6347 231.066 33.352 230.874 32.968C230.719 32.648 230.634 32.3253 230.618 32C230.607 31.6693 230.602 31.2933 230.602 30.872V22.96H231.77V30.824C231.77 31.1867 231.772 31.4907 231.778 31.736C231.788 31.976 231.844 32.1893 231.946 32.376C232.138 32.7333 232.442 32.9467 232.858 33.016C233.279 33.0853 233.799 33.0693 234.418 32.968V34ZM228.754 26.368V25.36H234.418V26.368H228.754ZM236.12 34V25.36H237.176V27.44L236.968 27.168C237.064 26.912 237.189 26.6773 237.344 26.464C237.499 26.2453 237.667 26.0667 237.848 25.928C238.072 25.7307 238.333 25.5813 238.632 25.48C238.931 25.3733 239.232 25.312 239.536 25.296C239.84 25.2747 240.117 25.296 240.368 25.36V26.464C240.053 26.384 239.709 26.3653 239.336 26.408C238.963 26.4507 238.619 26.6 238.304 26.856C238.016 27.08 237.8 27.3493 237.656 27.664C237.512 27.9733 237.416 28.304 237.368 28.656C237.32 29.0027 237.296 29.3467 237.296 29.688V34H236.12ZM244.03 34.24C243.379 34.24 242.832 34.1227 242.39 33.888C241.952 33.6533 241.624 33.3413 241.406 32.952C241.187 32.5627 241.078 32.1387 241.078 31.68C241.078 31.2107 241.171 30.8107 241.358 30.48C241.55 30.144 241.808 29.8693 242.134 29.656C242.464 29.4427 242.846 29.28 243.278 29.168C243.715 29.0613 244.198 28.968 244.726 28.888C245.259 28.8027 245.779 28.7307 246.286 28.672C246.798 28.608 247.246 28.5467 247.63 28.488L247.214 28.744C247.23 27.8907 247.064 27.2587 246.718 26.848C246.371 26.4373 245.768 26.232 244.91 26.232C244.318 26.232 243.816 26.3653 243.406 26.632C243 26.8987 242.715 27.32 242.549 27.896L241.406 27.56C241.603 26.7867 242 26.1867 242.598 25.76C243.195 25.3333 243.971 25.12 244.926 25.12C245.715 25.12 246.384 25.2693 246.934 25.568C247.488 25.8613 247.88 26.288 248.11 26.848C248.216 27.0987 248.286 27.3787 248.318 27.688C248.35 27.9973 248.366 28.312 248.366 28.632V34H247.318V31.832L247.622 31.96C247.328 32.7013 246.872 33.2667 246.254 33.656C245.635 34.0453 244.894 34.24 244.03 34.24ZM244.166 33.224C244.715 33.224 245.195 33.1253 245.606 32.928C246.016 32.7307 246.347 32.4613 246.598 32.12C246.848 31.7733 247.011 31.384 247.086 30.952C247.15 30.6747 247.184 30.3707 247.19 30.04C247.195 29.704 247.198 29.4533 247.198 29.288L247.646 29.52C247.246 29.5733 246.811 29.6267 246.342 29.68C245.878 29.7333 245.419 29.7947 244.966 29.864C244.518 29.9333 244.112 30.016 243.75 30.112C243.504 30.1813 243.267 30.28 243.038 30.408C242.808 30.5307 242.619 30.696 242.47 30.904C242.326 31.112 242.254 31.3707 242.254 31.68C242.254 31.9307 242.315 32.1733 242.438 32.408C242.566 32.6427 242.768 32.8373 243.046 32.992C243.328 33.1467 243.702 33.224 244.166 33.224ZM258.315 34.24C257.169 34.24 256.201 33.9867 255.411 33.48C254.622 32.968 254.025 32.2613 253.619 31.36C253.214 30.4587 253.011 29.4187 253.011 28.24C253.011 27.0613 253.214 26.0213 253.619 25.12C254.025 24.2187 254.622 23.5147 255.411 23.008C256.201 22.496 257.169 22.24 258.315 22.24C259.654 22.24 260.747 22.584 261.595 23.272C262.443 23.9547 263.025 24.872 263.339 26.024L262.139 26.336C261.894 25.424 261.454 24.7013 260.819 24.168C260.185 23.6347 259.35 23.368 258.315 23.368C257.414 23.368 256.665 23.5733 256.067 23.984C255.47 24.3947 255.019 24.968 254.715 25.704C254.417 26.4347 254.262 27.28 254.251 28.24C254.246 29.2 254.393 30.0453 254.691 30.776C254.995 31.5067 255.449 32.08 256.051 32.496C256.659 32.9067 257.414 33.112 258.315 33.112C259.35 33.112 260.185 32.8453 260.819 32.312C261.454 31.7733 261.894 31.0507 262.139 30.144L263.339 30.456C263.025 31.608 262.443 32.528 261.595 33.216C260.747 33.8987 259.654 34.24 258.315 34.24ZM265.264 34V22.24H266.44V34H265.264ZM271.311 34.24C270.66 34.24 270.113 34.1227 269.671 33.888C269.233 33.6533 268.905 33.3413 268.687 32.952C268.468 32.5627 268.359 32.1387 268.359 31.68C268.359 31.2107 268.452 30.8107 268.639 30.48C268.831 30.144 269.089 29.8693 269.415 29.656C269.745 29.4427 270.127 29.28 270.559 29.168C270.996 29.0613 271.479 28.968 272.007 28.888C272.54 28.8027 273.06 28.7307 273.567 28.672C274.079 28.608 274.527 28.5467 274.911 28.488L274.495 28.744C274.511 27.8907 274.345 27.2587 273.999 26.848C273.652 26.4373 273.049 26.232 272.191 26.232C271.599 26.232 271.097 26.3653 270.687 26.632C270.281 26.8987 269.996 27.32 269.831 27.896L268.687 27.56C268.884 26.7867 269.281 26.1867 269.879 25.76C270.476 25.3333 271.252 25.12 272.207 25.12C272.996 25.12 273.665 25.2693 274.215 25.568C274.769 25.8613 275.161 26.288 275.391 26.848C275.497 27.0987 275.567 27.3787 275.599 27.688C275.631 27.9973 275.647 28.312 275.647 28.632V34H274.599V31.832L274.903 31.96C274.609 32.7013 274.153 33.2667 273.535 33.656C272.916 34.0453 272.175 34.24 271.311 34.24ZM271.447 33.224C271.996 33.224 272.476 33.1253 272.887 32.928C273.297 32.7307 273.628 32.4613 273.879 32.12C274.129 31.7733 274.292 31.384 274.367 30.952C274.431 30.6747 274.465 30.3707 274.471 30.04C274.476 29.704 274.479 29.4533 274.479 29.288L274.927 29.52C274.527 29.5733 274.092 29.6267 273.623 29.68C273.159 29.7333 272.7 29.7947 272.247 29.864C271.799 29.9333 271.393 30.016 271.031 30.112C270.785 30.1813 270.548 30.28 270.319 30.408C270.089 30.5307 269.9 30.696 269.751 30.904C269.607 31.112 269.535 31.3707 269.535 31.68C269.535 31.9307 269.596 32.1733 269.719 32.408C269.847 32.6427 270.049 32.8373 270.327 32.992C270.609 33.1467 270.983 33.224 271.447 33.224ZM277.729 34V25.36H278.785V27.44L278.577 27.168C278.673 26.912 278.799 26.6773 278.953 26.464C279.108 26.2453 279.276 26.0667 279.457 25.928C279.681 25.7307 279.943 25.5813 280.241 25.48C280.54 25.3733 280.841 25.312 281.145 25.296C281.449 25.2747 281.727 25.296 281.977 25.36V26.464C281.663 26.384 281.319 26.3653 280.945 26.408C280.572 26.4507 280.228 26.6 279.913 26.856C279.625 27.08 279.409 27.3493 279.265 27.664C279.121 27.9733 279.025 28.304 278.977 28.656C278.929 29.0027 278.905 29.3467 278.905 29.688V34H277.729ZM283.655 23.72V22.4H284.831V23.72H283.655ZM283.655 34V25.36H284.831V34H283.655ZM288.085 34V24.72C288.085 24.496 288.096 24.2747 288.117 24.056C288.144 23.8373 288.195 23.6293 288.269 23.432C288.344 23.2293 288.461 23.0427 288.621 22.872C288.797 22.68 288.989 22.5413 289.197 22.456C289.405 22.3653 289.621 22.3067 289.845 22.28C290.075 22.2533 290.299 22.24 290.517 22.24H291.621V23.232H290.597C290.149 23.232 289.813 23.3413 289.589 23.56C289.371 23.7787 289.261 24.1227 289.261 24.592V34H288.085ZM286.589 26.368V25.36H291.621V26.368H286.589ZM293.301 23.72V22.4H294.477V23.72H293.301ZM293.301 34V25.36H294.477V34H293.301ZM300.094 34.232C299.081 34.232 298.246 34.0133 297.59 33.576C296.939 33.1387 296.539 32.5307 296.39 31.752L297.59 31.552C297.718 32.0427 298.009 32.4347 298.462 32.728C298.921 33.016 299.486 33.16 300.158 33.16C300.814 33.16 301.331 33.024 301.71 32.752C302.089 32.4747 302.278 32.0987 302.278 31.624C302.278 31.3573 302.217 31.1413 302.094 30.976C301.977 30.8053 301.734 30.648 301.366 30.504C300.998 30.36 300.449 30.1893 299.718 29.992C298.934 29.7787 298.321 29.5653 297.878 29.352C297.435 29.1387 297.121 28.8933 296.934 28.616C296.747 28.3333 296.654 27.9893 296.654 27.584C296.654 27.0933 296.793 26.664 297.07 26.296C297.347 25.9227 297.731 25.6347 298.222 25.432C298.713 25.224 299.283 25.12 299.934 25.12C300.585 25.12 301.166 25.2267 301.678 25.44C302.195 25.648 302.611 25.9413 302.926 26.32C303.241 26.6987 303.427 27.1387 303.486 27.64L302.286 27.856C302.206 27.3493 301.953 26.9493 301.526 26.656C301.105 26.3573 300.569 26.2027 299.918 26.192C299.305 26.176 298.806 26.2933 298.422 26.544C298.038 26.7893 297.846 27.1173 297.846 27.528C297.846 27.7573 297.915 27.9547 298.054 28.12C298.193 28.28 298.443 28.432 298.806 28.576C299.174 28.72 299.697 28.8773 300.374 29.048C301.169 29.2507 301.793 29.464 302.246 29.688C302.699 29.912 303.022 30.176 303.214 30.48C303.406 30.784 303.502 31.16 303.502 31.608C303.502 32.424 303.198 33.0667 302.59 33.536C301.987 34 301.155 34.232 300.094 34.232ZM305.436 23.72V22.4H306.612V23.72H305.436ZM305.436 34V25.36H306.612V34H305.436ZM312.619 34.24C311.76 34.24 311.027 34.0453 310.419 33.656C309.811 33.2667 309.344 32.728 309.019 32.04C308.693 31.352 308.531 30.5627 308.531 29.672C308.531 28.7653 308.696 27.9707 309.027 27.288C309.357 26.6053 309.827 26.0747 310.435 25.696C311.048 25.312 311.776 25.12 312.619 25.12C313.483 25.12 314.219 25.3147 314.827 25.704C315.44 26.088 315.907 26.624 316.227 27.312C316.552 27.9947 316.715 28.7813 316.715 29.672C316.715 30.5787 316.552 31.376 316.227 32.064C315.901 32.7467 315.432 33.28 314.819 33.664C314.205 34.048 313.472 34.24 312.619 34.24ZM312.619 33.112C313.579 33.112 314.293 32.7947 314.763 32.16C315.232 31.52 315.467 30.6907 315.467 29.672C315.467 28.6267 315.229 27.7947 314.755 27.176C314.285 26.5573 313.573 26.248 312.619 26.248C311.973 26.248 311.44 26.3947 311.019 26.688C310.603 26.976 310.291 27.3787 310.083 27.896C309.88 28.408 309.779 29 309.779 29.672C309.779 30.712 310.019 31.5467 310.499 32.176C310.979 32.8 311.685 33.112 312.619 33.112ZM324.719 34V29.592C324.719 29.112 324.674 28.672 324.583 28.272C324.493 27.8667 324.346 27.5147 324.143 27.216C323.946 26.912 323.687 26.6773 323.367 26.512C323.053 26.3467 322.669 26.264 322.215 26.264C321.799 26.264 321.431 26.336 321.111 26.48C320.797 26.624 320.53 26.832 320.311 27.104C320.098 27.3707 319.935 27.696 319.823 28.08C319.711 28.464 319.655 28.9013 319.655 29.392L318.823 29.208C318.823 28.3227 318.978 27.5787 319.287 26.976C319.597 26.3733 320.023 25.9173 320.567 25.608C321.111 25.2987 321.735 25.144 322.439 25.144C322.957 25.144 323.407 25.224 323.791 25.384C324.181 25.544 324.509 25.76 324.775 26.032C325.047 26.304 325.266 26.616 325.431 26.968C325.597 27.3147 325.717 27.6853 325.791 28.08C325.866 28.4693 325.903 28.8587 325.903 29.248V34H324.719ZM318.471 34V25.36H319.535V27.488H319.655V34H318.471ZM392.363 35.576V33.752H393.539V35.576H392.363ZM392.363 22.72V20.888H393.539V22.72H392.363ZM393.091 34.24C392.328 34.24 391.64 34.104 391.027 33.832C390.419 33.56 389.915 33.176 389.515 32.68C389.12 32.184 388.862 31.5973 388.739 30.92L389.883 30.72C390.059 31.456 390.438 32.04 391.019 32.472C391.606 32.8987 392.312 33.112 393.139 33.112C393.976 33.112 394.654 32.9093 395.171 32.504C395.688 32.0933 395.947 31.5573 395.947 30.896C395.947 30.4053 395.803 30.0133 395.515 29.72C395.227 29.4267 394.739 29.176 394.051 28.968L391.491 28.168C389.944 27.6827 389.171 26.7653 389.171 25.416C389.171 24.7867 389.326 24.2347 389.635 23.76C389.95 23.28 390.384 22.9067 390.939 22.64C391.499 22.3733 392.152 22.2427 392.899 22.248C393.63 22.248 394.283 22.3867 394.859 22.664C395.44 22.936 395.918 23.3227 396.291 23.824C396.664 24.3253 396.912 24.92 397.035 25.608L395.859 25.832C395.784 25.3413 395.611 24.912 395.339 24.544C395.072 24.176 394.728 23.8907 394.307 23.688C393.886 23.48 393.416 23.3733 392.899 23.368C392.408 23.368 391.971 23.4533 391.587 23.624C391.203 23.7947 390.899 24.032 390.675 24.336C390.456 24.6347 390.347 24.9787 390.347 25.368C390.347 25.7947 390.499 26.1573 390.803 26.456C391.112 26.7493 391.6 26.9973 392.267 27.2L394.467 27.864C395.395 28.1413 396.064 28.5147 396.475 28.984C396.886 29.4533 397.091 30.08 397.091 30.864C397.091 31.5413 396.926 32.1333 396.595 32.64C396.264 33.1467 395.798 33.5413 395.195 33.824C394.598 34.1013 393.896 34.24 393.091 34.24ZM400.753 34V23.792L398.585 25.096V23.776L400.753 22.48H401.945V34H400.753ZM410.051 34V31.768H404.659V30.648L408.515 22.48H409.835L405.979 30.648H410.051V27.288H411.235V30.648H412.491V31.768H411.235V34H410.051ZM417.62 34V22.48H424.82V23.608H418.796V27.592H423.86V28.72H418.796V32.872H424.82V34H417.62ZM429.217 34.24C428.566 34.24 428.02 34.1227 427.577 33.888C427.14 33.6533 426.812 33.3413 426.593 32.952C426.374 32.5627 426.265 32.1387 426.265 31.68C426.265 31.2107 426.358 30.8107 426.545 30.48C426.737 30.144 426.996 29.8693 427.321 29.656C427.652 29.4427 428.033 29.28 428.465 29.168C428.902 29.0613 429.385 28.968 429.913 28.888C430.446 28.8027 430.966 28.7307 431.473 28.672C431.985 28.608 432.433 28.5467 432.817 28.488L432.401 28.744C432.417 27.8907 432.252 27.2587 431.905 26.848C431.558 26.4373 430.956 26.232 430.097 26.232C429.505 26.232 429.004 26.3653 428.593 26.632C428.188 26.8987 427.902 27.32 427.737 27.896L426.593 27.56C426.79 26.7867 427.188 26.1867 427.785 25.76C428.382 25.3333 429.158 25.12 430.113 25.12C430.902 25.12 431.572 25.2693 432.121 25.568C432.676 25.8613 433.068 26.288 433.297 26.848C433.404 27.0987 433.473 27.3787 433.505 27.688C433.537 27.9973 433.553 28.312 433.553 28.632V34H432.505V31.832L432.809 31.96C432.516 32.7013 432.06 33.2667 431.441 33.656C430.822 34.0453 430.081 34.24 429.217 34.24ZM429.353 33.224C429.902 33.224 430.382 33.1253 430.793 32.928C431.204 32.7307 431.534 32.4613 431.785 32.12C432.036 31.7733 432.198 31.384 432.273 30.952C432.337 30.6747 432.372 30.3707 432.377 30.04C432.382 29.704 432.385 29.4533 432.385 29.288L432.833 29.52C432.433 29.5733 431.998 29.6267 431.529 29.68C431.065 29.7333 430.606 29.7947 430.153 29.864C429.705 29.9333 429.3 30.016 428.937 30.112C428.692 30.1813 428.454 30.28 428.225 30.408C427.996 30.5307 427.806 30.696 427.657 30.904C427.513 31.112 427.441 31.3707 427.441 31.68C427.441 31.9307 427.502 32.1733 427.625 32.408C427.753 32.6427 427.956 32.8373 428.233 32.992C428.516 33.1467 428.889 33.224 429.353 33.224ZM439.22 34.24C438.35 34.24 437.614 34.0453 437.012 33.656C436.409 33.2667 435.95 32.7307 435.636 32.048C435.326 31.36 435.166 30.5707 435.156 29.68C435.166 28.7733 435.332 27.9787 435.652 27.296C435.972 26.608 436.433 26.0747 437.036 25.696C437.638 25.312 438.369 25.12 439.228 25.12C440.102 25.12 440.862 25.3333 441.508 25.76C442.158 26.1867 442.604 26.7707 442.844 27.512L441.692 27.88C441.489 27.3627 441.166 26.9627 440.724 26.68C440.286 26.392 439.785 26.248 439.22 26.248C438.585 26.248 438.06 26.3947 437.644 26.688C437.228 26.976 436.918 27.3787 436.716 27.896C436.513 28.4133 436.409 29.008 436.404 29.68C436.414 30.7147 436.654 31.5467 437.124 32.176C437.593 32.8 438.292 33.112 439.22 33.112C439.806 33.112 440.305 32.9787 440.716 32.712C441.132 32.44 441.446 32.0453 441.66 31.528L442.844 31.88C442.524 32.648 442.054 33.2347 441.436 33.64C440.817 34.04 440.078 34.24 439.22 34.24ZM450.735 34V29.592C450.735 29.112 450.69 28.672 450.599 28.272C450.508 27.8667 450.362 27.5147 450.159 27.216C449.962 26.912 449.703 26.6773 449.383 26.512C449.068 26.3467 448.684 26.264 448.231 26.264C447.815 26.264 447.447 26.336 447.127 26.48C446.812 26.624 446.546 26.832 446.327 27.104C446.114 27.3707 445.951 27.696 445.839 28.08C445.727 28.464 445.671 28.9013 445.671 29.392L444.839 29.208C444.839 28.3227 444.994 27.5787 445.303 26.976C445.612 26.3733 446.039 25.9173 446.583 25.608C447.127 25.2987 447.751 25.144 448.455 25.144C448.972 25.144 449.423 25.224 449.807 25.384C450.196 25.544 450.524 25.76 450.791 26.032C451.063 26.304 451.282 26.616 451.447 26.968C451.612 27.3147 451.732 27.6853 451.807 28.08C451.882 28.4693 451.919 28.8587 451.919 29.248V34H450.735ZM444.487 34V22.48H445.551V28.984H445.671V34H444.487Z" fill="#2C7EF8"></path></svg>