<svg xmlns="http://www.w3.org/2000/svg" width="322" height="162" viewBox="0 0 322 162" fill="none"><rect x="1" width="320" height="51" rx="25.5" fill="#59AE43"></rect><path d="M60.93 31V26.87L57.5 20.92H59.467L61.784 24.938L64.094 20.92H66.061L62.638 26.87V31H60.93ZM67.0386 31V20.92L73.5486 20.92V22.502L68.7256 22.502V24.987H72.7086V26.569H68.7256V29.418H73.5486V31H67.0386ZM78.8633 31.21C78.126 31.21 77.461 31.0817 76.8683 30.825C76.2803 30.5683 75.795 30.202 75.4123 29.726C75.0343 29.2453 74.794 28.676 74.6913 28.018L76.4413 27.752C76.5907 28.3493 76.8963 28.8113 77.3583 29.138C77.825 29.4647 78.3617 29.628 78.9683 29.628C79.3277 29.628 79.666 29.572 79.9833 29.46C80.3007 29.348 80.5573 29.1847 80.7533 28.97C80.954 28.7553 81.0543 28.4917 81.0543 28.179C81.0543 28.039 81.031 27.9107 80.9843 27.794C80.9377 27.6727 80.8677 27.5653 80.7743 27.472C80.6857 27.3787 80.569 27.2947 80.4243 27.22C80.2843 27.1407 80.121 27.073 79.9343 27.017L77.3303 26.247C77.1063 26.1817 76.8637 26.0953 76.6023 25.988C76.3457 25.876 76.1007 25.7243 75.8673 25.533C75.6387 25.337 75.4497 25.0897 75.3003 24.791C75.1557 24.4877 75.0833 24.1143 75.0833 23.671C75.0833 23.0223 75.2467 22.4787 75.5733 22.04C75.9047 21.5967 76.348 21.2653 76.9033 21.046C77.4633 20.8267 78.084 20.7193 78.7653 20.724C79.456 20.7287 80.072 20.8477 80.6133 21.081C81.1547 21.3097 81.6073 21.6433 81.9713 22.082C82.3353 22.5207 82.592 23.0503 82.7413 23.671L80.9283 23.986C80.8537 23.6313 80.709 23.3303 80.4943 23.083C80.2843 22.831 80.0253 22.6397 79.7173 22.509C79.414 22.3783 79.0897 22.3083 78.7443 22.299C78.4083 22.2943 78.0957 22.3457 77.8063 22.453C77.5217 22.5557 77.2907 22.705 77.1133 22.901C76.9407 23.097 76.8543 23.3257 76.8543 23.587C76.8543 23.8343 76.929 24.0373 77.0783 24.196C77.2277 24.35 77.412 24.4737 77.6313 24.567C77.8553 24.6557 78.0817 24.7303 78.3103 24.791L80.1163 25.295C80.3637 25.3603 80.6413 25.449 80.9493 25.561C81.2573 25.673 81.5537 25.8293 81.8383 26.03C82.123 26.2307 82.3563 26.4943 82.5383 26.821C82.725 27.1477 82.8183 27.563 82.8183 28.067C82.8183 28.5897 82.7087 29.0493 82.4893 29.446C82.2747 29.838 81.983 30.1647 81.6143 30.426C81.2457 30.6873 80.8233 30.8833 80.3473 31.014C79.876 31.1447 79.3813 31.21 78.8633 31.21ZM86.9963 27.248V25.925H91.1963V27.248H86.9963ZM100.081 31.21C99.0729 31.21 98.2096 30.9907 97.4909 30.552C96.7722 30.1087 96.2192 29.4927 95.8319 28.704C95.4492 27.9153 95.2579 27.0007 95.2579 25.96C95.2579 24.9193 95.4492 24.0047 95.8319 23.216C96.2192 22.4273 96.7722 21.8137 97.4909 21.375C98.2096 20.9317 99.0729 20.71 100.081 20.71C101.243 20.71 102.211 21.0017 102.986 21.585C103.761 22.1637 104.304 22.9453 104.617 23.93L102.916 24.399C102.72 23.741 102.386 23.2277 101.915 22.859C101.444 22.4857 100.832 22.299 100.081 22.299C99.4042 22.299 98.8396 22.4507 98.3869 22.754C97.9389 23.0573 97.6006 23.4843 97.3719 24.035C97.1479 24.581 97.0336 25.2227 97.0289 25.96C97.0289 26.6973 97.1409 27.3413 97.3649 27.892C97.5936 28.438 97.9342 28.8627 98.3869 29.166C98.8396 29.4693 99.4042 29.621 100.081 29.621C100.832 29.621 101.444 29.4343 101.915 29.061C102.386 28.6877 102.72 28.1743 102.916 27.521L104.617 27.99C104.304 28.9747 103.761 29.7587 102.986 30.342C102.211 30.9207 101.243 31.21 100.081 31.21ZM106.294 31V20.92H107.981V29.418H112.433V31H106.294ZM112.919 31L116.097 20.92H118.568L121.746 31H120.01L117.126 21.956H117.504L114.655 31H112.919ZM114.69 28.816V27.241L119.982 27.241V28.816L114.69 28.816ZM123.151 31V20.92H124.838V31H123.151ZM126.935 31V20.92H128.454L131.94 28.06L135.426 20.92H136.945V31H135.37V24.539L132.276 31H131.604L128.517 24.539V31H126.935ZM141.714 31V20.92H143.233L146.719 28.06L150.205 20.92H151.724V31H150.149V24.539L147.055 31H146.383L143.296 24.539V31H141.714ZM156.141 31V26.87L152.711 20.92H154.678L156.995 24.938L159.305 20.92L161.272 20.92L157.849 26.87V31H156.141ZM164.492 31V20.92H167.705C167.789 20.92 167.954 20.9223 168.202 20.927C168.454 20.9317 168.696 20.948 168.93 20.976C169.728 21.0787 170.402 21.3633 170.953 21.83C171.508 22.292 171.928 22.8823 172.213 23.601C172.497 24.3197 172.64 25.106 172.64 25.96C172.64 26.814 172.497 27.6003 172.213 28.319C171.928 29.0377 171.508 29.6303 170.953 30.097C170.402 30.559 169.728 30.8413 168.93 30.944C168.701 30.972 168.461 30.9883 168.209 30.993C167.957 30.9977 167.789 31 167.705 31H164.492ZM166.207 29.411H167.705C167.845 29.411 168.022 29.4063 168.237 29.397C168.456 29.3877 168.65 29.3667 168.818 29.334C169.294 29.2453 169.681 29.033 169.98 28.697C170.278 28.361 170.498 27.9527 170.638 27.472C170.782 26.9913 170.855 26.4873 170.855 25.96C170.855 25.414 170.782 24.9007 170.638 24.42C170.493 23.9393 170.269 23.5357 169.966 23.209C169.667 22.8823 169.284 22.6747 168.818 22.586C168.65 22.5487 168.456 22.5277 168.237 22.523C168.022 22.5137 167.845 22.509 167.705 22.509H166.207V29.411ZM174.434 31V20.92H176.121V31H174.434ZM181.949 31.21C181.212 31.21 180.547 31.0817 179.954 30.825C179.366 30.5683 178.881 30.202 178.498 29.726C178.12 29.2453 177.88 28.676 177.777 28.018L179.527 27.752C179.677 28.3493 179.982 28.8113 180.444 29.138C180.911 29.4647 181.448 29.628 182.054 29.628C182.414 29.628 182.752 29.572 183.069 29.46C183.387 29.348 183.643 29.1847 183.839 28.97C184.04 28.7553 184.14 28.4917 184.14 28.179C184.14 28.039 184.117 27.9107 184.07 27.794C184.024 27.6727 183.954 27.5653 183.86 27.472C183.772 27.3787 183.655 27.2947 183.51 27.22C183.37 27.1407 183.207 27.073 183.02 27.017L180.416 26.247C180.192 26.1817 179.95 26.0953 179.688 25.988C179.432 25.876 179.187 25.7243 178.953 25.533C178.725 25.337 178.536 25.0897 178.386 24.791C178.242 24.4877 178.169 24.1143 178.169 23.671C178.169 23.0223 178.333 22.4787 178.659 22.04C178.991 21.5967 179.434 21.2653 179.989 21.046C180.549 20.8267 181.17 20.7193 181.851 20.724C182.542 20.7287 183.158 20.8477 183.699 21.081C184.241 21.3097 184.693 21.6433 185.057 22.082C185.421 22.5207 185.678 23.0503 185.827 23.671L184.014 23.986C183.94 23.6313 183.795 23.3303 183.58 23.083C183.37 22.831 183.111 22.6397 182.803 22.509C182.5 22.3783 182.176 22.3083 181.83 22.299C181.494 22.2943 181.182 22.3457 180.892 22.453C180.608 22.5557 180.377 22.705 180.199 22.901C180.027 23.097 179.94 23.3257 179.94 23.587C179.94 23.8343 180.015 24.0373 180.164 24.196C180.314 24.35 180.498 24.4737 180.717 24.567C180.941 24.6557 181.168 24.7303 181.396 24.791L183.202 25.295C183.45 25.3603 183.727 25.449 184.035 25.561C184.343 25.673 184.64 25.8293 184.924 26.03C185.209 26.2307 185.442 26.4943 185.624 26.821C185.811 27.1477 185.904 27.563 185.904 28.067C185.904 28.5897 185.795 29.0493 185.575 29.446C185.361 29.838 185.069 30.1647 184.7 30.426C184.332 30.6873 183.909 30.8833 183.433 31.014C182.962 31.1447 182.467 31.21 181.949 31.21ZM191.682 31.21C190.674 31.21 189.811 30.9907 189.092 30.552C188.374 30.1087 187.821 29.4927 187.433 28.704C187.051 27.9153 186.859 27.0007 186.859 25.96C186.859 24.9193 187.051 24.0047 187.433 23.216C187.821 22.4273 188.374 21.8137 189.092 21.375C189.811 20.9317 190.674 20.71 191.682 20.71C192.844 20.71 193.813 21.0017 194.587 21.585C195.362 22.1637 195.906 22.9453 196.218 23.93L194.517 24.399C194.321 23.741 193.988 23.2277 193.516 22.859C193.045 22.4857 192.434 22.299 191.682 22.299C191.006 22.299 190.441 22.4507 189.988 22.754C189.54 23.0573 189.202 23.4843 188.973 24.035C188.749 24.581 188.635 25.2227 188.63 25.96C188.63 26.6973 188.742 27.3413 188.966 27.892C189.195 28.438 189.536 28.8627 189.988 29.166C190.441 29.4693 191.006 29.621 191.682 29.621C192.434 29.621 193.045 29.4343 193.516 29.061C193.988 28.6877 194.321 28.1743 194.517 27.521L196.218 27.99C195.906 28.9747 195.362 29.7587 194.587 30.342C193.813 30.9207 192.844 31.21 191.682 31.21ZM202.018 31.21C201.01 31.21 200.147 30.9907 199.428 30.552C198.71 30.1087 198.157 29.4927 197.769 28.704C197.387 27.9153 197.195 27.0007 197.195 25.96C197.195 24.9193 197.387 24.0047 197.769 23.216C198.157 22.4273 198.71 21.8137 199.428 21.375C200.147 20.9317 201.01 20.71 202.018 20.71C203.026 20.71 203.89 20.9317 204.608 21.375C205.332 21.8137 205.885 22.4273 206.267 23.216C206.655 24.0047 206.848 24.9193 206.848 25.96C206.848 27.0007 206.655 27.9153 206.267 28.704C205.885 29.4927 205.332 30.1087 204.608 30.552C203.89 30.9907 203.026 31.21 202.018 31.21ZM202.018 29.621C202.695 29.6257 203.257 29.4763 203.705 29.173C204.158 28.8697 204.496 28.4427 204.72 27.892C204.949 27.3413 205.063 26.6973 205.063 25.96C205.063 25.2227 204.949 24.5833 204.72 24.042C204.496 23.496 204.158 23.0713 203.705 22.768C203.257 22.4647 202.695 22.3083 202.018 22.299C201.342 22.2943 200.779 22.4437 200.331 22.747C199.883 23.0503 199.545 23.4773 199.316 24.028C199.092 24.5787 198.98 25.2227 198.98 25.96C198.98 26.6973 199.092 27.339 199.316 27.885C199.54 28.4263 199.876 28.8487 200.324 29.152C200.777 29.4553 201.342 29.6117 202.018 29.621ZM212.302 31.21C211.499 31.21 210.792 31.0467 210.181 30.72C209.574 30.3933 209.098 29.9337 208.753 29.341C208.412 28.7483 208.242 28.053 208.242 27.255V20.934L209.95 20.92V27.213C209.95 27.591 210.013 27.9293 210.139 28.228C210.269 28.5267 210.444 28.781 210.664 28.991C210.883 29.1963 211.135 29.3527 211.42 29.46C211.704 29.5673 211.998 29.621 212.302 29.621C212.614 29.621 212.911 29.5673 213.191 29.46C213.475 29.348 213.727 29.1893 213.947 28.984C214.166 28.774 214.339 28.5197 214.465 28.221C214.591 27.9223 214.654 27.5863 214.654 27.213V20.92H216.362V27.255C216.362 28.053 216.189 28.7483 215.844 29.341C215.503 29.9337 215.027 30.3933 214.416 30.72C213.809 31.0467 213.104 31.21 212.302 31.21ZM218.318 31V20.92H220.026L224.702 28.025V20.92H226.41V31H224.702L220.026 23.895V31H218.318ZM230.789 31V22.502H227.527V20.92H235.738V22.502H232.476V31H230.789Z" fill="white"></path><path d="M265.199 26.1988C265.585 25.8128 265.585 25.1872 265.199 24.8012L258.91 18.5125C258.524 18.1266 257.898 18.1266 257.512 18.5125C257.127 18.8984 257.127 19.5241 257.512 19.91L263.102 25.5L257.512 31.09C257.127 31.4759 257.127 32.1016 257.512 32.4875C257.898 32.8734 258.524 32.8734 258.91 32.4875L265.199 26.1988ZM252.5 26.4882H264.5V24.5118H252.5V26.4882Z" fill="white"></path><rect x="1" y="63.5" width="320" height="70" rx="3.5" stroke="#CFCFCF"></rect><path d="M17.34 84V75.36H22.302V76.242H18.222V79.242H21.582V80.118H18.222V84H17.34ZM23.3869 84V77.52H24.1789V79.08L24.0229 78.876C24.0949 78.684 24.1889 78.508 24.3049 78.348C24.4209 78.184 24.5469 78.05 24.6829 77.946C24.8509 77.798 25.0469 77.686 25.2709 77.61C25.4949 77.53 25.7209 77.484 25.9489 77.472C26.1769 77.456 26.3849 77.472 26.5729 77.52V78.348C26.3369 78.288 26.0789 78.274 25.7989 78.306C25.5189 78.338 25.2609 78.45 25.0249 78.642C24.8089 78.81 24.6469 79.012 24.5389 79.248C24.4309 79.48 24.3589 79.728 24.3229 79.992C24.2869 80.252 24.2689 80.51 24.2689 80.766V84H23.3869ZM30.3359 84.18C29.7039 84.18 29.1559 84.04 28.6919 83.76C28.2319 83.48 27.8739 83.086 27.6179 82.578C27.3619 82.07 27.2339 81.474 27.2339 80.79C27.2339 80.082 27.3599 79.47 27.6119 78.954C27.8639 78.438 28.2179 78.04 28.6739 77.76C29.1339 77.48 29.6759 77.34 30.2999 77.34C30.9399 77.34 31.4859 77.488 31.9379 77.784C32.3899 78.076 32.7319 78.496 32.9639 79.044C33.1959 79.592 33.3019 80.246 33.2819 81.006H32.3819V80.694C32.3659 79.854 32.1839 79.22 31.8359 78.792C31.4919 78.364 30.9879 78.15 30.3239 78.15C29.6279 78.15 29.0939 78.376 28.7219 78.828C28.3539 79.28 28.1699 79.924 28.1699 80.76C28.1699 81.576 28.3539 82.21 28.7219 82.662C29.0939 83.11 29.6199 83.334 30.2999 83.334C30.7639 83.334 31.1679 83.228 31.5119 83.016C31.8599 82.8 32.1339 82.49 32.3339 82.086L33.1559 82.404C32.8999 82.968 32.5219 83.406 32.0219 83.718C31.5259 84.026 30.9639 84.18 30.3359 84.18ZM27.8579 81.006V80.268H32.8079V81.006H27.8579ZM37.3554 84.18C36.7234 84.18 36.1754 84.04 35.7114 83.76C35.2514 83.48 34.8934 83.086 34.6374 82.578C34.3814 82.07 34.2534 81.474 34.2534 80.79C34.2534 80.082 34.3794 79.47 34.6314 78.954C34.8834 78.438 35.2374 78.04 35.6934 77.76C36.1534 77.48 36.6954 77.34 37.3194 77.34C37.9594 77.34 38.5054 77.488 38.9574 77.784C39.4094 78.076 39.7514 78.496 39.9834 79.044C40.2154 79.592 40.3214 80.246 40.3014 81.006H39.4014V80.694C39.3854 79.854 39.2034 79.22 38.8554 78.792C38.5114 78.364 38.0074 78.15 37.3434 78.15C36.6474 78.15 36.1134 78.376 35.7414 78.828C35.3734 79.28 35.1894 79.924 35.1894 80.76C35.1894 81.576 35.3734 82.21 35.7414 82.662C36.1134 83.11 36.6394 83.334 37.3194 83.334C37.7834 83.334 38.1874 83.228 38.5314 83.016C38.8794 82.8 39.1534 82.49 39.3534 82.086L40.1754 82.404C39.9194 82.968 39.5414 83.406 39.0414 83.718C38.5454 84.026 37.9834 84.18 37.3554 84.18ZM34.8774 81.006V80.268H39.8274V81.006H34.8774ZM47.0353 84.18C46.4313 84.18 45.8873 84.08 45.4033 83.88C44.9233 83.676 44.5253 83.388 44.2093 83.016C43.8973 82.644 43.6933 82.202 43.5973 81.69L44.4973 81.54C44.6413 82.1 44.9453 82.54 45.4093 82.86C45.8733 83.176 46.4273 83.334 47.0713 83.334C47.4953 83.334 47.8753 83.268 48.2113 83.136C48.5473 83 48.8113 82.808 49.0033 82.56C49.1953 82.312 49.2913 82.018 49.2913 81.678C49.2913 81.454 49.2513 81.264 49.1713 81.108C49.0913 80.948 48.9853 80.816 48.8533 80.712C48.7213 80.608 48.5773 80.522 48.4213 80.454C48.2653 80.382 48.1133 80.324 47.9653 80.28L45.7753 79.626C45.5113 79.55 45.2673 79.454 45.0433 79.338C44.8193 79.218 44.6233 79.076 44.4553 78.912C44.2913 78.744 44.1633 78.548 44.0713 78.324C43.9793 78.1 43.9333 77.844 43.9333 77.556C43.9333 77.068 44.0613 76.646 44.3173 76.29C44.5733 75.934 44.9233 75.66 45.3673 75.468C45.8113 75.276 46.3173 75.182 46.8853 75.186C47.4613 75.186 47.9753 75.288 48.4273 75.492C48.8833 75.696 49.2593 75.988 49.5553 76.368C49.8513 76.744 50.0473 77.19 50.1433 77.706L49.2193 77.874C49.1593 77.498 49.0213 77.172 48.8053 76.896C48.5893 76.62 48.3133 76.408 47.9773 76.26C47.6453 76.108 47.2793 76.03 46.8793 76.026C46.4913 76.026 46.1453 76.092 45.8413 76.224C45.5413 76.352 45.3033 76.528 45.1273 76.752C44.9513 76.976 44.8633 77.232 44.8633 77.52C44.8633 77.812 44.9433 78.046 45.1033 78.222C45.2673 78.398 45.4673 78.536 45.7033 78.636C45.9433 78.736 46.1753 78.818 46.3993 78.882L48.0913 79.38C48.2673 79.428 48.4733 79.498 48.7093 79.59C48.9493 79.678 49.1813 79.806 49.4053 79.974C49.6333 80.138 49.8213 80.354 49.9693 80.622C50.1173 80.89 50.1913 81.23 50.1913 81.642C50.1913 82.042 50.1113 82.4 49.9513 82.716C49.7953 83.032 49.5733 83.298 49.2853 83.514C49.0013 83.73 48.6673 83.894 48.2833 84.006C47.9033 84.122 47.4873 84.18 47.0353 84.18ZM56.1098 84V80.694C56.1098 80.334 56.0758 80.004 56.0078 79.704C55.9398 79.4 55.8298 79.136 55.6778 78.912C55.5298 78.684 55.3358 78.508 55.0958 78.384C54.8598 78.26 54.5718 78.198 54.2318 78.198C53.9198 78.198 53.6438 78.252 53.4038 78.36C53.1678 78.468 52.9678 78.624 52.8038 78.828C52.6438 79.028 52.5218 79.272 52.4378 79.56C52.3538 79.848 52.3118 80.176 52.3118 80.544L51.6878 80.406C51.6878 79.742 51.8038 79.184 52.0358 78.732C52.2678 78.28 52.5878 77.938 52.9958 77.706C53.4038 77.474 53.8718 77.358 54.3998 77.358C54.7878 77.358 55.1258 77.418 55.4138 77.538C55.7058 77.658 55.9518 77.82 56.1518 78.024C56.3558 78.228 56.5198 78.462 56.6438 78.726C56.7678 78.986 56.8578 79.264 56.9138 79.56C56.9698 79.852 56.9978 80.144 56.9978 80.436V84H56.1098ZM51.4238 84V75.36H52.2218V80.238H52.3118V84H51.4238ZM58.6748 76.29V75.3H59.5568V76.29H58.6748ZM58.6748 84V77.52H59.5568V84H58.6748ZM64.2656 84.18C63.6696 84.18 63.1656 84.03 62.7536 83.73C62.3416 83.426 62.0296 83.016 61.8176 82.5C61.6056 81.98 61.4996 81.398 61.4996 80.754C61.4996 80.098 61.6056 79.514 61.8176 79.002C62.0336 78.486 62.3496 78.08 62.7656 77.784C63.1816 77.488 63.6936 77.34 64.3016 77.34C64.8936 77.34 65.4016 77.49 65.8256 77.79C66.2496 78.09 66.5736 78.498 66.7976 79.014C67.0256 79.53 67.1396 80.11 67.1396 80.754C67.1396 81.402 67.0256 81.984 66.7976 82.5C66.5696 83.016 66.2416 83.426 65.8136 83.73C65.3856 84.03 64.8696 84.18 64.2656 84.18ZM61.3496 86.88V77.52H62.1416V82.398H62.2376V86.88H61.3496ZM64.1756 83.358C64.6276 83.358 65.0036 83.244 65.3036 83.016C65.6036 82.788 65.8276 82.478 65.9756 82.086C66.1276 81.69 66.2036 81.246 66.2036 80.754C66.2036 80.266 66.1296 79.826 65.9816 79.434C65.8336 79.042 65.6076 78.732 65.3036 78.504C65.0036 78.276 64.6216 78.162 64.1576 78.162C63.7056 78.162 63.3296 78.272 63.0296 78.492C62.7336 78.712 62.5116 79.018 62.3636 79.41C62.2156 79.798 62.1416 80.246 62.1416 80.754C62.1416 81.254 62.2156 81.702 62.3636 82.098C62.5116 82.49 62.7356 82.798 63.0356 83.022C63.3356 83.246 63.7156 83.358 64.1756 83.358ZM71.3672 84.18C70.7712 84.18 70.2672 84.03 69.8552 83.73C69.4432 83.426 69.1312 83.016 68.9192 82.5C68.7072 81.98 68.6012 81.398 68.6012 80.754C68.6012 80.098 68.7072 79.514 68.9192 79.002C69.1352 78.486 69.4512 78.08 69.8672 77.784C70.2832 77.488 70.7952 77.34 71.4032 77.34C71.9952 77.34 72.5032 77.49 72.9272 77.79C73.3512 78.09 73.6752 78.498 73.8992 79.014C74.1272 79.53 74.2412 80.11 74.2412 80.754C74.2412 81.402 74.1272 81.984 73.8992 82.5C73.6712 83.016 73.3432 83.426 72.9152 83.73C72.4872 84.03 71.9712 84.18 71.3672 84.18ZM68.4512 86.88V77.52H69.2432V82.398H69.3392V86.88H68.4512ZM71.2772 83.358C71.7292 83.358 72.1052 83.244 72.4052 83.016C72.7052 82.788 72.9292 82.478 73.0772 82.086C73.2292 81.69 73.3052 81.246 73.3052 80.754C73.3052 80.266 73.2312 79.826 73.0832 79.434C72.9352 79.042 72.7092 78.732 72.4052 78.504C72.1052 78.276 71.7232 78.162 71.2592 78.162C70.8072 78.162 70.4312 78.272 70.1312 78.492C69.8352 78.712 69.6132 79.018 69.4652 79.41C69.3172 79.798 69.2432 80.246 69.2432 80.754C69.2432 81.254 69.3172 81.702 69.4652 82.098C69.6132 82.49 69.8372 82.798 70.1372 83.022C70.4372 83.246 70.8172 83.358 71.2772 83.358ZM75.6788 76.29V75.3H76.5608V76.29H75.6788ZM75.6788 84V77.52H76.5608V84H75.6788ZM83.0395 84V80.694C83.0395 80.334 83.0055 80.004 82.9375 79.704C82.8695 79.4 82.7595 79.136 82.6075 78.912C82.4595 78.684 82.2655 78.508 82.0255 78.384C81.7895 78.26 81.5015 78.198 81.1615 78.198C80.8495 78.198 80.5735 78.252 80.3335 78.36C80.0975 78.468 79.8975 78.624 79.7335 78.828C79.5735 79.028 79.4515 79.272 79.3675 79.56C79.2835 79.848 79.2415 80.176 79.2415 80.544L78.6175 80.406C78.6175 79.742 78.7335 79.184 78.9655 78.732C79.1975 78.28 79.5175 77.938 79.9255 77.706C80.3335 77.474 80.8015 77.358 81.3295 77.358C81.7175 77.358 82.0555 77.418 82.3435 77.538C82.6355 77.658 82.8815 77.82 83.0815 78.024C83.2855 78.228 83.4495 78.462 83.5735 78.726C83.6975 78.986 83.7875 79.264 83.8435 79.56C83.8995 79.852 83.9275 80.144 83.9275 80.436V84H83.0395ZM78.3535 84V77.52H79.1515V79.116H79.2415V84H78.3535ZM88.0585 87.06C87.7265 87.06 87.3985 87.01 87.0745 86.91C86.7545 86.814 86.4585 86.66 86.1865 86.448C85.9145 86.24 85.6865 85.968 85.5025 85.632L86.3005 85.188C86.4805 85.548 86.7325 85.806 87.0565 85.962C87.3845 86.122 87.7185 86.202 88.0585 86.202C88.5265 86.202 88.9045 86.114 89.1925 85.938C89.4845 85.766 89.6965 85.51 89.8285 85.17C89.9605 84.83 90.0245 84.406 90.0205 83.898V82.17H90.1225V77.52H90.9085V83.91C90.9085 84.094 90.9025 84.27 90.8905 84.438C90.8825 84.61 90.8645 84.778 90.8365 84.942C90.7605 85.426 90.6025 85.824 90.3625 86.136C90.1265 86.448 89.8145 86.68 89.4265 86.832C89.0425 86.984 88.5865 87.06 88.0585 87.06ZM87.9985 84.18C87.3945 84.18 86.8785 84.03 86.4505 83.73C86.0225 83.426 85.6945 83.016 85.4665 82.5C85.2385 81.984 85.1245 81.402 85.1245 80.754C85.1245 80.11 85.2365 79.53 85.4605 79.014C85.6885 78.498 86.0145 78.09 86.4385 77.79C86.8625 77.49 87.3705 77.34 87.9625 77.34C88.5705 77.34 89.0825 77.488 89.4985 77.784C89.9145 78.08 90.2285 78.486 90.4405 79.002C90.6565 79.514 90.7645 80.098 90.7645 80.754C90.7645 81.398 90.6585 81.98 90.4465 82.5C90.2345 83.016 89.9225 83.426 89.5105 83.73C89.0985 84.03 88.5945 84.18 87.9985 84.18ZM88.0885 83.358C88.5485 83.358 88.9285 83.246 89.2285 83.022C89.5285 82.798 89.7525 82.49 89.9005 82.098C90.0485 81.702 90.1225 81.254 90.1225 80.754C90.1225 80.246 90.0485 79.798 89.9005 79.41C89.7525 79.018 89.5285 78.712 89.2285 78.492C88.9325 78.272 88.5585 78.162 88.1065 78.162C87.6425 78.162 87.2585 78.276 86.9545 78.504C86.6505 78.732 86.4245 79.042 86.2765 79.434C86.1325 79.826 86.0605 80.266 86.0605 80.754C86.0605 81.246 86.1345 81.69 86.2825 82.086C86.4345 82.478 86.6605 82.788 86.9605 83.016C87.2605 83.244 87.6365 83.358 88.0885 83.358Z" fill="#4D5254"></path><line x1="105" y1="72.5" x2="105" y2="86.5" stroke="#CFCFCF"></line><g clip-path="url(#clip0_1_675)"><path d="M125.625 78.999H118.625C118.073 78.999 117.625 79.4467 117.625 79.999V83.499C117.625 84.0513 118.073 84.499 118.625 84.499H125.625C126.177 84.499 126.625 84.0513 126.625 83.499V79.999C126.625 79.4467 126.177 78.999 125.625 78.999Z" stroke="#696969" stroke-width="1.33333" stroke-linecap="round" stroke-linejoin="round"></path><path d="M119.626 78.999V76.999C119.626 76.336 119.889 75.7001 120.358 75.2313C120.827 74.7624 121.463 74.499 122.126 74.499C122.789 74.499 123.425 74.7624 123.894 75.2313C124.363 75.7001 124.626 76.336 124.626 76.999V78.999" stroke="#696969" stroke-width="1.33333" stroke-linecap="round" stroke-linejoin="round"></path></g><path d="M140.635 84.18C140.031 84.18 139.487 84.08 139.003 83.88C138.523 83.676 138.125 83.388 137.809 83.016C137.497 82.644 137.293 82.202 137.197 81.69L138.097 81.54C138.241 82.1 138.545 82.54 139.009 82.86C139.473 83.176 140.027 83.334 140.671 83.334C141.095 83.334 141.475 83.268 141.811 83.136C142.147 83 142.411 82.808 142.603 82.56C142.795 82.312 142.891 82.018 142.891 81.678C142.891 81.454 142.851 81.264 142.771 81.108C142.691 80.948 142.585 80.816 142.453 80.712C142.321 80.608 142.177 80.522 142.021 80.454C141.865 80.382 141.713 80.324 141.565 80.28L139.375 79.626C139.111 79.55 138.867 79.454 138.643 79.338C138.419 79.218 138.223 79.076 138.055 78.912C137.891 78.744 137.763 78.548 137.671 78.324C137.579 78.1 137.533 77.844 137.533 77.556C137.533 77.068 137.661 76.646 137.917 76.29C138.173 75.934 138.523 75.66 138.967 75.468C139.411 75.276 139.917 75.182 140.485 75.186C141.061 75.186 141.575 75.288 142.027 75.492C142.483 75.696 142.859 75.988 143.155 76.368C143.451 76.744 143.647 77.19 143.743 77.706L142.819 77.874C142.759 77.498 142.621 77.172 142.405 76.896C142.189 76.62 141.913 76.408 141.577 76.26C141.245 76.108 140.879 76.03 140.479 76.026C140.091 76.026 139.745 76.092 139.441 76.224C139.141 76.352 138.903 76.528 138.727 76.752C138.551 76.976 138.463 77.232 138.463 77.52C138.463 77.812 138.543 78.046 138.703 78.222C138.867 78.398 139.067 78.536 139.303 78.636C139.543 78.736 139.775 78.818 139.999 78.882L141.691 79.38C141.867 79.428 142.073 79.498 142.309 79.59C142.549 79.678 142.781 79.806 143.005 79.974C143.233 80.138 143.421 80.354 143.569 80.622C143.717 80.89 143.791 81.23 143.791 81.642C143.791 82.042 143.711 82.4 143.551 82.716C143.395 83.032 143.173 83.298 142.885 83.514C142.601 83.73 142.267 83.894 141.883 84.006C141.503 84.122 141.087 84.18 140.635 84.18ZM147.771 84.18C147.139 84.18 146.591 84.04 146.127 83.76C145.667 83.48 145.309 83.086 145.053 82.578C144.797 82.07 144.669 81.474 144.669 80.79C144.669 80.082 144.795 79.47 145.047 78.954C145.299 78.438 145.653 78.04 146.109 77.76C146.569 77.48 147.111 77.34 147.735 77.34C148.375 77.34 148.921 77.488 149.373 77.784C149.825 78.076 150.167 78.496 150.399 79.044C150.631 79.592 150.737 80.246 150.717 81.006H149.817V80.694C149.801 79.854 149.619 79.22 149.271 78.792C148.927 78.364 148.423 78.15 147.759 78.15C147.063 78.15 146.529 78.376 146.157 78.828C145.789 79.28 145.605 79.924 145.605 80.76C145.605 81.576 145.789 82.21 146.157 82.662C146.529 83.11 147.055 83.334 147.735 83.334C148.199 83.334 148.603 83.228 148.947 83.016C149.295 82.8 149.569 82.49 149.769 82.086L150.591 82.404C150.335 82.968 149.957 83.406 149.457 83.718C148.961 84.026 148.399 84.18 147.771 84.18ZM145.293 81.006V80.268H150.243V81.006H145.293ZM154.737 84.18C154.085 84.18 153.533 84.034 153.081 83.742C152.629 83.45 152.285 83.048 152.049 82.536C151.817 82.02 151.697 81.428 151.689 80.76C151.697 80.08 151.821 79.484 152.061 78.972C152.301 78.456 152.647 78.056 153.099 77.772C153.551 77.484 154.099 77.34 154.743 77.34C155.399 77.34 155.969 77.5 156.453 77.82C156.941 78.14 157.275 78.578 157.455 79.134L156.591 79.41C156.439 79.022 156.197 78.722 155.865 78.51C155.537 78.294 155.161 78.186 154.737 78.186C154.261 78.186 153.867 78.296 153.555 78.516C153.243 78.732 153.011 79.034 152.859 79.422C152.707 79.81 152.629 80.256 152.625 80.76C152.633 81.536 152.813 82.16 153.165 82.632C153.517 83.1 154.041 83.334 154.737 83.334C155.177 83.334 155.551 83.234 155.859 83.034C156.171 82.83 156.407 82.534 156.567 82.146L157.455 82.41C157.215 82.986 156.863 83.426 156.399 83.73C155.935 84.03 155.381 84.18 154.737 84.18ZM161.172 84.162C160.784 84.162 160.444 84.102 160.152 83.982C159.864 83.862 159.618 83.7 159.414 83.496C159.214 83.292 159.052 83.06 158.928 82.8C158.804 82.536 158.714 82.258 158.658 81.966C158.602 81.67 158.574 81.376 158.574 81.084V77.52H159.462V80.826C159.462 81.182 159.496 81.512 159.564 81.816C159.632 82.12 159.74 82.386 159.888 82.614C160.04 82.838 160.234 83.012 160.47 83.136C160.71 83.26 161 83.322 161.34 83.322C161.652 83.322 161.926 83.268 162.162 83.16C162.402 83.052 162.602 82.898 162.762 82.698C162.926 82.494 163.05 82.248 163.134 81.96C163.218 81.668 163.26 81.34 163.26 80.976L163.884 81.114C163.884 81.778 163.768 82.336 163.536 82.788C163.304 83.24 162.984 83.582 162.576 83.814C162.168 84.046 161.7 84.162 161.172 84.162ZM163.35 84V82.404H163.26V77.52H164.142V84H163.35ZM165.819 84V77.52H166.611V79.08L166.455 78.876C166.527 78.684 166.621 78.508 166.737 78.348C166.853 78.184 166.979 78.05 167.115 77.946C167.283 77.798 167.479 77.686 167.703 77.61C167.927 77.53 168.153 77.484 168.381 77.472C168.609 77.456 168.817 77.472 169.005 77.52V78.348C168.769 78.288 168.511 78.274 168.231 78.306C167.951 78.338 167.693 78.45 167.457 78.642C167.241 78.81 167.079 79.012 166.971 79.248C166.863 79.48 166.791 79.728 166.755 79.992C166.719 80.252 166.701 80.51 166.701 80.766V84H165.819ZM172.768 84.18C172.136 84.18 171.588 84.04 171.124 83.76C170.664 83.48 170.306 83.086 170.05 82.578C169.794 82.07 169.666 81.474 169.666 80.79C169.666 80.082 169.792 79.47 170.044 78.954C170.296 78.438 170.65 78.04 171.106 77.76C171.566 77.48 172.108 77.34 172.732 77.34C173.372 77.34 173.918 77.488 174.37 77.784C174.822 78.076 175.164 78.496 175.396 79.044C175.628 79.592 175.734 80.246 175.714 81.006H174.814V80.694C174.798 79.854 174.616 79.22 174.268 78.792C173.924 78.364 173.42 78.15 172.756 78.15C172.06 78.15 171.526 78.376 171.154 78.828C170.786 79.28 170.602 79.924 170.602 80.76C170.602 81.576 170.786 82.21 171.154 82.662C171.526 83.11 172.052 83.334 172.732 83.334C173.196 83.334 173.6 83.228 173.944 83.016C174.292 82.8 174.566 82.49 174.766 82.086L175.588 82.404C175.332 82.968 174.954 83.406 174.454 83.718C173.958 84.026 173.396 84.18 172.768 84.18ZM170.29 81.006V80.268H175.24V81.006H170.29ZM179.207 83.994L179.213 83.19L183.119 79.662C183.455 79.358 183.677 79.07 183.785 78.798C183.897 78.522 183.953 78.234 183.953 77.934C183.953 77.578 183.869 77.256 183.701 76.968C183.533 76.68 183.307 76.452 183.023 76.284C182.739 76.112 182.421 76.026 182.069 76.026C181.701 76.026 181.373 76.114 181.085 76.29C180.797 76.466 180.569 76.698 180.401 76.986C180.237 77.274 180.157 77.588 180.161 77.928H179.261C179.261 77.404 179.385 76.934 179.633 76.518C179.881 76.102 180.217 75.776 180.641 75.54C181.065 75.3 181.545 75.18 182.081 75.18C182.605 75.18 183.075 75.304 183.491 75.552C183.911 75.796 184.241 76.128 184.481 76.548C184.725 76.964 184.847 77.428 184.847 77.94C184.847 78.3 184.803 78.618 184.715 78.894C184.631 79.166 184.497 79.42 184.313 79.656C184.133 79.888 183.903 80.128 183.623 80.376L180.155 83.508L180.017 83.148H184.847V83.994H179.207ZM188.841 84.18C188.393 84.18 187.979 84.088 187.599 83.904C187.219 83.72 186.895 83.466 186.627 83.142C186.359 82.818 186.167 82.446 186.051 82.026L186.897 81.798C186.973 82.11 187.111 82.38 187.311 82.608C187.511 82.832 187.745 83.006 188.013 83.13C188.285 83.254 188.569 83.316 188.865 83.316C189.249 83.316 189.593 83.224 189.897 83.04C190.205 82.852 190.449 82.604 190.629 82.296C190.809 81.988 190.899 81.65 190.899 81.282C190.899 80.902 190.805 80.56 190.617 80.256C190.429 79.948 190.181 79.704 189.873 79.524C189.565 79.344 189.229 79.254 188.865 79.254C188.457 79.254 188.105 79.344 187.809 79.524C187.513 79.7 187.277 79.922 187.101 80.19L186.297 79.854L186.561 75.36H191.175V76.206H186.951L187.389 75.792L187.155 79.626L186.933 79.332C187.181 79.048 187.481 78.826 187.833 78.666C188.185 78.506 188.555 78.426 188.943 78.426C189.475 78.426 189.955 78.554 190.383 78.81C190.811 79.062 191.151 79.404 191.403 79.836C191.655 80.268 191.781 80.75 191.781 81.282C191.781 81.81 191.647 82.294 191.379 82.734C191.111 83.17 190.755 83.52 190.311 83.784C189.867 84.048 189.377 84.18 188.841 84.18ZM196.139 84.18C195.599 84.18 195.107 84.05 194.663 83.79C194.223 83.526 193.871 83.17 193.607 82.722C193.347 82.27 193.217 81.762 193.217 81.198V78.204C193.217 77.624 193.347 77.108 193.607 76.656C193.867 76.2 194.221 75.842 194.669 75.582C195.121 75.318 195.633 75.186 196.205 75.186C196.697 75.186 197.153 75.294 197.573 75.51C197.997 75.726 198.343 76.028 198.611 76.416L197.933 76.974C197.749 76.686 197.505 76.456 197.201 76.284C196.897 76.112 196.565 76.026 196.205 76.026C195.801 76.026 195.441 76.124 195.125 76.32C194.809 76.516 194.561 76.774 194.381 77.094C194.201 77.41 194.111 77.754 194.111 78.126V80.01L193.889 79.758C194.141 79.362 194.471 79.042 194.879 78.798C195.291 78.554 195.739 78.432 196.223 78.432C196.759 78.432 197.241 78.56 197.669 78.816C198.097 79.068 198.437 79.41 198.689 79.842C198.941 80.274 199.067 80.758 199.067 81.294C199.067 81.826 198.933 82.31 198.665 82.746C198.401 83.182 198.047 83.53 197.603 83.79C197.163 84.05 196.675 84.18 196.139 84.18ZM196.139 83.322C196.515 83.322 196.857 83.232 197.165 83.052C197.477 82.872 197.723 82.628 197.903 82.32C198.087 82.012 198.179 81.67 198.179 81.294C198.179 80.918 198.087 80.576 197.903 80.268C197.723 79.956 197.479 79.71 197.171 79.53C196.863 79.346 196.521 79.254 196.145 79.254C195.769 79.254 195.427 79.346 195.119 79.53C194.811 79.71 194.565 79.956 194.381 80.268C194.201 80.576 194.111 80.918 194.111 81.294C194.111 81.666 194.201 82.006 194.381 82.314C194.561 82.622 194.805 82.868 195.113 83.052C195.421 83.232 195.763 83.322 196.139 83.322ZM200.538 80.598V79.842H204.138V80.598H200.538ZM205.697 84V75.36H209.033C209.517 75.36 209.939 75.46 210.299 75.66C210.659 75.86 210.939 76.13 211.139 76.47C211.339 76.806 211.439 77.178 211.439 77.586C211.439 78.05 211.315 78.464 211.067 78.828C210.819 79.188 210.487 79.438 210.071 79.578L210.059 79.284C210.619 79.444 211.059 79.724 211.379 80.124C211.699 80.524 211.859 81.008 211.859 81.576C211.859 82.076 211.753 82.508 211.541 82.872C211.329 83.232 211.031 83.51 210.647 83.706C210.263 83.902 209.817 84 209.309 84H205.697ZM206.585 83.154H209.093C209.445 83.154 209.761 83.092 210.041 82.968C210.321 82.84 210.541 82.66 210.701 82.428C210.865 82.196 210.947 81.916 210.947 81.588C210.947 81.268 210.873 80.98 210.725 80.724C210.577 80.468 210.375 80.264 210.119 80.112C209.867 79.956 209.579 79.878 209.255 79.878H206.585V83.154ZM206.585 79.044H209.027C209.303 79.044 209.555 78.982 209.783 78.858C210.011 78.73 210.191 78.556 210.323 78.336C210.459 78.116 210.527 77.862 210.527 77.574C210.527 77.166 210.385 76.834 210.101 76.578C209.821 76.322 209.463 76.194 209.027 76.194H206.585V79.044ZM213.177 76.29V75.3H214.059V76.29H213.177ZM213.177 84V77.52H214.059V84H213.177ZM219.386 84C219.022 84.076 218.662 84.106 218.306 84.09C217.954 84.074 217.638 83.998 217.358 83.862C217.082 83.726 216.872 83.514 216.728 83.226C216.612 82.986 216.548 82.744 216.536 82.5C216.528 82.252 216.524 81.97 216.524 81.654V75.72H217.4V81.618C217.4 81.89 217.402 82.118 217.406 82.302C217.414 82.482 217.456 82.642 217.532 82.782C217.676 83.05 217.904 83.21 218.216 83.262C218.532 83.314 218.922 83.302 219.386 83.226V84ZM215.138 78.276V77.52H219.386V78.276H215.138ZM226.065 84.18C225.461 84.18 224.917 84.08 224.433 83.88C223.953 83.676 223.555 83.388 223.239 83.016C222.927 82.644 222.723 82.202 222.627 81.69L223.527 81.54C223.671 82.1 223.975 82.54 224.439 82.86C224.903 83.176 225.457 83.334 226.101 83.334C226.525 83.334 226.905 83.268 227.241 83.136C227.577 83 227.841 82.808 228.033 82.56C228.225 82.312 228.321 82.018 228.321 81.678C228.321 81.454 228.281 81.264 228.201 81.108C228.121 80.948 228.015 80.816 227.883 80.712C227.751 80.608 227.607 80.522 227.451 80.454C227.295 80.382 227.143 80.324 226.995 80.28L224.805 79.626C224.541 79.55 224.297 79.454 224.073 79.338C223.849 79.218 223.653 79.076 223.485 78.912C223.321 78.744 223.193 78.548 223.101 78.324C223.009 78.1 222.963 77.844 222.963 77.556C222.963 77.068 223.091 76.646 223.347 76.29C223.603 75.934 223.953 75.66 224.397 75.468C224.841 75.276 225.347 75.182 225.915 75.186C226.491 75.186 227.005 75.288 227.457 75.492C227.913 75.696 228.289 75.988 228.585 76.368C228.881 76.744 229.077 77.19 229.173 77.706L228.249 77.874C228.189 77.498 228.051 77.172 227.835 76.896C227.619 76.62 227.343 76.408 227.007 76.26C226.675 76.108 226.309 76.03 225.909 76.026C225.521 76.026 225.175 76.092 224.871 76.224C224.571 76.352 224.333 76.528 224.157 76.752C223.981 76.976 223.893 77.232 223.893 77.52C223.893 77.812 223.973 78.046 224.133 78.222C224.297 78.398 224.497 78.536 224.733 78.636C224.973 78.736 225.205 78.818 225.429 78.882L227.121 79.38C227.297 79.428 227.503 79.498 227.739 79.59C227.979 79.678 228.211 79.806 228.435 79.974C228.663 80.138 228.851 80.354 228.999 80.622C229.147 80.89 229.221 81.23 229.221 81.642C229.221 82.042 229.141 82.4 228.981 82.716C228.825 83.032 228.603 83.298 228.315 83.514C228.031 83.73 227.697 83.894 227.313 84.006C226.933 84.122 226.517 84.18 226.065 84.18ZM233.635 84.18C233.031 84.18 232.487 84.08 232.003 83.88C231.523 83.676 231.125 83.388 230.809 83.016C230.497 82.644 230.293 82.202 230.197 81.69L231.097 81.54C231.241 82.1 231.545 82.54 232.009 82.86C232.473 83.176 233.027 83.334 233.671 83.334C234.095 83.334 234.475 83.268 234.811 83.136C235.147 83 235.411 82.808 235.603 82.56C235.795 82.312 235.891 82.018 235.891 81.678C235.891 81.454 235.851 81.264 235.771 81.108C235.691 80.948 235.585 80.816 235.453 80.712C235.321 80.608 235.177 80.522 235.021 80.454C234.865 80.382 234.713 80.324 234.565 80.28L232.375 79.626C232.111 79.55 231.867 79.454 231.643 79.338C231.419 79.218 231.223 79.076 231.055 78.912C230.891 78.744 230.763 78.548 230.671 78.324C230.579 78.1 230.533 77.844 230.533 77.556C230.533 77.068 230.661 76.646 230.917 76.29C231.173 75.934 231.523 75.66 231.967 75.468C232.411 75.276 232.917 75.182 233.485 75.186C234.061 75.186 234.575 75.288 235.027 75.492C235.483 75.696 235.859 75.988 236.155 76.368C236.451 76.744 236.647 77.19 236.743 77.706L235.819 77.874C235.759 77.498 235.621 77.172 235.405 76.896C235.189 76.62 234.913 76.408 234.577 76.26C234.245 76.108 233.879 76.03 233.479 76.026C233.091 76.026 232.745 76.092 232.441 76.224C232.141 76.352 231.903 76.528 231.727 76.752C231.551 76.976 231.463 77.232 231.463 77.52C231.463 77.812 231.543 78.046 231.703 78.222C231.867 78.398 232.067 78.536 232.303 78.636C232.543 78.736 232.775 78.818 232.999 78.882L234.691 79.38C234.867 79.428 235.073 79.498 235.309 79.59C235.549 79.678 235.781 79.806 236.005 79.974C236.233 80.138 236.421 80.354 236.569 80.622C236.717 80.89 236.791 81.23 236.791 81.642C236.791 82.042 236.711 82.4 236.551 82.716C236.395 83.032 236.173 83.298 235.885 83.514C235.601 83.73 235.267 83.894 234.883 84.006C234.503 84.122 234.087 84.18 233.635 84.18ZM238.149 84V75.36H239.031V83.154H243.135V84H238.149ZM245.963 84V75.36H251.363V76.206H246.845V79.194H250.643V80.04H246.845V83.154H251.363V84H245.963ZM257.487 84V80.694C257.487 80.334 257.453 80.004 257.385 79.704C257.317 79.4 257.207 79.136 257.055 78.912C256.907 78.684 256.713 78.508 256.473 78.384C256.237 78.26 255.949 78.198 255.609 78.198C255.297 78.198 255.021 78.252 254.781 78.36C254.545 78.468 254.345 78.624 254.181 78.828C254.021 79.028 253.899 79.272 253.815 79.56C253.731 79.848 253.689 80.176 253.689 80.544L253.065 80.406C253.065 79.742 253.181 79.184 253.413 78.732C253.645 78.28 253.965 77.938 254.373 77.706C254.781 77.474 255.249 77.358 255.777 77.358C256.165 77.358 256.503 77.418 256.791 77.538C257.083 77.658 257.329 77.82 257.529 78.024C257.733 78.228 257.897 78.462 258.021 78.726C258.145 78.986 258.235 79.264 258.291 79.56C258.347 79.852 258.375 80.144 258.375 80.436V84H257.487ZM252.801 84V77.52H253.599V79.116H253.689V84H252.801ZM262.585 84.18C261.933 84.18 261.381 84.034 260.929 83.742C260.477 83.45 260.133 83.048 259.897 82.536C259.665 82.02 259.545 81.428 259.537 80.76C259.545 80.08 259.669 79.484 259.909 78.972C260.149 78.456 260.495 78.056 260.947 77.772C261.399 77.484 261.947 77.34 262.591 77.34C263.247 77.34 263.817 77.5 264.301 77.82C264.789 78.14 265.123 78.578 265.303 79.134L264.439 79.41C264.287 79.022 264.045 78.722 263.713 78.51C263.385 78.294 263.009 78.186 262.585 78.186C262.109 78.186 261.715 78.296 261.403 78.516C261.091 78.732 260.859 79.034 260.707 79.422C260.555 79.81 260.477 80.256 260.473 80.76C260.481 81.536 260.661 82.16 261.013 82.632C261.365 83.1 261.889 83.334 262.585 83.334C263.025 83.334 263.399 83.234 263.707 83.034C264.019 82.83 264.255 82.534 264.415 82.146L265.303 82.41C265.063 82.986 264.711 83.426 264.247 83.73C263.783 84.03 263.229 84.18 262.585 84.18ZM266.541 84V77.52H267.333V79.08L267.177 78.876C267.249 78.684 267.343 78.508 267.459 78.348C267.575 78.184 267.701 78.05 267.837 77.946C268.005 77.798 268.201 77.686 268.425 77.61C268.649 77.53 268.875 77.484 269.103 77.472C269.331 77.456 269.539 77.472 269.727 77.52V78.348C269.491 78.288 269.233 78.274 268.953 78.306C268.673 78.338 268.415 78.45 268.179 78.642C267.963 78.81 267.801 79.012 267.693 79.248C267.585 79.48 267.513 79.728 267.477 79.992C267.441 80.252 267.423 80.51 267.423 80.766V84H266.541ZM271.707 86.88L272.961 83.478L272.979 84.486L270.141 77.52H271.077L273.405 83.346H273.021L275.169 77.52H276.069L272.589 86.88H271.707ZM280.021 84.18C279.425 84.18 278.921 84.03 278.509 83.73C278.097 83.426 277.785 83.016 277.573 82.5C277.361 81.98 277.255 81.398 277.255 80.754C277.255 80.098 277.361 79.514 277.573 79.002C277.789 78.486 278.105 78.08 278.521 77.784C278.937 77.488 279.449 77.34 280.057 77.34C280.649 77.34 281.157 77.49 281.581 77.79C282.005 78.09 282.329 78.498 282.553 79.014C282.781 79.53 282.895 80.11 282.895 80.754C282.895 81.402 282.781 81.984 282.553 82.5C282.325 83.016 281.997 83.426 281.569 83.73C281.141 84.03 280.625 84.18 280.021 84.18ZM277.105 86.88V77.52H277.897V82.398H277.993V86.88H277.105ZM279.931 83.358C280.383 83.358 280.759 83.244 281.059 83.016C281.359 82.788 281.583 82.478 281.731 82.086C281.883 81.69 281.959 81.246 281.959 80.754C281.959 80.266 281.885 79.826 281.737 79.434C281.589 79.042 281.363 78.732 281.059 78.504C280.759 78.276 280.377 78.162 279.913 78.162C279.461 78.162 279.085 78.272 278.785 78.492C278.489 78.712 278.267 79.018 278.119 79.41C277.971 79.798 277.897 80.246 277.897 80.754C277.897 81.254 277.971 81.702 278.119 82.098C278.267 82.49 278.491 82.798 278.791 83.022C279.091 83.246 279.471 83.358 279.931 83.358ZM287.741 84C287.377 84.076 287.017 84.106 286.661 84.09C286.309 84.074 285.993 83.998 285.713 83.862C285.437 83.726 285.227 83.514 285.083 83.226C284.967 82.986 284.903 82.744 284.891 82.5C284.883 82.252 284.879 81.97 284.879 81.654V75.72H285.755V81.618C285.755 81.89 285.757 82.118 285.761 82.302C285.769 82.482 285.811 82.642 285.887 82.782C286.031 83.05 286.259 83.21 286.571 83.262C286.887 83.314 287.277 83.302 287.741 83.226V84ZM283.493 78.276V77.52H287.741V78.276H283.493ZM289.138 76.29V75.3H290.02V76.29H289.138ZM289.138 84V77.52H290.02V84H289.138ZM294.525 84.18C293.881 84.18 293.331 84.034 292.875 83.742C292.419 83.45 292.069 83.046 291.825 82.53C291.581 82.014 291.459 81.422 291.459 80.754C291.459 80.074 291.583 79.478 291.831 78.966C292.079 78.454 292.431 78.056 292.887 77.772C293.347 77.484 293.893 77.34 294.525 77.34C295.173 77.34 295.725 77.486 296.181 77.778C296.641 78.066 296.991 78.468 297.231 78.984C297.475 79.496 297.597 80.086 297.597 80.754C297.597 81.434 297.475 82.032 297.231 82.548C296.987 83.06 296.635 83.46 296.175 83.748C295.715 84.036 295.165 84.18 294.525 84.18ZM294.525 83.334C295.245 83.334 295.781 83.096 296.133 82.62C296.485 82.14 296.661 81.518 296.661 80.754C296.661 79.97 296.483 79.346 296.127 78.882C295.775 78.418 295.241 78.186 294.525 78.186C294.041 78.186 293.641 78.296 293.325 78.516C293.013 78.732 292.779 79.034 292.623 79.422C292.471 79.806 292.395 80.25 292.395 80.754C292.395 81.534 292.575 82.16 292.935 82.632C293.295 83.1 293.825 83.334 294.525 83.334ZM303.6 84V80.694C303.6 80.334 303.566 80.004 303.498 79.704C303.43 79.4 303.32 79.136 303.168 78.912C303.02 78.684 302.826 78.508 302.586 78.384C302.35 78.26 302.062 78.198 301.722 78.198C301.41 78.198 301.134 78.252 300.894 78.36C300.658 78.468 300.458 78.624 300.294 78.828C300.134 79.028 300.012 79.272 299.928 79.56C299.844 79.848 299.802 80.176 299.802 80.544L299.178 80.406C299.178 79.742 299.294 79.184 299.526 78.732C299.758 78.28 300.078 77.938 300.486 77.706C300.894 77.474 301.362 77.358 301.89 77.358C302.278 77.358 302.616 77.418 302.904 77.538C303.196 77.658 303.442 77.82 303.642 78.024C303.846 78.228 304.01 78.462 304.134 78.726C304.258 78.986 304.348 79.264 304.404 79.56C304.46 79.852 304.488 80.144 304.488 80.436V84H303.6ZM298.914 84V77.52H299.712V79.116H299.802V84H298.914Z" fill="#4D5254"></path><line x1="16.5" y1="99.5" x2="305.5" y2="99.5" stroke="#CFCFCF"></line><g clip-path="url(#clip1_1_675)"><path opacity="0.07" d="M93.1053 112H72.8947C71.8211 112 71 112.758 71 113.75V124.25C71 125.242 71.8842 126 72.8947 126H93.1053C94.1789 126 95 125.242 95 124.25V113.75C95 112.758 94.1158 112 93.1053 112Z" fill="black"></path><path d="M93.1055 112.583C93.8003 112.583 94.3687 113.108 94.3687 113.75V124.25C94.3687 124.892 93.8003 125.417 93.1055 125.417H72.895C72.2003 125.417 71.6318 124.892 71.6318 124.25V113.75C71.6318 113.108 72.2003 112.583 72.895 112.583H93.1055Z" fill="white"></path><path d="M88.874 117.892H88.6845C88.4319 118.475 88.2424 118.767 88.0529 119.642H89.2529C89.0635 118.767 89.0635 118.358 88.874 117.892V117.892ZM90.7056 121.333H89.6319C89.5687 121.333 89.5687 121.333 89.5056 121.275L89.3793 120.75L89.3161 120.633H87.8003C87.7372 120.633 87.674 120.633 87.674 120.75L87.4845 121.275C87.4845 121.333 87.4214 121.333 87.4214 121.333H86.095L86.2214 121.042L88.0529 117.075C88.0529 116.783 88.2424 116.667 88.5582 116.667H89.5056C89.5687 116.667 89.6319 116.667 89.6319 116.783L90.5161 120.575C90.5793 120.808 90.6424 120.983 90.6424 121.217C90.7056 121.275 90.7056 121.275 90.7056 121.333V121.333ZM82.2424 121.158L82.495 120.108C82.5582 120.108 82.6214 120.167 82.6214 120.167C83.0635 120.342 83.5056 120.458 83.9477 120.4C84.074 120.4 84.2635 120.342 84.3898 120.283C84.7056 120.167 84.7056 119.875 84.4529 119.642C84.3266 119.525 84.1372 119.467 83.9477 119.35C83.695 119.233 83.4424 119.117 83.2529 118.942C82.495 118.358 82.7477 117.542 83.1898 117.133C83.5687 116.9 83.7582 116.667 84.2635 116.667C85.0214 116.667 85.8424 116.667 86.2214 116.783H86.2845C86.2214 117.133 86.1582 117.425 86.0319 117.775C85.7161 117.658 85.4003 117.542 85.0845 117.542C84.895 117.542 84.7056 117.542 84.5161 117.6C84.3898 117.6 84.3266 117.658 84.2635 117.717C84.1372 117.833 84.1372 118.008 84.2635 118.125L84.5793 118.358C84.8319 118.475 85.0845 118.592 85.274 118.708C85.5898 118.883 85.9056 119.175 85.9687 119.525C86.095 120.05 85.9056 120.517 85.4003 120.867C85.0845 121.1 84.9582 121.217 84.5161 121.217C83.6319 121.217 82.9372 121.275 82.3687 121.1C82.3056 121.217 82.3056 121.217 82.2424 121.158V121.158ZM80.0319 121.333C80.095 120.925 80.095 120.925 80.1582 120.75C80.474 119.467 80.7898 118.125 81.0424 116.842C81.1056 116.725 81.1056 116.667 81.2319 116.667H82.3687C82.2424 117.367 82.1161 117.892 81.9266 118.533C81.7371 119.408 81.5477 120.283 81.295 121.158C81.295 121.275 81.2319 121.275 81.1056 121.275M74.1582 116.783C74.1582 116.725 74.2845 116.667 74.3477 116.667H76.495C76.8108 116.667 77.0635 116.842 77.1266 117.133L77.695 119.7C77.695 119.758 77.695 119.758 77.7582 119.817C77.7582 119.758 77.8214 119.758 77.8214 119.758L79.1477 116.783C79.0845 116.725 79.1477 116.667 79.2108 116.667H80.5372C80.5372 116.725 80.5372 116.725 80.474 116.783L78.5161 121.042C78.4529 121.158 78.4529 121.217 78.3898 121.275C78.3266 121.333 78.2003 121.275 78.074 121.275H77.1266C77.0635 121.275 77.0003 121.275 77.0003 121.158L75.9898 117.542C75.8635 117.425 75.674 117.25 75.4214 117.192C75.0424 117.017 74.3477 116.9 74.2214 116.9L74.1582 116.783Z" fill="#142688"></path></g><g clip-path="url(#clip2_1_675)"><path opacity="0.07" d="M119.105 112H98.8947C97.8211 112 97 112.758 97 113.75V124.25C97 125.242 97.8842 126 98.8947 126H119.105C120.179 126 121 125.242 121 124.25V113.75C121 112.758 120.116 112 119.105 112Z" fill="black"></path><path d="M119.106 112.583C119.8 112.583 120.369 113.108 120.369 113.75V124.25C120.369 124.892 119.8 125.417 119.106 125.417H98.895C98.2003 125.417 97.6318 124.892 97.6318 124.25V113.75C97.6318 113.108 98.2003 112.583 98.895 112.583H119.106Z" fill="#5A31F4"></path><path d="M110.504 117.666C110.504 118.639 109.76 119.333 108.722 119.333H107.744C107.728 119.333 107.712 119.338 107.698 119.346C107.685 119.354 107.674 119.366 107.668 119.38C107.664 119.389 107.662 119.399 107.662 119.408V120.687C107.662 120.697 107.659 120.707 107.655 120.716C107.651 120.725 107.645 120.734 107.638 120.741C107.63 120.748 107.621 120.753 107.611 120.757C107.601 120.761 107.59 120.762 107.58 120.762H106.895C106.873 120.762 106.852 120.754 106.837 120.74C106.821 120.726 106.813 120.707 106.813 120.687V116.075C106.813 116.06 106.817 116.045 106.826 116.033C106.835 116.02 106.848 116.011 106.863 116.005C106.873 116.001 106.884 115.999 106.895 115.999H108.726C109.76 115.999 110.504 116.694 110.504 117.667V117.666V117.666ZM109.65 117.666C109.65 117.107 109.234 116.699 108.671 116.699H107.744C107.733 116.699 107.722 116.701 107.712 116.705C107.702 116.708 107.693 116.714 107.686 116.721C107.678 116.728 107.672 116.736 107.668 116.746C107.664 116.755 107.662 116.765 107.662 116.775V118.554C107.661 118.564 107.664 118.574 107.668 118.583C107.672 118.592 107.678 118.601 107.686 118.608C107.693 118.615 107.702 118.62 107.712 118.624C107.722 118.628 107.733 118.63 107.744 118.63H108.671C109.234 118.633 109.65 118.224 109.65 117.666V117.666ZM110.707 119.877C110.7 119.728 110.734 119.579 110.805 119.445C110.876 119.311 110.983 119.195 111.116 119.109C111.383 118.925 111.8 118.829 112.414 118.809L113.066 118.788V118.612C113.066 118.258 112.807 118.108 112.392 118.108C111.976 118.108 111.713 118.243 111.653 118.464C111.647 118.48 111.637 118.493 111.623 118.503C111.608 118.512 111.591 118.517 111.574 118.517H110.928C110.91 118.517 110.893 118.512 110.879 118.502C110.864 118.492 110.854 118.479 110.849 118.463C110.845 118.452 110.844 118.441 110.846 118.431C110.942 117.907 111.417 117.509 112.421 117.509C113.49 117.509 113.876 117.966 113.876 118.837V120.687C113.876 120.697 113.873 120.707 113.869 120.716C113.865 120.725 113.859 120.734 113.851 120.741C113.843 120.748 113.834 120.753 113.824 120.757C113.814 120.761 113.803 120.762 113.792 120.762H113.142C113.12 120.762 113.099 120.754 113.084 120.74C113.068 120.726 113.06 120.707 113.06 120.687V120.549C113.06 120.537 113.056 120.526 113.049 120.517C113.043 120.507 113.033 120.5 113.021 120.496C113.01 120.492 112.997 120.491 112.985 120.493C112.973 120.495 112.962 120.501 112.954 120.509C112.758 120.703 112.443 120.844 111.939 120.844C111.197 120.844 110.707 120.49 110.707 119.877V119.877ZM113.066 119.477V119.333L112.22 119.374C111.775 119.395 111.516 119.564 111.516 119.85C111.516 120.109 111.754 120.253 112.169 120.253C112.733 120.253 113.066 119.973 113.066 119.477ZM114.529 122.16V121.624C114.529 121.613 114.532 121.602 114.537 121.592C114.542 121.581 114.55 121.573 114.56 121.566C114.569 121.559 114.58 121.553 114.592 121.551C114.604 121.548 114.616 121.548 114.628 121.55C114.728 121.567 114.829 121.576 114.93 121.576C115.105 121.584 115.277 121.539 115.42 121.446C115.562 121.353 115.667 121.219 115.717 121.065L115.759 120.941C115.765 120.925 115.765 120.907 115.759 120.89L114.404 117.699C114.396 117.681 114.396 117.662 114.403 117.644C114.41 117.626 114.424 117.611 114.442 117.602C114.454 117.597 114.468 117.594 114.481 117.594H115.138C115.155 117.594 115.172 117.598 115.185 117.607C115.199 117.616 115.21 117.629 115.216 117.643L116.136 119.894C116.141 119.909 116.152 119.923 116.166 119.932C116.18 119.941 116.197 119.946 116.214 119.946C116.232 119.946 116.249 119.941 116.263 119.932C116.277 119.922 116.288 119.909 116.293 119.894L117.092 117.65C117.098 117.634 117.108 117.621 117.123 117.611C117.137 117.602 117.154 117.597 117.172 117.597H117.852C117.872 117.597 117.892 117.604 117.907 117.617C117.922 117.629 117.932 117.646 117.935 117.665C117.936 117.677 117.935 117.69 117.93 117.702L116.48 121.246C116.147 122.07 115.575 122.28 114.946 122.28C114.826 122.283 114.707 122.27 114.591 122.242C114.572 122.237 114.555 122.227 114.543 122.212C114.532 122.197 114.526 122.178 114.528 122.16H114.529V122.16ZM102.412 115.733C101.55 115.727 100.718 116.025 100.086 116.566C100.059 116.588 100.042 116.62 100.039 116.653C100.035 116.686 100.046 116.72 100.068 116.747L100.458 117.236C100.47 117.253 100.487 117.266 100.506 117.276C100.525 117.286 100.546 117.292 100.568 117.294C100.59 117.295 100.612 117.292 100.632 117.285C100.653 117.278 100.671 117.267 100.686 117.252C100.914 117.044 101.184 116.879 101.481 116.768C101.778 116.657 102.095 116.602 102.416 116.605C103.755 116.605 104.454 117.529 104.454 118.442C104.454 119.434 103.719 120.133 102.663 120.146C101.847 120.146 101.232 119.651 101.232 118.995C101.233 118.829 101.274 118.665 101.352 118.516C101.429 118.367 101.543 118.235 101.682 118.132C101.712 118.109 101.731 118.076 101.735 118.041C101.739 118.006 101.728 117.97 101.703 117.943L101.293 117.467C101.28 117.452 101.265 117.44 101.247 117.431C101.23 117.422 101.21 117.417 101.19 117.415C101.17 117.413 101.15 117.415 101.131 117.421C101.112 117.426 101.094 117.435 101.079 117.447C100.827 117.634 100.624 117.869 100.484 118.137C100.344 118.405 100.271 118.698 100.271 118.995C100.271 120.124 101.316 121.009 102.655 121.016H102.674C104.264 120.997 105.413 119.917 105.413 118.44C105.413 117.129 104.36 115.733 102.412 115.733V115.733Z" fill="white"></path></g><g clip-path="url(#clip3_1_675)"><path opacity="0.07" d="M145.105 112H124.895C123.821 112 123 112.758 123 113.75V124.25C123 125.242 123.884 126 124.895 126H145.105C146.179 126 147 125.242 147 124.25V113.75C147 112.758 146.116 112 145.105 112Z" fill="black"></path><path d="M145.106 112.583C145.8 112.583 146.369 113.108 146.369 113.75V124.25C146.369 124.892 145.8 125.417 145.106 125.417H124.895C124.2 125.417 123.632 124.892 123.632 124.25V113.75C123.632 113.108 124.2 112.583 124.895 112.583H145.106Z" fill="white"></path><path d="M138.094 116.842C138.221 116.258 138.094 115.85 137.715 115.5C137.337 115.092 136.642 114.917 135.758 114.917H133.168C132.979 114.917 132.852 115.033 132.789 115.208L131.842 121.1C131.842 121.217 131.905 121.333 132.031 121.333H133.737L133.989 119.35L135.126 118.067L138.094 116.842V116.842Z" fill="#003087"></path><path d="M138.095 116.842L137.969 116.958C137.653 118.592 136.579 119.175 135.063 119.175H134.369C134.179 119.175 134.053 119.292 133.99 119.467L133.611 121.742L133.484 122.325C133.484 122.442 133.548 122.558 133.674 122.558H135C135.19 122.558 135.316 122.442 135.316 122.325V122.267L135.569 120.867V120.808C135.569 120.692 135.758 120.575 135.884 120.575H136.074C137.4 120.575 138.411 120.108 138.663 118.708C138.79 118.125 138.726 117.658 138.411 117.308C138.348 117.017 138.221 116.9 138.095 116.842V116.842Z" fill="#3086C8"></path><path d="M137.716 116.725C137.652 116.667 137.589 116.667 137.526 116.667C137.463 116.667 137.4 116.667 137.337 116.608C137.147 116.55 136.895 116.55 136.642 116.55H134.747C134.684 116.55 134.621 116.55 134.621 116.608C134.495 116.667 134.431 116.725 134.431 116.842L133.989 119.408V119.467C133.989 119.292 134.179 119.175 134.368 119.175H135.189C136.768 119.175 137.779 118.592 138.095 116.958V116.842C138.031 116.783 137.905 116.725 137.779 116.725H137.716V116.725Z" fill="#012169"></path></g><g clip-path="url(#clip4_1_675)"><path opacity="0.07" d="M171.105 112H150.895C149.821 112 149 112.758 149 113.75V124.25C149 125.242 149.884 126 150.895 126H171.105C172.179 126 173 125.242 173 124.25V113.75C173 112.758 172.116 112 171.105 112Z" fill="black"></path><path d="M171.106 112.583C171.8 112.583 172.369 113.108 172.369 113.75V124.25C172.369 124.892 171.8 125.417 171.106 125.417H150.895C150.2 125.417 149.632 124.892 149.632 124.25V113.75C149.632 113.108 150.2 112.583 150.895 112.583H171.106Z" fill="white"></path><path d="M158.474 123.083C160.915 123.083 162.895 121.255 162.895 119C162.895 116.745 160.915 114.917 158.474 114.917C156.032 114.917 154.053 116.745 154.053 119C154.053 121.255 156.032 123.083 158.474 123.083Z" fill="#EB001B"></path><path d="M163.527 123.083C165.968 123.083 167.948 121.255 167.948 119C167.948 116.745 165.968 114.917 163.527 114.917C161.085 114.917 159.105 116.745 159.105 119C159.105 121.255 161.085 123.083 163.527 123.083Z" fill="#FFC000"></path><path d="M162.895 119C162.895 117.6 162.137 116.375 161 115.675C159.863 116.433 159.105 117.658 159.105 119C159.105 120.342 159.863 121.625 161 122.325C162.137 121.625 162.895 120.4 162.895 119Z" fill="#FF5F00"></path></g><g clip-path="url(#clip5_1_675)"><path opacity="0.07" d="M197.105 112H176.895C175.821 112 175 112.758 175 113.75V124.25C175 125.242 175.884 126 176.895 126H197.105C198.179 126 199 125.242 199 124.25V113.75C199 112.758 198.116 112 197.105 112Z" fill="black"></path><path d="M197.106 112.583C197.8 112.583 198.369 113.108 198.369 113.75V124.25C198.369 124.892 197.8 125.417 197.106 125.417H176.895C176.2 125.417 175.632 124.892 175.632 124.25V113.75C175.632 113.108 176.2 112.583 176.895 112.583H197.106Z" fill="white"></path><path d="M186.427 118.986V120.853H185.784V116.244H187.484C187.687 116.241 187.89 116.275 188.079 116.345C188.268 116.414 188.441 116.517 188.587 116.648C188.725 116.767 188.837 116.911 188.915 117.07C188.994 117.229 189.037 117.4 189.044 117.575C189.05 117.75 189.019 117.924 188.953 118.088C188.887 118.251 188.786 118.401 188.657 118.529L188.587 118.596C188.29 118.857 187.894 118.999 187.484 118.99L186.427 118.986V118.986ZM186.427 116.809V118.435H187.5C187.738 118.442 187.968 118.357 188.134 118.2C188.254 118.085 188.334 117.94 188.365 117.784C188.396 117.627 188.376 117.466 188.308 117.319C188.241 117.173 188.128 117.048 187.984 116.961C187.84 116.873 187.672 116.826 187.5 116.827L186.427 116.809V116.809ZM190.522 117.595C190.933 117.578 191.334 117.705 191.645 117.953C191.926 118.204 192.076 118.554 192.056 118.915V120.86H191.444V120.413H191.413C191.303 120.581 191.148 120.719 190.963 120.814C190.777 120.909 190.568 120.958 190.356 120.956C190.01 120.966 189.672 120.855 189.411 120.645C189.288 120.552 189.188 120.434 189.121 120.3C189.054 120.166 189.021 120.02 189.024 119.873C189.017 119.724 189.048 119.575 189.116 119.44C189.183 119.304 189.284 119.185 189.411 119.093C189.723 118.886 190.1 118.781 190.484 118.793C190.81 118.781 191.134 118.847 191.425 118.986V118.865C191.427 118.764 191.404 118.665 191.359 118.574C191.313 118.483 191.246 118.403 191.161 118.339C190.992 118.197 190.771 118.12 190.542 118.124C190.377 118.123 190.213 118.161 190.067 118.234C189.922 118.307 189.798 118.413 189.709 118.543L189.144 118.214C189.298 118.011 189.505 117.847 189.746 117.739C189.987 117.631 190.255 117.581 190.522 117.595V117.595ZM189.709 119.887C189.708 119.962 189.727 120.037 189.764 120.104C189.801 120.172 189.855 120.23 189.922 120.273C190.063 120.376 190.238 120.43 190.418 120.426C190.689 120.426 190.949 120.327 191.142 120.151C191.334 119.984 191.444 119.751 191.444 119.508C191.201 119.348 190.905 119.271 190.608 119.289C190.376 119.281 190.148 119.341 189.957 119.461C189.881 119.508 189.819 119.571 189.776 119.645C189.733 119.72 189.71 119.802 189.709 119.887V119.887ZM195.574 117.699L193.433 122.243H192.771L193.58 120.652L192.176 117.699H192.872L193.89 119.965L194.881 117.699H195.574V117.699Z" fill="#5F6368"></path><path d="M183.834 118.582C183.834 118.403 183.819 118.223 183.788 118.046H181.078V119.065H182.626C182.595 119.227 182.528 119.381 182.43 119.519C182.333 119.656 182.206 119.774 182.058 119.866V120.527H182.982C183.263 120.276 183.484 119.973 183.631 119.638C183.778 119.303 183.847 118.944 183.834 118.582Z" fill="#4285F4"></path><path d="M181.081 121.17C181.779 121.188 182.459 120.959 182.982 120.531L182.056 119.866C181.833 119.997 181.581 120.08 181.319 120.109C181.056 120.137 180.79 120.109 180.541 120.028C180.292 119.947 180.066 119.815 179.88 119.641C179.695 119.467 179.554 119.257 179.47 119.026H178.521V119.708C178.759 120.147 179.124 120.517 179.576 120.775C180.028 121.033 180.549 121.17 181.081 121.17V121.17Z" fill="#34A853"></path><path d="M179.471 119.029C179.351 118.701 179.351 118.346 179.471 118.017V117.335H178.522C178.32 117.703 178.215 118.11 178.215 118.523C178.215 118.936 178.32 119.344 178.522 119.712L179.471 119.029V119.029Z" fill="#FFC000"></path><path d="M181.081 116.924C181.489 116.917 181.884 117.059 182.18 117.32L183.001 116.566C182.477 116.112 181.783 115.865 181.065 115.876C180.536 115.878 180.019 116.016 179.57 116.273C179.121 116.531 178.758 116.898 178.521 117.334L179.47 118.017C179.581 117.702 179.796 117.427 180.085 117.231C180.374 117.035 180.722 116.927 181.081 116.924V116.924Z" fill="#EA4335"></path></g><g clip-path="url(#clip6_1_675)"><path d="M222.718 112H203.282C203.201 112 203.119 112 203.039 112C202.97 112.001 202.902 112.002 202.834 112.003C202.685 112.007 202.536 112.015 202.389 112.04C202.242 112.063 202.099 112.106 201.966 112.168C201.698 112.294 201.48 112.495 201.343 112.743C201.276 112.866 201.229 112.998 201.204 113.134C201.177 113.27 201.169 113.408 201.165 113.545C201.163 113.608 201.162 113.671 201.161 113.734C201.161 113.809 201.161 113.883 201.161 113.958V124.041C201.161 124.116 201.161 124.191 201.161 124.266C201.162 124.329 201.163 124.392 201.165 124.455C201.169 124.592 201.177 124.73 201.204 124.866C201.229 125.002 201.276 125.134 201.343 125.257C201.411 125.38 201.499 125.492 201.605 125.59C201.711 125.687 201.832 125.769 201.965 125.832C202.101 125.895 202.24 125.936 202.389 125.961C202.536 125.985 202.685 125.993 202.834 125.997C202.902 125.998 202.97 125.999 203.039 125.999C203.119 126 203.201 126 203.282 126H222.718C222.799 126 222.88 126 222.961 125.999C223.029 125.999 223.097 125.998 223.165 125.997C223.314 125.993 223.464 125.985 223.611 125.961C223.758 125.937 223.901 125.894 224.034 125.832C224.302 125.705 224.52 125.504 224.656 125.257C224.725 125.132 224.769 125.004 224.795 124.866C224.822 124.73 224.831 124.592 224.835 124.455C224.836 124.392 224.837 124.329 224.838 124.266C224.838 124.191 224.838 124.116 224.838 124.041V113.959C224.838 113.884 224.838 113.809 224.838 113.734C224.837 113.671 224.836 113.608 224.835 113.545C224.831 113.408 224.822 113.27 224.795 113.134C224.77 112.998 224.723 112.866 224.656 112.743C224.52 112.496 224.302 112.294 224.034 112.168C223.9 112.106 223.758 112.063 223.611 112.04C223.464 112.015 223.314 112.007 223.165 112.003C223.097 112.002 223.029 112.001 222.961 112.001C222.88 112 222.799 112 222.718 112Z" fill="#E4E4E4"></path><path d="M222.718 112.467L222.957 112.467C223.021 112.467 223.086 112.468 223.151 112.47C223.265 112.473 223.397 112.478 223.521 112.499C223.628 112.517 223.718 112.544 223.805 112.584C223.977 112.666 224.118 112.795 224.206 112.955C224.249 113.035 224.279 113.117 224.298 113.217C224.32 113.33 224.326 113.453 224.329 113.558C224.331 113.618 224.332 113.677 224.332 113.738C224.333 113.811 224.333 113.885 224.333 113.959V124.042C224.333 124.115 224.333 124.189 224.332 124.264C224.332 124.323 224.331 124.383 224.329 124.442C224.326 124.547 224.32 124.67 224.298 124.784C224.281 124.875 224.25 124.963 224.205 125.045C224.117 125.205 223.977 125.335 223.804 125.416C223.718 125.456 223.628 125.484 223.522 125.501C223.396 125.522 223.258 125.528 223.154 125.53C223.088 125.532 223.023 125.533 222.956 125.533C222.877 125.533 222.797 125.533 222.718 125.533H203.278C203.199 125.533 203.121 125.533 203.041 125.533C202.976 125.533 202.912 125.532 202.847 125.53C202.741 125.528 202.603 125.522 202.478 125.501C202.379 125.486 202.283 125.457 202.194 125.416C202.108 125.375 202.03 125.323 201.962 125.26C201.894 125.197 201.837 125.124 201.793 125.045C201.748 124.963 201.717 124.874 201.701 124.783C201.678 124.669 201.672 124.547 201.669 124.442C201.668 124.383 201.667 124.323 201.666 124.263L201.666 124.088V113.912L201.666 113.737C201.667 113.677 201.668 113.618 201.669 113.558C201.672 113.453 201.678 113.331 201.701 113.216C201.717 113.125 201.748 113.037 201.793 112.954C201.837 112.875 201.894 112.803 201.962 112.74C202.03 112.677 202.109 112.624 202.194 112.584C202.284 112.543 202.379 112.514 202.478 112.499C202.601 112.478 202.734 112.473 202.848 112.47C202.912 112.468 202.977 112.467 203.041 112.467L203.281 112.467H222.718" fill="white"></path><path d="M207.385 116.726C207.586 116.494 207.722 116.183 207.686 115.864C207.392 115.878 207.034 116.043 206.826 116.276C206.64 116.474 206.475 116.799 206.518 117.103C206.848 117.13 207.177 116.951 207.385 116.726ZM207.682 117.163C207.203 117.137 206.796 117.414 206.567 117.414C206.339 117.414 205.988 117.176 205.609 117.183C205.116 117.189 204.659 117.447 204.408 117.857C203.894 118.676 204.273 119.891 204.773 120.558C205.016 120.889 205.309 121.252 205.695 121.239C206.06 121.226 206.203 121.021 206.646 121.021C207.089 121.021 207.218 121.239 207.604 121.232C208.004 121.226 208.254 120.902 208.497 120.572C208.776 120.195 208.89 119.832 208.898 119.812C208.89 119.805 208.126 119.534 208.118 118.722C208.111 118.042 208.719 117.718 208.748 117.698C208.404 117.229 207.868 117.176 207.682 117.163" fill="black"></path><path d="M212.458 116.242C213.499 116.242 214.224 116.905 214.224 117.87C214.224 118.839 213.484 119.505 212.432 119.505H211.279V121.198H210.446V116.242H212.458ZM211.279 118.859H212.235C212.96 118.859 213.372 118.499 213.372 117.874C213.372 117.249 212.96 116.891 212.238 116.891H211.279V118.859ZM214.431 120.171C214.431 119.536 214.955 119.172 215.922 119.117L216.959 119.058V118.784C216.959 118.382 216.673 118.162 216.163 118.162C215.743 118.162 215.438 118.361 215.375 118.667H214.624C214.646 118.025 215.301 117.558 216.186 117.558C217.137 117.558 217.758 118.018 217.758 118.732V121.198H216.989V120.604H216.97C216.751 120.992 216.267 121.236 215.743 121.236C214.97 121.236 214.431 120.81 214.431 120.171V120.171ZM216.959 119.852V119.574L216.033 119.629C215.512 119.659 215.241 119.838 215.241 120.15C215.241 120.453 215.524 120.649 215.966 120.649C216.531 120.649 216.959 120.315 216.959 119.852V119.852ZM218.466 122.524V121.93C218.518 121.936 218.644 121.943 218.711 121.943C219.079 121.943 219.288 121.799 219.414 121.428L219.489 121.208L218.079 117.602H218.949L219.931 120.528H219.95L220.931 117.602H221.779L220.318 121.39C219.983 122.259 219.6 122.544 218.789 122.544C218.726 122.544 218.522 122.537 218.466 122.524V122.524Z" fill="black"></path></g><g clip-path="url(#clip7_1_675)"><path opacity="0.07" d="M249.105 112H228.895C227.821 112 227 112.758 227 113.75V124.25C227 125.242 227.884 126 228.895 126H249.105C250.179 126 251 125.242 251 124.25V113.75C251 112.758 250.116 112 249.105 112Z" fill="black"></path><path d="M249.106 112.583C249.8 112.583 250.369 113.108 250.369 113.75V124.25C250.369 124.892 249.8 125.417 249.106 125.417H228.895C228.2 125.417 227.632 124.892 227.632 124.25V113.75C227.632 113.108 228.2 112.583 228.895 112.583H249.106Z" fill="#006FCF"></path><path d="M232.666 117.99L233.155 119.084H232.181L232.666 117.99ZM242.819 118.035H240.938V118.518H242.788V119.24H240.942V119.778H242.822V120.209L244.134 118.9L242.822 117.535L242.819 118.035V118.035ZM233.937 116.67H236.46L237.02 117.799L237.539 116.667H244.089L244.77 117.361L245.474 116.667H248.482L246.259 118.914L248.459 121.147H245.406L244.725 120.452L244.015 121.147H233.335L233.023 120.452H232.309L231.996 121.147H229.526L231.602 116.667H233.768L233.937 116.67ZM239.408 117.299H237.994L237.047 119.362L236.02 117.299H234.617V120.105L233.316 117.299H232.057L230.553 120.514H231.535L231.847 119.82H233.486L233.798 120.514H235.516V118.219L236.622 120.518H237.374L238.473 118.226V120.518H239.394L239.409 117.298L239.408 117.299V117.299ZM245.307 118.914L246.906 117.299H245.755L244.744 118.306L243.766 117.299H240.043V120.518H243.713L244.732 119.504L245.71 120.518H246.894L245.308 118.914H245.307Z" fill="white"></path></g><path d="M72.34 159V150.36H73.42L77.926 157.11V150.36H79.006V159H77.926L73.42 152.244V159H72.34ZM84.2358 159.18C83.3758 159.18 82.6458 158.99 82.0458 158.61C81.4458 158.23 80.9878 157.702 80.6718 157.026C80.3598 156.35 80.2038 155.568 80.2038 154.68C80.2038 153.792 80.3598 153.01 80.6718 152.334C80.9878 151.658 81.4458 151.13 82.0458 150.75C82.6458 150.37 83.3758 150.18 84.2358 150.18C85.0998 150.18 85.8318 150.37 86.4318 150.75C87.0318 151.13 87.4878 151.658 87.7998 152.334C88.1118 153.01 88.2678 153.792 88.2678 154.68C88.2678 155.568 88.1118 156.35 87.7998 157.026C87.4878 157.702 87.0318 158.23 86.4318 158.61C85.8318 158.99 85.0998 159.18 84.2358 159.18ZM84.2358 158.16C84.8798 158.164 85.4158 158.02 85.8438 157.728C86.2758 157.432 86.5978 157.022 86.8098 156.498C87.0258 155.974 87.1338 155.368 87.1338 154.68C87.1338 153.988 87.0258 153.382 86.8098 152.862C86.5978 152.342 86.2758 151.936 85.8438 151.644C85.4158 151.352 84.8798 151.204 84.2358 151.2C83.5918 151.196 83.0558 151.34 82.6278 151.632C82.2038 151.924 81.8838 152.332 81.6678 152.856C81.4518 153.38 81.3418 153.988 81.3378 154.68C81.3338 155.368 81.4398 155.972 81.6558 156.492C81.8718 157.012 82.1938 157.42 82.6218 157.716C83.0538 158.008 83.5918 158.156 84.2358 158.16ZM94.1012 159V151.374H91.1552V150.36H98.1152V151.374H95.1692V159H94.1012ZM99.0705 159V150.36H100.138V154.17H104.686V150.36H105.754V159H104.686V155.184H100.138V159H99.0705ZM106.838 159L109.73 150.36H111.218L114.11 159H113L110.294 150.984H110.63L107.948 159H106.838ZM108.23 156.978V155.976H112.718V156.978H108.23ZM115.184 159V150.36H116.264L120.77 157.11V150.36H121.85V159H120.77L116.264 152.244V159H115.184ZM123.528 159V150.36H124.596V154.416L128.376 150.36H129.72L125.796 154.554L130.026 159H128.646L124.596 154.776V159H123.528ZM133.566 159.18C132.954 159.18 132.402 159.076 131.91 158.868C131.422 158.66 131.018 158.364 130.698 157.98C130.382 157.592 130.176 157.134 130.08 156.606L131.184 156.432C131.324 156.976 131.614 157.402 132.054 157.71C132.498 158.014 133.02 158.166 133.62 158.166C134.008 158.166 134.358 158.106 134.67 157.986C134.986 157.862 135.236 157.686 135.42 157.458C135.604 157.23 135.696 156.96 135.696 156.648C135.696 156.456 135.662 156.292 135.594 156.156C135.53 156.016 135.44 155.898 135.324 155.802C135.212 155.702 135.084 155.618 134.94 155.55C134.796 155.482 134.646 155.426 134.49 155.382L132.288 154.728C132.048 154.656 131.816 154.566 131.592 154.458C131.368 154.346 131.168 154.208 130.992 154.044C130.816 153.876 130.676 153.676 130.572 153.444C130.468 153.208 130.416 152.93 130.416 152.61C130.416 152.098 130.548 151.662 130.812 151.302C131.08 150.938 131.442 150.66 131.898 150.468C132.354 150.276 132.868 150.182 133.44 150.186C134.02 150.19 134.538 150.294 134.994 150.498C135.454 150.698 135.834 150.986 136.134 151.362C136.438 151.738 136.642 152.188 136.746 152.712L135.612 152.91C135.552 152.558 135.418 152.256 135.21 152.004C135.006 151.748 134.75 151.552 134.442 151.416C134.134 151.276 133.796 151.204 133.428 151.2C133.076 151.196 132.758 151.252 132.474 151.368C132.19 151.484 131.964 151.646 131.796 151.854C131.628 152.058 131.544 152.294 131.544 152.562C131.544 152.826 131.62 153.04 131.772 153.204C131.924 153.364 132.11 153.492 132.33 153.588C132.554 153.68 132.772 153.756 132.984 153.816L134.628 154.29C134.816 154.342 135.032 154.414 135.276 154.506C135.524 154.598 135.764 154.728 135.996 154.896C136.228 155.06 136.42 155.28 136.572 155.556C136.724 155.828 136.8 156.172 136.8 156.588C136.8 157.004 136.716 157.374 136.548 157.698C136.384 158.022 136.154 158.294 135.858 158.514C135.562 158.73 135.218 158.894 134.826 159.006C134.434 159.122 134.014 159.18 133.566 159.18ZM137.634 160.344L137.7 159.846C137.868 159.858 137.994 159.826 138.078 159.75C138.162 159.674 138.216 159.57 138.24 159.438C138.264 159.306 138.268 159.16 138.252 159H137.634V157.644H138.81V159.18C138.81 159.6 138.706 159.916 138.498 160.128C138.294 160.34 138.006 160.412 137.634 160.344ZM143.616 159V150.36H144.684V159H143.616ZM148.887 159V150.36H151.551C151.639 150.36 151.793 150.362 152.013 150.366C152.233 150.37 152.443 150.386 152.643 150.414C153.311 150.502 153.869 150.746 154.317 151.146C154.769 151.542 155.109 152.046 155.337 152.658C155.565 153.27 155.679 153.944 155.679 154.68C155.679 155.416 155.565 156.09 155.337 156.702C155.109 157.314 154.769 157.82 154.317 158.22C153.869 158.616 153.311 158.858 152.643 158.946C152.443 158.97 152.231 158.986 152.007 158.994C151.787 158.998 151.635 159 151.551 159H148.887ZM149.985 157.98H151.551C151.703 157.98 151.873 157.976 152.061 157.968C152.249 157.956 152.413 157.938 152.553 157.914C153.025 157.826 153.407 157.628 153.699 157.32C153.991 157.012 154.205 156.628 154.341 156.168C154.477 155.708 154.545 155.212 154.545 154.68C154.545 154.136 154.475 153.634 154.335 153.174C154.199 152.714 153.985 152.332 153.693 152.028C153.401 151.724 153.021 151.53 152.553 151.446C152.413 151.418 152.247 151.4 152.055 151.392C151.863 151.384 151.695 151.38 151.551 151.38H149.985V157.98ZM160.607 159.18C159.747 159.18 159.017 158.99 158.417 158.61C157.817 158.23 157.359 157.702 157.043 157.026C156.731 156.35 156.575 155.568 156.575 154.68C156.575 153.792 156.731 153.01 157.043 152.334C157.359 151.658 157.817 151.13 158.417 150.75C159.017 150.37 159.747 150.18 160.607 150.18C161.471 150.18 162.203 150.37 162.803 150.75C163.403 151.13 163.859 151.658 164.171 152.334C164.483 153.01 164.639 153.792 164.639 154.68C164.639 155.568 164.483 156.35 164.171 157.026C163.859 157.702 163.403 158.23 162.803 158.61C162.203 158.99 161.471 159.18 160.607 159.18ZM160.607 158.16C161.251 158.164 161.787 158.02 162.215 157.728C162.647 157.432 162.969 157.022 163.181 156.498C163.397 155.974 163.505 155.368 163.505 154.68C163.505 153.988 163.397 153.382 163.181 152.862C162.969 152.342 162.647 151.936 162.215 151.644C161.787 151.352 161.251 151.204 160.607 151.2C159.963 151.196 159.427 151.34 158.999 151.632C158.575 151.924 158.255 152.332 158.039 152.856C157.823 153.38 157.713 153.988 157.709 154.68C157.705 155.368 157.811 155.972 158.027 156.492C158.243 157.012 158.565 157.42 158.993 157.716C159.425 158.008 159.963 158.156 160.607 158.16ZM165.844 159V150.36H166.924L171.43 157.11V150.36H172.51V159H171.43L166.924 152.244V159H165.844ZM174.248 153.06L174.314 152.562C174.482 152.574 174.608 152.542 174.692 152.466C174.776 152.39 174.83 152.286 174.854 152.154C174.878 152.022 174.882 151.876 174.866 151.716H174.248V150.36H175.424V151.896C175.424 152.316 175.32 152.632 175.112 152.844C174.908 153.056 174.62 153.128 174.248 153.06ZM179.32 159V151.374H176.374V150.36H183.334V151.374H180.388V159H179.32ZM188.17 159L185.668 150.36H186.784L188.704 157.194L190.618 150.366L191.74 150.36L193.66 157.194L195.574 150.36H196.696L194.194 159H193.126L191.182 152.226L189.238 159H188.17ZM196.275 159L199.167 150.36H200.655L203.547 159H202.437L199.731 150.984H200.067L197.385 159H196.275ZM197.667 156.978V155.976H202.155V156.978H197.667ZM204.621 159V150.36H205.701L210.207 157.11V150.36H211.287V159H210.207L205.701 152.244V159H204.621ZM215.191 159V151.374H212.245V150.36H219.205V151.374H216.259V159H215.191ZM224.425 159V151.374H221.479V150.36H228.439V151.374H225.493V159H224.425ZM229.395 159V150.36H230.463V154.17H235.011V150.36H236.079V159H235.011V155.184H230.463V159H229.395ZM237.882 159V150.36H238.95V159H237.882ZM243.816 159.18C243.204 159.18 242.652 159.076 242.16 158.868C241.672 158.66 241.268 158.364 240.948 157.98C240.632 157.592 240.426 157.134 240.33 156.606L241.434 156.432C241.574 156.976 241.864 157.402 242.304 157.71C242.748 158.014 243.27 158.166 243.87 158.166C244.258 158.166 244.608 158.106 244.92 157.986C245.236 157.862 245.486 157.686 245.67 157.458C245.854 157.23 245.946 156.96 245.946 156.648C245.946 156.456 245.912 156.292 245.844 156.156C245.78 156.016 245.69 155.898 245.574 155.802C245.462 155.702 245.334 155.618 245.19 155.55C245.046 155.482 244.896 155.426 244.74 155.382L242.538 154.728C242.298 154.656 242.066 154.566 241.842 154.458C241.618 154.346 241.418 154.208 241.242 154.044C241.066 153.876 240.926 153.676 240.822 153.444C240.718 153.208 240.666 152.93 240.666 152.61C240.666 152.098 240.798 151.662 241.062 151.302C241.33 150.938 241.692 150.66 242.148 150.468C242.604 150.276 243.118 150.182 243.69 150.186C244.27 150.19 244.788 150.294 245.244 150.498C245.704 150.698 246.084 150.986 246.384 151.362C246.688 151.738 246.892 152.188 246.996 152.712L245.862 152.91C245.802 152.558 245.668 152.256 245.46 152.004C245.256 151.748 245 151.552 244.692 151.416C244.384 151.276 244.046 151.204 243.678 151.2C243.326 151.196 243.008 151.252 242.724 151.368C242.44 151.484 242.214 151.646 242.046 151.854C241.878 152.058 241.794 152.294 241.794 152.562C241.794 152.826 241.87 153.04 242.022 153.204C242.174 153.364 242.36 153.492 242.58 153.588C242.804 153.68 243.022 153.756 243.234 153.816L244.878 154.29C245.066 154.342 245.282 154.414 245.526 154.506C245.774 154.598 246.014 154.728 246.246 154.896C246.478 155.06 246.67 155.28 246.822 155.556C246.974 155.828 247.05 156.172 247.05 156.588C247.05 157.004 246.966 157.374 246.798 157.698C246.634 158.022 246.404 158.294 246.108 158.514C245.812 158.73 245.468 158.894 245.076 159.006C244.684 159.122 244.264 159.18 243.816 159.18ZM248.196 159V157.824H249.372V159H248.196Z" fill="#F82C2C"></path><path d="M71.5 159.75H250.404V160.05H71.5V159.75Z" fill="#F82C2C"></path><defs><clipPath id="clip0_1_675"><rect width="12" height="12" fill="white" transform="translate(116.5 73.5)"></rect></clipPath><clipPath id="clip1_1_675"><rect width="24" height="14" fill="white" transform="translate(71 112)"></rect></clipPath><clipPath id="clip2_1_675"><rect width="24" height="14" fill="white" transform="translate(97 112)"></rect></clipPath><clipPath id="clip3_1_675"><rect width="24" height="14" fill="white" transform="translate(123 112)"></rect></clipPath><clipPath id="clip4_1_675"><rect width="24" height="14" fill="white" transform="translate(149 112)"></rect></clipPath><clipPath id="clip5_1_675"><rect width="24" height="14" fill="white" transform="translate(175 112)"></rect></clipPath><clipPath id="clip6_1_675"><rect width="24" height="14" fill="white" transform="translate(201 112)"></rect></clipPath><clipPath id="clip7_1_675"><rect width="24" height="14" fill="white" transform="translate(227 112)"></rect></clipPath></defs></svg>