<svg xmlns="http://www.w3.org/2000/svg" width="494" height="120" viewBox="0 0 494 120" fill="none"><path d="M11.568 24.48C9.27467 24.48 7.33867 23.9733 5.76 22.96C4.18133 21.936 2.98667 20.5227 2.176 18.72C1.36533 16.9173 0.96 14.8373 0.96 12.48C0.96 10.1227 1.36533 8.04267 2.176 6.24C2.98667 4.43733 4.18133 3.02933 5.76 2.016C7.33867 0.991999 9.27467 0.48 11.568 0.48C13.872 0.48 15.808 0.991999 17.376 2.016C18.9547 3.02933 20.1493 4.43733 20.96 6.24C21.7813 8.04267 22.192 10.1227 22.192 12.48C22.192 14.8373 21.7813 16.9173 20.96 18.72C20.1493 20.5227 18.9547 21.936 17.376 22.96C15.808 23.9733 13.872 24.48 11.568 24.48ZM11.568 22.224C13.3707 22.224 14.8747 21.8133 16.08 20.992C17.2853 20.1707 18.1867 19.0293 18.784 17.568C19.392 16.096 19.696 14.4 19.696 12.48C19.696 10.56 19.392 8.86933 18.784 7.408C18.1867 5.94667 17.2853 4.80533 16.08 3.984C14.8747 3.16267 13.3707 2.74667 11.568 2.736C9.76533 2.736 8.26667 3.14666 7.072 3.968C5.87733 4.78933 4.976 5.936 4.368 7.408C3.77067 8.86933 3.46667 10.56 3.456 12.48C3.44533 14.4 3.73867 16.0907 4.336 17.552C4.944 19.0027 5.85067 20.144 7.056 20.976C8.26133 21.7973 9.76533 22.2133 11.568 22.224ZM25.3963 24V0.959999H27.7643L40.4523 19.84V0.959999H42.8203V24H40.4523L27.7643 5.104V24H25.3963ZM47.3025 24V0.959999H61.7025V3.216H49.6545V11.184H59.7825V13.44H49.6545V21.744H61.7025V24H47.3025ZM78.0868 24V3.216H70.0388V0.959999H88.4868V3.216H80.4388V24H78.0868ZM91.3725 24V0.959999H93.7245V24H91.3725ZM98.5213 24V0.959999H100.681L109.737 20.336L118.745 0.959999H120.937V23.984H118.697V6.208L110.489 24H108.969L100.777 6.208V24H98.5213ZM125.428 24V0.959999H139.828V3.216H127.78V11.184H137.908V13.44H127.78V21.744H139.828V24H125.428ZM159.412 24.48C157.118 24.48 155.182 23.9733 153.604 22.96C152.025 21.936 150.83 20.5227 150.02 18.72C149.209 16.9173 148.804 14.8373 148.804 12.48C148.804 10.1227 149.209 8.04267 150.02 6.24C150.83 4.43733 152.025 3.02933 153.604 2.016C155.182 0.991999 157.118 0.48 159.412 0.48C161.716 0.48 163.652 0.991999 165.22 2.016C166.798 3.02933 167.993 4.43733 168.804 6.24C169.625 8.04267 170.036 10.1227 170.036 12.48C170.036 14.8373 169.625 16.9173 168.804 18.72C167.993 20.5227 166.798 21.936 165.22 22.96C163.652 23.9733 161.716 24.48 159.412 24.48ZM159.412 22.224C161.214 22.224 162.718 21.8133 163.924 20.992C165.129 20.1707 166.03 19.0293 166.628 17.568C167.236 16.096 167.54 14.4 167.54 12.48C167.54 10.56 167.236 8.86933 166.628 7.408C166.03 5.94667 165.129 4.80533 163.924 3.984C162.718 3.16267 161.214 2.74667 159.412 2.736C157.609 2.736 156.11 3.14666 154.916 3.968C153.721 4.78933 152.82 5.936 152.212 7.408C151.614 8.86933 151.31 10.56 151.3 12.48C151.289 14.4 151.582 16.0907 152.18 17.552C152.788 19.0027 153.694 20.144 154.9 20.976C156.105 21.7973 157.609 22.2133 159.412 22.224ZM173.24 24V0.959999H175.608L188.296 19.84V0.959999H190.664V24H188.296L175.608 5.104V24H173.24ZM195.466 24V0.959999H197.818V21.744H208.762V24H195.466ZM213.791 24V14.352L206.062 0.959999H208.783L214.975 11.664L221.135 0.959999H223.855L216.159 14.352V24H213.791ZM347.539 72.152V68.504H349.891V72.152H347.539ZM347.539 46.44V42.776H349.891V46.44H347.539ZM348.995 69.48C347.469 69.48 346.093 69.208 344.867 68.664C343.651 68.12 342.643 67.352 341.843 66.36C341.053 65.368 340.536 64.1947 340.291 62.84L342.579 62.44C342.931 63.912 343.688 65.08 344.851 65.944C346.024 66.7973 347.437 67.224 349.091 67.224C350.765 67.224 352.12 66.8187 353.155 66.008C354.189 65.1867 354.707 64.1147 354.707 62.792C354.707 61.8107 354.419 61.0267 353.843 60.44C353.267 59.8533 352.291 59.352 350.915 58.936L345.795 57.336C342.701 56.3653 341.155 54.5307 341.155 51.832C341.155 50.5733 341.464 49.4693 342.083 48.52C342.712 47.56 343.581 46.8133 344.691 46.28C345.811 45.7467 347.117 45.4853 348.611 45.496C350.072 45.496 351.379 45.7733 352.531 46.328C353.693 46.872 354.648 47.6453 355.395 48.648C356.141 49.6507 356.637 50.84 356.883 52.216L354.531 52.664C354.381 51.6827 354.035 50.824 353.491 50.088C352.957 49.352 352.269 48.7813 351.427 48.376C350.584 47.96 349.645 47.7467 348.611 47.736C347.629 47.736 346.755 47.9067 345.987 48.248C345.219 48.5893 344.611 49.064 344.163 49.672C343.725 50.2693 343.507 50.9573 343.507 51.736C343.507 52.5893 343.811 53.3147 344.419 53.912C345.037 54.4987 346.013 54.9947 347.347 55.4L351.747 56.728C353.603 57.2827 354.941 58.0293 355.763 58.968C356.584 59.9067 356.995 61.16 356.995 62.728C356.995 64.0827 356.664 65.2667 356.003 66.28C355.341 67.2933 354.408 68.0827 353.203 68.648C352.008 69.2027 350.605 69.48 348.995 69.48ZM364.319 69V48.584L359.983 51.192V48.552L364.319 45.96H366.703V69H364.319ZM382.915 69V64.536H372.131V62.296L379.843 45.96H382.483L374.771 62.296H382.915V55.576H385.283V62.296H387.795V64.536H385.283V69H382.915ZM398.053 69V45.96H412.453V48.216H400.405V56.184H410.533V58.44H400.405V66.744H412.453V69H398.053ZM421.247 69.48C419.945 69.48 418.852 69.2453 417.967 68.776C417.092 68.3067 416.436 67.6827 415.999 66.904C415.561 66.1253 415.343 65.2773 415.343 64.36C415.343 63.4213 415.529 62.6213 415.903 61.96C416.287 61.288 416.804 60.7387 417.455 60.312C418.116 59.8853 418.879 59.56 419.743 59.336C420.617 59.1227 421.583 58.936 422.639 58.776C423.705 58.6053 424.745 58.4613 425.759 58.344C426.783 58.216 427.679 58.0933 428.447 57.976L427.615 58.488C427.647 56.7813 427.316 55.5173 426.623 54.696C425.929 53.8747 424.724 53.464 423.007 53.464C421.823 53.464 420.82 53.7307 419.999 54.264C419.188 54.7973 418.617 55.64 418.286 56.792L415.999 56.12C416.393 54.5733 417.188 53.3733 418.383 52.52C419.577 51.6667 421.129 51.24 423.039 51.24C424.617 51.24 425.956 51.5387 427.055 52.136C428.164 52.7227 428.948 53.576 429.407 54.696C429.62 55.1973 429.759 55.7573 429.823 56.376C429.887 56.9947 429.919 57.624 429.919 58.264V69H427.823V64.664L428.431 64.92C427.844 66.4027 426.932 67.5333 425.695 68.312C424.457 69.0907 422.975 69.48 421.247 69.48ZM421.519 67.448C422.617 67.448 423.577 67.2507 424.399 66.856C425.22 66.4613 425.881 65.9227 426.383 65.24C426.884 64.5467 427.209 63.768 427.359 62.904C427.487 62.3493 427.556 61.7413 427.567 61.08C427.577 60.408 427.583 59.9067 427.583 59.576L428.479 60.04C427.679 60.1467 426.809 60.2533 425.871 60.36C424.943 60.4667 424.025 60.5893 423.119 60.728C422.223 60.8667 421.412 61.032 420.687 61.224C420.196 61.3627 419.721 61.56 419.263 61.816C418.804 62.0613 418.425 62.392 418.127 62.808C417.839 63.224 417.695 63.7413 417.695 64.36C417.695 64.8613 417.817 65.3467 418.062 65.816C418.319 66.2853 418.724 66.6747 419.279 66.984C419.844 67.2933 420.591 67.448 421.519 67.448ZM441.252 69.48C439.513 69.48 438.041 69.0907 436.836 68.312C435.63 67.5333 434.713 66.4613 434.084 65.096C433.465 63.72 433.145 62.1413 433.124 60.36C433.145 58.5467 433.476 56.9573 434.116 55.592C434.756 54.216 435.678 53.1493 436.884 52.392C438.089 51.624 439.55 51.24 441.268 51.24C443.017 51.24 444.537 51.6667 445.828 52.52C447.129 53.3733 448.02 54.5413 448.5 56.024L446.196 56.76C445.79 55.7253 445.145 54.9253 444.26 54.36C443.385 53.784 442.382 53.496 441.252 53.496C439.982 53.496 438.932 53.7893 438.1 54.376C437.268 54.952 436.649 55.7573 436.244 56.792C435.838 57.8267 435.63 59.016 435.62 60.36C435.641 62.4293 436.121 64.0933 437.06 65.352C437.998 66.6 439.396 67.224 441.252 67.224C442.425 67.224 443.422 66.9573 444.244 66.424C445.076 65.88 445.705 65.0907 446.132 64.056L448.5 64.76C447.86 66.296 446.921 67.4693 445.684 68.28C444.446 69.08 442.969 69.48 441.252 69.48ZM464.283 69V60.184C464.283 59.224 464.192 58.344 464.011 57.544C463.829 56.7333 463.536 56.0293 463.131 55.432C462.736 54.824 462.219 54.3547 461.579 54.024C460.949 53.6933 460.181 53.528 459.275 53.528C458.443 53.528 457.707 53.672 457.067 53.96C456.437 54.248 455.904 54.664 455.467 55.208C455.04 55.7413 454.715 56.392 454.491 57.16C454.267 57.928 454.155 58.8027 454.155 59.784L452.491 59.416C452.491 57.6453 452.8 56.1573 453.419 54.952C454.037 53.7467 454.891 52.8347 455.979 52.216C457.067 51.5973 458.315 51.288 459.723 51.288C460.757 51.288 461.659 51.448 462.427 51.768C463.205 52.088 463.861 52.52 464.395 53.064C464.939 53.608 465.376 54.232 465.707 54.936C466.037 55.6293 466.277 56.3707 466.427 57.16C466.576 57.9387 466.651 58.7173 466.651 59.496V69H464.283ZM451.787 69V45.96H453.915V58.968H454.155V69H451.787Z" fill="#2C7EF8"></path><path d="M239.209 24.48C237.598 24.48 236.147 24.2133 234.857 23.68C233.577 23.136 232.515 22.368 231.673 21.376C230.841 20.384 230.297 19.2053 230.041 17.84L232.441 17.44C232.825 18.9333 233.635 20.1067 234.873 20.96C236.11 21.8027 237.587 22.224 239.305 22.224C240.435 22.224 241.449 22.048 242.345 21.696C243.241 21.3333 243.945 20.8213 244.457 20.16C244.969 19.4987 245.225 18.7147 245.225 17.808C245.225 17.2107 245.118 16.704 244.905 16.288C244.691 15.8613 244.409 15.5093 244.057 15.232C243.705 14.9547 243.321 14.7253 242.905 14.544C242.489 14.352 242.083 14.1973 241.689 14.08L235.849 12.336C235.145 12.1333 234.494 11.8773 233.897 11.568C233.299 11.248 232.777 10.8693 232.329 10.432C231.891 9.984 231.55 9.46133 231.305 8.864C231.059 8.26667 230.937 7.584 230.937 6.816C230.937 5.51467 231.278 4.38933 231.961 3.44C232.643 2.49067 233.577 1.76 234.761 1.248C235.945 0.735999 237.294 0.485332 238.809 0.495998C240.345 0.495998 241.715 0.767998 242.921 1.312C244.137 1.856 245.139 2.63467 245.929 3.648C246.718 4.65067 247.241 5.84 247.497 7.216L245.033 7.664C244.873 6.66133 244.505 5.792 243.929 5.056C243.353 4.32 242.617 3.75467 241.721 3.36C240.835 2.95467 239.859 2.74667 238.793 2.736C237.758 2.736 236.835 2.912 236.025 3.264C235.225 3.60533 234.59 4.07467 234.121 4.672C233.651 5.26933 233.417 5.952 233.417 6.72C233.417 7.49867 233.63 8.12267 234.057 8.592C234.494 9.06133 235.027 9.42933 235.657 9.696C236.297 9.96267 236.915 10.1813 237.513 10.352L242.025 11.68C242.494 11.808 243.043 11.9947 243.673 12.24C244.313 12.4747 244.931 12.816 245.529 13.264C246.137 13.7013 246.638 14.2773 247.033 14.992C247.427 15.7067 247.625 16.6133 247.625 17.712C247.625 18.7787 247.411 19.7333 246.985 20.576C246.569 21.4187 245.977 22.128 245.209 22.704C244.451 23.28 243.561 23.7173 242.537 24.016C241.523 24.3253 240.414 24.48 239.209 24.48ZM258.688 24.48C257.098 24.48 255.754 24.08 254.656 23.28C253.557 22.4693 252.725 21.376 252.16 20C251.594 18.6133 251.312 17.0613 251.312 15.344C251.312 13.5947 251.594 12.0373 252.16 10.672C252.736 9.296 253.578 8.21333 254.688 7.424C255.797 6.63467 257.162 6.24 258.784 6.24C260.362 6.24 261.717 6.64 262.848 7.44C263.978 8.24 264.842 9.328 265.44 10.704C266.048 12.08 266.352 13.6267 266.352 15.344C266.352 17.072 266.048 18.624 265.44 20C264.832 21.376 263.957 22.4693 262.816 23.28C261.674 24.08 260.298 24.48 258.688 24.48ZM250.912 31.68V6.72H253.024V19.728H253.28V31.68H250.912ZM258.448 22.288C259.653 22.288 260.656 21.984 261.456 21.376C262.256 20.768 262.853 19.9413 263.248 18.896C263.653 17.84 263.856 16.656 263.856 15.344C263.856 14.0427 263.658 12.8693 263.264 11.824C262.869 10.7787 262.266 9.952 261.456 9.344C260.656 8.736 259.637 8.432 258.4 8.432C257.194 8.432 256.192 8.72533 255.392 9.312C254.602 9.89867 254.01 10.7147 253.616 11.76C253.221 12.7947 253.024 13.9893 253.024 15.344C253.024 16.6773 253.221 17.872 253.616 18.928C254.01 19.9733 254.608 20.7947 255.408 21.392C256.208 21.9893 257.221 22.288 258.448 22.288ZM277.177 24.48C275.492 24.48 274.03 24.1067 272.793 23.36C271.566 22.6133 270.612 21.5627 269.929 20.208C269.246 18.8533 268.905 17.264 268.905 15.44C268.905 13.552 269.241 11.92 269.913 10.544C270.585 9.168 271.529 8.10667 272.745 7.36C273.972 6.61333 275.417 6.24 277.081 6.24C278.788 6.24 280.244 6.63467 281.449 7.424C282.654 8.20267 283.566 9.32267 284.185 10.784C284.804 12.2453 285.086 13.9893 285.033 16.016H282.633V15.184C282.59 12.944 282.105 11.2533 281.177 10.112C280.26 8.97067 278.916 8.4 277.145 8.4C275.289 8.4 273.865 9.00267 272.873 10.208C271.892 11.4133 271.401 13.1307 271.401 15.36C271.401 17.536 271.892 19.2267 272.873 20.432C273.865 21.6267 275.268 22.224 277.081 22.224C278.318 22.224 279.396 21.9413 280.313 21.376C281.241 20.8 281.972 19.9733 282.505 18.896L284.697 19.744C284.014 21.248 283.006 22.416 281.673 23.248C280.35 24.0693 278.852 24.48 277.177 24.48ZM270.569 16.016V14.048H283.769V16.016H270.569ZM295.752 24.48C294.013 24.48 292.541 24.0907 291.336 23.312C290.13 22.5333 289.213 21.4613 288.584 20.096C287.965 18.72 287.645 17.1413 287.624 15.36C287.645 13.5467 287.976 11.9573 288.616 10.592C289.256 9.216 290.178 8.14933 291.384 7.392C292.589 6.624 294.05 6.24 295.768 6.24C297.517 6.24 299.037 6.66667 300.328 7.52C301.629 8.37333 302.52 9.54133 303 11.024L300.696 11.76C300.29 10.7253 299.645 9.92533 298.76 9.36C297.885 8.784 296.882 8.496 295.752 8.496C294.482 8.496 293.432 8.78933 292.6 9.376C291.768 9.952 291.149 10.7573 290.744 11.792C290.338 12.8267 290.13 14.016 290.12 15.36C290.141 17.4293 290.621 19.0933 291.56 20.352C292.498 21.6 293.896 22.224 295.752 22.224C296.925 22.224 297.922 21.9573 298.744 21.424C299.576 20.88 300.205 20.0907 300.632 19.056L303 19.76C302.36 21.296 301.421 22.4693 300.184 23.28C298.946 24.08 297.469 24.48 295.752 24.48ZM306.154 3.44V0.799999H308.506V3.44H306.154ZM306.154 24V6.72H308.506V24H306.154ZM318.247 24.48C316.945 24.48 315.852 24.2453 314.967 23.776C314.092 23.3067 313.436 22.6827 312.999 21.904C312.561 21.1253 312.343 20.2773 312.343 19.36C312.343 18.4213 312.529 17.6213 312.903 16.96C313.287 16.288 313.804 15.7387 314.455 15.312C315.116 14.8853 315.879 14.56 316.743 14.336C317.617 14.1227 318.583 13.936 319.639 13.776C320.705 13.6053 321.745 13.4613 322.759 13.344C323.783 13.216 324.679 13.0933 325.447 12.976L324.615 13.488C324.647 11.7813 324.316 10.5173 323.623 9.696C322.929 8.87467 321.724 8.464 320.007 8.464C318.823 8.464 317.82 8.73067 316.999 9.264C316.188 9.79733 315.617 10.64 315.286 11.792L312.999 11.12C313.393 9.57333 314.188 8.37333 315.383 7.52C316.577 6.66667 318.129 6.24 320.039 6.24C321.617 6.24 322.956 6.53867 324.055 7.136C325.164 7.72267 325.948 8.576 326.407 9.696C326.62 10.1973 326.759 10.7573 326.823 11.376C326.887 11.9947 326.919 12.624 326.919 13.264V24H324.823V19.664L325.431 19.92C324.844 21.4027 323.932 22.5333 322.695 23.312C321.457 24.0907 319.975 24.48 318.247 24.48ZM318.519 22.448C319.617 22.448 320.577 22.2507 321.399 21.856C322.22 21.4613 322.881 20.9227 323.383 20.24C323.884 19.5467 324.209 18.768 324.359 17.904C324.487 17.3493 324.556 16.7413 324.567 16.08C324.577 15.408 324.583 14.9067 324.583 14.576L325.479 15.04C324.679 15.1467 323.809 15.2533 322.871 15.36C321.943 15.4667 321.025 15.5893 320.119 15.728C319.223 15.8667 318.412 16.032 317.687 16.224C317.196 16.3627 316.721 16.56 316.263 16.816C315.804 17.0613 315.425 17.392 315.127 17.808C314.839 18.224 314.695 18.7413 314.695 19.36C314.695 19.8613 314.817 20.3467 315.062 20.816C315.319 21.2853 315.724 21.6747 316.279 21.984C316.844 22.2933 317.591 22.448 318.519 22.448ZM331.404 24V0.48H333.756V24H331.404ZM344.959 24V0.959999H353.855C354.079 0.959999 354.329 0.970666 354.607 0.991999C354.895 1.00267 355.183 1.03467 355.471 1.088C356.676 1.26933 357.695 1.69067 358.527 2.352C359.369 3.00267 360.004 3.824 360.431 4.816C360.868 5.808 361.087 6.90667 361.087 8.112C361.087 9.30667 360.868 10.4 360.431 11.392C359.993 12.384 359.353 13.2107 358.511 13.872C357.679 14.5227 356.665 14.9387 355.471 15.12C355.183 15.1627 354.895 15.1947 354.607 15.216C354.329 15.2373 354.079 15.248 353.855 15.248H347.311V24H344.959ZM347.311 13.008H353.791C353.983 13.008 354.207 12.9973 354.463 12.976C354.719 12.9547 354.969 12.9173 355.215 12.864C356.004 12.6933 356.649 12.368 357.151 11.888C357.663 11.408 358.041 10.8373 358.287 10.176C358.543 9.51467 358.671 8.82667 358.671 8.112C358.671 7.39733 358.543 6.70933 358.287 6.048C358.041 5.376 357.663 4.8 357.151 4.32C356.649 3.84 356.004 3.51467 355.215 3.344C354.969 3.29067 354.719 3.25867 354.463 3.248C354.207 3.22667 353.983 3.216 353.791 3.216H347.311V13.008ZM364.271 24V6.72H366.383V10.88L365.967 10.336C366.159 9.824 366.41 9.35467 366.719 8.928C367.029 8.49067 367.365 8.13333 367.727 7.856C368.175 7.46133 368.698 7.16267 369.295 6.96C369.893 6.74667 370.495 6.624 371.103 6.592C371.711 6.54933 372.266 6.592 372.767 6.72V8.928C372.138 8.768 371.45 8.73067 370.703 8.816C369.957 8.90133 369.269 9.2 368.639 9.712C368.063 10.16 367.631 10.6987 367.343 11.328C367.055 11.9467 366.863 12.608 366.767 13.312C366.671 14.0053 366.623 14.6933 366.623 15.376V24H364.271ZM376.123 3.44V0.799999H378.475V3.44H376.123ZM376.123 24V6.72H378.475V24H376.123ZM390.439 24.48C388.701 24.48 387.229 24.0907 386.023 23.312C384.818 22.5333 383.901 21.4613 383.271 20.096C382.653 18.72 382.333 17.1413 382.311 15.36C382.333 13.5467 382.663 11.9573 383.303 10.592C383.943 9.216 384.866 8.14933 386.071 7.392C387.277 6.624 388.738 6.24 390.455 6.24C392.205 6.24 393.725 6.66667 395.015 7.52C396.317 8.37333 397.207 9.54133 397.687 11.024L395.383 11.76C394.978 10.7253 394.333 9.92533 393.447 9.36C392.573 8.784 391.57 8.496 390.439 8.496C389.17 8.496 388.119 8.78933 387.287 9.376C386.455 9.952 385.837 10.7573 385.431 11.792C385.026 12.8267 384.818 14.016 384.807 15.36C384.829 17.4293 385.309 19.0933 386.247 20.352C387.186 21.6 388.583 22.224 390.439 22.224C391.613 22.224 392.61 21.9573 393.431 21.424C394.263 20.88 394.893 20.0907 395.319 19.056L397.687 19.76C397.047 21.296 396.109 22.4693 394.871 23.28C393.634 24.08 392.157 24.48 390.439 24.48ZM407.833 24.48C406.148 24.48 404.687 24.1067 403.449 23.36C402.223 22.6133 401.268 21.5627 400.585 20.208C399.903 18.8533 399.561 17.264 399.561 15.44C399.561 13.552 399.897 11.92 400.569 10.544C401.241 9.168 402.185 8.10667 403.401 7.36C404.628 6.61333 406.073 6.24 407.737 6.24C409.444 6.24 410.9 6.63467 412.105 7.424C413.311 8.20267 414.223 9.32267 414.841 10.784C415.46 12.2453 415.743 13.9893 415.689 16.016H413.289V15.184C413.247 12.944 412.761 11.2533 411.833 10.112C410.916 8.97067 409.572 8.4 407.801 8.4C405.945 8.4 404.521 9.00267 403.529 10.208C402.548 11.4133 402.057 13.1307 402.057 15.36C402.057 17.536 402.548 19.2267 403.529 20.432C404.521 21.6267 405.924 22.224 407.737 22.224C408.975 22.224 410.052 21.9413 410.969 21.376C411.897 20.8 412.628 19.9733 413.161 18.896L415.353 19.744C414.671 21.248 413.663 22.416 412.329 23.248C411.007 24.0693 409.508 24.48 407.833 24.48ZM401.225 16.016V14.048H414.425V16.016H401.225ZM425.646 24V0.959999H438.878V3.312H427.998V11.312H436.958V13.648H427.998V24H425.646ZM448.519 24.48C446.801 24.48 445.335 24.0907 444.119 23.312C442.903 22.5333 441.969 21.456 441.319 20.08C440.668 18.704 440.343 17.1253 440.343 15.344C440.343 13.5307 440.673 11.9413 441.335 10.576C441.996 9.21067 442.935 8.14933 444.151 7.392C445.377 6.624 446.833 6.24 448.519 6.24C450.247 6.24 451.719 6.62933 452.935 7.408C454.161 8.176 455.095 9.248 455.735 10.624C456.385 11.9893 456.711 13.5627 456.711 15.344C456.711 17.1573 456.385 18.752 455.735 20.128C455.084 21.4933 454.145 22.56 452.919 23.328C451.692 24.096 450.225 24.48 448.519 24.48ZM448.519 22.224C450.439 22.224 451.868 21.5893 452.807 20.32C453.745 19.04 454.215 17.3813 454.215 15.344C454.215 13.2533 453.74 11.5893 452.791 10.352C451.852 9.11467 450.428 8.496 448.519 8.496C447.228 8.496 446.161 8.78933 445.319 9.376C444.487 9.952 443.863 10.7573 443.447 11.792C443.041 12.816 442.839 14 442.839 15.344C442.839 17.424 443.319 19.0933 444.279 20.352C445.239 21.6 446.652 22.224 448.519 22.224ZM460.24 24V6.72H462.352V10.88L461.936 10.336C462.128 9.824 462.379 9.35467 462.688 8.928C462.997 8.49067 463.333 8.13333 463.696 7.856C464.144 7.46133 464.667 7.16267 465.264 6.96C465.861 6.74667 466.464 6.624 467.072 6.592C467.68 6.54933 468.235 6.592 468.736 6.72V8.928C468.107 8.768 467.419 8.73067 466.672 8.816C465.925 8.90133 465.237 9.2 464.608 9.712C464.032 10.16 463.6 10.6987 463.312 11.328C463.024 11.9467 462.832 12.608 462.736 13.312C462.64 14.0053 462.592 14.6933 462.592 15.376V24H460.24ZM485.97 24.48C484.53 24.48 483.218 24.1333 482.034 23.44C480.86 22.736 479.922 21.7867 479.218 20.592C478.524 19.3867 478.178 18.032 478.178 16.528V8.544C478.178 6.99733 478.524 5.62133 479.218 4.416C479.911 3.2 480.855 2.24533 482.05 1.552C483.255 0.847998 484.62 0.495998 486.146 0.495998C487.458 0.495998 488.674 0.783998 489.794 1.36C490.924 1.936 491.847 2.74133 492.562 3.776L490.754 5.264C490.263 4.496 489.612 3.88267 488.802 3.424C487.991 2.96533 487.106 2.736 486.146 2.736C485.068 2.736 484.108 2.99733 483.266 3.52C482.423 4.04267 481.762 4.73067 481.282 5.584C480.802 6.42667 480.562 7.344 480.562 8.336V13.36L479.97 12.688C480.642 11.632 481.522 10.7787 482.61 10.128C483.708 9.47733 484.903 9.152 486.194 9.152C487.623 9.152 488.908 9.49333 490.05 10.176C491.191 10.848 492.098 11.76 492.77 12.912C493.442 14.064 493.778 15.3547 493.778 16.784C493.778 18.2027 493.42 19.4933 492.706 20.656C492.002 21.8187 491.058 22.7467 489.874 23.44C488.7 24.1333 487.399 24.48 485.97 24.48ZM485.97 22.192C486.972 22.192 487.884 21.952 488.706 21.472C489.538 20.992 490.194 20.3413 490.674 19.52C491.164 18.6987 491.41 17.7867 491.41 16.784C491.41 15.7813 491.164 14.8693 490.674 14.048C490.194 13.216 489.543 12.56 488.722 12.08C487.9 11.5893 486.988 11.344 485.986 11.344C484.983 11.344 484.071 11.5893 483.25 12.08C482.428 12.56 481.772 13.216 481.282 14.048C480.802 14.8693 480.562 15.7813 480.562 16.784C480.562 17.776 480.802 18.6827 481.282 19.504C481.762 20.3253 482.412 20.9813 483.234 21.472C484.055 21.952 484.967 22.192 485.97 22.192ZM2.24 69V45.96H16.64V48.216H4.592V56.184H14.72V58.44H4.592V66.744H16.64V69H2.24ZM18.57 69L25.322 60.264L18.714 51.72H21.53L26.698 58.456L31.818 51.72H34.634L28.026 60.264L34.794 69H31.962L26.698 62.072L21.402 69H18.57ZM46.773 69C45.8023 69.2027 44.8423 69.2827 43.893 69.24C42.9543 69.1973 42.1117 68.9947 41.365 68.632C40.629 68.2693 40.069 67.704 39.685 66.936C39.3757 66.296 39.205 65.6507 39.173 65C39.1517 64.3387 39.141 63.5867 39.141 62.744V46.92H41.477V62.648C41.477 63.3733 41.4823 63.9813 41.493 64.472C41.5143 64.952 41.6263 65.3787 41.829 65.752C42.213 66.4667 42.821 66.8933 43.653 67.032C44.4957 67.1707 45.5357 67.1387 46.773 66.936V69ZM35.445 53.736V51.72H46.773V53.736H35.445ZM50.1775 69V51.72H52.2895V55.88L51.8735 55.336C52.0655 54.824 52.3162 54.3547 52.6255 53.928C52.9348 53.4907 53.2708 53.1333 53.6335 52.856C54.0815 52.4613 54.6042 52.1627 55.2015 51.96C55.7988 51.7467 56.4015 51.624 57.0095 51.592C57.6175 51.5493 58.1722 51.592 58.6735 51.72V53.928C58.0442 53.768 57.3562 53.7307 56.6095 53.816C55.8628 53.9013 55.1748 54.2 54.5455 54.712C53.9695 55.16 53.5375 55.6987 53.2495 56.328C52.9615 56.9467 52.7695 57.608 52.6735 58.312C52.5775 59.0053 52.5295 59.6933 52.5295 60.376V69H50.1775ZM65.9965 69.48C64.6952 69.48 63.6018 69.2453 62.7165 68.776C61.8418 68.3067 61.1858 67.6827 60.7485 66.904C60.3112 66.1253 60.0925 65.2773 60.0925 64.36C60.0925 63.4213 60.2792 62.6213 60.6525 61.96C61.0365 61.288 61.5538 60.7387 62.2045 60.312C62.8658 59.8853 63.6285 59.56 64.4925 59.336C65.3672 59.1227 66.3325 58.936 67.3885 58.776C68.4552 58.6053 69.4952 58.4613 70.5085 58.344C71.5325 58.216 72.4285 58.0933 73.1965 57.976L72.3645 58.488C72.3965 56.7813 72.0658 55.5173 71.3725 54.696C70.6792 53.8747 69.4738 53.464 67.7565 53.464C66.5725 53.464 65.5698 53.7307 64.7485 54.264C63.9378 54.7973 63.3672 55.64 63.0365 56.792L60.7485 56.12C61.1432 54.5733 61.9378 53.3733 63.1325 52.52C64.3272 51.6667 65.8792 51.24 67.7885 51.24C69.3672 51.24 70.7058 51.5387 71.8045 52.136C72.9138 52.7227 73.6978 53.576 74.1565 54.696C74.3698 55.1973 74.5085 55.7573 74.5725 56.376C74.6365 56.9947 74.6685 57.624 74.6685 58.264V69H72.5725V64.664L73.1805 64.92C72.5938 66.4027 71.6818 67.5333 70.4445 68.312C69.2072 69.0907 67.7245 69.48 65.9965 69.48ZM66.2685 67.448C67.3672 67.448 68.3272 67.2507 69.1485 66.856C69.9698 66.4613 70.6312 65.9227 71.1325 65.24C71.6338 64.5467 71.9592 63.768 72.1085 62.904C72.2365 62.3493 72.3058 61.7413 72.3165 61.08C72.3272 60.408 72.3325 59.9067 72.3325 59.576L73.2285 60.04C72.4285 60.1467 71.5592 60.2533 70.6205 60.36C69.6925 60.4667 68.7752 60.5893 67.8685 60.728C66.9725 60.8667 66.1618 61.032 65.4365 61.224C64.9458 61.3627 64.4712 61.56 64.0125 61.816C63.5538 62.0613 63.1752 62.392 62.8765 62.808C62.5885 63.224 62.4445 63.7413 62.4445 64.36C62.4445 64.8613 62.5672 65.3467 62.8125 65.816C63.0685 66.2853 63.4738 66.6747 64.0285 66.984C64.5938 67.2933 65.3405 67.448 66.2685 67.448ZM94.568 69.48C92.2747 69.48 90.3387 68.9733 88.76 67.96C87.1813 66.936 85.9867 65.5227 85.176 63.72C84.3653 61.9173 83.96 59.8373 83.96 57.48C83.96 55.1227 84.3653 53.0427 85.176 51.24C85.9867 49.4373 87.1813 48.0293 88.76 47.016C90.3387 45.992 92.2747 45.48 94.568 45.48C97.2453 45.48 99.432 46.168 101.128 47.544C102.824 48.9093 103.987 50.744 104.616 53.048L102.216 53.672C101.725 51.848 100.845 50.4027 99.576 49.336C98.3067 48.2693 96.6373 47.736 94.568 47.736C92.7653 47.736 91.2667 48.1467 90.072 48.968C88.8773 49.7893 87.976 50.936 87.368 52.408C86.7707 53.8693 86.4613 55.56 86.44 57.48C86.4293 59.4 86.7227 61.0907 87.32 62.552C87.928 64.0133 88.8347 65.16 90.04 65.992C91.256 66.8133 92.7653 67.224 94.568 67.224C96.6373 67.224 98.3067 66.6907 99.576 65.624C100.845 64.5467 101.725 63.1013 102.216 61.288L104.616 61.912C103.987 64.216 102.824 66.056 101.128 67.432C99.432 68.7973 97.2453 69.48 94.568 69.48ZM108.466 69V45.48H110.818V69H108.466ZM120.559 69.48C119.258 69.48 118.164 69.2453 117.279 68.776C116.404 68.3067 115.748 67.6827 115.311 66.904C114.874 66.1253 114.655 65.2773 114.655 64.36C114.655 63.4213 114.842 62.6213 115.215 61.96C115.599 61.288 116.116 60.7387 116.767 60.312C117.428 59.8853 118.191 59.56 119.055 59.336C119.93 59.1227 120.895 58.936 121.951 58.776C123.018 58.6053 124.058 58.4613 125.071 58.344C126.095 58.216 126.991 58.0933 127.759 57.976L126.927 58.488C126.959 56.7813 126.628 55.5173 125.935 54.696C125.242 53.8747 124.036 53.464 122.319 53.464C121.135 53.464 120.132 53.7307 119.311 54.264C118.5 54.7973 117.93 55.64 117.599 56.792L115.311 56.12C115.706 54.5733 116.5 53.3733 117.695 52.52C118.89 51.6667 120.442 51.24 122.351 51.24C123.93 51.24 125.268 51.5387 126.367 52.136C127.476 52.7227 128.26 53.576 128.719 54.696C128.932 55.1973 129.071 55.7573 129.135 56.376C129.199 56.9947 129.231 57.624 129.231 58.264V69H127.135V64.664L127.743 64.92C127.156 66.4027 126.244 67.5333 125.007 68.312C123.77 69.0907 122.287 69.48 120.559 69.48ZM120.831 67.448C121.93 67.448 122.89 67.2507 123.711 66.856C124.532 66.4613 125.194 65.9227 125.695 65.24C126.196 64.5467 126.522 63.768 126.671 62.904C126.799 62.3493 126.868 61.7413 126.879 61.08C126.89 60.408 126.895 59.9067 126.895 59.576L127.791 60.04C126.991 60.1467 126.122 60.2533 125.183 60.36C124.255 60.4667 123.338 60.5893 122.431 60.728C121.535 60.8667 120.724 61.032 119.999 61.224C119.508 61.3627 119.034 61.56 118.575 61.816C118.116 62.0613 117.738 62.392 117.439 62.808C117.151 63.224 117.007 63.7413 117.007 64.36C117.007 64.8613 117.13 65.3467 117.375 65.816C117.631 66.2853 118.036 66.6747 118.591 66.984C119.156 67.2933 119.903 67.448 120.831 67.448ZM133.396 69V51.72H135.508V55.88L135.092 55.336C135.284 54.824 135.535 54.3547 135.844 53.928C136.154 53.4907 136.49 53.1333 136.852 52.856C137.3 52.4613 137.823 52.1627 138.42 51.96C139.018 51.7467 139.62 51.624 140.228 51.592C140.836 51.5493 141.391 51.592 141.892 51.72V53.928C141.263 53.768 140.575 53.7307 139.828 53.816C139.082 53.9013 138.394 54.2 137.764 54.712C137.188 55.16 136.756 55.6987 136.468 56.328C136.18 56.9467 135.988 57.608 135.892 58.312C135.796 59.0053 135.748 59.6933 135.748 60.376V69H133.396ZM145.248 48.44V45.8H147.6V48.44H145.248ZM145.248 69V51.72H147.6V69H145.248ZM154.108 69V50.44C154.108 49.992 154.13 49.5493 154.172 49.112C154.226 48.6747 154.327 48.2587 154.476 47.864C154.626 47.4587 154.86 47.0853 155.18 46.744C155.532 46.36 155.916 46.0827 156.332 45.912C156.748 45.7307 157.18 45.6133 157.628 45.56C158.087 45.5067 158.535 45.48 158.972 45.48H161.18V47.464H159.132C158.236 47.464 157.564 47.6827 157.116 48.12C156.679 48.5573 156.46 49.2453 156.46 50.184V69H154.108ZM151.116 53.736V51.72H161.18V53.736H151.116ZM164.54 48.44V45.8H166.892V48.44H164.54ZM164.54 69V51.72H166.892V69H164.54ZM178.894 69.48C177.176 69.48 175.71 69.0907 174.494 68.312C173.278 67.5333 172.344 66.456 171.694 65.08C171.043 63.704 170.718 62.1253 170.718 60.344C170.718 58.5307 171.048 56.9413 171.71 55.576C172.371 54.2107 173.31 53.1493 174.526 52.392C175.752 51.624 177.208 51.24 178.894 51.24C180.622 51.24 182.094 51.6293 183.31 52.408C184.536 53.176 185.47 54.248 186.11 55.624C186.76 56.9893 187.086 58.5627 187.086 60.344C187.086 62.1573 186.76 63.752 186.11 65.128C185.459 66.4933 184.52 67.56 183.294 68.328C182.067 69.096 180.6 69.48 178.894 69.48ZM178.894 67.224C180.814 67.224 182.243 66.5893 183.182 65.32C184.12 64.04 184.59 62.3813 184.59 60.344C184.59 58.2533 184.115 56.5893 183.166 55.352C182.227 54.1147 180.803 53.496 178.894 53.496C177.603 53.496 176.536 53.7893 175.694 54.376C174.862 54.952 174.238 55.7573 173.822 56.792C173.416 57.816 173.214 59 173.214 60.344C173.214 62.424 173.694 64.0933 174.654 65.352C175.614 66.6 177.027 67.224 178.894 67.224ZM203.095 69V60.184C203.095 59.224 203.004 58.344 202.823 57.544C202.642 56.7333 202.348 56.0293 201.943 55.432C201.548 54.824 201.031 54.3547 200.391 54.024C199.762 53.6933 198.994 53.528 198.087 53.528C197.255 53.528 196.519 53.672 195.879 53.96C195.25 54.248 194.716 54.664 194.279 55.208C193.852 55.7413 193.527 56.392 193.303 57.16C193.079 57.928 192.967 58.8027 192.967 59.784L191.303 59.416C191.303 57.6453 191.612 56.1573 192.231 54.952C192.85 53.7467 193.703 52.8347 194.791 52.216C195.879 51.5973 197.127 51.288 198.535 51.288C199.57 51.288 200.471 51.448 201.239 51.768C202.018 52.088 202.674 52.52 203.207 53.064C203.751 53.608 204.188 54.232 204.519 54.936C204.85 55.6293 205.09 56.3707 205.239 57.16C205.388 57.9387 205.463 58.7173 205.463 59.496V69H203.095ZM190.599 69V51.72H192.727V55.976H192.967V69H190.599ZM216.021 69V45.96H229.253V48.312H218.373V56.312H227.333V58.648H218.373V69H216.021ZM238.894 69.48C237.176 69.48 235.71 69.0907 234.494 68.312C233.278 67.5333 232.344 66.456 231.694 65.08C231.043 63.704 230.718 62.1253 230.718 60.344C230.718 58.5307 231.048 56.9413 231.71 55.576C232.371 54.2107 233.31 53.1493 234.526 52.392C235.752 51.624 237.208 51.24 238.894 51.24C240.622 51.24 242.094 51.6293 243.31 52.408C244.536 53.176 245.47 54.248 246.11 55.624C246.76 56.9893 247.086 58.5627 247.086 60.344C247.086 62.1573 246.76 63.752 246.11 65.128C245.459 66.4933 244.52 67.56 243.294 68.328C242.067 69.096 240.6 69.48 238.894 69.48ZM238.894 67.224C240.814 67.224 242.243 66.5893 243.182 65.32C244.12 64.04 244.59 62.3813 244.59 60.344C244.59 58.2533 244.115 56.5893 243.166 55.352C242.227 54.1147 240.803 53.496 238.894 53.496C237.603 53.496 236.536 53.7893 235.694 54.376C234.862 54.952 234.238 55.7573 233.822 56.792C233.416 57.816 233.214 59 233.214 60.344C233.214 62.424 233.694 64.0933 234.654 65.352C235.614 66.6 237.027 67.224 238.894 67.224ZM250.615 69V51.72H252.727V55.88L252.311 55.336C252.503 54.824 252.754 54.3547 253.063 53.928C253.372 53.4907 253.708 53.1333 254.071 52.856C254.519 52.4613 255.042 52.1627 255.639 51.96C256.236 51.7467 256.839 51.624 257.447 51.592C258.055 51.5493 258.61 51.592 259.111 51.72V53.928C258.482 53.768 257.794 53.7307 257.047 53.816C256.3 53.9013 255.612 54.2 254.983 54.712C254.407 55.16 253.975 55.6987 253.687 56.328C253.399 56.9467 253.207 57.608 253.111 58.312C253.015 59.0053 252.967 59.6933 252.967 60.376V69H250.615ZM277.881 69.48C275.587 69.48 273.651 68.9733 272.073 67.96C270.494 66.936 269.299 65.5227 268.489 63.72C267.678 61.9173 267.273 59.8373 267.273 57.48C267.273 55.1227 267.678 53.0427 268.489 51.24C269.299 49.4373 270.494 48.0293 272.073 47.016C273.651 45.992 275.587 45.48 277.881 45.48C280.185 45.48 282.121 45.992 283.689 47.016C285.267 48.0293 286.462 49.4373 287.273 51.24C288.094 53.0427 288.505 55.1227 288.505 57.48C288.505 59.8373 288.094 61.9173 287.273 63.72C286.462 65.5227 285.267 66.936 283.689 67.96C282.121 68.9733 280.185 69.48 277.881 69.48ZM277.881 67.224C279.683 67.224 281.187 66.8133 282.392 65.992C283.598 65.1707 284.499 64.0293 285.097 62.568C285.705 61.096 286.009 59.4 286.009 57.48C286.009 55.56 285.705 53.8693 285.097 52.408C284.499 50.9467 283.598 49.8053 282.392 48.984C281.187 48.1627 279.683 47.7467 277.881 47.736C276.078 47.736 274.579 48.1467 273.385 48.968C272.19 49.7893 271.289 50.936 270.681 52.408C270.083 53.8693 269.779 55.56 269.769 57.48C269.758 59.4 270.051 61.0907 270.649 62.552C271.257 64.0027 272.163 65.144 273.369 65.976C274.574 66.7973 276.078 67.2133 277.881 67.224ZM304.189 69V60.184C304.189 59.224 304.098 58.344 303.917 57.544C303.735 56.7333 303.442 56.0293 303.037 55.432C302.642 54.824 302.125 54.3547 301.485 54.024C300.855 53.6933 300.087 53.528 299.181 53.528C298.349 53.528 297.613 53.672 296.973 53.96C296.343 54.248 295.81 54.664 295.373 55.208C294.946 55.7413 294.621 56.392 294.397 57.16C294.173 57.928 294.061 58.8027 294.061 59.784L292.397 59.416C292.397 57.6453 292.706 56.1573 293.325 54.952C293.943 53.7467 294.797 52.8347 295.885 52.216C296.973 51.5973 298.221 51.288 299.629 51.288C300.663 51.288 301.565 51.448 302.333 51.768C303.111 52.088 303.767 52.52 304.301 53.064C304.845 53.608 305.282 54.232 305.613 54.936C305.943 55.6293 306.183 56.3707 306.333 57.16C306.482 57.9387 306.557 58.7173 306.557 59.496V69H304.189ZM291.693 69V51.72H293.821V55.976H294.061V69H291.693ZM311.029 69V45.48H313.381V69H311.029ZM320.641 76.68L323.986 67.608L324.034 70.296L316.465 51.72H318.962L325.17 67.256H324.146L329.874 51.72H332.274L322.994 76.68H320.641ZM10.512 119.744C9.25333 118.304 8.17067 116.693 7.264 114.912C6.368 113.141 5.67467 111.28 5.184 109.328C4.704 107.376 4.46933 105.413 4.48 103.44C4.46933 101.467 4.704 99.504 5.184 97.552C5.67467 95.5893 6.368 93.7227 7.264 91.952C8.17067 90.1813 9.25333 88.576 10.512 87.136L12.24 88.48C11.0027 89.9627 9.968 91.52 9.136 93.152C8.304 94.7733 7.68 96.448 7.264 98.176C6.85867 99.904 6.65067 101.659 6.64 103.44C6.65067 105.2 6.864 106.955 7.28 108.704C7.70667 110.443 8.33067 112.133 9.152 113.776C9.984 115.408 11.0133 116.939 12.24 118.368L10.512 119.744ZM20.6638 117.152V113.504H23.0158V117.152H20.6638ZM20.6638 91.44V87.776H23.0158V91.44H20.6638ZM22.1198 114.48C20.5944 114.48 19.2184 114.208 17.9918 113.664C16.7758 113.12 15.7678 112.352 14.9678 111.36C14.1784 110.368 13.6611 109.195 13.4158 107.84L15.7038 107.44C16.0558 108.912 16.8131 110.08 17.9758 110.944C19.1491 111.797 20.5624 112.224 22.2158 112.224C23.8904 112.224 25.2451 111.819 26.2798 111.008C27.3144 110.187 27.8318 109.115 27.8318 107.792C27.8318 106.811 27.5438 106.027 26.9678 105.44C26.3918 104.853 25.4158 104.352 24.0398 103.936L18.9198 102.336C15.8264 101.365 14.2798 99.5307 14.2798 96.832C14.2798 95.5733 14.5891 94.4693 15.2078 93.52C15.8371 92.56 16.7064 91.8133 17.8158 91.28C18.9358 90.7467 20.2424 90.4853 21.7358 90.496C23.1971 90.496 24.5038 90.7733 25.6558 91.328C26.8184 91.872 27.7731 92.6453 28.5198 93.648C29.2664 94.6507 29.7624 95.84 30.0078 97.216L27.6558 97.664C27.5064 96.6827 27.1598 95.824 26.6158 95.088C26.0824 94.352 25.3944 93.7813 24.5518 93.376C23.7091 92.96 22.7704 92.7467 21.7358 92.736C20.7544 92.736 19.8798 92.9067 19.1118 93.248C18.3438 93.5893 17.7358 94.064 17.2878 94.672C16.8504 95.2693 16.6318 95.9573 16.6318 96.736C16.6318 97.5893 16.9358 98.3147 17.5438 98.912C18.1624 99.4987 19.1384 99.9947 20.4718 100.4L24.8718 101.728C26.7278 102.283 28.0664 103.029 28.8878 103.968C29.7091 104.907 30.1198 106.16 30.1198 107.728C30.1198 109.083 29.7891 110.267 29.1278 111.28C28.4664 112.293 27.5331 113.083 26.3278 113.648C25.1331 114.203 23.7304 114.48 22.1198 114.48ZM40.4515 114.48C39.0115 114.48 37.7368 114.192 36.6275 113.616C35.5288 113.04 34.6648 112.235 34.0355 111.2C33.4168 110.155 33.1075 108.933 33.1075 107.536C33.1075 106.107 33.4542 104.837 34.1475 103.728C34.8408 102.608 35.8968 101.76 37.3155 101.184L37.2835 102.112C36.0995 101.675 35.1982 100.96 34.5795 99.968C33.9608 98.976 33.6515 97.8773 33.6515 96.672C33.6515 95.392 33.9448 94.2933 34.5315 93.376C35.1182 92.448 35.9182 91.7333 36.9315 91.232C37.9555 90.7307 39.1288 90.48 40.4515 90.48C41.7742 90.48 42.9475 90.7307 43.9715 91.232C44.9955 91.7333 45.8008 92.448 46.3875 93.376C46.9742 94.2933 47.2675 95.392 47.2675 96.672C47.2675 97.8773 46.9688 98.9707 46.3715 99.952C45.7848 100.933 44.8835 101.653 43.6675 102.112L43.5875 101.184C45.0062 101.749 46.0675 102.592 46.7715 103.712C47.4862 104.832 47.8435 106.107 47.8435 107.536C47.8435 108.933 47.5288 110.155 46.8995 111.2C46.2702 112.235 45.4008 113.04 44.2915 113.616C43.1822 114.192 41.9022 114.48 40.4515 114.48ZM40.4515 112.224C41.9022 112.224 43.0808 111.824 43.9875 111.024C44.8942 110.213 45.3475 109.051 45.3475 107.536C45.3475 106 44.8995 104.837 44.0035 104.048C43.1075 103.248 41.9235 102.848 40.4515 102.848C38.9795 102.848 37.8008 103.248 36.9155 104.048C36.0302 104.837 35.5875 106 35.5875 107.536C35.5875 109.051 36.0355 110.213 36.9315 111.024C37.8275 111.824 39.0008 112.224 40.4515 112.224ZM40.4515 100.576C41.7315 100.576 42.7715 100.251 43.5715 99.6C44.3715 98.9387 44.7715 97.9627 44.7715 96.672C44.7715 95.3813 44.3715 94.416 43.5715 93.776C42.7715 93.1253 41.7315 92.8 40.4515 92.8C39.1715 92.8 38.1315 93.1253 37.3315 93.776C36.5422 94.416 36.1475 95.3813 36.1475 96.672C36.1475 97.9627 36.5422 98.9387 37.3315 99.6C38.1315 100.251 39.1715 100.576 40.4515 100.576ZM62.134 114V109.536H51.35V107.296L59.062 90.96H61.702L53.99 107.296H62.134V100.576H64.502V107.296H67.014V109.536H64.502V114H62.134ZM70.688 114V111.264H73.424V114H70.688ZM85.885 114.48C84.4663 114.48 83.1863 114.149 82.045 113.488C80.9143 112.827 80.0183 111.931 79.357 110.8C78.6957 109.659 78.365 108.379 78.365 106.96V98C78.365 96.5813 78.6957 95.3067 79.357 94.176C80.0183 93.0347 80.9143 92.1333 82.045 91.472C83.1863 90.8107 84.4663 90.48 85.885 90.48C87.3037 90.48 88.5783 90.8107 89.709 91.472C90.8503 92.1333 91.7517 93.0347 92.413 94.176C93.0743 95.3067 93.405 96.5813 93.405 98V106.96C93.405 108.379 93.0743 109.659 92.413 110.8C91.7517 111.931 90.8503 112.827 89.709 113.488C88.5783 114.149 87.3037 114.48 85.885 114.48ZM85.885 112.208C86.8343 112.208 87.6983 111.979 88.477 111.52C89.2557 111.051 89.8743 110.427 90.333 109.648C90.7917 108.869 91.021 108.011 91.021 107.072V97.888C91.021 96.9387 90.7917 96.0747 90.333 95.296C89.8743 94.5173 89.2557 93.8987 88.477 93.44C87.6983 92.9707 86.8343 92.736 85.885 92.736C84.9357 92.736 84.0717 92.9707 83.293 93.44C82.5143 93.8987 81.8957 94.5173 81.437 95.296C80.9783 96.0747 80.749 96.9387 80.749 97.888V107.072C80.749 108.011 80.9783 108.869 81.437 109.648C81.8957 110.427 82.5143 111.051 83.293 111.52C84.0717 111.979 84.9357 112.208 85.885 112.208ZM105.416 114.48C103.998 114.48 102.718 114.149 101.576 113.488C100.446 112.827 99.5496 111.931 98.8883 110.8C98.2269 109.659 97.8963 108.379 97.8963 106.96V98C97.8963 96.5813 98.2269 95.3067 98.8883 94.176C99.5496 93.0347 100.446 92.1333 101.576 91.472C102.718 90.8107 103.998 90.48 105.416 90.48C106.835 90.48 108.11 90.8107 109.24 91.472C110.382 92.1333 111.283 93.0347 111.944 94.176C112.606 95.3067 112.936 96.5813 112.936 98V106.96C112.936 108.379 112.606 109.659 111.944 110.8C111.283 111.931 110.382 112.827 109.24 113.488C108.11 114.149 106.835 114.48 105.416 114.48ZM105.416 112.208C106.366 112.208 107.23 111.979 108.008 111.52C108.787 111.051 109.406 110.427 109.864 109.648C110.323 108.869 110.552 108.011 110.552 107.072V97.888C110.552 96.9387 110.323 96.0747 109.864 95.296C109.406 94.5173 108.787 93.8987 108.008 93.44C107.23 92.9707 106.366 92.736 105.416 92.736C104.467 92.736 103.603 92.9707 102.824 93.44C102.046 93.8987 101.427 94.5173 100.968 95.296C100.51 96.0747 100.28 96.9387 100.28 97.888V107.072C100.28 108.011 100.51 108.869 100.968 109.648C101.427 110.427 102.046 111.051 102.824 111.52C103.603 111.979 104.467 112.208 105.416 112.208ZM129.962 114V93.216H121.914V90.96H140.362V93.216H132.314V114H129.962ZM147.581 114.48C145.864 114.48 144.397 114.091 143.181 113.312C141.965 112.533 141.032 111.456 140.381 110.08C139.73 108.704 139.405 107.125 139.405 105.344C139.405 103.531 139.736 101.941 140.397 100.576C141.058 99.2107 141.997 98.1493 143.213 97.392C144.44 96.624 145.896 96.24 147.581 96.24C149.309 96.24 150.781 96.6293 151.997 97.408C153.224 98.176 154.157 99.248 154.797 100.624C155.448 101.989 155.773 103.563 155.773 105.344C155.773 107.157 155.448 108.752 154.797 110.128C154.146 111.493 153.208 112.56 151.981 113.328C150.754 114.096 149.288 114.48 147.581 114.48ZM147.581 112.224C149.501 112.224 150.93 111.589 151.869 110.32C152.808 109.04 153.277 107.381 153.277 105.344C153.277 103.253 152.802 101.589 151.853 100.352C150.914 99.1147 149.49 98.496 147.581 98.496C146.29 98.496 145.224 98.7893 144.381 99.376C143.549 99.952 142.925 100.757 142.509 101.792C142.104 102.816 141.901 104 141.901 105.344C141.901 107.424 142.381 109.093 143.341 110.352C144.301 111.6 145.714 112.224 147.581 112.224ZM168.711 114C167.74 114.203 166.78 114.283 165.831 114.24C164.892 114.197 164.049 113.995 163.303 113.632C162.567 113.269 162.007 112.704 161.623 111.936C161.313 111.296 161.143 110.651 161.111 110C161.089 109.339 161.079 108.587 161.079 107.744V91.92H163.415V107.648C163.415 108.373 163.42 108.981 163.431 109.472C163.452 109.952 163.564 110.379 163.767 110.752C164.151 111.467 164.759 111.893 165.591 112.032C166.433 112.171 167.473 112.139 168.711 111.936V114ZM157.383 98.736V96.72H168.711V98.736H157.383ZM177.059 114.48C175.758 114.48 174.664 114.245 173.779 113.776C172.904 113.307 172.248 112.683 171.811 111.904C171.374 111.125 171.155 110.277 171.155 109.36C171.155 108.421 171.342 107.621 171.715 106.96C172.099 106.288 172.616 105.739 173.267 105.312C173.928 104.885 174.691 104.56 175.555 104.336C176.43 104.123 177.395 103.936 178.451 103.776C179.518 103.605 180.558 103.461 181.571 103.344C182.595 103.216 183.491 103.093 184.259 102.976L183.427 103.488C183.459 101.781 183.128 100.517 182.435 99.696C181.742 98.8747 180.536 98.464 178.819 98.464C177.635 98.464 176.632 98.7307 175.811 99.264C175 99.7973 174.43 100.64 174.099 101.792L171.811 101.12C172.206 99.5733 173 98.3733 174.195 97.52C175.39 96.6667 176.942 96.24 178.851 96.24C180.43 96.24 181.768 96.5387 182.867 97.136C183.976 97.7227 184.76 98.576 185.219 99.696C185.432 100.197 185.571 100.757 185.635 101.376C185.699 101.995 185.731 102.624 185.731 103.264V114H183.635V109.664L184.243 109.92C183.656 111.403 182.744 112.533 181.507 113.312C180.27 114.091 178.787 114.48 177.059 114.48ZM177.331 112.448C178.43 112.448 179.39 112.251 180.211 111.856C181.032 111.461 181.694 110.923 182.195 110.24C182.696 109.547 183.022 108.768 183.171 107.904C183.299 107.349 183.368 106.741 183.379 106.08C183.39 105.408 183.395 104.907 183.395 104.576L184.291 105.04C183.491 105.147 182.622 105.253 181.683 105.36C180.755 105.467 179.838 105.589 178.931 105.728C178.035 105.867 177.224 106.032 176.499 106.224C176.008 106.363 175.534 106.56 175.075 106.816C174.616 107.061 174.238 107.392 173.939 107.808C173.651 108.224 173.507 108.741 173.507 109.36C173.507 109.861 173.63 110.347 173.875 110.816C174.131 111.285 174.536 111.675 175.091 111.984C175.656 112.293 176.403 112.448 177.331 112.448ZM190.216 114V90.48H192.568V114H190.216ZM198.965 114V111.36H201.317V114H198.965ZM198.965 108.24V90.96H201.317V108.24H198.965ZM208.276 119.744L206.548 118.368C207.775 116.939 208.799 115.408 209.62 113.776C210.452 112.133 211.076 110.443 211.492 108.704C211.919 106.955 212.138 105.2 212.148 103.44C212.138 101.659 211.924 99.904 211.508 98.176C211.103 96.448 210.484 94.7733 209.652 93.152C208.82 91.52 207.786 89.9627 206.548 88.48L208.276 87.136C209.535 88.576 210.612 90.1813 211.508 91.952C212.415 93.7227 213.108 95.5893 213.588 97.552C214.079 99.504 214.319 101.467 214.308 103.44C214.319 105.413 214.079 107.376 213.588 109.328C213.108 111.28 212.415 113.141 211.508 114.912C210.612 116.693 209.535 118.304 208.276 119.744Z" fill="black"></path></svg>